<svg id="about_txt" xmlns="http://www.w3.org/2000/svg" width="77.5" height="479.44" viewBox="0 0 77.5 479.44">
  <defs>
    <style>
      .cls-1 {
        fill: #100d0d;
        fill-rule: evenodd;
      }
    </style>
  </defs>
  <path id="明治神宮は明治天皇と昭憲皇太后をおまつりする神社で_初詣は例年日本一の参拝者数を集める_神社としても知られます_" data-name="明治神宮は明治天皇と昭憲皇太后をおまつりする神社で、 初詣は例年日本一の参拝者数を集める 神社としても知られます。" class="cls-1" d="M1160.33,1038.43a2.742,2.742,0,0,1-.7.24c-1.4.31-2.68,0.54-3.83,0.7a3.7,3.7,0,0,0-1.25-.39q-0.39-.075-0.15.15a1.457,1.457,0,0,1,.7.94c0.05,0.37.08,1.36,0.08,2.97a19.858,19.858,0,0,1-.7,5.7,13.02,13.02,0,0,1-2.58,4.46c-0.11.2-.06,0.26,0.15,0.15a13.47,13.47,0,0,0,2.27-2.57,11.594,11.594,0,0,0,1.48-3.83c1.04-.05,2.58-0.21,4.61-0.47,0.05,1.82.08,3.62,0.08,5.39,0,0.26-.16.34-0.47,0.23q-0.93-.225-1.95-0.54c-0.21-.11-0.26-0.05-0.16.15,0.68,0.42,1.33.81,1.96,1.17a1.5,1.5,0,0,1,.54.71c0.11,0.31.26,0.36,0.47,0.15a8.176,8.176,0,0,0,.7-1.25,5.62,5.62,0,0,1-.15-1.32c-0.16-3.34-.18-6.9-0.08-10.71a1.31,1.31,0,0,1,.23-0.78,0.254,0.254,0,0,0,0-.47,8.041,8.041,0,0,0-1.25-.78h0Zm0.08,4.45v2.9c-1.14.2-2.65,0.39-4.53,0.54a22.014,22.014,0,0,0,.16-2.73,22.478,22.478,0,0,1,4.37-.71h0Zm-0.39-3.59a0.317,0.317,0,0,1,.39.31v2.66a1.754,1.754,0,0,0-.54-0.08c-0.27.05-.71,0.16-1.33,0.31-0.78.16-1.62,0.29-2.5,0.39v-2.96h0.47c1.19-.21,2.37-0.42,3.51-0.63h0Zm-8.2,4.45v2.82h-0.39c-0.89.21-1.8,0.41-2.74,0.62,0-.99-0.02-1.98-0.07-2.97a0.782,0.782,0,0,0,.7,0c0.62-.15,1.46-0.31,2.5-0.47h0Zm-0.08-4.21a4.437,4.437,0,0,1-.62.31c-0.89.21-1.8,0.39-2.74,0.54a5.215,5.215,0,0,0-.86-0.39c-0.21-.1-0.26-0.05-0.15.16a1.013,1.013,0,0,1,.31.55,3.869,3.869,0,0,1,.15,1.17q0.09,2.58,0,5.55c0,0.88.19,1.32,0.55,1.32,0.26-.05.37-0.39,0.31-1.01,0.99-.21,1.98-0.39,2.97-0.55a3.247,3.247,0,0,0,.47.31,0.34,0.34,0,0,0,.47-0.07,2.605,2.605,0,0,0,.08-1.1c-0.05-3.54.02-5.41,0.23-5.62a0.346,0.346,0,0,0-.08-0.55,3.913,3.913,0,0,0-1.09-.62h0Zm-0.31.78a0.313,0.313,0,0,1,.39.31v2.5c-1.04.21-2.11,0.42-3.2,0.62v-2.81a23.753,23.753,0,0,1,2.81-.62h0Zm-0.94,25.49c-0.94,1.67-1.9,3.2-2.89,4.61a0.443,0.443,0,0,1-.7-0.08c-0.32-.26-0.42-0.2-0.32.16a3.428,3.428,0,0,0,.71,1.09,3.869,3.869,0,0,0,.54.47c0.37,0.31.58,0.24,0.63-.23a3.48,3.48,0,0,1,.31-1.17c0.68-1.51,1.3-3.08,1.88-4.69,0.05-.26,0-0.31-0.16-0.16h0Zm5.86-8.44c-0.36-.05-0.39.08-0.08,0.39a0.786,0.786,0,0,1,.24.94,38.012,38.012,0,0,1-2.82,4.77c-0.15.05-.34,0.1-0.54,0.15-0.21,0-.24.39-0.08,1.18,0.1,0.2.31,0.2,0.62,0a3.554,3.554,0,0,1,1.1-.47,32.894,32.894,0,0,1,6.33-1.25c0.15,0.31.31,0.62,0.46,0.93,0.42,0.53.73,0.47,0.94-.15a3.506,3.506,0,0,0-.7-1.56,15.479,15.479,0,0,0-2.19-1.72c-0.15-.11-0.21-0.08-0.15.08a13.373,13.373,0,0,1,1.32,1.87,50.638,50.638,0,0,0-6.48,1.02c1.14-1.46,2.24-2.95,3.28-4.46a2.792,2.792,0,0,1,.39-0.31c0.16-.1.13-0.29-0.08-0.55a4.775,4.775,0,0,0-1.56-.86h0Zm3.91,9.93c0.31,0,.47.1,0.47,0.31l-0.4,3.05a32.483,32.483,0,0,0-5.31.31,12.25,12.25,0,0,0-.23-3.05,41.261,41.261,0,0,1,5.47-.62h0Zm0.78-.86c-0.11.05-.26,0.13-0.47,0.23q-3.12.24-5.94,0.63a10.277,10.277,0,0,0-1.01-.39c-0.27-.11-0.34-0.03-0.24.23a3.608,3.608,0,0,1,.63,1.33,8.871,8.871,0,0,1,.15,2.81,1.6,1.6,0,0,0,.32.7,0.3,0.3,0,0,0,.54-0.07,0.721,0.721,0,0,0,.08-0.24,24.43,24.43,0,0,1,5.08-.39,0.313,0.313,0,0,0,.31.39,0.6,0.6,0,0,0,.7-0.55l0.63-2.89a0.82,0.82,0,0,1,.31-0.39c0.21-.15.21-0.36,0-0.62a3.522,3.522,0,0,0-1.09-.78h0Zm-12.27-8.83c-0.31-.11-0.39-0.03-0.23.23a10.539,10.539,0,0,0,1.48,1.72,1.78,1.78,0,0,0,.94.55c0.21,0,.31-0.16.31-0.47a1.61,1.61,0,0,0-.47-1.02,4.092,4.092,0,0,1-2.03-1.01h0Zm-1.4,4.22c-0.32-.21-0.39-0.16-0.24.15a6.143,6.143,0,0,0,1.49,1.57,1.3,1.3,0,0,0,.93.23c0.42-.31.26-0.75-0.47-1.33a3.624,3.624,0,0,1-1.71-.62h0Zm10.07,18.17v1.95l-1.95.32h-0.55c-0.1-1.1-.15-1.75-0.15-1.96Zm-0.86-4.14q-0.3.075,0,.24a4.49,4.49,0,0,1,.63.46,0.8,0.8,0,0,1,.16.55v2.34l-2.82.32a1.865,1.865,0,0,0-1.09-.39c-0.21,0-.26.07-0.16,0.23a0.91,0.91,0,0,1,.55.63c0.16,1.82.23,3.15,0.23,3.98a2.287,2.287,0,0,0,.71,1.88,0.6,0.6,0,0,0,.47-0.55l2.18-.24v5.79a0.846,0.846,0,0,0,.39.78c0.21,0,.34-0.29.4-0.86v-1.64c0-.99.02-2.4,0.07-4.22,0.73-.05,1.41-0.08,2.03-0.08a1.091,1.091,0,0,0,.63.55,0.636,0.636,0,0,0,.47-0.39c0.05-.32.15-0.91,0.31-1.8,0.16-.94.31-1.98,0.47-3.13a0.446,0.446,0,0,1,.16-0.31c0.26-.1.15-0.36-0.32-0.78a2.538,2.538,0,0,0-.62-0.47,0.413,0.413,0,0,0-.31.16l-2.74.39v-2.03a0.87,0.87,0,0,1,.08-0.39c0.21-.26.1-0.52-0.31-0.78a2.231,2.231,0,0,0-1.57-.24h0Zm4.22,3.75a0.283,0.283,0,0,1,.32.31l-0.08,1.8a1.486,1.486,0,0,0-.86-0.31,8.044,8.044,0,0,1-1.8.39v-1.95Zm-1.09,2.66h1.25c-0.05.62-.11,1.33-0.16,2.11a1.708,1.708,0,0,1-.54-0.08l-0.39.15-1.57.16,0.08-2.19Zm-2.27.31v2.19l-2.26.23-0.16-2.19h0.47Zm-5.78-2.97c-0.21-.05-0.31,0-0.31.16a4.188,4.188,0,0,1-1.02.39c-0.93.21-1.82,0.36-2.65,0.47a0.9,0.9,0,0,1-.78-0.32c-0.16-.1-0.24-0.07-0.24.08a0.926,0.926,0,0,0,.24.47,2.009,2.009,0,0,0,1.01.63c0.84-.32,1.83-0.65,2.97-1.02a0.218,0.218,0,0,1,.24.31,26.385,26.385,0,0,1-2.27,3.52,15.709,15.709,0,0,1-2.58,2.58c-0.1.15-.05,0.21,0.16,0.15a15.21,15.21,0,0,0,1.56-1.25c0.31-.26.94-0.86,1.88-1.79l0.15,0.15v2.27a16.827,16.827,0,0,1-.15,2.42c-0.06.31-.11,0.6-0.16,0.86a4.27,4.27,0,0,0,.55,1.64c0.2,0.21.36,0.16,0.47-.16a6.957,6.957,0,0,0,.07-1.09v-6.64c0.16-.1.11-0.24-0.15-0.39a25.137,25.137,0,0,0,1.64-2.27,0.632,0.632,0,0,0,.39-0.39q-0.315-.225-1.02-0.78h0Zm-2.34-3.67c-0.16-.1-0.21-0.05-0.16.16a5.416,5.416,0,0,0,2.19,2.26c0.47,0.16.65-.08,0.55-0.7a0.96,0.96,0,0,0-.55-0.63,8.148,8.148,0,0,1-2.03-1.09h0Zm2.19,7.19c-0.16-.05-0.21,0-0.16.15,0.63,0.84,1.15,1.54,1.56,2.11a0.511,0.511,0,0,0,.55.24c0.16-.05.21-0.24,0.16-0.55a2.69,2.69,0,0,0-.39-0.94,1.821,1.821,0,0,0-.63-0.47,3.461,3.461,0,0,1-1.09-.54h0Zm2.11,11.53c-0.21,0-.24.08-0.08,0.23a1.086,1.086,0,0,1,.62.79v1.32l-3.9.39h-1.18l-0.23-.78c-0.16-.15-0.23-0.13-0.23.08a6.119,6.119,0,0,1-.08,1.1,3.655,3.655,0,0,1-1.02,1.48,1.507,1.507,0,0,0,.31,1.25,0.544,0.544,0,0,0,.71-0.39,3.775,3.775,0,0,0,.62-2.11h0.86c1.56-.16,3.1-0.34,4.61-0.55,1.67-.15,3.52-0.23,5.55-0.23,0.41,0.05.49,0.21,0.23,0.47l-0.93,1.4c-0.11.21-.06,0.26,0.15,0.16l1.56-1.02a1.453,1.453,0,0,1,.94-0.15,0.218,0.218,0,0,0,.24-0.31,3.032,3.032,0,0,0-1.33-1.41h-0.31q-2.19.24-5.63,0.55v-0.86a0.457,0.457,0,0,1,.23-0.39c0.16-.11.11-0.29-0.15-0.55a2.769,2.769,0,0,0-1.56-.47h0Zm3.82,4.45a6.389,6.389,0,0,0-1.32.39c-1.25.16-2.09,0.27-2.5,0.32s-0.97.1-1.64,0.15a6.024,6.024,0,0,0-.94-0.31c-0.21-.1-0.26-0.05-0.16.16a3.03,3.03,0,0,1,.55.93l0.23,2.11a1.189,1.189,0,0,0,.47.78c0.16,0.11.29,0.03,0.39-.23l0.86-.08a0.937,0.937,0,0,1,.24.71,13.857,13.857,0,0,1-.47,1.64l-2.11.15a2.33,2.33,0,0,0-1.17-.31c-0.21,0-.21.08,0,0.23a1.4,1.4,0,0,1,.62.86l0.55,3.36c0.21,0.42.41,0.52,0.62,0.32a1.069,1.069,0,0,0,.24-0.4c1.3-.2,2.24-0.33,2.81-0.39,0.52-.05,1.14-0.07,1.87-0.07a5.629,5.629,0,0,1,.94.15,0.378,0.378,0,0,0,.39-0.08,1.085,1.085,0,0,0,.08-0.46l0.86-2.35a0.821,0.821,0,0,1,.39-0.31c0.21-.16.16-0.39-0.16-0.7a3.409,3.409,0,0,0-.85-0.63,6.239,6.239,0,0,0-1.25.16l-3.36.39c0.41-.63.7-1.1,0.86-1.41l0.39-.39a0.2,0.2,0,0,0,0-.31,1.82,1.82,0,0,0-.47-0.31l1.72-.39a1.176,1.176,0,0,0,.62.31,0.3,0.3,0,0,0,.31-0.16,2.268,2.268,0,0,0,.16-0.47c0.31-.67.6-1.35,0.86-2.03a0.906,0.906,0,0,1,.31-0.31c0.16-.1.05-0.29-0.31-0.55a2.576,2.576,0,0,0-.63-0.47h0Zm0,6.64c0.32,0,.45.11,0.39,0.32l-0.54,2.73-0.63-.08c-1.66.21-3.31,0.39-4.92,0.55l-0.47-2.81c1.46-.11,3.52-0.34,6.17-0.71h0Zm-0.62-5.86c0.21,0,.28.14,0.23,0.4a15.918,15.918,0,0,1-.54,1.95,1.113,1.113,0,0,1-.47-0.16,3.411,3.411,0,0,1-.55.24,18.1,18.1,0,0,1-2.97.47l-0.39-2.27,0.94-.08,3.12-.47Zm1.25,25.96a13.82,13.82,0,0,0-3.75-.71,2.025,2.025,0,0,0-.86.47,1.526,1.526,0,0,0-.7,1.18,1.1,1.1,0,0,0,.62.93,3.246,3.246,0,0,0,1.72.39,7.821,7.821,0,0,0,1.48-.15,3.441,3.441,0,0,0,2.11-1.02c0.58,0.31,1.33.73,2.27,1.25a0.714,0.714,0,0,0,.31.08c0.21,0,.31-0.08.31-0.23a1.487,1.487,0,0,0-.07-0.47,2.312,2.312,0,0,0-.86-0.78c-0.58-.26-1.15-0.5-1.72-0.71-0.11-2.24-.16-4.55-0.16-6.95l1.49-.31c0.62-.11.8-0.29,0.54-0.55a1.854,1.854,0,0,0-.78-0.31,1.4,1.4,0,0,0-.62.23l-0.55.16v-1.88a1.331,1.331,0,0,1,.16-0.62c0.1-.11.13-0.18,0.07-0.24a2.549,2.549,0,0,0-1.56-.7c-0.15,0-.18.05-0.08,0.16a1.286,1.286,0,0,1,.63,1.17v2.34a33.737,33.737,0,0,1-3.67.78,0.755,0.755,0,0,0-.63.16,0.1,0.1,0,0,0,0,.16,2.529,2.529,0,0,0,.86.31,8.563,8.563,0,0,0,.86-0.16q0.24-.075,2.58-0.54v6.56Zm-8.36-7.66q0.24-.855.39-1.56a2.878,2.878,0,0,0-1.09-1.49c-0.21-.1-0.26-0.05-0.16.16a2.149,2.149,0,0,1,.31,1.33,19.273,19.273,0,0,1-.39,2.58,28.665,28.665,0,0,0-.54,5.23,12.077,12.077,0,0,0,.31,3.36c0.31,0.94.6,1.41,0.86,1.41a0.831,0.831,0,0,0,.23-0.78,4.662,4.662,0,0,1,.08-1.1,17.079,17.079,0,0,1,.86-1.87c0.1-.21.05-0.24-0.16-0.08-0.41.57-.73,0.99-0.93,1.25-0.16.16-.29,0.16-0.4,0a5.245,5.245,0,0,1-.23-1.72,25.223,25.223,0,0,1,.16-3.05,27.971,27.971,0,0,1,.7-3.67h0Zm4.53,7.5a5.213,5.213,0,0,1,1.33.16,15.709,15.709,0,0,1,2.26.78,3.011,3.011,0,0,1-1.48.78,6.056,6.056,0,0,1-1.64.23,2.39,2.39,0,0,1-.86-0.15,1.173,1.173,0,0,1-.7-0.63,0.62,0.62,0,0,1,.23-0.7,2,2,0,0,1,.86-0.47h0Zm6.09,7.75a2.742,2.742,0,0,1-.7.24c-1.4.31-2.68,0.54-3.83,0.7a3.7,3.7,0,0,0-1.25-.39q-0.39-.075-0.15.15a1.457,1.457,0,0,1,.7.94c0.05,0.37.08,1.36,0.08,2.97a19.858,19.858,0,0,1-.7,5.7,13.02,13.02,0,0,1-2.58,4.46c-0.11.2-.06,0.26,0.15,0.15a13.47,13.47,0,0,0,2.27-2.57,11.594,11.594,0,0,0,1.48-3.83c1.04-.05,2.58-0.21,4.61-0.47,0.05,1.82.08,3.62,0.08,5.39,0,0.26-.16.34-0.47,0.23q-0.93-.225-1.95-0.54c-0.21-.11-0.26-0.05-0.16.15,0.68,0.42,1.33.81,1.96,1.17a1.5,1.5,0,0,1,.54.71c0.11,0.31.26,0.36,0.47,0.15a8.176,8.176,0,0,0,.7-1.25,5.62,5.62,0,0,1-.15-1.32c-0.16-3.34-.18-6.9-0.08-10.71a1.31,1.31,0,0,1,.23-0.78,0.254,0.254,0,0,0,0-.47,8.041,8.041,0,0,0-1.25-.78h0Zm0.08,4.45v2.9c-1.14.2-2.65,0.39-4.53,0.54a22.014,22.014,0,0,0,.16-2.73,22.478,22.478,0,0,1,4.37-.71h0Zm-0.39-3.59a0.317,0.317,0,0,1,.39.31v2.66a1.754,1.754,0,0,0-.54-0.08c-0.27.05-.71,0.16-1.33,0.31-0.78.16-1.62,0.29-2.5,0.39v-2.96h0.47c1.19-.21,2.37-0.42,3.51-0.63h0Zm-8.2,4.45v2.82h-0.39c-0.89.21-1.8,0.41-2.74,0.62,0-.99-0.02-1.98-0.07-2.97a0.782,0.782,0,0,0,.7,0c0.62-.15,1.46-0.31,2.5-0.47h0Zm-0.08-4.21a4.437,4.437,0,0,1-.62.31c-0.89.21-1.8,0.39-2.74,0.54a5.215,5.215,0,0,0-.86-0.39c-0.21-.1-0.26-0.05-0.15.16a1.013,1.013,0,0,1,.31.55,3.869,3.869,0,0,1,.15,1.17q0.09,2.58,0,5.55c0,0.88.19,1.32,0.55,1.32,0.26-.05.37-0.39,0.31-1.01,0.99-.21,1.98-0.39,2.97-0.55a3.247,3.247,0,0,0,.47.31,0.34,0.34,0,0,0,.47-0.07,2.605,2.605,0,0,0,.08-1.1c-0.05-3.54.02-5.41,0.23-5.62a0.346,0.346,0,0,0-.08-0.55,3.913,3.913,0,0,0-1.09-.62h0Zm-0.31.78a0.313,0.313,0,0,1,.39.31v2.5c-1.04.21-2.11,0.42-3.2,0.62v-2.81a23.753,23.753,0,0,1,2.81-.62h0Zm-0.94,25.49c-0.94,1.67-1.9,3.2-2.89,4.61a0.443,0.443,0,0,1-.7-0.08c-0.32-.26-0.42-0.2-0.32.16a3.428,3.428,0,0,0,.71,1.09,3.869,3.869,0,0,0,.54.47c0.37,0.31.58,0.24,0.63-.23a3.48,3.48,0,0,1,.31-1.17c0.68-1.51,1.3-3.08,1.88-4.69,0.05-.26,0-0.31-0.16-0.16h0Zm5.86-8.44c-0.36-.05-0.39.08-0.08,0.39a0.786,0.786,0,0,1,.24.94,38.012,38.012,0,0,1-2.82,4.77c-0.15.05-.34,0.1-0.54,0.15-0.21,0-.24.39-0.08,1.18,0.1,0.2.31,0.2,0.62,0a3.554,3.554,0,0,1,1.1-.47,32.894,32.894,0,0,1,6.33-1.25c0.15,0.31.31,0.62,0.46,0.93,0.42,0.53.73,0.47,0.94-.15a3.506,3.506,0,0,0-.7-1.56,15.479,15.479,0,0,0-2.19-1.72c-0.15-.11-0.21-0.08-0.15.08a13.373,13.373,0,0,1,1.32,1.87,50.638,50.638,0,0,0-6.48,1.02c1.14-1.46,2.24-2.95,3.28-4.46a2.792,2.792,0,0,1,.39-0.31c0.16-.1.13-0.29-0.08-0.55a4.775,4.775,0,0,0-1.56-.86h0Zm3.91,9.93c0.31,0,.47.1,0.47,0.31l-0.4,3.05a32.483,32.483,0,0,0-5.31.31,12.25,12.25,0,0,0-.23-3.05,41.261,41.261,0,0,1,5.47-.62h0Zm0.78-.86c-0.11.05-.26,0.13-0.47,0.23q-3.12.24-5.94,0.63a10.277,10.277,0,0,0-1.01-.39c-0.27-.11-0.34-0.03-0.24.23a3.608,3.608,0,0,1,.63,1.33,8.871,8.871,0,0,1,.15,2.81,1.6,1.6,0,0,0,.32.7,0.3,0.3,0,0,0,.54-0.07,0.721,0.721,0,0,0,.08-0.24,24.43,24.43,0,0,1,5.08-.39,0.313,0.313,0,0,0,.31.39,0.6,0.6,0,0,0,.7-0.55l0.63-2.89a0.82,0.82,0,0,1,.31-0.39c0.21-.15.21-0.36,0-0.62a3.522,3.522,0,0,0-1.09-.78h0Zm-12.27-8.83c-0.31-.11-0.39-0.03-0.23.23a10.539,10.539,0,0,0,1.48,1.72,1.78,1.78,0,0,0,.94.55c0.21,0,.31-0.16.31-0.47a1.61,1.61,0,0,0-.47-1.02,4.092,4.092,0,0,1-2.03-1.01h0Zm-1.4,4.22c-0.32-.21-0.39-0.16-0.24.15a6.143,6.143,0,0,0,1.49,1.57,1.3,1.3,0,0,0,.93.23c0.42-.31.26-0.75-0.47-1.33a3.624,3.624,0,0,1-1.71-.62h0Zm11.64,15.39a7.872,7.872,0,0,1-1.02.32c-0.68,0-1.56.05-2.66,0.15s-2.94.34-5.54,0.7a2.515,2.515,0,0,1-1.1.08,1.922,1.922,0,0,1-.78-0.47c-0.26-.15-0.34-0.1-0.23.16a1.886,1.886,0,0,0,1.48,1.41,15.707,15.707,0,0,1,4.14-.86,4.585,4.585,0,0,1,.47.78,12.567,12.567,0,0,1,0,1.95,2.5,2.5,0,0,1-.08.7c-1.14.16-2.29,0.32-3.43,0.47a2.367,2.367,0,0,1-1.18-.15c-0.1-.05-0.15-0.03-0.15.08a4.58,4.58,0,0,0,.7.7,7.123,7.123,0,0,1,.63.47c0.26-.11.54-0.21,0.86-0.32a15.415,15.415,0,0,1,2.5-.54,10.268,10.268,0,0,1-2.89,5.15,12.233,12.233,0,0,1-3.68,2.43c-0.05.05-.02,0.1,0.08,0.15a9.95,9.95,0,0,0,7.42-7.34,46.6,46.6,0,0,1,2.97,4.3c0.47,0.67.94,1.35,1.41,2.03a1.607,1.607,0,0,0,.86.78c0.73,0.05,1.59.13,2.58,0.23,0.93,0,1.09-.15.46-0.47a12.312,12.312,0,0,1-3.12-2.03q-2.43-2.34-5.08-5.15v-0.24c1.3-.1,2.87-0.15,4.69-0.15,0.57-.06.65-0.26,0.23-0.63a12.369,12.369,0,0,0-1.72-.47,2.03,2.03,0,0,1-.46.24c-0.89.1-1.78,0.2-2.66,0.31v-1.8a1.7,1.7,0,0,1,.16-0.62c0.1-.16.02-0.34-0.24-0.55-0.15-.1-0.36-0.23-0.62-0.39a29.513,29.513,0,0,1,3.59-.31q1.17,0,2.97.15c0.52-.1.62-0.34,0.31-0.7a10.116,10.116,0,0,0-1.87-.55h0Zm-0.78,20.72a0.448,0.448,0,0,1,.46.55l-0.15,1.01q-2.82.09-7.89,0.55c-0.11-.57-0.21-1.07-0.32-1.48a51.169,51.169,0,0,1,7.9-.63h0Zm-0.08,3.91a53.57,53.57,0,0,0-7.11.47c-0.11-.68-0.19-1.23-0.24-1.64a66.223,66.223,0,0,1,7.66-.55Zm-0.16,1.79a3.994,3.994,0,0,0-.7.16q-3.75.315-6.17,0.39a3.1,3.1,0,0,1-.94-0.23c-0.21-.11-0.26-0.05-0.16.15a1.894,1.894,0,0,0,1.8.78,8.366,8.366,0,0,1,2.26-.23v1.8c-0.52.05-1.06,0.1-1.64,0.15a12.188,12.188,0,0,1-1.4.08,1.234,1.234,0,0,1-.78-0.31c-0.21-.16-0.26-0.1-0.16.16a1.354,1.354,0,0,0,1.17.78c0.26,0,.63-0.03,1.1-0.08s1.04-.11,1.71-0.16v1.8c-2.55.21-4.32,0.39-5.31,0.55a2.7,2.7,0,0,1-1.17-.08c-0.1-.05-0.29-0.16-0.55-0.31q-0.315-.165-0.15.15a3.02,3.02,0,0,0,1.48,1.25c0.47-.15.91-0.29,1.33-0.39a43.234,43.234,0,0,1,4.92-.55,46.927,46.927,0,0,1,6.1.24,4.1,4.1,0,0,0,1.25.08c0.26-.11.26-0.29,0-0.55a3.382,3.382,0,0,0-1.49-.55,6.554,6.554,0,0,1-.94.16q-2.34-.075-4.68,0l0.07-1.88c0.68-.05,1.49-0.07,2.43-0.07,0.2,0,.65.02,1.32,0.07,0.47-.1.58-0.26,0.32-0.46a1.772,1.772,0,0,0-.94-0.4c-0.31.06-.6,0.11-0.86,0.16-0.37,0-1.12.03-2.27,0.08a3.731,3.731,0,0,1,.16-1.25,0.43,0.43,0,0,0-.16-0.55q2.5-.15,3.99-0.15,0.54-.09.15-0.39a2.154,2.154,0,0,0-1.09-.4h0Zm-4.37-9.29c-0.32,0-.34.1-0.08,0.31a0.476,0.476,0,0,1,.23.7,11.167,11.167,0,0,1-2.34,2.43c-0.31.05-.76,0.1-1.33,0.15a4.481,4.481,0,0,0-1.17-.31c-0.21,0-.24.08-0.08,0.23a1.137,1.137,0,0,1,.7.71,11.493,11.493,0,0,1,.47,3.59,3.152,3.152,0,0,0,.39.78,0.957,0.957,0,0,0,.47.47c0.16,0,.24-0.16.24-0.47a39.365,39.365,0,0,1,6.87-.47q0,0.39.24,0.39a0.544,0.544,0,0,0,.62-0.54l0.94-3.52a0.555,0.555,0,0,1,.23-0.39c0.26-.16.24-0.34-0.08-0.55a3.452,3.452,0,0,0-.93-0.62,0.545,0.545,0,0,0-.47.08q-1.65,0-6.25.39,1.1-.78,2.34-1.8a1.161,1.161,0,0,1,.47-0.31c0.31-.11.34-0.29,0.08-0.55a3.109,3.109,0,0,0-1.56-.7h0Zm4.37,24.39a5.309,5.309,0,0,1,1.49-.63c0.36-.1.44-0.28,0.23-0.54a1.6,1.6,0,0,0-.94-0.47,5.054,5.054,0,0,0-1.17-.08c-0.16.05-.16,0.13,0,0.23,0.47,0.06.65,0.13,0.55,0.24-2.14,1.61-3.75,2.86-4.85,3.75a51.078,51.078,0,0,1-1.72-5.78,2.954,2.954,0,0,0-.93-0.32,3.95,3.95,0,0,0-.86-0.07c-0.16.05-.16,0.13,0,0.23a1.255,1.255,0,0,1,.94.7q0.54,1.485,2.1,5.63a11.876,11.876,0,0,0-2.18,2.26,3.032,3.032,0,0,0-.63,1.8,2.339,2.339,0,0,0,.71,1.72c0.72,0.73,2.42,1.09,5.07,1.09a28.325,28.325,0,0,0,3.36-.15c0.73-.11.91-0.31,0.55-0.63a1.663,1.663,0,0,0-1.17-.47,11.337,11.337,0,0,1-3.75.39,9,9,0,0,1-3.52-.46,1.309,1.309,0,0,1-.78-1.25,4.264,4.264,0,0,1,1.8-3.05,59.138,59.138,0,0,1,5.7-4.14h0Zm2.19,24.22c0.21,0,.31.15,0.31,0.47a10.905,10.905,0,0,1-.55,2.96c-1.56.16-3.1,0.34-4.61,0.55l-0.46-3.2q3.045-.555,5.31-0.78h0Zm1.56,0.23-0.86-.86a0.536,0.536,0,0,0-.78-0.08,38.422,38.422,0,0,1-5.39.86c-0.26-.05-0.57-0.1-0.94-0.15-0.31-.05-0.36.05-0.15,0.31a3.166,3.166,0,0,1,.54,1.25c0.11,0.68.21,1.35,0.32,2.03a5.664,5.664,0,0,0,.07,1.02,0.582,0.582,0,0,0,.55.46c0.21,0,.31-0.15.31-0.46q2.43-.315,4.38-0.39c0.21,0.31.39,0.41,0.54,0.31a1.174,1.174,0,0,0,.55-0.94,22.866,22.866,0,0,0,.63-2.5,0.953,0.953,0,0,1,.15-0.39,0.343,0.343,0,0,0,.08-0.47h0Zm-0.78-9.69a0.736,0.736,0,0,0-.7.08,52.984,52.984,0,0,1-5.39.94,4.836,4.836,0,0,1-1.57-.24c-0.21-.1-0.26-0.05-0.15.16a2.825,2.825,0,0,0,1.56.94,3.491,3.491,0,0,0,.62-0.08,4.323,4.323,0,0,1,.86-0.23,0.73,0.73,0,0,1,.24.54v0.16a7.7,7.7,0,0,1-.78,2.66,13.79,13.79,0,0,1-2.42,3.35c-0.11.21-.06,0.27,0.15,0.16a16.732,16.732,0,0,0,2.19-2.11,11.387,11.387,0,0,0,1.64-2.81c0.1-.26.21-0.52,0.31-0.78a0.672,0.672,0,0,0-.08-0.71,3.728,3.728,0,0,0-.54-0.7c0.67-.15,1.74-0.36,3.2-0.62,0.47-.05.73,0.05,0.78,0.31a14.157,14.157,0,0,1-1.33,5.23,0.494,0.494,0,0,1-.62.39,16.2,16.2,0,0,0-1.64-.23c-0.11.05-.13,0.1-0.08,0.16a4.339,4.339,0,0,1,1.95,1.48,0.271,0.271,0,0,0,.39,0,10.745,10.745,0,0,0,1.49-3.2c0.26-.89.54-2.03,0.86-3.44a0.475,0.475,0,0,0,.08-0.55,11.6,11.6,0,0,0-1.02-.86h0Zm-9.38,5.86-0.15,3.52-3.13.55v-3.68a14.672,14.672,0,0,1,1.88-.31c0.52-.05.99-0.08,1.4-0.08h0Zm0.08-4.92a0.611,0.611,0,0,0-.78.08,15.4,15.4,0,0,1-2.81.7c-0.16-.05-0.31-0.1-0.47-0.15-0.26-.11-0.31,0-0.16.31a1.473,1.473,0,0,1,.16.7c0,2.09-.03,4.19-0.08,6.33-0.05.36-.1,0.86-0.15,1.48a2.475,2.475,0,0,0,.15,1.1c0.21,0.26.37,0.34,0.47,0.23a5.069,5.069,0,0,0,.31-1.17l3.05-.55a1.057,1.057,0,0,0,.16.94,0.371,0.371,0,0,0,.47,0,1.094,1.094,0,0,0,.39-1.01c-0.06-2.35-.06-4.69,0-7.04a2.884,2.884,0,0,1,.15-0.86,0.945,0.945,0,0,0,0-.54,4.38,4.38,0,0,0-.86-0.55h0Zm-0.47.7a0.345,0.345,0,0,1,.39.39v3.44a1.682,1.682,0,0,0-.85-0.39,2.5,2.5,0,0,0-.79.16,6.591,6.591,0,0,1-1.64.39c0-.99.03-1.95,0.08-2.89-0.05-.16-0.1-0.31-0.15-0.47a2.074,2.074,0,0,0,.62-0.08c0.73-.21,1.51-0.39,2.34-0.55h0Zm2.58,28.32c-0.26-.21-0.36-0.16-0.31.15a2.958,2.958,0,0,0,1.48,1.57c0.37,0.1.47-.03,0.32-0.39a2.331,2.331,0,0,1,.07-1.1c0.11-.36.06-0.44-0.15-0.23-0.11.1-.21,0.21-0.31,0.31a0.958,0.958,0,0,1-1.1-.31h0Zm-2.89.23c-0.21-.15-0.26-0.1-0.15.16a6.47,6.47,0,0,0,2.5,2.97,8.2,8.2,0,0,0,4.21,1.01,9.648,9.648,0,0,0,1.41-.15,2.519,2.519,0,0,0,1.17-.39c0.21-.32,0-0.58-0.62-0.79a5.474,5.474,0,0,1-1.96-1.48c-0.2-.1-0.26-0.05-0.15.16l0.7,1.17c0.26,0.31.03,0.47-.7,0.47a11.206,11.206,0,0,1-3.67-.55,5.3,5.3,0,0,1-2.74-2.58h0Zm7.11-3.12c0.26,0,.36.1,0.31,0.31l-0.31.94c-0.52.05-1.17,0.13-1.95,0.23a10.959,10.959,0,0,1,.23-1.25,15.631,15.631,0,0,0,1.72-.23h0Zm-2.66.39a6.094,6.094,0,0,1-.07,1.17l-1.72.16-0.08-1.1c0.47-.05,1.09-0.13,1.87-0.23h0Zm-2.5,1.4a8.752,8.752,0,0,1-1.79.16l-0.47-1.02c0.73-.1,1.43-0.18,2.11-0.23Zm0.94-7.89q-0.39-.075-0.15.24a0.759,0.759,0,0,1,.31.47,2.047,2.047,0,0,1,0,.78c-0.73.1-1.51,0.18-2.35,0.23a2.127,2.127,0,0,1-.93-0.23c-0.26-.16-0.32-0.08-0.16.23a1.107,1.107,0,0,0,1.09.7c0.58-.1,1.36-0.2,2.35-0.31v0.86a9.684,9.684,0,0,1-1.95.16,4.812,4.812,0,0,1-1.02-.08c-0.31-.1-0.37-0.03-0.16.23a1.981,1.981,0,0,0,1.18.63c0.57-.1,1.22-0.21,1.95-0.31a4.493,4.493,0,0,1,.08.86,33.115,33.115,0,0,1-3.52.31,4.637,4.637,0,0,1-1.01-.08c-0.42-.16-0.5-0.08-0.24.23a2.425,2.425,0,0,0,1.56.71,41.4,41.4,0,0,1,4.14-.63c1.83-.15,3.29-0.23,4.38-0.23,0.47-.05.52-0.24,0.16-0.55a1.671,1.671,0,0,0-1.1-.39,5.514,5.514,0,0,1-.78.24c-0.68.1-1.64,0.2-2.89,0.31a5.964,5.964,0,0,1,.08-0.94,27.184,27.184,0,0,0,2.73-.31c0.37-.16.39-0.31,0.08-0.47a2.517,2.517,0,0,0-1.02-.24,7.158,7.158,0,0,1-1.79.4v-0.86a20.71,20.71,0,0,0,2.81-.39c0.36-.16.39-0.32,0.08-0.47a1.934,1.934,0,0,0-1.25-.24,3.34,3.34,0,0,1-1.56.39,0.444,0.444,0,0,1,.15-0.47c0.05-.31-0.36-0.57-1.25-0.78h0Zm-0.47-2.81q-0.54,0,0,.39a0.967,0.967,0,0,1,.47.7,2.89,2.89,0,0,1,0,.94c-0.99.16-2.11,0.31-3.36,0.47-0.62.05-1.04,0.08-1.25,0.08a1.3,1.3,0,0,0-.39-0.7c-0.21-.16-0.28-0.11-0.23.15a3.567,3.567,0,0,1-.86,2.35,2.56,2.56,0,0,0,.15,1.25c0.21,0.46.42,0.49,0.63,0.07a8.986,8.986,0,0,0,.7-2.57,5.664,5.664,0,0,0,1.02.07,82.98,82.98,0,0,1,9.76-1.17c0.37,0,.42.18,0.16,0.55-0.36.42-.7,0.78-1.02,1.09-0.26.26-.2,0.34,0.16,0.24,0.73-.37,1.28-0.63,1.64-0.78a1.885,1.885,0,0,1,.86-0.16c0.36,0,.42-0.18.16-0.55-0.84-.94-1.49-1.3-1.96-1.09-0.88.1-2.6,0.29-5.15,0.55a1.668,1.668,0,0,1,.08-0.94c0.26-.31.23-0.52-0.08-0.63a5.079,5.079,0,0,0-1.49-.31h0Zm5.08,8.2c-0.21.06-.42,0.11-0.62,0.16a66.715,66.715,0,0,1-7.43.86,4.129,4.129,0,0,1-.78-0.08c-0.36-.1-0.44-0.02-0.23.24a3.761,3.761,0,0,1,.39.62,7.727,7.727,0,0,1,.62,1.56c0.37,0.42.63,0.39,0.79-.08,3.12-.41,5.18-0.65,6.17-0.7a1.3,1.3,0,0,1,.62.16,0.457,0.457,0,0,0,.71-0.31,6.554,6.554,0,0,1,.7-1.33c0.21-.16.23-0.32,0.08-0.47q-0.78-.78-1.02-0.63h0Zm0,3.52c-0.26-.05-0.31,0-0.15.16a18.484,18.484,0,0,1,2.03,2.26c0.47,0.31.7,0.18,0.7-.39a2.275,2.275,0,0,0-.63-1.09,6.086,6.086,0,0,0-1.95-.94h0Zm-8.67.55c-0.11-.32-0.21-0.32-0.31,0a5.39,5.39,0,0,1-1.33,2.26,2.011,2.011,0,0,0-.08,1.1c0.05,0.31.24,0.39,0.55,0.23,0.78-.57,1.17-1.77,1.17-3.59h0Zm8.52,10.01a0.448,0.448,0,0,1,.46.55l-0.15,1.01q-2.82.09-7.89,0.55c-0.11-.57-0.21-1.07-0.32-1.48a51.169,51.169,0,0,1,7.9-.63h0Zm-0.08,3.91a53.57,53.57,0,0,0-7.11.47c-0.11-.68-0.19-1.23-0.24-1.64a66.223,66.223,0,0,1,7.66-.55Zm-0.16,1.79a3.994,3.994,0,0,0-.7.16q-3.75.315-6.17,0.39a3.1,3.1,0,0,1-.94-0.23c-0.21-.11-0.26-0.05-0.16.15a1.894,1.894,0,0,0,1.8.78,8.366,8.366,0,0,1,2.26-.23v1.8c-0.52.05-1.06,0.1-1.64,0.15a12.188,12.188,0,0,1-1.4.08,1.234,1.234,0,0,1-.78-0.31c-0.21-.16-0.26-0.1-0.16.16a1.354,1.354,0,0,0,1.17.78c0.26,0,.63-0.03,1.1-0.08s1.04-.11,1.71-0.16v1.8c-2.55.21-4.32,0.39-5.31,0.55a2.7,2.7,0,0,1-1.17-.08c-0.1-.05-0.29-0.16-0.55-0.31q-0.315-.165-0.15.15a3.02,3.02,0,0,0,1.48,1.25c0.47-.15.91-0.29,1.33-0.39a43.234,43.234,0,0,1,4.92-.55,46.927,46.927,0,0,1,6.1.24,4.1,4.1,0,0,0,1.25.08c0.26-.11.26-0.29,0-0.55a3.382,3.382,0,0,0-1.49-.55,6.554,6.554,0,0,1-.94.16q-2.34-.075-4.68,0l0.07-1.88c0.68-.05,1.49-0.07,2.43-0.07,0.2,0,.65.02,1.32,0.07,0.47-.1.58-0.26,0.32-0.46a1.772,1.772,0,0,0-.94-0.4c-0.31.06-.6,0.11-0.86,0.16-0.37,0-1.12.03-2.27,0.08a3.731,3.731,0,0,1,.16-1.25,0.43,0.43,0,0,0-.16-0.55q2.5-.15,3.99-0.15,0.54-.09.15-0.39a2.154,2.154,0,0,0-1.09-.4h0Zm-4.37-9.29c-0.32,0-.34.1-0.08,0.31a0.476,0.476,0,0,1,.23.7,11.167,11.167,0,0,1-2.34,2.43c-0.31.05-.76,0.1-1.33,0.15a4.481,4.481,0,0,0-1.17-.31c-0.21,0-.24.08-0.08,0.23a1.137,1.137,0,0,1,.7.71,11.493,11.493,0,0,1,.47,3.59,3.152,3.152,0,0,0,.39.78,0.957,0.957,0,0,0,.47.47c0.16,0,.24-0.16.24-0.47a39.365,39.365,0,0,1,6.87-.47q0,0.39.24,0.39a0.544,0.544,0,0,0,.62-0.54l0.94-3.52a0.555,0.555,0,0,1,.23-0.39c0.26-.16.24-0.34-0.08-0.55a3.452,3.452,0,0,0-.93-0.62,0.545,0.545,0,0,0-.47.08q-1.65,0-6.25.39,1.1-.78,2.34-1.8a1.161,1.161,0,0,1,.47-0.31c0.31-.11.34-0.29,0.08-0.55a3.109,3.109,0,0,0-1.56-.7h0Zm1.09,32.29a10.751,10.751,0,0,1-1.88-.94c-0.31-.15-0.39-0.08-0.23.24a33.473,33.473,0,0,0,2.34,2.5c0.42,0.15.55-.05,0.39-0.63a3.714,3.714,0,0,0-.62-1.17h0Zm-1.8-12.34q-0.54-.09-0.15.39a2.762,2.762,0,0,1,.54.54,3.486,3.486,0,0,1,.16,1.25,27.769,27.769,0,0,1-.31,3.21q-2.655.315-3.75,0.39a1.857,1.857,0,0,1-1.25-.39c-0.32-.16-0.39-0.08-0.24.23a6.671,6.671,0,0,0,1.17,1.09,0.83,0.83,0,0,0,.79.08c0.98-.26,2.05-0.49,3.2-0.7a11.476,11.476,0,0,1-5.78,8.2c-0.16.16-.11,0.21,0.15,0.16a10.768,10.768,0,0,0,6.49-8.2q4.215,5.85,5.39,7.42a1.526,1.526,0,0,0,1.33.54h2.65c0.26,0,.29-0.07.08-0.23a10.662,10.662,0,0,1-3.59-1.87,65.2,65.2,0,0,1-5.71-6.25,30.552,30.552,0,0,1,6.25-.32c0.89-.15.94-0.44,0.16-0.86q-1.02-.3-1.41-0.39c-0.1.06-.28,0.16-0.54,0.32-0.78.1-2.27,0.31-4.46,0.62,0.11-.52.24-1.64,0.4-3.36a0.663,0.663,0,0,1,.15-0.47,0.453,0.453,0,0,0-.15-0.78,3.719,3.719,0,0,0-1.57-.62h0Zm3.99,18.75c-0.26,0-.32.11-0.16,0.31a0.84,0.84,0,0,1,.16.39c0,0.21-.99.66-2.97,1.33a13.146,13.146,0,0,1-3.44.78,3.408,3.408,0,0,0-1.33-.78c-0.26-.05-0.28.03-0.08,0.24a2.855,2.855,0,0,1,.4.47,2.149,2.149,0,0,1,.15,1.01,18.788,18.788,0,0,1-.78,5.47,15.272,15.272,0,0,1-2.19,4.45c0,0.06.05,0.08,0.16,0.08a10.8,10.8,0,0,0,2.03-2.73,21.589,21.589,0,0,0,1.48-4.38,2.592,2.592,0,0,0,1.02.24c0.47-.06,1.2-0.16,2.19-0.32,4.22-.52,6.59-0.8,7.11-0.86,0.57-.05.99-0.07,1.25-0.07,0.52-.32.41-0.6-0.32-0.86a3.117,3.117,0,0,0-.85-0.16,3.2,3.2,0,0,0-1.02.39c-0.37.11-1.22,0.26-2.58,0.47-1.82.26-3.41,0.47-4.76,0.62a5.8,5.8,0,0,1-1.96,0,12.155,12.155,0,0,0,.24-2.81,46.317,46.317,0,0,0,6.79-1.56,4.31,4.31,0,0,1,.94-0.23c0.42-.06.47-0.26,0.16-0.63a3.26,3.26,0,0,0-1.64-.86h0Zm2.65,9.38c-0.1.05-.28,0.13-0.54,0.23a66.143,66.143,0,0,0-6.72.63,2.471,2.471,0,0,0-1.02-.32q-0.39-.075-0.15.24a1.323,1.323,0,0,1,.54.7,8.724,8.724,0,0,1,.39,2.27,5.7,5.7,0,0,1,0,1.32,2.653,2.653,0,0,0,.47.94c0.21,0.26.37,0.24,0.47-.08a0.984,0.984,0,0,0,0-.54,44.207,44.207,0,0,1,6.41-.47q0.78-.24,0-0.78c0.41-1.15.73-1.98,0.93-2.5a0.966,0.966,0,0,1,.32-0.32c0.15-.1.15-0.26,0-0.46a3.36,3.36,0,0,0-1.1-.86h0Zm-0.23,1.09a25.345,25.345,0,0,1-.7,3.05c-1.88.21-3.75,0.41-5.63,0.62a33.536,33.536,0,0,0-.47-3.36,64.161,64.161,0,0,1,6.56-.54,0.205,0.205,0,0,1,.24.23h0Zm-5.31,8.04c-0.21-.11-0.26-0.06-0.16.15a1.463,1.463,0,0,1,.23.78,2.352,2.352,0,0,1-.15.86c-0.11.26-.39,0.86-0.86,1.8a24.226,24.226,0,0,1-2.42.23,2.981,2.981,0,0,1-1.02-.23c-0.1,0-.15.03-0.15,0.08a2.018,2.018,0,0,0,.93.78c0.16,0,.47-0.03.94-0.08,0.42-.05.91-0.1,1.48-0.16a28.065,28.065,0,0,1-2.81,4.15,0.984,0.984,0,0,0,0,.54q0.165,0.39.39,0.24a9.431,9.431,0,0,1,1.41-1.02,2.78,2.78,0,0,1,1.41-.31,1.118,1.118,0,0,1,.78.23,2.063,2.063,0,0,1,.47,1.49,17,17,0,0,0-2.74,2.03,2.32,2.32,0,0,0-.78,1.64,1.906,1.906,0,0,0,.55,1.41,4.721,4.721,0,0,0,3.36.93h2.65a6.1,6.1,0,0,0,1.41-.15c0.21-.11.23-0.24,0.08-0.39a3.2,3.2,0,0,0-1.02-.39,3.288,3.288,0,0,0-1.01.15,21.7,21.7,0,0,1-2.66.16,3.489,3.489,0,0,1-2.5-.71,1.356,1.356,0,0,1-.39-1.01,1.455,1.455,0,0,1,.47-1.09,13.679,13.679,0,0,1,2.65-1.88v2.03c0.11,0.21.24,0.26,0.39,0.16a0.689,0.689,0,0,0,.32-0.55v-2.03a34.862,34.862,0,0,1,4.53-2.42c0.31-.05.34-0.18,0.08-0.39a4.227,4.227,0,0,0-1.64-.78c-0.21-.06-0.27,0-0.16.15,0.42,0.31.52,0.52,0.31,0.63-1.09.67-2.16,1.35-3.2,2.03a2.191,2.191,0,0,0-.7-1.25,2.047,2.047,0,0,0-1.33-.39,4.512,4.512,0,0,0-.86.08,3.962,3.962,0,0,0-1.1.39c0.26-.37.58-0.84,0.94-1.41,0.42-.68.91-1.46,1.49-2.34,1.61-.21,3.15-0.47,4.61-0.78,0.2-.11.23-0.24,0.07-0.4l-0.93-.46a3.2,3.2,0,0,0-1.02.39,12.41,12.41,0,0,1-2.34.54l0.93-1.79c0.21-.21.24-0.39,0.08-0.55a4.219,4.219,0,0,0-1.01-1.09h0Zm-3.21,19.65c-0.21,0-.23.08-0.07,0.23a1.146,1.146,0,0,1,.54.94v0.23c0,0.63-.02,1.62-0.08,2.97-0.73.21-1.48,0.39-2.26,0.55a0.886,0.886,0,0,1-.94-0.24c-0.21-.1-0.26-0.05-0.16.16a1.892,1.892,0,0,0,.86.78,0.523,0.523,0,0,0,.39,0c0.79-.15,1.49-0.31,2.11-0.47-0.05,1.72-.07,3.16-0.07,4.3a9.135,9.135,0,0,0-2.66,2.03,2.028,2.028,0,0,0-.47,1.17,1.946,1.946,0,0,0,.94,1.72,2.861,2.861,0,0,0,1.48.55,1.015,1.015,0,0,0,.94-0.7,11.152,11.152,0,0,0,.47-3.99v-0.62a18.294,18.294,0,0,1,2.11-.86,7.654,7.654,0,0,1,2.65-.55,3.765,3.765,0,0,1,2.74.86,2.2,2.2,0,0,1,.62,1.64,2.912,2.912,0,0,1-.86,2.03,9.783,9.783,0,0,1-2.89,1.95c-0.15.16-.13,0.24,0.08,0.24a8.925,8.925,0,0,0,3.36-1.72,3.119,3.119,0,0,0,1.25-2.5,2.862,2.862,0,0,0-.78-2.11,4.01,4.01,0,0,0-2.97-1.09,9.209,9.209,0,0,0-2.65.47,19.279,19.279,0,0,0-2.66,1.09c0-1.25.02-2.6,0.08-4.06,1.51-.32,2.58-0.55,3.2-0.71,0.21-.1.23-0.23,0.08-0.39a7.108,7.108,0,0,0-1.33-.39,0.71,0.71,0,0,0-.31.24,16.2,16.2,0,0,1-1.64.47l0.08-1.49a4.092,4.092,0,0,1,.15-1.09,1.229,1.229,0,0,0,.08-0.71,3.256,3.256,0,0,0-1.41-.93h0Zm7.66,1.56c-0.11.05-.13,0.1-0.08,0.16a4.624,4.624,0,0,1,1.1.86,9.393,9.393,0,0,1,1.01,1.64,0.748,0.748,0,0,0,.7.46c0.21,0,.32-0.15.32-0.46a2.654,2.654,0,0,0-.86-1.49,4.378,4.378,0,0,0-2.19-1.17h0Zm-7.34,8.52a14.315,14.315,0,0,1-.39,3.35,0.767,0.767,0,0,1-.63.63,1.638,1.638,0,0,1-1.09-.39,1.279,1.279,0,0,1-.55-0.94,1.65,1.65,0,0,1,.62-1.25,20.52,20.52,0,0,1,2.04-1.4h0Zm2.96,8.5c-0.2-.1-0.26-0.05-0.15.16a1.758,1.758,0,0,1,.39,1.17l0.08,1.87q-3.675.63-5.94,1.25c-0.21,0-.23.06-0.08,0.16a2.158,2.158,0,0,0,1.1.23,2.679,2.679,0,0,1,.39-0.15c0.98-.26,2.5-0.55,4.53-0.86l0.08,3.75a22.85,22.85,0,0,1-3.13.39,3.558,3.558,0,0,1-1.25-.31c-0.1,0-.13.05-0.08,0.15a3.945,3.945,0,0,0,.86.47,4.481,4.481,0,0,0,1.49.16c0.15,0,.44-0.03.86-0.08,0.36-.05.78-0.1,1.25-0.16v4.22c-0.53-.15-1.07-0.28-1.65-0.39a6.846,6.846,0,0,0-.85-0.08,2.217,2.217,0,0,0-1.49.47,1.426,1.426,0,0,0-.55,1.1,1.492,1.492,0,0,0,.63,1.25,2.5,2.5,0,0,0,1.48.39,3.782,3.782,0,0,0,1.72-.39,3.105,3.105,0,0,0,1.41-1.41c1.87,0.78,3.15,1.35,3.83,1.72,0.31,0.15.52,0.13,0.62-.08a1.1,1.1,0,0,0-.55-1.09c-0.15-.05-0.33-0.11-0.54-0.16-1.04-.36-2.14-0.73-3.28-1.09v-4.53c1.4-.32,2.37-0.55,2.89-0.71a0.663,0.663,0,0,0,.54-0.31,0.37,0.37,0,0,0-.39-0.31,3.111,3.111,0,0,0-.86-0.16,4.883,4.883,0,0,1-.7.39c-0.52.16-1.01,0.29-1.48,0.39l-0.08-3.67a19.307,19.307,0,0,1,4.14-.16,1.109,1.109,0,0,0,.86-0.07c0.1-.16,0-0.34-0.31-0.55a5.448,5.448,0,0,0-1.8-.47,4.708,4.708,0,0,1-.7.23l-2.19.4v-1.8a2.38,2.38,0,0,0,.08-0.47,2.749,2.749,0,0,0-1.18-.86h0Zm-2.34,12.42a7.274,7.274,0,0,1,.94.08c0.41,0.11.99,0.29,1.72,0.55a1.644,1.644,0,0,1-.71,1.09,2.8,2.8,0,0,1-1.71.47,2.757,2.757,0,0,1-1.18-.23,0.888,0.888,0,0,1-.47-0.86,0.992,0.992,0,0,1,.32-0.71,1.468,1.468,0,0,1,1.09-.39h0Zm6.17,11.22a14.863,14.863,0,0,0-3.98.54q-1.95.555-5.7,1.96a1.185,1.185,0,0,1-1.02-.16c-0.16-.1-0.21-0.08-0.16.08a4.291,4.291,0,0,0,1.18,1.01c0.2,0.16.46,0.08,0.78-.23a53.034,53.034,0,0,1,5.07-1.95,13.07,13.07,0,0,1,4.15-.71,3.312,3.312,0,0,1,2.34.63,2.467,2.467,0,0,1,.78,1.79,3.747,3.747,0,0,1-1.17,2.74,14.741,14.741,0,0,1-5.55,3.05c-0.05.15,0,.23,0.16,0.23q4.455-1.245,5.94-2.73a4.213,4.213,0,0,0,1.4-2.97,3.093,3.093,0,0,0-.86-2.27,4.654,4.654,0,0,0-3.36-1.01h0Zm-1.25,16.21a0.5,0.5,0,0,0-.47.16,0.472,0.472,0,0,0,.32.31,1.627,1.627,0,0,1,.54.78,8.441,8.441,0,0,1,.24,2.42,25.648,25.648,0,0,1-.71,5.94,15.111,15.111,0,0,1-2.18,4.84c-0.16.26-.11,0.31,0.15,0.16a14.1,14.1,0,0,0,2.66-4.61,15.2,15.2,0,0,0,.94-5,21.633,21.633,0,0,0-.16-2.97,2.257,2.257,0,0,0-1.33-2.03h0Zm-4.68-2.03c-0.11-.05-0.16-0.03-0.16.08a1.569,1.569,0,0,1,.16.7,25.666,25.666,0,0,1-.55,3.12,13.66,13.66,0,0,0-.39,2.5,6.617,6.617,0,0,0,.54,2.74c0.26,0.26.47,0.23,0.63-.08a6.928,6.928,0,0,1,.39-1.87c0.26-.84.6-1.77,1.02-2.82,0.05-.2,0-0.23-0.16-0.08a19.444,19.444,0,0,0-1.33,2.82c-0.1.15-.18,0.15-0.23,0a10.6,10.6,0,0,1,.23-3.36c0.26-1.15.5-2.03,0.7-2.66-0.05-.1-0.13-0.26-0.23-0.47a1.754,1.754,0,0,0-.62-0.62h0Zm2.5,18.92q-0.24.075,0,.24a0.945,0.945,0,0,1,.62.7,4.284,4.284,0,0,1,.08.94v1.87c-3.39.58-5.65,0.94-6.8,1.1a1.964,1.964,0,0,1-1.01-.08c-0.21-.05-0.24.02-0.08,0.23a3.763,3.763,0,0,0,1.25.71,1.006,1.006,0,0,0,.7-0.16,31.141,31.141,0,0,1,5.94-1.09c0,1.66.02,3.54,0.08,5.62h-0.16a4.993,4.993,0,0,0-.78-2.66,1.744,1.744,0,0,0-1.33-.78,1.292,1.292,0,0,0-.94.39,2.381,2.381,0,0,0-.54,1.72,1.894,1.894,0,0,0,1.4,2.35,13.336,13.336,0,0,0,1.57.39,5.939,5.939,0,0,1-1.02,2.34,10.268,10.268,0,0,1-2.42,2.27c-0.11.2-.05,0.26,0.15,0.15a9.633,9.633,0,0,0,2.74-1.87,5.989,5.989,0,0,0,1.33-2.82,2.072,2.072,0,0,0,.62-0.07,0.511,0.511,0,0,0,.24-0.55,23.63,23.63,0,0,1-.16-2.89v-3.67c1.67-.16,3.02-0.24,4.06-0.24a7.851,7.851,0,0,1,1.64.16c0.32-.05.39-0.21,0.24-0.47a2.694,2.694,0,0,0-1.1-.62c-0.36-.11-0.65-0.19-0.86-0.24-0.2.05-.52,0.16-0.93,0.31-1.05.16-2.06,0.29-3.05,0.39l0.08-1.64a2.212,2.212,0,0,1,.15-0.93,0.4,0.4,0,0,0-.15-0.55,1.993,1.993,0,0,0-1.56-.55h0Zm-2.04,7.35a0.624,0.624,0,0,1,.47-0.16,1.206,1.206,0,0,1,1.1.7,5.012,5.012,0,0,1,.54,2.5v0.39a3.625,3.625,0,0,1-1.72-.47,1.33,1.33,0,0,1-.54-0.54,2.065,2.065,0,0,1-.16-1.02,2.141,2.141,0,0,1,.31-1.4h0Zm4.3,13.12a1.571,1.571,0,0,0-.86.24c-1.67.42-2.89,0.7-3.67,0.86a1.3,1.3,0,0,1-1.17-.24c-0.21-.1-0.26-0.05-0.16.16,0.57,0.78.99,1.09,1.25,0.94a2.575,2.575,0,0,1,.78-0.32l2.97-.93c0.47-.16.63-0.08,0.47,0.23q-5.16,6.795-6.33,8.2c-0.21.16-.36,0.29-0.47,0.39a1.193,1.193,0,0,0-.07.94c0.15,0.47.33,0.58,0.54,0.31a12.674,12.674,0,0,1,3.44-2.26,8.863,8.863,0,0,1,3.36-1.02,3.431,3.431,0,0,1,2.11.55,1.949,1.949,0,0,1,.7,1.64,3.183,3.183,0,0,1-.62,1.88,4.117,4.117,0,0,1-2.27,1.56,0.755,0.755,0,0,0,0-.47,1.4,1.4,0,0,0-.86-0.86,3.064,3.064,0,0,0-1.4-.31,2.272,2.272,0,0,0-1.57.39,0.9,0.9,0,0,0-.31.62,0.972,0.972,0,0,0,.47.86,3.513,3.513,0,0,0,1.95.39,5.937,5.937,0,0,0,4.38-1.56,3.325,3.325,0,0,0,1.01-2.42,2.323,2.323,0,0,0-.86-2.03,3.586,3.586,0,0,0-2.18-.63,10.082,10.082,0,0,0-3.75.78,19.1,19.1,0,0,0-2.82,1.33h-0.23l6.87-8.2c0.21,0,.32-0.08.32-0.24a0.494,0.494,0,0,0-.24-0.23,3.1,3.1,0,0,0-.78-0.55h0Zm-3.44,12.11a1.34,1.34,0,0,1,.71-0.15,2.386,2.386,0,0,1,2.11,1.32,10.125,10.125,0,0,1-1.41.08,2.614,2.614,0,0,1-1.25-.23,0.565,0.565,0,0,1-.31-0.55,0.663,0.663,0,0,1,.15-0.47h0Zm4.14,9.89v1.95l-1.95.32h-0.55c-0.1-1.1-.15-1.75-0.15-1.96Zm-0.86-4.14q-0.3.075,0,.24a4.49,4.49,0,0,1,.63.46,0.8,0.8,0,0,1,.16.55v2.34l-2.82.32a1.865,1.865,0,0,0-1.09-.39c-0.21,0-.26.07-0.16,0.23a0.91,0.91,0,0,1,.55.63c0.16,1.82.23,3.15,0.23,3.98a2.287,2.287,0,0,0,.71,1.88,0.6,0.6,0,0,0,.47-0.55l2.18-.24v5.79a0.846,0.846,0,0,0,.39.78c0.21,0,.34-0.29.4-0.86v-1.64c0-.99.02-2.4,0.07-4.22,0.73-.05,1.41-0.08,2.03-0.08a1.091,1.091,0,0,0,.63.55,0.636,0.636,0,0,0,.47-0.39c0.05-.32.15-0.91,0.31-1.8,0.16-.94.31-1.98,0.47-3.13a0.446,0.446,0,0,1,.16-0.31c0.26-.1.15-0.36-0.32-0.78a2.538,2.538,0,0,0-.62-0.47,0.413,0.413,0,0,0-.31.16l-2.74.39v-2.03a0.87,0.87,0,0,1,.08-0.39c0.21-.26.1-0.52-0.31-0.78a2.231,2.231,0,0,0-1.57-.24h0Zm4.22,3.75a0.283,0.283,0,0,1,.32.31l-0.08,1.8a1.486,1.486,0,0,0-.86-0.31,8.044,8.044,0,0,1-1.8.39v-1.95Zm-1.09,2.66h1.25c-0.05.62-.11,1.33-0.16,2.11a1.708,1.708,0,0,1-.54-0.08l-0.39.15-1.57.16,0.08-2.19Zm-2.27.31v2.19l-2.26.23-0.16-2.19h0.47Zm-5.78-2.97c-0.21-.05-0.31,0-0.31.16a4.188,4.188,0,0,1-1.02.39c-0.93.21-1.82,0.36-2.65,0.47a0.9,0.9,0,0,1-.78-0.32c-0.16-.1-0.24-0.07-0.24.08a0.926,0.926,0,0,0,.24.47,2.009,2.009,0,0,0,1.01.63c0.84-.32,1.83-0.65,2.97-1.02a0.218,0.218,0,0,1,.24.31,26.385,26.385,0,0,1-2.27,3.52,15.709,15.709,0,0,1-2.58,2.58c-0.1.15-.05,0.21,0.16,0.15a15.21,15.21,0,0,0,1.56-1.25c0.31-.26.94-0.86,1.88-1.79l0.15,0.15v2.27a16.827,16.827,0,0,1-.15,2.42c-0.06.31-.11,0.6-0.16,0.86a4.27,4.27,0,0,0,.55,1.64c0.2,0.21.36,0.16,0.47-.16a6.957,6.957,0,0,0,.07-1.09v-6.64c0.16-.1.11-0.24-0.15-0.39a25.137,25.137,0,0,0,1.64-2.27,0.632,0.632,0,0,0,.39-0.39q-0.315-.225-1.02-0.78h0Zm-2.34-3.67c-0.16-.1-0.21-0.05-0.16.16a5.416,5.416,0,0,0,2.19,2.26c0.47,0.16.65-.08,0.55-0.7a0.96,0.96,0,0,0-.55-0.63,8.148,8.148,0,0,1-2.03-1.09h0Zm2.19,7.19c-0.16-.05-0.21,0-0.16.15,0.63,0.84,1.15,1.54,1.56,2.11a0.511,0.511,0,0,0,.55.24c0.16-.05.21-0.24,0.16-0.55a2.69,2.69,0,0,0-.39-0.94,1.821,1.821,0,0,0-.63-0.47,3.461,3.461,0,0,1-1.09-.54h0Zm0.39,15.33-0.39.31c-1.36.32-2.48,0.58-3.36,0.79a2.264,2.264,0,0,1-1.02.07,1.921,1.921,0,0,1-.94-0.31c-0.15-.05-0.2,0-0.15.16a2.855,2.855,0,0,0,.86,1.01,2.144,2.144,0,0,0,1.56-.15c1.2-.37,2.03-0.6,2.5-0.71,0.26-.05.34,0.06,0.23,0.32a15.278,15.278,0,0,1-1.95,2.97,14.2,14.2,0,0,1-3.12,2.96c-0.11.21-.06,0.27,0.15,0.16a10.822,10.822,0,0,0,2.27-1.41c0.36-.31.86-0.75,1.48-1.32-0.1,3.17-.18,5.18-0.23,6.01a2.751,2.751,0,0,0,.23,1.02c0.16,0.31.34,0.31,0.55,0l0.23-.39,0.08-7.19c0.89,0.83,1.59,1.46,2.11,1.87,0.42,0.21.63,0.13,0.63-.23a2.778,2.778,0,0,0-.79-1.33c-0.46-.21-1.12-0.47-1.95-0.78q0.7-1.02,1.56-2.19a1.143,1.143,0,0,1,.47-0.39,0.242,0.242,0,0,0,.16-0.23,0.862,0.862,0,0,0-.39-0.47,5.042,5.042,0,0,0-.78-0.55h0Zm5.39-2.89c-0.21-.1-0.26-0.05-0.16.16a2.813,2.813,0,0,1,.78,1.95v4.14a11.632,11.632,0,0,1-2.11.31,2.038,2.038,0,0,1-.7-0.07c-0.16-.06-0.47-0.19-0.94-0.39q-0.315-.165-0.15.15a3.166,3.166,0,0,0,1.01,1.02,1.875,1.875,0,0,0,.71.23c0.31-.05,1.04-0.21,2.18-0.47l-0.15,5.71q-2.19.225-3.21,0.39a3.083,3.083,0,0,1-1.87-.32c-0.26-.1-0.31-0.05-0.16.16a2.63,2.63,0,0,0,2.11,1.02,15.6,15.6,0,0,1,2.81-.39,21.578,21.578,0,0,1,2.66-.16,9.639,9.639,0,0,1,2.34.16,1.079,1.079,0,0,0,.94-0.24c0.11-.1.03-0.26-0.23-0.47a6.321,6.321,0,0,0-.78-0.31c-0.32-.1-0.58-0.18-0.79-0.23a3.041,3.041,0,0,1-.93.23c-0.63,0-1.28.03-1.96,0.08l0.16-5.78a23.058,23.058,0,0,1,2.5-.16,1.236,1.236,0,0,0,.94-0.23c0.1-.16,0-0.32-0.31-0.47a2.724,2.724,0,0,0-1.02-.32,3.741,3.741,0,0,1-.86.24l-1.25.16v-3.36a2.161,2.161,0,0,1,.16-0.86,0.376,0.376,0,0,0,.07-0.39,2.925,2.925,0,0,0-1.79-1.49h0Zm-8.28-.23c-0.21-.11-0.26-0.05-0.16.15l1.72,1.64a1.493,1.493,0,0,0,1.01.55,0.381,0.381,0,0,0,.47-0.39,0.889,0.889,0,0,0-.54-0.86c-0.73-.36-1.57-0.73-2.5-1.09h0Zm9.92,19.77a0.374,0.374,0,0,0-.55,0l-0.31.31q-2.895,1.1-9.38,3.2a1.529,1.529,0,0,1-1.09-.08c-0.21-.1-0.26-0.05-0.16.16a1.863,1.863,0,0,0,1.57.94,23.124,23.124,0,0,1,2.81-1.33q3.9-1.65,5.39-2.11l0.08,0.16a15.931,15.931,0,0,0-2.97,3.59,6.343,6.343,0,0,0-.86,3.05,5.051,5.051,0,0,0,2.03,4.06c1.3,1.09,2.27,1.64,2.89,1.64a0.351,0.351,0,0,0,.39-0.47,1.035,1.035,0,0,0-.7-0.86,7.194,7.194,0,0,1-2.97-1.87,3.622,3.622,0,0,1-1.09-2.66,6.831,6.831,0,0,1,1.87-4.22,6.568,6.568,0,0,1,3.2-2.34c0.58-.05.76-0.21,0.55-0.47a4.162,4.162,0,0,0-.7-0.7h0Zm2.34,4.68a0.432,0.432,0,0,0,.31.24q0.24,0,.24-0.39a1.493,1.493,0,0,0-.39-1.1,4.506,4.506,0,0,0-1.64-.7c-0.21,0-.24.05-0.08,0.16a4.208,4.208,0,0,1,1.56,1.79h0Zm1.56-.93a0.437,0.437,0,0,0,.32.23c0.15,0,.23-0.13.23-0.39a1.468,1.468,0,0,0-.39-1.09,4.486,4.486,0,0,0-1.64-.71c-0.21,0-.23.05-0.08,0.16a4.12,4.12,0,0,1,1.56,1.8h0Zm-4.06,13.57c-0.26,0-.31.07-0.15,0.23a8.655,8.655,0,0,1,2.5,3.44,1.017,1.017,0,0,0,.86.86,0.771,0.771,0,0,0,.78-0.94,2.585,2.585,0,0,0-.94-1.64,9.9,9.9,0,0,0-3.05-1.95h0Zm-27.73-471.15a4.389,4.389,0,0,0-.55.23c-1.61.31-3.02,0.6-4.22,0.86a4.858,4.858,0,0,1-1.09.16,1.9,1.9,0,0,1-.86-0.55c-0.21-.1-0.26-0.05-0.16.16a3.025,3.025,0,0,0,.71,1.09,0.724,0.724,0,0,0,.46.31,8.5,8.5,0,0,1,1.49-.55,0.741,0.741,0,0,1,.23.55,10.14,10.14,0,0,1-1.25,3.6,16.28,16.28,0,0,1-3.59,4.76c-0.11.21-.05,0.26,0.16,0.16a15.831,15.831,0,0,0,3.36-3.44,25.719,25.719,0,0,0,2.26-4.61,0.254,0.254,0,0,0,0-.47,2.327,2.327,0,0,1-.62-0.7,34.169,34.169,0,0,1,3.51-.78,0.5,0.5,0,0,1,.47.62c-0.1.94-.31,2.27-0.62,3.99a14.08,14.08,0,0,1-1.33,4.14,0.444,0.444,0,0,1-.47.15,4.389,4.389,0,0,1-.55-0.23,5.339,5.339,0,0,0-.78-0.47c-0.21-.1-0.26-0.05-0.16.16a10.654,10.654,0,0,1,1.02,1.09,1.847,1.847,0,0,1,.23.63c0.06,0.67.24,0.83,0.55,0.46a7.435,7.435,0,0,0,1.64-3.12c0.37-1.35.6-2.32,0.7-2.89a34.655,34.655,0,0,0,.63-4.06c0.31-.26.21-0.55-0.31-0.86-0.21-.11-0.5-0.24-0.86-0.39h0Zm-8.67-.79a5.825,5.825,0,0,0-.79.32c-0.57.15-1.22,0.34-1.95,0.54a9.236,9.236,0,0,1-1.8.47,1.74,1.74,0,0,1-.85-0.31c-0.21-.1-0.27-0.05-0.16.16a3.576,3.576,0,0,0,1.41,1.09,7.077,7.077,0,0,1,.7-0.47,25.605,25.605,0,0,1,2.73-.94c0.21-.1.26-0.05,0.16,0.16a26.75,26.75,0,0,1-2.19,2.97,28.4,28.4,0,0,1-3.44,3.12c-0.1.21-.05,0.27,0.16,0.16,0.89-.57,1.51-0.99,1.88-1.25,0.41-.31.96-0.78,1.64-1.41a1.97,1.97,0,0,1,.15.94q0,2.04-.15,4.14c-0.06.42-.13,0.86-0.24,1.33a11.686,11.686,0,0,0,.31,1.25c0.16,0.47.34,0.57,0.55,0.31a1.113,1.113,0,0,0,.16-0.62q0.075-3.36.08-6.72a17.819,17.819,0,0,1,2.5,2.19c0.2,0.36.41,0.41,0.62,0.15a1.666,1.666,0,0,0-.78-1.64,7.812,7.812,0,0,0-1.25-.54c0.62-.42,1.22-0.86,1.8-1.33,0.46,0,.49-0.26.07-0.78a1.9,1.9,0,0,0-.93-0.47c-0.21-.11-0.26-0.05-0.16.15a0.49,0.49,0,0,1,.23.63c-0.41.57-.83,1.14-1.25,1.72a5.88,5.88,0,0,1-.85-0.24,2.5,2.5,0,0,0-.4-0.93c0.47-.52.92-1.05,1.33-1.57,0.84-.99,1.3-1.53,1.41-1.64,0.31-.1.28-0.28-0.08-0.54a4.959,4.959,0,0,0-.62-0.4h0Zm-1.41-1.71c-0.83-.52-1.43-0.91-1.8-1.18-0.15-.15-0.21-0.13-0.15.08a9.133,9.133,0,0,0,1.09,1.72,1.891,1.891,0,0,0,1.17.78c0.21,0,.26-0.18.16-0.54a5.008,5.008,0,0,0-.47-0.86h0Zm9.45,26.71a0.428,0.428,0,0,1,.55.55v1.64a2.27,2.27,0,0,0-.63-0.08c-0.99.15-1.98,0.28-2.96,0.39h-0.79l-0.07-2.11Zm0.39-.94c-0.41.11-.83,0.21-1.25,0.31a15.711,15.711,0,0,1-3.36.32,5.686,5.686,0,0,0-1.01-.47c-0.26-.11-0.31-0.03-0.16.23a1.722,1.722,0,0,1,.63,1.02,27.349,27.349,0,0,1,0,5.15,2.5,2.5,0,0,0,.31,1.1c0.26,0.31.47,0.23,0.62-.24,1.67-.15,3.05-0.26,4.15-0.31a0.542,0.542,0,0,0,.46.47,0.633,0.633,0,0,0,.47-0.63l0.16-4.68a1.407,1.407,0,0,1,.23-0.94c0.21-.21.24-0.39,0.08-0.55-0.78-.62-1.22-0.88-1.33-0.78h0Zm-0.62,3.83h0.62v2.5c-2.24.31-3.64,0.47-4.22,0.47v-2.66c1.2-.1,2.4-0.21,3.6-0.31h0Zm-4.85-10.86c-0.2,0-.23.08-0.07,0.23a1.181,1.181,0,0,1,.47.47,2.7,2.7,0,0,1,.15,1.25,21.938,21.938,0,0,0,.08,2.35,1.526,1.526,0,0,0,1.09,1.32,6.461,6.461,0,0,0,1.88.24c1.25,0,2.13-.03,2.65-0.08a3.119,3.119,0,0,0,.94-0.23,0.512,0.512,0,0,0,.24-0.86,0.615,0.615,0,0,1-.24-0.55,8.112,8.112,0,0,1,0-1.56c-0.05-.31-0.13-0.31-0.23,0-0.11.57-.21,1.04-0.31,1.4a1.289,1.289,0,0,1-.63.86,7.582,7.582,0,0,1-2.34.24,4.727,4.727,0,0,1-1.96-.24,1.638,1.638,0,0,1-.31-1.4c2.14-.68,3.49-1.15,4.06-1.41a1.6,1.6,0,0,1,.47-0.08c0.31,0,.37-0.13.16-0.39a2.7,2.7,0,0,0-1.25-.94c-0.31-.1-0.39-0.05-0.24.16,0.32,0.21.32,0.44,0,.7a16.61,16.61,0,0,1-3.2,1.57,6.189,6.189,0,0,1,.16-2.03,0.343,0.343,0,0,0-.16-0.55,4.313,4.313,0,0,0-1.41-.47h0Zm-2.81,10.39c-0.26.11-.54,0.21-0.86,0.31a11.25,11.25,0,0,1-2.81.63c-0.42-.11-0.81-0.18-1.17-0.24-0.31-.05-0.37.03-0.16,0.24a1.174,1.174,0,0,1,.71.7,21.154,21.154,0,0,1,.54,2.27,0.926,0.926,0,0,0,.39.54c0.26,0.16.42,0,.47-0.47l2.5-.46a1,1,0,0,0,.31.31c0.21,0.1.37-.05,0.47-0.47a4.831,4.831,0,0,1,.63-2.11c0.21-.16.23-0.31,0.08-0.47-0.63-.62-0.99-0.88-1.1-0.78h0Zm-0.47.86a0.22,0.22,0,0,1,.32.23l-0.24,1.72-2.58.55-0.39-1.8c0.99-.2,1.96-0.44,2.89-0.7h0Zm-0.47-3.2a5.388,5.388,0,0,1-2.26.7,3.685,3.685,0,0,1-.94-0.08c-0.31-.05-0.31.05,0,0.31a2.359,2.359,0,0,0,1.33.39,13.971,13.971,0,0,0,2.5-.54c0.57-.16.65-0.34,0.23-0.55a1.246,1.246,0,0,0-.86-0.23h0Zm-2.5-7.58c-0.31-.16-0.36-0.08-0.15.23a4.9,4.9,0,0,0,2.65,1.57c0.42,0.1.58-.06,0.47-0.47a1.149,1.149,0,0,0-.78-0.78,5.88,5.88,0,0,1-2.19-.55h0Zm3.21,2.42a3.762,3.762,0,0,1-.78.31,28.727,28.727,0,0,1-3.52.86,2,2,0,0,1-1.01-.08,5.56,5.56,0,0,1-.63-0.39c-0.21-.1-0.26-0.05-0.16.16a4.569,4.569,0,0,0,1.25,1.25,0.54,0.54,0,0,0,.55,0,17.683,17.683,0,0,1,5.55-1.25c0.52-.21.49-0.42-0.08-0.63a4.041,4.041,0,0,0-1.17-.23h0Zm-0.39,2.66a1.28,1.28,0,0,0-.63.23,6.841,6.841,0,0,1-2.11.47,2.027,2.027,0,0,1-.62-0.08c-0.26-.1-0.29-0.02-0.08.24a1.817,1.817,0,0,0,1.41.46c0.36-.1,1.17-0.28,2.42-0.54q0.7-.165.54-0.39a2.469,2.469,0,0,0-.93-0.39h0Zm6.17,24.78a13.82,13.82,0,0,0-3.75-.71,2.025,2.025,0,0,0-.86.47,1.526,1.526,0,0,0-.7,1.18,1.1,1.1,0,0,0,.62.93,3.246,3.246,0,0,0,1.72.39,7.821,7.821,0,0,0,1.48-.15,3.441,3.441,0,0,0,2.11-1.02c0.58,0.31,1.33.73,2.27,1.25a0.714,0.714,0,0,0,.31.08c0.21,0,.31-0.08.31-0.23a1.487,1.487,0,0,0-.07-0.47,2.312,2.312,0,0,0-.86-0.78c-0.58-.26-1.15-0.5-1.72-0.71-0.11-2.24-.16-4.55-0.16-6.95l1.49-.31c0.62-.11.8-0.29,0.54-0.55a1.854,1.854,0,0,0-.78-0.31,1.4,1.4,0,0,0-.62.23l-0.55.16v-1.88a1.331,1.331,0,0,1,.16-0.62c0.1-.11.13-0.18,0.07-0.24a2.549,2.549,0,0,0-1.56-.7c-0.15,0-.18.05-0.08,0.16a1.286,1.286,0,0,1,.63,1.17v2.34a33.737,33.737,0,0,1-3.67.78,0.755,0.755,0,0,0-.63.16,0.1,0.1,0,0,0,0,.16,2.529,2.529,0,0,0,.86.31,8.563,8.563,0,0,0,.86-0.16q0.24-.075,2.58-0.54v6.56Zm-8.36-7.66q0.24-.855.39-1.56a2.878,2.878,0,0,0-1.09-1.49c-0.21-.1-0.26-0.05-0.16.16a2.149,2.149,0,0,1,.31,1.33,19.273,19.273,0,0,1-.39,2.58,28.665,28.665,0,0,0-.54,5.23,12.077,12.077,0,0,0,.31,3.36c0.31,0.94.6,1.41,0.86,1.41a0.831,0.831,0,0,0,.23-0.78,4.662,4.662,0,0,1,.08-1.1,17.079,17.079,0,0,1,.86-1.87c0.1-.21.05-0.24-0.16-0.08-0.41.57-.73,0.99-0.93,1.25-0.16.16-.29,0.16-0.4,0a5.245,5.245,0,0,1-.23-1.72,25.223,25.223,0,0,1,.16-3.05,27.971,27.971,0,0,1,.7-3.67h0Zm4.53,7.5a5.213,5.213,0,0,1,1.33.16,15.709,15.709,0,0,1,2.26.78,3.011,3.011,0,0,1-1.48.78,6.056,6.056,0,0,1-1.64.23,2.39,2.39,0,0,1-.86-0.15,1.173,1.173,0,0,1-.7-0.63,0.62,0.62,0,0,1,.23-0.7,2,2,0,0,1,.86-0.47h0Zm-4.69,7.75c-0.26-.15-0.31-0.1-0.15.16a1.77,1.77,0,0,1,.31.7,27.194,27.194,0,0,1-3.36,7.81c-0.16.26-.1,0.32,0.16,0.16a30.961,30.961,0,0,0,2.18-3.05c-0.05,2.56-.1,4.17-0.15,4.85a17.408,17.408,0,0,1-.24,2.26c0.11,0.63.19,1.04,0.24,1.25,0.21,0.63.41,0.73,0.62,0.31a2.042,2.042,0,0,0,.32-1.17,53.166,53.166,0,0,1-.08-6.56,3.067,3.067,0,0,1,.08-0.7,1.564,1.564,0,0,0-.4-1.02c0.58-1.14,1.05-2.16,1.41-3.05a3.321,3.321,0,0,1,.31-0.39c0.21-.15.21-0.36,0-0.62a3.02,3.02,0,0,0-1.25-.94h0Zm10.32-.15c-0.37,0-.42.1-0.16,0.31a1.523,1.523,0,0,1,.55.47,1.257,1.257,0,0,1,.15.78c-0.05,1.77-.08,3.51-0.08,5.23q0,3.6.24,5.94c0,0.52-.24.73-0.7,0.62-0.37-.1-0.76-0.2-1.18-0.31-0.26-.05-0.31,0-0.15.16a7.5,7.5,0,0,1,1.17.86,2.08,2.08,0,0,1,.62.86c0.16,0.41.37,0.44,0.63,0.08a6.6,6.6,0,0,0,.7-1.33q-0.075-.48-0.15-1.17a42.9,42.9,0,0,1-.24-5.55c0-1.56.03-3.15,0.08-4.77a1.627,1.627,0,0,1,.16-0.86c0.2-.26.1-0.52-0.32-0.78a2.485,2.485,0,0,0-1.32-.54h0Zm-2.43,2.65c-0.26-.1-0.34-0.05-0.23.16a2.008,2.008,0,0,1,.39.47,1.6,1.6,0,0,1,.16.7,16.787,16.787,0,0,1-.16,4.45,2.358,2.358,0,0,0,.39,1.02c0.16,0.26.31,0.26,0.47,0,0.05-.21.1-0.44,0.16-0.7a41.971,41.971,0,0,1-.08-4.54,1.3,1.3,0,0,1,.15-0.54q0.24-.315-0.39-0.63a2.382,2.382,0,0,0-.86-0.39h0Zm-1.79-1.95a5.4,5.4,0,0,1-.55.31,19.383,19.383,0,0,1-2.19.63,5.277,5.277,0,0,1-1.25.15q-0.39-.15-0.15.24a1.245,1.245,0,0,0,.93.31,2.719,2.719,0,0,0,.63-0.08,1.9,1.9,0,0,1-.08.86,24.8,24.8,0,0,1-2.58,5c-0.15.26-.1,0.31,0.16,0.16,0.31-.32.6-0.63,0.86-0.94a15.277,15.277,0,0,1,2.5,1.56,24.646,24.646,0,0,1-3.36,4.77c-0.16.26-.11,0.31,0.16,0.15a18.722,18.722,0,0,0,3.35-3.67,15.944,15.944,0,0,0,2.19-4.76,1,1,0,0,1,.39-0.63c0.26-.16.16-0.34-0.31-0.55a1.9,1.9,0,0,0-.62-0.31,7.532,7.532,0,0,1-2.43.7,13.475,13.475,0,0,1,.71-1.48,1.655,1.655,0,0,1,.31-0.39c0.16-.16.13-0.29-0.08-0.39a2.611,2.611,0,0,0-.47-0.24,25.251,25.251,0,0,1,3.05-.62q0.315-.24,0-0.39a2.254,2.254,0,0,0-1.17-.39h0Zm-1.57,4.45c0.26-.1.55-0.21,0.86-0.31s0.42-.03.32,0.23a17.959,17.959,0,0,1-1.1,3.21,1.918,1.918,0,0,0-.62-0.55,11.139,11.139,0,0,1-1.88-.7c0.52-.73.97-1.38,1.33-1.96a5.916,5.916,0,0,0,1.09.08h0Zm0.63,18.85v3.67c-1.25.15-2.4,0.31-3.44,0.47v-1.88a1.8,1.8,0,0,1,.16-0.7c0.1-.26-0.08-0.52-0.55-0.78,0.99-.26,2.27-0.52,3.83-0.78h0Zm-3.67-5.16h-0.47c-0.21,0-.24.08-0.08,0.23a0.654,0.654,0,0,1,.63.55,15.891,15.891,0,0,1-2.74,3.59c-0.1.21-.05,0.27,0.16,0.16a13.265,13.265,0,0,0,2.42-2.03,1.651,1.651,0,0,0,1.17.16l1.8-.24a2.918,2.918,0,0,1,.78,2.11c-1.98.37-3.26,0.57-3.83,0.63a2.477,2.477,0,0,1-1.64-.4c-0.21-.1-0.26-0.05-0.16.16a0.757,0.757,0,0,0,.32.39,7.024,7.024,0,0,0,.86.63,1.518,1.518,0,0,1,.23,1.09v2.42a19.231,19.231,0,0,1-2.42.31,1.43,1.43,0,0,1-1.09-.39c-0.21-.1-0.27-0.05-0.16.16a3.507,3.507,0,0,0,1.09,1.09,0.932,0.932,0,0,0,.78,0,47.789,47.789,0,0,1,6.02-1.09v4.06a19.342,19.342,0,0,0,.08,1.96c0,0.46.1,0.7,0.31,0.7a2.081,2.081,0,0,0,.31-1.17c0.05-.58.13-2.45,0.24-5.63,1.4-.1,3.02-0.13,4.84-0.08,0.63,0.06,1.15.11,1.56,0.16q0.945-.15.24-0.78a3.566,3.566,0,0,0-1.49-.7,7.069,7.069,0,0,1-1.01.39c-1.3.1-2.69,0.21-4.14,0.31v-3.67c1.09-.16,2.16-0.26,3.2-0.32h0.94c0.31-.15.31-0.36,0-0.62a4.846,4.846,0,0,0-1.33-.39c-0.16.05-.42,0.16-0.78,0.31-0.73.11-1.41,0.21-2.03,0.31a4.11,4.11,0,0,1,.08-1.09,0.712,0.712,0,0,0-.4-0.39,4.954,4.954,0,0,0-.85-0.55,28.142,28.142,0,0,1,3.59-.39c0.62,0,.94-0.13.94-0.39a0.694,0.694,0,0,0-.47-0.47,1.92,1.92,0,0,0-.94-0.15,3.2,3.2,0,0,1-.55.31c-2.13.36-3.59,0.6-4.37,0.7a1.974,1.974,0,0,1-1.25,0,9.944,9.944,0,0,0,.7-0.94,0.423,0.423,0,0,0,.24-0.46,1.529,1.529,0,0,0-1.33-.55h0Zm7.11,20.49q-1.335.24-7.11,1.09a2.766,2.766,0,0,0-1.1-.47c-0.36-.05-0.44.03-0.23,0.24a1.947,1.947,0,0,1,.55,1.17q0.075,3.435-.16,7.89a3.766,3.766,0,0,1-.16.78,2.619,2.619,0,0,0,.32,1.33c0.2,0.42.39,0.47,0.54,0.16a2.5,2.5,0,0,0,.16-0.47,6.4,6.4,0,0,0,1.02.08,47.964,47.964,0,0,1,6.48-.47,3.4,3.4,0,0,0,.08.78c0.15,0.52.34,0.65,0.54,0.39a2.049,2.049,0,0,0,.4-1.02,3.242,3.242,0,0,1-.08-0.86l0.08-8.28a1.071,1.071,0,0,1,.23-0.78c0.21-.21.13-0.47-0.23-0.78a2.444,2.444,0,0,0-1.33-.78h0Zm0.31,10.86a3.132,3.132,0,0,0-1.09-.47,6.206,6.206,0,0,1-.86.23c-1.62.21-3.18,0.42-4.69,0.63h-0.78l0.08-5.31a1.5,1.5,0,0,0,1.4.47q2.97-.39,5.94-0.63v5.08Zm-0.55-10.08a0.484,0.484,0,0,1,.55.55v3.9a7.59,7.59,0,0,0-1.02-.31c-0.2.11-.41,0.21-0.62,0.31-0.73.11-2.14,0.29-4.22,0.55a2.082,2.082,0,0,1-1.48-.23v-3.83q3.75-.555,6.79-0.94h0Zm-4.76,16.34c-0.21,0-.24.08-0.08,0.23a0.928,0.928,0,0,1,.7.71v3.12q-1.875.24-4.29,0.63a2.8,2.8,0,0,1-1.25-.08,4.311,4.311,0,0,1-.71-0.47c-0.15-.05-0.21,0-0.15.16a13.751,13.751,0,0,0,1.09,1.25,1.281,1.281,0,0,0,1.09,0c1.2-.26,2.37-0.5,3.52-0.71a25.907,25.907,0,0,1-6.64,7.42c-0.11.16-.05,0.21,0.15,0.16a14.22,14.22,0,0,0,3.52-2.42,40.617,40.617,0,0,0,3.67-4.22v4.84l-2.34.39a1.253,1.253,0,0,1-.94-0.39c-0.16-.05-0.21,0-0.16.16a2.115,2.115,0,0,0,1.25,1.17l0.4-.15,1.79-.4v1.72a9.078,9.078,0,0,1-.23,1.1,1.605,1.605,0,0,0,0,.7,3.339,3.339,0,0,0,.47,1.02c0.15,0.36.31,0.39,0.47,0.07a2.807,2.807,0,0,0,.23-1.09v-3.59l2.34-.16a0.606,0.606,0,0,0,.63-0.23c0.1-.16.02-0.32-0.24-0.47a5.718,5.718,0,0,0-1.09-.24c-0.16.06-.36,0.13-0.62,0.24a6.592,6.592,0,0,1-1.02.08l-0.08-5,5,6.09a0.889,0.889,0,0,0,.78.16l2.66-.08c0.21-.05.23-0.13,0.08-0.24a12.389,12.389,0,0,1-3.83-2.11,53.112,53.112,0,0,1-4.77-4.61q2.82-.3,5.94-0.39a0.37,0.37,0,0,0,.39-0.31,0.528,0.528,0,0,0-.47-0.39,4.116,4.116,0,0,0-1.01-.31,1.246,1.246,0,0,0-.86.23l-3.91.39,0.08-2.11c0.16-.41.29-0.73,0.39-0.93a0.492,0.492,0,0,0-.31-0.47,6.731,6.731,0,0,0-1.64-.47h0Zm6.25,25.64q-9.3.63-10.39,0.78a4.052,4.052,0,0,1-1.1,0,3.914,3.914,0,0,1-1.09-.39c-0.21-.1-0.26-0.05-0.16.16a2.225,2.225,0,0,0,.71.93,2.494,2.494,0,0,0,1.01.47c0.26-.1.55-0.21,0.86-0.31a15.507,15.507,0,0,1,1.95-.31q2.745-.315,6.33-0.47a27.424,27.424,0,0,1,3.99.15c0.47,0.06.7-.1,0.7-0.46a1.327,1.327,0,0,0-.86-0.63,4.683,4.683,0,0,0-1.17-.23Zm-3.44,15.09a9.509,9.509,0,0,0-6.95,2.97,4.533,4.533,0,0,0-1.64,2.97,6.446,6.446,0,0,0,.39,2.34,7.2,7.2,0,0,0,1.09,2.04,0.674,0.674,0,0,0,.86.31,8.848,8.848,0,0,0,.86-0.78,22.405,22.405,0,0,0,2.97-4.61,15.806,15.806,0,0,0,1.56-3.99,1.469,1.469,0,0,0-.23-0.7h0.78a5.612,5.612,0,0,1,4.14,1.41,4.324,4.324,0,0,1,1.09,3.2,4.958,4.958,0,0,1-.94,3.2,10.05,10.05,0,0,1-4.21,2.89c-0.11.11-.08,0.16,0.07,0.16a12.233,12.233,0,0,0,4.46-2.27,4.523,4.523,0,0,0,1.56-3.51,5.484,5.484,0,0,0-1.49-4.06,5.878,5.878,0,0,0-4.37-1.57h0Zm-1.41.55a10.556,10.556,0,0,1-1.56,4.22,14.075,14.075,0,0,1-3.44,4.61,0.37,0.37,0,0,1-.39-0.08,4.735,4.735,0,0,1-.86-1.64,5.271,5.271,0,0,1-.39-1.88,2.471,2.471,0,0,1,.86-1.71q3.045-3.06,5.78-3.52h0Zm-2.18,15.64c-0.21.11-.21,0.21,0,0.31a3.54,3.54,0,0,1,.31.24,0.351,0.351,0,0,1,.08.47,20.288,20.288,0,0,1-1.49,2.34,0.984,0.984,0,0,1-.54,0,1.361,1.361,0,0,1-.63-0.39c-0.1-.1-0.18-0.1-0.23,0a1.644,1.644,0,0,0,1.01,1.41,5.678,5.678,0,0,1,1.72-.47,1.283,1.283,0,0,1,.47.78l-0.08.31-0.47,1.02-3.9.39a4.118,4.118,0,0,1-1.33-.24c-0.26-.15-0.34-0.1-0.24.16a3.476,3.476,0,0,0,1.8.94,5.182,5.182,0,0,1,1.09-.24c0.79-.15,1.51-0.28,2.19-0.39a14.078,14.078,0,0,1-2.65,3.2,14.231,14.231,0,0,1-2.58,1.8c-0.16.16-.13,0.24,0.08,0.24a11.591,11.591,0,0,0,3.12-1.8,18.012,18.012,0,0,0,3.05-3.52l1.4-.15q2.58,2.58,5.08,4.92a1.855,1.855,0,0,0,1.17.47l2.11-.08c0.26-.05.29-0.13,0.08-0.24a17.491,17.491,0,0,1-3.83-1.87,39.877,39.877,0,0,1-4.14-3.28c0.99-.05,1.96-0.11,2.89-0.16a13.485,13.485,0,0,1,1.8.08c0.83,0.05,1.12-.1.86-0.47a4.1,4.1,0,0,0-1.17-.47c-0.21.06-.39,0.11-0.55,0.16q-2.73.15-5.31,0.39c0.1-.16.21-0.31,0.31-0.47a0.862,0.862,0,0,0,.39-0.47c0-.26-0.44-0.62-1.33-1.09,1.04-.26,2.32-0.52,3.83-0.78a9.789,9.789,0,0,1,.55,1.09,0.508,0.508,0,0,0,.7.16,1.3,1.3,0,0,0,0-1.25,8.961,8.961,0,0,0-2.5-1.96c-0.26-.1-0.31-0.02-0.16.24a4.211,4.211,0,0,1,1.1,1.25c-1.46.26-2.94,0.49-4.45,0.7,0.98-1.2,1.56-1.87,1.71-2.03a0.477,0.477,0,0,0,.39-0.39c-0.05-.26-0.62-0.55-1.71-0.86h0Zm2.34,8.2a0.544,0.544,0,0,0-.39-0.15c-0.16-.05-0.21,0-0.16.15a0.27,0.27,0,0,1,0,.39,15.341,15.341,0,0,1-3.83,2.58c-0.15.16-.13,0.24,0.08,0.24a15.2,15.2,0,0,0,2.11-.78,10.691,10.691,0,0,0,1.64-.94,2.633,2.633,0,0,1,1.02-.55c0.21,0,.26-0.1.15-0.31a1.655,1.655,0,0,0-.62-0.63h0Zm0.78,1.8c-0.16-.1-0.21-0.08-0.16.08a0.376,0.376,0,0,1,0,.47,10.863,10.863,0,0,1-2.57,1.56,13.751,13.751,0,0,1-2.43.86c-0.2.16-.2,0.23,0,0.23a6.333,6.333,0,0,0,2.43-.47,17.977,17.977,0,0,0,3.04-1.48,2.429,2.429,0,0,1,.55-0.08c0.16,0,.21-0.1.16-0.31a2.021,2.021,0,0,0-1.02-.86h0Zm1.17,1.8c-0.21-.11-0.28-0.08-0.23.08a0.639,0.639,0,0,1,.15.54,18.905,18.905,0,0,1-3.04,2.03,24.445,24.445,0,0,1-4.46,1.64q-0.3.24,0,.24c2.09-.16,4.82-1.17,8.21-3.05a0.444,0.444,0,0,1,.31-0.08c0.21-.1.23-0.28,0.08-0.54a4,4,0,0,0-1.02-.86h0Zm3.75,8.22-0.31.15c-0.89.11-2.27,0.26-4.14,0.47l-2.03.24a1,1,0,0,1-.94-0.4c-0.21-.1-0.26-0.05-0.16.16a1.7,1.7,0,0,0,1.49.94c0.62-.11,1.41-0.24,2.34-0.39a3.119,3.119,0,0,0,.39.86,2.558,2.558,0,0,1,.16,1.09,14.3,14.3,0,0,1-2.5.31,1.464,1.464,0,0,1-.86-0.15c-0.21-.11-0.26-0.05-0.16.15a2.808,2.808,0,0,0,1.18.94,5.413,5.413,0,0,0,.86-0.31,10.832,10.832,0,0,1,1.56-.31v2.18c-0.26.06-.65,0.13-1.17,0.24a7.025,7.025,0,0,1-1.18.15,1.463,1.463,0,0,1-.78-0.23c-0.21-.1-0.26-0.05-0.15.16a1.354,1.354,0,0,0,1.01.93c0.26-.1.55-0.2,0.86-0.31,0.37-.1.83-0.21,1.41-0.31v2.26q-3.6.63-4.14,0.63a2.544,2.544,0,0,1-1.1-.39c-0.21-.11-0.26-0.05-0.15.15a2.891,2.891,0,0,0,1.25,1.1,14.083,14.083,0,0,1,1.87-.47q0.855-.15,2.19-0.39c0,1.15-.03,2.4-0.08,3.75l0.08,1.72a0.385,0.385,0,0,0,.39.47c0.1-.26.21-0.58,0.31-0.94a5.213,5.213,0,0,0,.16-1.33v-3.83l2.26-.08a13.327,13.327,0,0,1,1.41.08,2.462,2.462,0,0,0,.94,0,0.281,0.281,0,0,0,.23-0.39,1.243,1.243,0,0,0-.47-0.39,2.45,2.45,0,0,0-.86-0.23,1.368,1.368,0,0,1-.31.08,27.158,27.158,0,0,1-3.2.31v-2.27a6.665,6.665,0,0,0,1.09-.08,12.079,12.079,0,0,1,1.41-.07c0.47-.11.6-0.26,0.39-0.47a1.35,1.35,0,0,0-.86-0.32,4.629,4.629,0,0,1-.55.16c-0.31.05-.8,0.11-1.48,0.16v-2.19c0.94-.1,1.67-0.16,2.19-0.16a3.668,3.668,0,0,0,1.09-.07c0.21-.21.16-0.4-0.16-0.55a1.266,1.266,0,0,0-.86-0.24,8.621,8.621,0,0,1-2.26.39,1.331,1.331,0,0,1,.16-0.62c0.15-.16.05-0.31-0.32-0.47a5.3,5.3,0,0,1-1.01-.7,20.805,20.805,0,0,1,3.2-.31,9.78,9.78,0,0,0,1.88,0c0.2-.11.26-0.24,0.15-0.4a2.809,2.809,0,0,0-1.72-.46h0Zm-9.76.23a2.993,2.993,0,0,0-1.17-.39c-0.47,0-.5.16-0.08,0.47a1.354,1.354,0,0,1,.62.7c-0.05.78-.1,1.62-0.15,2.5a16.719,16.719,0,0,1-1.88.39,1.406,1.406,0,0,1-1.17-.23c-0.21-.11-0.26-0.05-0.16.15a3.687,3.687,0,0,0,.78.86,0.44,0.44,0,0,0,.55.08,7.513,7.513,0,0,1,1.8-.62c-0.05,1.25-.08,2.39-0.08,3.43l-2.19,1.25a0.565,0.565,0,0,1-.47.08l-0.39-.31c-0.1-.1-0.15-0.05-0.15.16a2.591,2.591,0,0,0,.62,1.4c0.11,0.26.21,0.29,0.31,0.08a2.272,2.272,0,0,1,.79-0.94c0.2-.15.67-0.47,1.4-0.93l-0.08,4.21c0,0.32-.15.39-0.47,0.24l-1.48-.63c-0.21-.1-0.26-0.05-0.16.16a16.414,16.414,0,0,1,1.57,1.48,3.3,3.3,0,0,0,.54.86c0.21,0.16.39,0.08,0.55-.23l0.31-.7q-0.075-2.04,0-5.94l1.72-1.56c0.11-.21.05-0.26-0.15-0.16-0.58.36-1.1,0.68-1.57,0.94,0.05-.78.11-1.8,0.16-3.05q0.855-.15,1.8-0.39c0.41-.1.57-0.26,0.46-0.47a0.764,0.764,0,0,0-.54-0.31,0.734,0.734,0,0,0-.47,0,1.451,1.451,0,0,1-.31.23,2.7,2.7,0,0,1-.86.24,12.547,12.547,0,0,1,.15-1.8,1.9,1.9,0,0,1,.32-0.47c0.15-.21,0-0.47-0.47-0.78h0Zm2.73,17.52c-0.26,0-.26.1,0,0.31a2.475,2.475,0,0,1,.47.62,2.025,2.025,0,0,1,.08.71v1.25a21.81,21.81,0,0,1-2.81.39,2.653,2.653,0,0,1-1.18-.32c-0.2-.1-0.26-0.05-0.15.16a1.914,1.914,0,0,0,1.64.86c0.73-.1,1.56-0.23,2.5-0.39v2.03c-2.45.42-4.04,0.65-4.77,0.7a4.186,4.186,0,0,1-1.72-.23c-0.26-.1-0.34-0.05-0.23.16a3.256,3.256,0,0,0,1.17.78,2.5,2.5,0,0,0,.86.23c0.21-.05.81-0.21,1.8-0.47,0.62-.15,2-0.36,4.14-0.62a54.828,54.828,0,0,1-8.36,5.78c-0.11.21-.03,0.26,0.23,0.16a33.254,33.254,0,0,0,5.32-2.9v3.13a11.538,11.538,0,0,1-.24,2.58,1.547,1.547,0,0,0,.39,1.01,0.246,0.246,0,0,0,.39-0.07,0.93,0.93,0,0,0,.16-0.32c1.04-.15,2.34-0.34,3.91-0.54a1.312,1.312,0,0,1,.78.07,0.693,0.693,0,0,0,.31.39c0.21,0.26.39,0.32,0.55,0.16a0.887,0.887,0,0,0,.23-0.62l0.08-5.32a1.5,1.5,0,0,1,.08-0.54c0.2-.21.13-0.45-0.24-0.71a3.152,3.152,0,0,0-.78-0.39,4.629,4.629,0,0,1-.55.16,25.081,25.081,0,0,1-2.81.47,12.561,12.561,0,0,1-1.48.08q1.635-1.335,3.28-2.74a30.325,30.325,0,0,1,5.15.08q0.7-.15.24-0.63a4.027,4.027,0,0,0-1.56-.46,7.066,7.066,0,0,0-1.02.15c-0.78.05-1.46,0.11-2.03,0.16,0.73-.68,1.54-1.51,2.42-2.5a0.493,0.493,0,0,0,.24-0.78,2.284,2.284,0,0,0-1.25-.78c-0.32-.11-0.42-0.06-0.32.15a1.018,1.018,0,0,1,.39.47,0.931,0.931,0,0,1-.23.55,19.145,19.145,0,0,1-2.66,3.04,6.364,6.364,0,0,0-1.01.08v-2.11a15.474,15.474,0,0,1,2.26-.15c0.63-.11.63-0.34,0-0.71a2.634,2.634,0,0,0-.78-0.15c-0.15.05-.31,0.1-0.47,0.15-0.41.06-.75,0.11-1.01,0.16a7.879,7.879,0,0,1,.08-1.25,1.24,1.24,0,0,1,.23-0.31c0.16-.16.03-0.39-0.39-0.71a3.665,3.665,0,0,0-1.33-.46h0Zm4.22,8.9a0.313,0.313,0,0,1,.31.39v1.8a3.414,3.414,0,0,0-1.01,0c-1.57.21-2.79,0.36-3.67,0.47v-2.11c0.15,0,.72-0.05,1.71-0.16,0.89-.1,1.77-0.23,2.66-0.39h0Zm-0.7,2.89a3.414,3.414,0,0,1,1.01,0v2.66a2.418,2.418,0,0,0-1.25-.16c-1.35.26-2.52,0.45-3.51,0.55,0-.63.02-1.54,0.08-2.73a31.341,31.341,0,0,0,3.67-.32h0Zm-0.39,8.01c-0.21-.06-0.26,0-0.16.15a1.093,1.093,0,0,1,.55.78,11.016,11.016,0,0,1-2.27,5.39c-0.05.16,0,.21,0.16,0.16a26.447,26.447,0,0,0,1.72-2.11c0.31,0.16.54,0.29,0.7,0.39a2.752,2.752,0,0,0,.62-0.08c0.26-.05.58-0.1,0.94-0.15q-0.075.15,0.24,0.39a0.6,0.6,0,0,1,.23.54,7.356,7.356,0,0,1-.31,1.72q-0.315,1.02-.78,2.19l-1.57-2.11a2.384,2.384,0,0,0-.85-0.62c-0.21-.05-0.29.05-0.24,0.31a3.4,3.4,0,0,1,1.02.94,16.636,16.636,0,0,1,1.32,2.18,14.423,14.423,0,0,1-3.43,4.14c-0.11.16-.06,0.21,0.15,0.16a17.651,17.651,0,0,0,1.8-1.41,11.671,11.671,0,0,0,1.95-2.18,4.077,4.077,0,0,0,.63,1.09c0.31,0.52.75,1.17,1.33,1.95a1.5,1.5,0,0,0,.86.79,9.288,9.288,0,0,0,2.81-.24c0.15-.05.15-0.13,0-0.23a10.734,10.734,0,0,1-5.24-4.07,20.835,20.835,0,0,0,1.64-4.53,2.148,2.148,0,0,0-1.25-1.09,20.1,20.1,0,0,0,2.43-.63c0.26-.1.33-0.23,0.23-0.39a2.043,2.043,0,0,0-.94-0.39,2.112,2.112,0,0,0-.39.32,23.821,23.821,0,0,1-2.5.78,1.54,1.54,0,0,1-1.17-.16,19.414,19.414,0,0,0,1.02-2.34,1.279,1.279,0,0,1,.23-0.32c0.21-.15.13-0.39-0.23-0.7a2.834,2.834,0,0,0-1.25-.62h0Zm-6.02,7.42c-0.16-.05-0.21,0-0.16.15a1.131,1.131,0,0,1,.4.71,7.316,7.316,0,0,1-.47,1.09,21.246,21.246,0,0,1-2.82.63,0.971,0.971,0,0,1-.7-0.32c-0.16-.05-0.21,0-0.16.16a4.632,4.632,0,0,0,.71.94q0.225,0.315.78,0a11.84,11.84,0,0,1,1.8-.63l-0.94,1.72c-0.16.31-.08,0.47,0.23,0.47l0.32-.16a5.526,5.526,0,0,1,1.71.55,8.107,8.107,0,0,1-3.43,2.27q-0.165.15,0.15,0.15a6.4,6.4,0,0,0,1.8-.62,10.279,10.279,0,0,0,2.11-1.49,4.818,4.818,0,0,1,1.56,1.25,0.27,0.27,0,0,0,.39,0l0.16-.23a2.363,2.363,0,0,0-1.64-1.56,11.727,11.727,0,0,0,.78-1.49,16.28,16.28,0,0,0,.78-2.03l1.48-.62q0.165-.24-0.15-0.24l-1.49.39a1.266,1.266,0,0,0-1.01-.47c-0.21-.1-0.26-0.05-0.16.16a0.574,0.574,0,0,1,.24.55l-1.41.39a2.948,2.948,0,0,1,.39-0.63,0.681,0.681,0,0,0-.23-0.39,2.71,2.71,0,0,0-1.02-.7h0Zm2.19,1.87a7.028,7.028,0,0,1-1.17,2.97,15.387,15.387,0,0,0-1.96-.39c0.47-.68.94-1.35,1.41-2.03Zm-2.19-9.76c-0.21-.05-0.26,0-0.16.15a1.523,1.523,0,0,1,.47.55,1.473,1.473,0,0,1,.16.7v2.74l-2.27.39-0.46.08a3.778,3.778,0,0,1-.79-0.24c-0.2-.1-0.26-0.05-0.15.16a3.7,3.7,0,0,0,1.09.78c0.37-.05.96-0.18,1.8-0.39a11.489,11.489,0,0,1-3.6,3.67c-0.1.21-.05,0.26,0.16,0.16a20.755,20.755,0,0,0,2.19-1.33,9.075,9.075,0,0,0,2.11-2.27c0,0.78-.03,1.59-0.08,2.43a1.654,1.654,0,0,0,.31.62c0.11,0.05.26-.08,0.47-0.39v-3.2c0.68-.11,1.51-0.21,2.5-0.32l0.39-.07c0.47-.16.44-0.32-0.08-0.47a2.161,2.161,0,0,0-.86-0.16,0.394,0.394,0,0,0-.39.16l-1.56.23v-2.42a0.806,0.806,0,0,1,.16-0.47,0.4,0.4,0,0,0-.24-0.62,4.282,4.282,0,0,0-1.17-.47h0Zm2.81,0.54c-0.15-.05-0.21,0-0.15.16a0.636,0.636,0,0,1,.39.47,5.875,5.875,0,0,1-1.1,1.95c-0.1.21-.05,0.26,0.16,0.16a9.544,9.544,0,0,0,1.64-1.56c0.1-.06.21-0.11,0.31-0.16,0.26-.1.19-0.31-0.23-0.63a6.767,6.767,0,0,0-1.02-.39h0Zm-5.31.55c-0.16-.05-0.21,0-0.16.16a5.2,5.2,0,0,1,1.02,2.03,0.36,0.36,0,0,0,.55.31,0.708,0.708,0,0,0,.31-0.78,1.345,1.345,0,0,0-.39-0.78,8.4,8.4,0,0,0-1.33-.94h0Zm6.09,5.08c-0.62-.26-1.22-0.5-1.79-0.7-0.21-.06-0.26,0-0.16.15a7.99,7.99,0,0,1,1.88,1.88,0.319,0.319,0,0,0,.39-0.32,1.226,1.226,0,0,0-.32-1.01h0Zm-0.07,12.63c-0.21-.11-0.26-0.06-0.16.15a1.463,1.463,0,0,1,.23.78,2.352,2.352,0,0,1-.15.86c-0.11.26-.39,0.86-0.86,1.8a24.226,24.226,0,0,1-2.42.23,2.981,2.981,0,0,1-1.02-.23c-0.1,0-.15.03-0.15,0.08a2.018,2.018,0,0,0,.93.78c0.16,0,.47-0.03.94-0.08,0.42-.05.91-0.1,1.48-0.16a28.065,28.065,0,0,1-2.81,4.15,0.984,0.984,0,0,0,0,.54q0.165,0.39.39,0.24a9.431,9.431,0,0,1,1.41-1.02,2.78,2.78,0,0,1,1.41-.31,1.118,1.118,0,0,1,.78.23,2.063,2.063,0,0,1,.47,1.49,17,17,0,0,0-2.74,2.03,2.32,2.32,0,0,0-.78,1.64,1.906,1.906,0,0,0,.55,1.41,4.721,4.721,0,0,0,3.36.93h2.65a6.1,6.1,0,0,0,1.41-.15c0.21-.11.23-0.24,0.08-0.39a3.2,3.2,0,0,0-1.02-.39,3.288,3.288,0,0,0-1.01.15,21.7,21.7,0,0,1-2.66.16,3.489,3.489,0,0,1-2.5-.71,1.356,1.356,0,0,1-.39-1.01,1.455,1.455,0,0,1,.47-1.09,13.679,13.679,0,0,1,2.65-1.88v2.03c0.11,0.21.24,0.26,0.39,0.16a0.689,0.689,0,0,0,.32-0.55v-2.03a34.862,34.862,0,0,1,4.53-2.42c0.31-.05.34-0.18,0.08-0.39a4.227,4.227,0,0,0-1.64-.78c-0.21-.06-0.27,0-0.16.15,0.42,0.31.52,0.52,0.31,0.63-1.09.67-2.16,1.35-3.2,2.03a2.191,2.191,0,0,0-.7-1.25,2.047,2.047,0,0,0-1.33-.39,4.512,4.512,0,0,0-.86.08,3.962,3.962,0,0,0-1.1.39c0.26-.37.58-0.84,0.94-1.41,0.42-.68.91-1.46,1.49-2.34,1.61-.21,3.15-0.47,4.61-0.78,0.2-.11.23-0.24,0.07-0.4l-0.93-.46a3.2,3.2,0,0,0-1.02.39,12.41,12.41,0,0,1-2.34.54l0.93-1.79c0.21-.21.24-0.39,0.08-0.55a4.219,4.219,0,0,0-1.01-1.09h0Zm1.4,19.14a0.945,0.945,0,0,0-.54,0,0.435,0.435,0,0,0,.31.31q0.15,0.075,0,.39a18.2,18.2,0,0,1-.7,1.8,14.993,14.993,0,0,1-2.19.31,0.906,0.906,0,0,1-.78-0.15c0.15-.21.31-0.45,0.47-0.71a3.527,3.527,0,0,1,.39-0.62c0.46-.16.39-0.44-0.24-0.86a1.32,1.32,0,0,0-1.01-.31q-0.63.075,0.15,0.39a0.422,0.422,0,0,1,.08.62,16.419,16.419,0,0,1-3.28,4.45c-0.11.21-.05,0.27,0.16,0.16a26.042,26.042,0,0,0,2.65-2.34c0,1.25-.03,2.45-0.08,3.59a8.83,8.83,0,0,0-.07,1.02,2.053,2.053,0,0,0,.23,1.17c0.31,0.21.49,0.1,0.55-.31,0.62-.11,1.38-0.21,2.26-0.32a1.539,1.539,0,0,1,.71,1.17v0.63c-2.61.31-4.46,0.55-5.55,0.7a3.264,3.264,0,0,1-.94-0.08,7.313,7.313,0,0,1-.86-0.39c-0.21-.1-0.26-0.05-0.15.16a4.052,4.052,0,0,0,1.01,1.09,0.656,0.656,0,0,0,.39.24c0.37-.11.78-0.21,1.25-0.31a24.926,24.926,0,0,1,3.36-.55,26.573,26.573,0,0,1-5.62,4.37c-0.27.26-.24,0.32,0.07,0.16a22.764,22.764,0,0,0,3.6-1.87q2.34-1.8,3.44-2.82v1.88a8.515,8.515,0,0,1-.24,1.95,1.8,1.8,0,0,0,.31,1.25c0.21,0.26.39,0.21,0.55-.16a2.988,2.988,0,0,0,.08-1.48v-0.7c0.05-1.1.08-2.03,0.08-2.82q0.615,0.48,4.61,3.99a0.956,0.956,0,0,0,.54.16c0.78-.06,1.57-0.11,2.35-0.16,0.2-.05.23-0.13,0.07-0.24a29.813,29.813,0,0,1-3.67-1.64,24.9,24.9,0,0,1-3.28-2.18c1.82-.16,3.39-0.24,4.69-0.24h1.01c0.63-.05.79-0.21,0.47-0.47a8.312,8.312,0,0,0-1.48-.54c-0.21.05-.52,0.13-0.94,0.23-0.31.05-.81,0.11-1.48,0.16-0.73.05-1.67,0.13-2.82,0.23a2.508,2.508,0,0,1,.08-0.55q0.39-.225-0.15-0.54a3.079,3.079,0,0,1-.94-0.71c1.3-.05,2.68-0.15,4.14-0.31h1.8c0.52-.05.47-0.26-0.16-0.62a1.617,1.617,0,0,0-.86-0.24,3.881,3.881,0,0,1-.78.24c-0.68.1-1.67,0.21-2.97,0.31v-1.25c1.61-.16,2.76-0.29,3.44-0.39,0.15-.1.13-0.24-0.08-0.39a4.054,4.054,0,0,0-1.02-.31,3.848,3.848,0,0,0-.54.31c-0.58.05-1.17,0.13-1.8,0.23a11.057,11.057,0,0,0,.08-1.33c1.46-.1,2.52-0.2,3.2-0.31,0.26-.15.26-0.31,0-0.47a2.146,2.146,0,0,0-1.01-.31,5.107,5.107,0,0,1-2.19.55,7.274,7.274,0,0,0,.08-0.94,3.321,3.321,0,0,0-.39-0.31c1.72-.21,2.99-0.37,3.82-0.47,0.37-.1.45-0.24,0.24-0.39a3.156,3.156,0,0,0-1.25-.47,5.657,5.657,0,0,0-.7.23,12.957,12.957,0,0,1-2.35.55c0.31-.42.65-0.88,1.02-1.41a2.792,2.792,0,0,1,.39-0.31c0.21-.15.18-0.31-0.08-0.47a2.451,2.451,0,0,0-.94-0.23h0Zm-1.09,3.12q0.39,0,.39.63v0.55c-1.04.15-2.08,0.26-3.13,0.31v-1.41a1.34,1.34,0,0,0,.63.16c0.73-.11,1.43-0.18,2.11-0.24h0Zm0.39,3.05a18,18,0,0,1-3.13.39v-1.4a1.694,1.694,0,0,0,.71,0c0.83-.11,1.64-0.21,2.42-0.32v1.33h0Zm0,1.8c-0.89.1-1.77,0.21-2.66,0.31a1.6,1.6,0,0,1-.47-0.08v-1.17a5.355,5.355,0,0,0,1.57-.08c0.57-.1,1.09-0.18,1.56-0.23v1.25h0Zm0.86,12.21c-0.21-.1-0.26-0.05-0.16.16a3.174,3.174,0,0,1,.16.86,13.446,13.446,0,0,1-.78,3.05,11.731,11.731,0,0,0-3.75,1.56,13.862,13.862,0,0,1-.55-2.97,0.717,0.717,0,0,0-.55-0.47,4.449,4.449,0,0,1-.46-0.55c-0.21-.15-0.27-0.1-0.16.16a4.6,4.6,0,0,1,.23.78c0.26,1.3.55,2.48,0.86,3.52a7.674,7.674,0,0,0-1.95,2.03,3.553,3.553,0,0,0-.63,2.03,2.735,2.735,0,0,0,.4,1.64,1.113,1.113,0,0,0,.85.47,2.718,2.718,0,0,0,1.25-.31,8.682,8.682,0,0,0,1.88-1.49c0.21,0.37.42,0.71,0.62,1.02,0.37,0.21.55,0.13,0.55-.24-0.21-.36-0.44-0.8-0.7-1.32,0.62-.94,1.12-1.72,1.48-2.35a33.677,33.677,0,0,0,1.49-3.04,8.653,8.653,0,0,1,1.25-.08,4.061,4.061,0,0,1,2.97,1.01,3.4,3.4,0,0,1,1.09,2.42,4.22,4.22,0,0,1-.94,2.74,9.088,9.088,0,0,1-3.04,2.26c-0.16.16-.14,0.24,0.07,0.24a10.609,10.609,0,0,0,3.6-2.19,3.981,3.981,0,0,0,1.25-2.89,4.173,4.173,0,0,0-1.25-3.05,4.789,4.789,0,0,0-3.52-1.25,11.186,11.186,0,0,0-1.33.08c0.42-1.3.68-2.11,0.78-2.42a2.039,2.039,0,0,0-.23-0.47,3.376,3.376,0,0,0-.78-0.94h0Zm-1.02,4.77a20.726,20.726,0,0,1-2.18,4.45,23.107,23.107,0,0,1-1.1-2.97,10.49,10.49,0,0,1,3.28-1.48h0Zm-3.98,1.95c0.42,1.2.83,2.27,1.25,3.21a4.611,4.611,0,0,1-1.33,1.17,1.843,1.843,0,0,1-.94.23,0.8,0.8,0,0,1-.78-0.31,2.742,2.742,0,0,1-.15-1.17,2.782,2.782,0,0,1,.39-1.49,6.547,6.547,0,0,1,1.56-1.64h0Zm6.17,12.4a1.571,1.571,0,0,0-.86.24c-1.67.42-2.89,0.7-3.67,0.86a1.3,1.3,0,0,1-1.17-.24c-0.21-.1-0.26-0.05-0.16.16,0.57,0.78.99,1.09,1.25,0.94a2.575,2.575,0,0,1,.78-0.32l2.97-.93c0.47-.16.63-0.08,0.47,0.23q-5.16,6.795-6.33,8.2c-0.21.16-.36,0.29-0.47,0.39a1.193,1.193,0,0,0-.07.94c0.15,0.47.33,0.58,0.54,0.31a12.674,12.674,0,0,1,3.44-2.26,8.863,8.863,0,0,1,3.36-1.02,3.431,3.431,0,0,1,2.11.55,1.949,1.949,0,0,1,.7,1.64,3.183,3.183,0,0,1-.62,1.88,4.117,4.117,0,0,1-2.27,1.56,0.755,0.755,0,0,0,0-.47,1.4,1.4,0,0,0-.86-0.86,3.064,3.064,0,0,0-1.4-.31,2.272,2.272,0,0,0-1.57.39,0.9,0.9,0,0,0-.31.62,0.972,0.972,0,0,0,.47.86,3.513,3.513,0,0,0,1.95.39,5.937,5.937,0,0,0,4.38-1.56,3.325,3.325,0,0,0,1.01-2.42,2.323,2.323,0,0,0-.86-2.03,3.586,3.586,0,0,0-2.18-.63,10.082,10.082,0,0,0-3.75.78,19.1,19.1,0,0,0-2.82,1.33h-0.23l6.87-8.2c0.21,0,.32-0.08.32-0.24a0.494,0.494,0,0,0-.24-0.23,3.1,3.1,0,0,0-.78-0.55h0Zm-3.44,12.11a1.34,1.34,0,0,1,.71-0.15,2.386,2.386,0,0,1,2.11,1.32,10.125,10.125,0,0,1-1.41.08,2.614,2.614,0,0,1-1.25-.23,0.565,0.565,0,0,1-.31-0.55,0.663,0.663,0,0,1,.15-0.47h0Zm-25.86-313.11v1.95l-1.95.32h-0.55c-0.1-1.1-.15-1.75-0.15-1.96Zm-0.86-4.14q-0.3.075,0,.24a4.49,4.49,0,0,1,.63.46,0.8,0.8,0,0,1,.16.55v2.34l-2.82.32a1.865,1.865,0,0,0-1.09-.39c-0.21,0-.26.07-0.16,0.23a0.91,0.91,0,0,1,.55.63c0.16,1.82.23,3.15,0.23,3.98a2.287,2.287,0,0,0,.71,1.88,0.6,0.6,0,0,0,.47-0.55l2.18-.24v5.79a0.846,0.846,0,0,0,.39.78c0.21,0,.34-0.29.4-0.86v-1.64c0-.99.02-2.4,0.07-4.22,0.73-.05,1.41-0.08,2.03-0.08a1.091,1.091,0,0,0,.63.55,0.636,0.636,0,0,0,.47-0.39c0.05-.32.15-0.91,0.31-1.8,0.16-.94.31-1.98,0.47-3.13a0.446,0.446,0,0,1,.16-0.31c0.26-.1.15-0.36-0.32-0.78a2.538,2.538,0,0,0-.62-0.47,0.413,0.413,0,0,0-.31.16l-2.74.39v-2.03a0.87,0.87,0,0,1,.08-0.39c0.21-.26.1-0.52-0.31-0.78a2.231,2.231,0,0,0-1.57-.24h0Zm4.22,3.75a0.283,0.283,0,0,1,.32.31l-0.08,1.8a1.486,1.486,0,0,0-.86-0.31,8.044,8.044,0,0,1-1.8.39v-1.95Zm-1.09,2.66h1.25c-0.05.62-.11,1.33-0.16,2.11a1.708,1.708,0,0,1-.54-0.08l-0.39.15-1.57.16,0.08-2.19Zm-2.27.31v2.19l-2.26.23-0.16-2.19h0.47Zm-5.78-2.97c-0.21-.05-0.31,0-0.31.16a4.188,4.188,0,0,1-1.02.39c-0.93.21-1.82,0.36-2.65,0.47a0.9,0.9,0,0,1-.78-0.32c-0.16-.1-0.24-0.07-0.24.08a0.926,0.926,0,0,0,.24.47,2.009,2.009,0,0,0,1.01.63c0.84-.32,1.83-0.65,2.97-1.02a0.218,0.218,0,0,1,.24.31,26.385,26.385,0,0,1-2.27,3.52,15.709,15.709,0,0,1-2.58,2.58c-0.1.15-.05,0.21,0.16,0.15a15.21,15.21,0,0,0,1.56-1.25c0.31-.26.94-0.86,1.88-1.79l0.15,0.15v2.27a16.827,16.827,0,0,1-.15,2.42c-0.06.31-.11,0.6-0.16,0.86a4.27,4.27,0,0,0,.55,1.64c0.2,0.21.36,0.16,0.47-.16a6.957,6.957,0,0,0,.07-1.09v-6.64c0.16-.1.11-0.24-0.15-0.39a25.137,25.137,0,0,0,1.64-2.27,0.632,0.632,0,0,0,.39-0.39q-0.315-.225-1.02-0.78h0Zm-2.34-3.67c-0.16-.1-0.21-0.05-0.16.16a5.416,5.416,0,0,0,2.19,2.26c0.47,0.16.65-.08,0.55-0.7a0.96,0.96,0,0,0-.55-0.63,8.148,8.148,0,0,1-2.03-1.09h0Zm2.19,7.19c-0.16-.05-0.21,0-0.16.15,0.63,0.84,1.15,1.54,1.56,2.11a0.511,0.511,0,0,0,.55.24c0.16-.05.21-0.24,0.16-0.55a2.69,2.69,0,0,0-.39-0.94,1.821,1.821,0,0,0-.63-0.47,3.461,3.461,0,0,1-1.09-.54h0Zm0.39,15.33-0.39.31c-1.36.32-2.48,0.58-3.36,0.79a2.264,2.264,0,0,1-1.02.07,1.921,1.921,0,0,1-.94-0.31c-0.15-.05-0.2,0-0.15.16a2.855,2.855,0,0,0,.86,1.01,2.144,2.144,0,0,0,1.56-.15c1.2-.37,2.03-0.6,2.5-0.71,0.26-.05.34,0.06,0.23,0.32a15.278,15.278,0,0,1-1.95,2.97,14.2,14.2,0,0,1-3.12,2.96c-0.11.21-.06,0.27,0.15,0.16a10.822,10.822,0,0,0,2.27-1.41c0.36-.31.86-0.75,1.48-1.32-0.1,3.17-.18,5.18-0.23,6.01a2.751,2.751,0,0,0,.23,1.02c0.16,0.31.34,0.31,0.55,0l0.23-.39,0.08-7.19c0.89,0.83,1.59,1.46,2.11,1.87,0.42,0.21.63,0.13,0.63-.23a2.778,2.778,0,0,0-.79-1.33c-0.46-.21-1.12-0.47-1.95-0.78q0.7-1.02,1.56-2.19a1.143,1.143,0,0,1,.47-0.39,0.242,0.242,0,0,0,.16-0.23,0.862,0.862,0,0,0-.39-0.47,5.042,5.042,0,0,0-.78-0.55h0Zm5.39-2.89c-0.21-.1-0.26-0.05-0.16.16a2.813,2.813,0,0,1,.78,1.95v4.14a11.632,11.632,0,0,1-2.11.31,2.038,2.038,0,0,1-.7-0.07c-0.16-.06-0.47-0.19-0.94-0.39q-0.315-.165-0.15.15a3.166,3.166,0,0,0,1.01,1.02,1.875,1.875,0,0,0,.71.23c0.31-.05,1.04-0.21,2.18-0.47l-0.15,5.71q-2.19.225-3.21,0.39a3.083,3.083,0,0,1-1.87-.32c-0.26-.1-0.31-0.05-0.16.16a2.63,2.63,0,0,0,2.11,1.02,15.6,15.6,0,0,1,2.81-.39,21.578,21.578,0,0,1,2.66-.16,9.639,9.639,0,0,1,2.34.16,1.079,1.079,0,0,0,.94-0.24c0.11-.1.03-0.26-0.23-0.47a6.321,6.321,0,0,0-.78-0.31c-0.32-.1-0.58-0.18-0.79-0.23a3.041,3.041,0,0,1-.93.23c-0.63,0-1.28.03-1.96,0.08l0.16-5.78a23.058,23.058,0,0,1,2.5-.16,1.236,1.236,0,0,0,.94-0.23c0.1-.16,0-0.32-0.31-0.47a2.724,2.724,0,0,0-1.02-.32,3.741,3.741,0,0,1-.86.24l-1.25.16v-3.36a2.161,2.161,0,0,1,.16-0.86,0.376,0.376,0,0,0,.07-0.39,2.925,2.925,0,0,0-1.79-1.49h0Zm-8.28-.23c-0.21-.11-0.26-0.05-0.16.15l1.72,1.64a1.493,1.493,0,0,0,1.01.55,0.381,0.381,0,0,0,.47-0.39,0.889,0.889,0,0,0-.54-0.86c-0.73-.36-1.57-0.73-2.5-1.09h0Zm8.98,23.4a5.309,5.309,0,0,1,1.49-.63c0.36-.1.44-0.28,0.23-0.54a1.6,1.6,0,0,0-.94-0.47,5.054,5.054,0,0,0-1.17-.08c-0.16.05-.16,0.13,0,0.23,0.47,0.06.65,0.13,0.55,0.24-2.14,1.61-3.75,2.86-4.85,3.75a51.078,51.078,0,0,1-1.72-5.78,2.954,2.954,0,0,0-.93-0.32,3.95,3.95,0,0,0-.86-0.07c-0.16.05-.16,0.13,0,0.23a1.255,1.255,0,0,1,.94.7q0.54,1.485,2.1,5.63a11.876,11.876,0,0,0-2.18,2.26,3.032,3.032,0,0,0-.63,1.8,2.339,2.339,0,0,0,.71,1.72c0.72,0.73,2.42,1.09,5.07,1.09a28.325,28.325,0,0,0,3.36-.15c0.73-.11.91-0.31,0.55-0.63a1.663,1.663,0,0,0-1.17-.47,11.337,11.337,0,0,1-3.75.39,9,9,0,0,1-3.52-.46,1.309,1.309,0,0,1-.78-1.25,4.264,4.264,0,0,1,1.8-3.05,59.138,59.138,0,0,1,5.7-4.14h0Zm2.27,27.32c0.1-.2.05-0.26-0.16-0.15a10.025,10.025,0,0,1-2.66,1.17,8.96,8.96,0,0,1-2.34.31,3.245,3.245,0,0,1-2.27-.62,3.54,3.54,0,0,1-.7-2.5q0-3.045.24-5.55a32.542,32.542,0,0,1,.62-4.06,0.545,0.545,0,0,0-.08-0.47,1.148,1.148,0,0,0-.39-0.47,9.944,9.944,0,0,0-.94-0.7c-0.26-.11-0.31-0.03-0.15.23a1.661,1.661,0,0,1,.39,1.02q-0.39,8.28-.39,9.06c0,1.98.31,3.28,0.94,3.91a3.7,3.7,0,0,0,2.73.93,6.733,6.733,0,0,0,2.58-.47,9.729,9.729,0,0,0,2.58-1.64h0Zm-1.18,7.05a0.362,0.362,0,0,0-.54,0l-0.31.31q-2.895,1.1-9.38,3.2a1.529,1.529,0,0,1-1.09-.08c-0.21-.1-0.26-0.05-0.16.16a1.849,1.849,0,0,0,1.56.94,23.473,23.473,0,0,1,2.82-1.33q3.9-1.65,5.39-2.11l0.07,0.16a16.12,16.12,0,0,0-2.96,3.59,6.234,6.234,0,0,0-.86,3.05,5.023,5.023,0,0,0,2.03,4.06c1.3,1.09,2.26,1.64,2.89,1.64a0.351,0.351,0,0,0,.39-0.47,1.035,1.035,0,0,0-.7-0.86,7.07,7.07,0,0,1-2.97-1.87,3.631,3.631,0,0,1-1.1-2.66,6.851,6.851,0,0,1,1.88-4.22,6.525,6.525,0,0,1,3.2-2.34c0.57-.05.76-0.21,0.55-0.47a4.279,4.279,0,0,0-.71-0.7h0Zm-5.93,17.37c-0.21-.11-0.26-0.05-0.16.15a1.323,1.323,0,0,1,.39,1.18c0,0.2-.03.54-0.08,1.01q-0.075.63-.15,1.56l-3.28.94a0.094,0.094,0,0,0,0,.16,3.348,3.348,0,0,0,.78.15c0.78-.15,1.59-0.33,2.42-0.54-0.21,2.03-.37,3.54-0.47,4.53a4.355,4.355,0,0,1-1.48-.08,1,1,0,0,1-.63-0.86c-0.1-.31-0.21-0.31-0.31,0a1.589,1.589,0,0,0,.39,1.17,2.892,2.892,0,0,0,1.95.55c-0.1,1.04-.15,1.93-0.15,2.66a4.019,4.019,0,0,0,.46,2.18,3,3,0,0,0,2.66,1.25,3.741,3.741,0,0,0,2.74-.93,3.318,3.318,0,0,0,.93-2.43,10.551,10.551,0,0,0-.86-3.43c-0.21-.21-0.26-0.19-0.15.07a16.27,16.27,0,0,1,.31,3.05,2.961,2.961,0,0,1-.78,2.19,3.117,3.117,0,0,1-2.27.7,2.281,2.281,0,0,1-1.79-.62,3.042,3.042,0,0,1-.55-2.03,24.819,24.819,0,0,1,.16-2.74,9.782,9.782,0,0,0,3.51-.47c0.36-.15.5-0.36,0.39-0.62a1.975,1.975,0,0,0-1.17-.31,5.312,5.312,0,0,1-1.02.39,9.025,9.025,0,0,1-1.64.23c0.16-1.93.34-3.46,0.55-4.61a9.343,9.343,0,0,1,3.13-.08c0.31,0,.39-0.15.23-0.47a2.465,2.465,0,0,0-1.72-.62l-1.56.39,0.08-.86a4.98,4.98,0,0,1,.23-1.25,0.567,0.567,0,0,0,.08-0.62,4.349,4.349,0,0,0-1.17-.94h0Zm-3.83,20.04c-0.16.05-.18,0.13-0.08,0.23a0.889,0.889,0,0,1,.47.32,0.734,0.734,0,0,1,0,.47,12.128,12.128,0,0,1-2.73,3.98c-0.16.16-.14,0.23,0.07,0.23a13.489,13.489,0,0,0,1.8-1.56,2.838,2.838,0,0,0,.63.31,4.114,4.114,0,0,0,.78-0.07,0.737,0.737,0,0,1,.31.39,2.612,2.612,0,0,1,.16.7c0,0.57-.03,1.12-0.08,1.64-1.05.37-2.09,0.7-3.13,1.02a1.15,1.15,0,0,1-1.09-.08c-0.21-.11-0.26-0.05-0.16.15a3.324,3.324,0,0,0,1.1.94,5.281,5.281,0,0,1,1.09-.55,12.989,12.989,0,0,1,2.11-.7,11.781,11.781,0,0,1-3.67,6.88q-0.165.315,0.15,0.15a10.463,10.463,0,0,0,3.99-5.23,6.816,6.816,0,0,1,1.79,1.87,11.729,11.729,0,0,0,1.18,1.57q0.54,0.225.54-.24a2.348,2.348,0,0,0-.39-1.4,14.811,14.811,0,0,0-2.97-2.19c0.16-.57.29-1.15,0.39-1.72a10.578,10.578,0,0,1,1.57-.39c0.47-.11.86-0.18,1.17-0.24,0.42-.1.49-0.28,0.23-0.54a3.4,3.4,0,0,0-1.09-.32,2.22,2.22,0,0,0-.55.4c-0.31.1-.73,0.2-1.25,0.31a8.14,8.14,0,0,0,.08-1.1,1.669,1.669,0,0,1,.16-0.78c0.1-.1.08-0.23-0.08-0.39-0.42-.15-0.7-0.26-0.86-0.31,0.99-.26,2.08-0.52,3.28-0.78,0.42-.11.44-0.29,0.08-0.55a2.526,2.526,0,0,0-1.02-.31c-0.21.1-.57,0.31-1.09,0.62a14.017,14.017,0,0,1-2.5.63,0.609,0.609,0,0,1-.47-0.16c0.47-.57.94-1.17,1.41-1.79,0.36-.21.47-0.39,0.31-0.55a4.318,4.318,0,0,0-1.09-.78,1.822,1.822,0,0,0-.55-0.08h0Zm12.58,4.61a1.126,1.126,0,0,0-.94.23c-1.51.21-3.05,0.42-4.61,0.63a3.6,3.6,0,0,0-1.41-.47c-0.15-.05-0.2,0-0.15.16a1.343,1.343,0,0,1,.78,1.25l0.39,4.29a4.443,4.443,0,0,0,.47.78,0.611,0.611,0,0,0,.39.32c0.21,0,.31-0.29.31-0.86a27.418,27.418,0,0,1,3.13-.32,8.977,8.977,0,0,1,1.64,0c0.26-.2.31-0.39,0.15-0.54l-0.39-.24,0.94-3.9c0.26-.21.34-0.37,0.23-0.47Zm-0.71.94a0.278,0.278,0,0,1,.32.31l-0.47,3.83c-1.36.21-2.74,0.41-4.14,0.62l-0.47-4.14a40.672,40.672,0,0,1,4.76-.62h0Zm-9.84,17.13c-0.1-.16-0.18-0.16-0.23,0a0.873,0.873,0,0,0-.16.63,1.278,1.278,0,0,1,0,.62l-1.09,5.16a0.592,0.592,0,0,0-.16.7l0.39,0.78c0.05,0.11.21,0.11,0.47,0a44.693,44.693,0,0,1,4.92-2.11,8.536,8.536,0,0,1,2.03-.47,2.782,2.782,0,0,1,1.49.39,1.473,1.473,0,0,1,.62,1.33,2.473,2.473,0,0,1-.78,1.8,11.993,11.993,0,0,1-3.98,2.34c-0.21.21-.16,0.26,0.15,0.16a12.31,12.31,0,0,0,4.38-1.95,2.48,2.48,0,0,0,1.09-1.96,2.394,2.394,0,0,0-.78-1.87,3.152,3.152,0,0,0-2.19-.71,12.383,12.383,0,0,0-2.97.63c-1.14.36-2.31,0.76-3.51,1.17-0.31,0-.42-0.26-0.31-0.78l0.93-4.77a0.443,0.443,0,0,0-.15-0.46,1.7,1.7,0,0,1-.16-0.63h0Zm1.41-4.61c-0.26-.15-0.32-0.1-0.16.16a18.7,18.7,0,0,0,1.48,1.72,0.187,0.187,0,0,1,0,.31l-0.78.55c-0.15.15-.13,0.2,0.08,0.15a2.6,2.6,0,0,1,.94-0.23,1.008,1.008,0,0,1,.55.15c0.2,0.11.31-.02,0.31-0.39a1.881,1.881,0,0,0-1.02-1.64,4.339,4.339,0,0,1-1.4-.78h0Zm-1.25,19.51c-0.26-.1-0.34-0.05-0.24.16a1.823,1.823,0,0,1,.39,1.41c0,0.99-.02,1.9-0.08,2.73l-2.89,1.64a2.016,2.016,0,0,0-.7.55c-0.05.1,0.03,0.18,0.24,0.23a5.458,5.458,0,0,0,1.09-.39l2.26-1.25-0.07.78c-1.57,2.66-2.76,4.72-3.6,6.17v0.63a1.473,1.473,0,0,0,.16.7c0.1,0.16.26,0.11,0.47-.15l2.81-2.66-0.08,1.33a5.34,5.34,0,0,1-.15,1.25,2.211,2.211,0,0,0,.31,1.72c0.31,0.36.52,0.36,0.62,0v-5c1.83-1.88,3.62-3.7,5.39-5.47a0.852,0.852,0,0,1,.63-0.24c0.21,0,.34.19,0.39,0.55-0.16,3.39-.23,5.63-0.23,6.72a2.876,2.876,0,0,0,.31,1.64,1.266,1.266,0,0,0,1.01.47,3.289,3.289,0,0,0,1.49-.47,7.467,7.467,0,0,0,2.11-1.88c0.1-.26.05-0.33-0.16-0.23a10.117,10.117,0,0,1-1.95,1.41,3.037,3.037,0,0,1-1.25.39,0.751,0.751,0,0,1-.55-0.24,1.613,1.613,0,0,1-.16-0.93v-1.1l0.24-6.25a0.813,0.813,0,0,0-.24-0.62,0.928,0.928,0,0,0-.7-0.24,1.422,1.422,0,0,0-1.01.47q-2.67,2.58-5.32,5.24v-2.66l0.78-1.17a2.077,2.077,0,0,1,.47-0.47q0.315-.24,0-0.39l-1.01-.55,0.08-1.41a4.322,4.322,0,0,1,.23-1.4c0.05-.21-0.31-0.55-1.09-1.02h0Zm-0.08,7.42c-0.05.68-.08,1.44-0.08,2.27l-2.73,2.34c-0.16-.05-0.19-0.15-0.08-0.31Zm2.65,11.27c-0.2-.1-0.26-0.05-0.15.16a1.758,1.758,0,0,1,.39,1.17l0.08,1.87q-3.675.63-5.94,1.25c-0.21,0-.23.06-0.08,0.16a2.158,2.158,0,0,0,1.1.23,2.679,2.679,0,0,1,.39-0.15c0.98-.26,2.5-0.55,4.53-0.86l0.08,3.75a22.85,22.85,0,0,1-3.13.39,3.558,3.558,0,0,1-1.25-.31c-0.1,0-.13.05-0.08,0.15a3.945,3.945,0,0,0,.86.47,4.481,4.481,0,0,0,1.49.16c0.15,0,.44-0.03.86-0.08,0.36-.05.78-0.1,1.25-0.16v4.22c-0.53-.15-1.07-0.28-1.65-0.39a6.846,6.846,0,0,0-.85-0.08,2.217,2.217,0,0,0-1.49.47,1.426,1.426,0,0,0-.55,1.1,1.492,1.492,0,0,0,.63,1.25,2.5,2.5,0,0,0,1.48.39,3.782,3.782,0,0,0,1.72-.39,3.105,3.105,0,0,0,1.41-1.41c1.87,0.78,3.15,1.35,3.83,1.72,0.31,0.15.52,0.13,0.62-.08a1.1,1.1,0,0,0-.55-1.09c-0.15-.05-0.33-0.11-0.54-0.16-1.04-.36-2.14-0.73-3.28-1.09v-4.53c1.4-.32,2.37-0.55,2.89-0.71a0.663,0.663,0,0,0,.54-0.31,0.37,0.37,0,0,0-.39-0.31,3.111,3.111,0,0,0-.86-0.16,4.883,4.883,0,0,1-.7.39c-0.52.16-1.01,0.29-1.48,0.39l-0.08-3.67a19.307,19.307,0,0,1,4.14-.16,1.109,1.109,0,0,0,.86-0.07c0.1-.16,0-0.34-0.31-0.55a5.448,5.448,0,0,0-1.8-.47,4.708,4.708,0,0,1-.7.23l-2.19.4v-1.8a2.38,2.38,0,0,0,.08-0.47,2.749,2.749,0,0,0-1.18-.86h0Zm-2.34,12.42a7.274,7.274,0,0,1,.94.08c0.41,0.11.99,0.29,1.72,0.55a1.644,1.644,0,0,1-.71,1.09,2.8,2.8,0,0,1-1.71.47,2.757,2.757,0,0,1-1.18-.23,0.888,0.888,0,0,1-.47-0.86,0.992,0.992,0,0,1,.32-0.71,1.468,1.468,0,0,1,1.09-.39h0Zm2.74,6.32q-0.24.075,0,.24a0.945,0.945,0,0,1,.62.7,4.284,4.284,0,0,1,.08.94v1.87c-3.39.58-5.65,0.94-6.8,1.1a1.964,1.964,0,0,1-1.01-.08c-0.21-.05-0.24.02-0.08,0.23a3.763,3.763,0,0,0,1.25.71,1.006,1.006,0,0,0,.7-0.16,31.141,31.141,0,0,1,5.94-1.09c0,1.66.02,3.54,0.08,5.62h-0.16a4.993,4.993,0,0,0-.78-2.66,1.744,1.744,0,0,0-1.33-.78,1.292,1.292,0,0,0-.94.39,2.381,2.381,0,0,0-.54,1.72,1.894,1.894,0,0,0,1.4,2.35,13.336,13.336,0,0,0,1.57.39,5.939,5.939,0,0,1-1.02,2.34,10.268,10.268,0,0,1-2.42,2.27c-0.11.2-.05,0.26,0.15,0.15a9.633,9.633,0,0,0,2.74-1.87,5.989,5.989,0,0,0,1.33-2.82,2.072,2.072,0,0,0,.62-0.07,0.511,0.511,0,0,0,.24-0.55,23.63,23.63,0,0,1-.16-2.89v-3.67c1.67-.16,3.02-0.24,4.06-0.24a7.851,7.851,0,0,1,1.64.16c0.32-.05.39-0.21,0.24-0.47a2.694,2.694,0,0,0-1.1-.62c-0.36-.11-0.65-0.19-0.86-0.24-0.2.05-.52,0.16-0.93,0.31-1.05.16-2.06,0.29-3.05,0.39l0.08-1.64a2.212,2.212,0,0,1,.15-0.93,0.4,0.4,0,0,0-.15-0.55,1.993,1.993,0,0,0-1.56-.55h0Zm-2.04,7.35a0.624,0.624,0,0,1,.47-0.16,1.206,1.206,0,0,1,1.1.7,5.012,5.012,0,0,1,.54,2.5v0.39a3.625,3.625,0,0,1-1.72-.47,1.33,1.33,0,0,1-.54-0.54,2.065,2.065,0,0,1-.16-1.02,2.141,2.141,0,0,1,.31-1.4h0Zm8.05,12.09a1.951,1.951,0,0,1,1.41.63,1.818,1.818,0,0,1,.54,1.33,1.8,1.8,0,0,1-.54,1.32,1.893,1.893,0,0,1-2.82,0,1.8,1.8,0,0,1-.54-1.32,1.818,1.818,0,0,1,.54-1.33,1.951,1.951,0,0,1,1.41-.63h0Zm0-.47a2.407,2.407,0,0,0-2.42,2.43,2.308,2.308,0,0,0,.7,1.71,2.438,2.438,0,0,0,3.44,0,2.451,2.451,0,0,0,0-3.43,2.339,2.339,0,0,0-1.72-.71h0Z" transform="translate(-1086.03 -1037.5)"/>
</svg>
