<svg id="access_ttl" xmlns="http://www.w3.org/2000/svg" width="49.595" height="144.22" viewBox="0 0 49.595 144.22">
  <defs>
    <style>
      .cls-1 {
        fill: #100d0d;
        fill-rule: evenodd;
      }
    </style>
  </defs>
  <path id="明治神宮への_アクセス" data-name="明治神宮への アクセス" class="cls-1" d="M999.626,1649a3.549,3.549,0,0,1-.914.31c-1.828.41-3.488,0.71-4.977,0.91a4.835,4.835,0,0,0-1.625-.5c-0.339-.07-0.406,0-0.2.2a1.876,1.876,0,0,1,.914,1.22c0.067,0.47.1,1.76,0.1,3.86a25.392,25.392,0,0,1-.914,7.41,16.738,16.738,0,0,1-3.352,5.79c-0.136.27-.068,0.34,0.2,0.2a17.392,17.392,0,0,0,2.946-3.35,15,15,0,0,0,1.929-4.98q2.031-.09,5.993-0.6,0.1,3.555.1,7c0,0.34-.2.44-0.609,0.31-0.813-.21-1.66-0.44-2.539-0.71-0.272-.14-0.34-0.07-0.2.2,0.879,0.54,1.726,1.05,2.539,1.52a2,2,0,0,1,.711.92c0.134,0.4.342,0.47,0.612,0.2a13.4,13.4,0,0,0,.91-1.62,6.951,6.951,0,0,1-.2-1.73q-0.315-6.495-.1-13.91a1.667,1.667,0,0,1,.3-1.02,0.331,0.331,0,0,0,0-.61,10.939,10.939,0,0,0-1.624-1.02h0Zm0.1,5.79v3.76q-2.236.4-5.891,0.71a30.39,30.39,0,0,0,.2-3.55,29.2,29.2,0,0,1,5.688-.92h0Zm-0.508-4.67a0.413,0.413,0,0,1,.508.41v3.45a2.2,2.2,0,0,0-.711-0.1c-0.34.07-.914,0.2-1.727,0.41-1.016.2-2.1,0.37-3.25,0.5v-3.86h0.609q2.336-.4,4.571-0.81h0Zm-10.664,5.79v3.66h-0.508q-1.728.4-3.555,0.81c0-1.29-.035-2.57-0.1-3.86a1.044,1.044,0,0,0,.914,0c0.812-.2,1.894-0.41,3.25-0.61h0Zm-0.1-5.48a4.543,4.543,0,0,1-.812.4c-1.152.27-2.336,0.51-3.555,0.71a5.51,5.51,0,0,0-1.117-.5c-0.272-.14-0.34-0.07-0.2.2a1.273,1.273,0,0,1,.406.71,4.883,4.883,0,0,1,.2,1.52q0.1,3.36,0,7.21c0,1.16.236,1.73,0.711,1.73q0.507-.105.406-1.32c1.286-.27,2.573-0.51,3.86-0.71a5.09,5.09,0,0,0,.609.41,0.443,0.443,0,0,0,.609-0.11,3.207,3.207,0,0,0,.1-1.42q-0.1-6.9.3-7.31a0.448,0.448,0,0,0-.1-0.71,5.05,5.05,0,0,0-1.422-.81h0Zm-0.406,1.01a0.413,0.413,0,0,1,.508.41v3.25q-2.034.4-4.164,0.81v-3.66a31.292,31.292,0,0,1,3.656-.81h0Zm-1.219,33.8q-1.828,3.24-3.758,5.99a0.579,0.579,0,0,1-.914-0.1c-0.406-.34-0.542-0.27-0.406.2a4.394,4.394,0,0,0,.914,1.42,4.623,4.623,0,0,0,.711.61q0.71,0.615.813-.3a4.62,4.62,0,0,1,.406-1.53q1.319-2.94,2.437-6.09c0.067-.34,0-0.41-0.2-0.2h0Zm7.617-10.97q-0.711-.105-0.1.51a0.982,0.982,0,0,1,.3,1.21,48.076,48.076,0,0,1-3.656,6.2,6.528,6.528,0,0,1-.711.2q-0.407,0-.1,1.53,0.2,0.4.812,0a4.576,4.576,0,0,1,1.422-.61,43.043,43.043,0,0,1,8.225-1.63c0.2,0.41.41,0.81,0.61,1.22,0.54,0.68.95,0.61,1.22-.2a4.67,4.67,0,0,0-.91-2.03,20.936,20.936,0,0,0-2.848-2.24c-0.2-.13-0.271-0.1-0.2.1a19.272,19.272,0,0,1,1.731,2.44,67.517,67.517,0,0,0-8.434,1.32q2.232-2.835,4.265-5.79a3.308,3.308,0,0,1,.508-0.4c0.2-.14.168-0.38-0.1-0.72a6.248,6.248,0,0,0-2.032-1.11h0Zm5.078,12.9c0.407,0,.606.13,0.606,0.4l-0.5,3.96a44.217,44.217,0,0,0-6.906.41,15.972,15.972,0,0,0-.305-3.96,52.586,52.586,0,0,1,7.109-.81h0Zm1.016-1.12c-0.14.07-.34,0.17-0.609,0.3q-4.064.315-7.719,0.82a13.392,13.392,0,0,0-1.32-.51q-0.51-.21-0.305.3a4.559,4.559,0,0,1,.812,1.73,11.552,11.552,0,0,1,.2,3.66,2.241,2.241,0,0,0,.406.91,0.4,0.4,0,0,0,.711-0.1,0.837,0.837,0,0,0,.1-0.31,31.6,31.6,0,0,1,6.6-.5,0.407,0.407,0,0,0,.406.5,0.771,0.771,0,0,0,.911-0.71l0.82-3.76a0.92,0.92,0,0,1,.4-0.5,0.513,0.513,0,0,0,0-.82,4.691,4.691,0,0,0-1.42-1.01h0ZM984.6,1674.57c-0.406-.13-0.508-0.03-0.305.31a14.163,14.163,0,0,0,1.93,2.23,2.283,2.283,0,0,0,1.219.71c0.269,0,.406-0.2.406-0.61a2.13,2.13,0,0,0-.61-1.32,5.375,5.375,0,0,1-2.64-1.32h0Zm-1.828,5.49c-0.407-.27-0.508-0.21-0.305.2a7.933,7.933,0,0,0,1.93,2.03,1.7,1.7,0,0,0,1.218.31c0.542-.41.338-0.99-0.609-1.73a4.939,4.939,0,0,1-2.234-.81h0Zm13.1,24.27v2.54l-2.539.41h-0.711c-0.136-1.42-.2-2.27-0.2-2.54Zm-1.117-5.38q-0.406.1,0,.3a7.893,7.893,0,0,1,.813.61,1.017,1.017,0,0,1,.2.71v3.05l-3.657.41a2.432,2.432,0,0,0-1.421-.51q-0.408,0-.2.3a1.207,1.207,0,0,1,.711.82c0.2,2.37.3,4.09,0.3,5.18,0.067,1.28.371,2.1,0.914,2.43a0.754,0.754,0,0,0,.609-0.71l2.844-.3v7.51a1.085,1.085,0,0,0,.508,1.02c0.27,0,.44-0.37.508-1.12v-2.13c0-1.29.033-3.11,0.1-5.48,0.948-.07,1.829-0.11,2.641-0.11a1.4,1.4,0,0,0,.814.72,0.843,0.843,0,0,0,.61-0.51c0.06-.41.2-1.19,0.4-2.34,0.21-1.22.41-2.57,0.61-4.06a0.585,0.585,0,0,1,.21-0.41c0.33-.13.2-0.47-0.41-1.01a3.074,3.074,0,0,0-.81-0.61,0.611,0.611,0,0,0-.41.2l-3.553.51v-2.64a1.116,1.116,0,0,1,.1-0.51q0.4-.51-0.407-1.02a2.865,2.865,0,0,0-2.031-.3h0Zm5.489,4.87a0.358,0.358,0,0,1,.4.41l-0.1,2.34a1.894,1.894,0,0,0-1.117-.41,9.834,9.834,0,0,1-2.336.51v-2.54Zm-1.426,3.46h1.626c-0.07.81-.14,1.72-0.2,2.74a2.2,2.2,0,0,1-.716-0.1l-0.507.2-2.032.2,0.1-2.84Zm-2.946.4v2.85l-2.945.3-0.2-2.84h0.609Zm-7.515-3.86c-0.272-.06-0.407,0-0.407.21a5.168,5.168,0,0,1-1.32.51c-1.219.27-2.371,0.47-3.453,0.61a1.191,1.191,0,0,1-1.016-.41c-0.2-.14-0.3-0.1-0.3.1a1.212,1.212,0,0,0,.3.61,2.558,2.558,0,0,0,1.321.81q1.623-.6,3.859-1.32a0.283,0.283,0,0,1,.305.41,34.657,34.657,0,0,1-2.946,4.57,19.526,19.526,0,0,1-3.351,3.35c-0.137.2-.068,0.27,0.2,0.2a19.54,19.54,0,0,0,2.031-1.62q0.609-.51,2.438-2.34l0.2,0.21v2.94a21.109,21.109,0,0,1-.2,3.15c-0.069.41-.137,0.78-0.2,1.12a5.58,5.58,0,0,0,.71,2.13c0.27,0.27.473,0.2,0.61-.2a9.019,9.019,0,0,0,.1-1.43v-8.63c0.2-.13.135-0.3-0.2-0.51a30.649,30.649,0,0,0,2.133-2.94,0.845,0.845,0,0,0,.508-0.51q-0.406-.3-1.32-1.02h0Zm-3.047-4.77c-0.2-.13-0.272-0.07-0.2.2a7,7,0,0,0,2.843,2.95c0.61,0.2.846-.1,0.711-0.91a1.207,1.207,0,0,0-.711-0.82,10.684,10.684,0,0,1-2.64-1.42h0Zm2.843,9.35c-0.2-.07-0.271,0-0.2.2,0.813,1.08,1.489,2,2.032,2.74a0.667,0.667,0,0,0,.711.31c0.2-.07.269-0.31,0.2-0.72a3.126,3.126,0,0,0-.508-1.21,2.01,2.01,0,0,0-.813-0.61,4.965,4.965,0,0,1-1.422-.71h0Zm2.743,15.64c-0.272,0-.305.1-0.1,0.3a1.375,1.375,0,0,1,.813,1.02v1.73l-5.079.5H985l-0.3-1.01c-0.2-.21-0.3-0.17-0.3.1a7.7,7.7,0,0,1-.1,1.42,4.659,4.659,0,0,1-1.32,1.93c0,0.95.135,1.49,0.406,1.63a0.7,0.7,0,0,0,.914-0.51,4.916,4.916,0,0,0,.813-2.74h1.117c2.031-.21,4.027-0.44,5.992-0.71q3.249-.315,7.211-0.31c0.541,0.07.647,0.27,0.3,0.61l-1.219,1.83c-0.137.27-.068,0.34,0.2,0.2l2.028-1.32a1.822,1.822,0,0,1,1.22-.2,0.287,0.287,0,0,0,.31-0.41,3.946,3.946,0,0,0-1.73-1.83h-0.41c-1.893.21-4.33,0.44-7.309,0.71v-1.11a0.6,0.6,0,0,1,.3-0.51c0.2-.14.135-0.37-0.2-0.71a3.613,3.613,0,0,0-2.031-.61h0Zm4.976,5.79a8.33,8.33,0,0,0-1.726.51c-1.625.2-2.709,0.34-3.25,0.4s-1.254.14-2.133,0.21a6.3,6.3,0,0,0-1.219-.41c-0.271-.14-0.34-0.07-0.2.2a3.849,3.849,0,0,1,.711,1.22l0.3,2.74a1.59,1.59,0,0,0,.609,1.02c0.2,0.14.371,0.03,0.508-.31l1.117-.1a1.212,1.212,0,0,1,.305.92,15.458,15.458,0,0,1-.61,2.13l-2.742.2a3.023,3.023,0,0,0-1.523-.4q-0.408,0,0,.3a1.783,1.783,0,0,1,.812,1.12l0.711,4.37c0.27,0.54.541,0.67,0.813,0.4a1.286,1.286,0,0,0,.3-0.51c1.692-.27,2.911-0.44,3.657-0.5a23.971,23.971,0,0,1,2.437-.11,6.978,6.978,0,0,1,1.219.21,0.513,0.513,0,0,0,.508-0.1,1.463,1.463,0,0,0,.1-0.61l1.117-3.05a1.1,1.1,0,0,1,.508-0.41c0.27-.2.2-0.5-0.2-0.91a4.2,4.2,0,0,0-1.117-.81,8.309,8.309,0,0,0-1.625.2l-4.367.51a18.517,18.517,0,0,0,1.117-1.83c0.2-.2.371-0.37,0.508-0.51a0.248,0.248,0,0,0,0-.4,2.411,2.411,0,0,0-.61-0.41l2.235-.51a1.506,1.506,0,0,0,.812.41,0.406,0.406,0,0,0,.406-0.21,3.032,3.032,0,0,0,.2-0.6c0.406-.88.777-1.76,1.117-2.65a1.126,1.126,0,0,1,.406-0.4c0.2-.14.067-0.37-0.406-0.71a3.117,3.117,0,0,0-.813-0.61h0Zm0,8.63c0.406,0,.575.14,0.508,0.41l-0.711,3.55-0.812-.1q-3.252.4-6.4,0.71l-0.609-3.66q2.842-.195,8.023-0.91h0Zm-0.812-7.62c0.269,0,.371.17,0.3,0.51a22.3,22.3,0,0,1-.711,2.54,1.628,1.628,0,0,1-.609-0.2,5.183,5.183,0,0,1-.711.3,22.653,22.653,0,0,1-3.859.61l-0.508-2.94,1.219-.11,4.062-.6Zm-4.977,25.05a2,2,0,0,0-1.015-.31,2.853,2.853,0,0,0-1.422.41,49.756,49.756,0,0,0-4.368,2.84,1.228,1.228,0,0,1-1.218,0q-0.408-.195-0.2.21a4.49,4.49,0,0,0,.711.51,2.249,2.249,0,0,0,1.32.5,1.658,1.658,0,0,1,.406-0.61q1.219-1.005,2.641-2.13a4.129,4.129,0,0,1,2.133-1.22,1.686,1.686,0,0,1,.812.31,17.039,17.039,0,0,1,2.031,1.52q7.211,5.49,9.853,7.41c0.47,0.28.71,0.17,0.71-.3a1.835,1.835,0,0,0-.3-0.91,1.725,1.725,0,0,0-.82-0.72q-6.394-4.155-11.271-7.51h0Zm3.86,22.51a12.382,12.382,0,0,0-9.04,3.85c-1.421,1.43-2.132,2.71-2.132,3.86a8.426,8.426,0,0,0,.507,3.05,9.574,9.574,0,0,0,1.422,2.64,0.864,0.864,0,0,0,1.118.41,10.782,10.782,0,0,0,1.117-1.02,28.429,28.429,0,0,0,3.859-5.99q2.031-4.26,2.031-5.18a1.815,1.815,0,0,0-.3-0.91h1.015a7.332,7.332,0,0,1,5.383,1.82,5.663,5.663,0,0,1,1.425,4.17,6.464,6.464,0,0,1-1.222,4.16,13.174,13.174,0,0,1-5.484,3.76c-0.137.14-.1,0.2,0.1,0.2a15.831,15.831,0,0,0,5.789-2.94,5.89,5.89,0,0,0,2.036-4.57,7.127,7.127,0,0,0-1.934-5.28,7.666,7.666,0,0,0-5.687-2.03h0Zm-1.829.71q0,1.725-2.031,5.48a18.292,18.292,0,0,1-4.469,5.99,0.446,0.446,0,0,1-.507-0.1,5.953,5.953,0,0,1-1.118-2.13,6.811,6.811,0,0,1-.507-2.44,3.2,3.2,0,0,1,1.117-2.23q3.96-3.96,7.515-4.57h0ZM962.6,1655.63c-0.272,0-.3.1-0.1,0.31a1.317,1.317,0,0,1,.609,1.01,13.95,13.95,0,0,1-1.32,4.98,16.1,16.1,0,0,1-3.961,5.79c-0.2.27-.136,0.33,0.2,0.2a16.828,16.828,0,0,0,3.961-4.47,21.657,21.657,0,0,0,2.336-5.99c0.338-.27.406-0.51,0.2-0.71a3.393,3.393,0,0,0-1.929-1.12h0Zm8.023-5.28a0.784,0.784,0,0,0-.711.2q-4.673.915-12.695,2.24a10.949,10.949,0,0,1-2.539.1q-0.611-.105-0.2.3a9.191,9.191,0,0,0,1.726,1.12,3.517,3.517,0,0,1,.914-0.3q4.06-1.02,13-2.54c0.338,0,.406.13,0.2,0.4a25.416,25.416,0,0,1-5.281,5.18c-0.271.27-.238,0.38,0.1,0.31a40.779,40.779,0,0,0,4.164-2.85c0.812-.67,1.793-1.59,2.945-2.74,0.541-.2.609-0.4,0.2-0.61Zm-9.445,25.28c-0.272-.13-0.34-0.03-0.2.31a1.183,1.183,0,0,1,.406,1.01,11.7,11.7,0,0,1-1.93,2.95,46.62,46.62,0,0,1-4.265,4.67c-0.137.27-.069,0.34,0.2,0.2a31,31,0,0,0,3.757-3.15,40.185,40.185,0,0,0,3.657-4.36c0.609,0,1.422-.04,2.437-0.11a21.322,21.322,0,0,0,2.641-.3q0.507-.105.3,0.3A38.7,38.7,0,0,1,956.1,1693.1q-0.306.3,0.1,0.3a35.277,35.277,0,0,0,7.211-6.09,42.279,42.279,0,0,0,5.992-9.34,1.788,1.788,0,0,1,.508-0.51,0.331,0.331,0,0,0,0-.61,3.914,3.914,0,0,0-1.422-1.12,2.5,2.5,0,0,1-.609.31,17.936,17.936,0,0,1-2.945.51c-1.016.06-1.864,0.1-2.54,0.1a4.387,4.387,0,0,0-1.218-1.02h0Zm-1.524,25.22c-0.271,0-.3.1-0.1,0.3a1.2,1.2,0,0,1,.609,1.02l-0.1,5.28q-2.643.81-4.977,1.52a4.191,4.191,0,0,1-1.016.21,6.254,6.254,0,0,1-1.015-.11c-0.2,0-.238.07-0.1,0.21a3.839,3.839,0,0,0,1.625,1.11,4.489,4.489,0,0,1,.813-0.4q2.536-.915,4.672-1.63v2.44c0,2.44.3,3.96,0.914,4.57q1.421,1.425,5.179,1.42c0.676,0,1.625-.03,2.844-0.1,0.813-.13.947-0.41,0.406-0.81a3.038,3.038,0,0,0-1.625-.51,9.782,9.782,0,0,1-2.843.31c-1.559,0-2.608-.27-3.149-0.82s-0.779-1.66-.711-3.35l0.1-3.45a82.12,82.12,0,0,1,7.922-2.24c0.2,0,.236.14,0.1,0.41a32.88,32.88,0,0,1-4.265,4.57c-0.137.27-.069,0.34,0.2,0.2a31.415,31.415,0,0,0,4.265-3.14c0.541-.48,1.083-0.95,1.625-1.43,0.541-.2.711-0.4,0.508-0.61l-1.93-1.32a0.865,0.865,0,0,0-.711.41q-5.384,1.53-7.617,2.13l0.3-4.36a1.065,1.065,0,0,1,.2-0.61c0.135-.14-0.238-0.44-1.117-0.92a2.427,2.427,0,0,0-1.016-.3h0Zm9.039,27-1.422-1.01a0.956,0.956,0,0,0-1.015.3q-2.338.615-5.078,1.32a21.231,21.231,0,0,1-3.555.82,7.185,7.185,0,0,1-1.219-.11,0.586,0.586,0,0,0,.3.51,9.321,9.321,0,0,0,1.117.82,0.676,0.676,0,0,0,.813-0.21,29.139,29.139,0,0,1,2.945-1.01q2.538-.72,4.977-1.32c0.406-.07.507,0.06,0.3,0.4a49.386,49.386,0,0,1-5.179,7.52,39.3,39.3,0,0,1-6.907,6.29q-0.2.315,0.2,0.21a44.53,44.53,0,0,0,4.266-2.85,38.021,38.021,0,0,0,3.961-3.86,23.512,23.512,0,0,1,3.047,2.44,26.492,26.492,0,0,1,4.062,4.37c0.541,0.41.813,0.27,0.813-.41a5.639,5.639,0,0,0-1.828-2.94,36.186,36.186,0,0,0-5.891-3.76,45.846,45.846,0,0,0,4.875-6.91c0.473-.2.609-0.4,0.406-0.61h0Z" transform="translate(-952.875 -1649)"/>
</svg>
