<svg id="event_ttl" xmlns="http://www.w3.org/2000/svg" width="48.56" height="91.07" viewBox="0 0 48.56 91.07">
  <defs>
    <style>
      .cls-1 {
        fill: #100d0d;
        fill-rule: evenodd;
      }
    </style>
  </defs>
  <path id="年間_行事予定" data-name="年間 行事予定" class="cls-1" d="M1634.73,1044.76v4.41c-1.5.18-2.88,0.37-4.13,0.56v-2.25a2.271,2.271,0,0,1,.19-0.85q0.18-.465-0.66-0.93c1.19-.32,2.72-0.63,4.6-0.94h0Zm-4.41-6.19h-0.56c-0.25,0-.28.1-0.1,0.28a0.782,0.782,0,0,1,.75.66,18.5,18.5,0,0,1-3.28,4.31c-0.12.25-.06,0.32,0.19,0.19a16.483,16.483,0,0,0,2.91-2.44,1.959,1.959,0,0,0,1.4.19l2.16-.28a3.546,3.546,0,0,1,.94,2.53c-2.38.44-3.91,0.69-4.6,0.75a3,3,0,0,1-1.97-.47c-0.25-.12-0.31-0.06-0.18.19a0.881,0.881,0,0,0,.37.47,11.519,11.519,0,0,0,1.03.75,1.761,1.761,0,0,1,.28,1.31v2.91a23.343,23.343,0,0,1-2.9.37,1.763,1.763,0,0,1-1.32-.47c-0.25-.12-0.31-0.06-0.18.19a4.155,4.155,0,0,0,1.31,1.31,1.14,1.14,0,0,0,.94,0,54.972,54.972,0,0,1,7.22-1.31v4.87c0,1,.03,1.79.09,2.35,0,0.56.12,0.84,0.37,0.84a2.459,2.459,0,0,0,.38-1.4q0.09-1.035.28-6.75a56.485,56.485,0,0,1,5.81-.1c0.75,0.06,1.38.13,1.88,0.19,0.75-.13.84-0.44,0.28-0.94a4.274,4.274,0,0,0-1.78-.84,7.358,7.358,0,0,1-1.22.47c-1.56.12-3.22,0.25-4.97,0.37v-4.4c1.31-.19,2.59-0.32,3.84-0.38h1.13q0.555-.285,0-0.75a6.358,6.358,0,0,0-1.59-.47c-0.19.06-.51,0.19-0.94,0.38-0.88.12-1.69,0.25-2.44,0.37a5.639,5.639,0,0,1,.09-1.31,0.772,0.772,0,0,0-.46-0.47,6.122,6.122,0,0,0-1.04-.66,34.067,34.067,0,0,1,4.32-.46c0.75,0,1.12-.16,1.12-0.47a0.814,0.814,0,0,0-.56-0.57,2.309,2.309,0,0,0-1.13-.18,4.11,4.11,0,0,1-.65.37c-2.57.44-4.31,0.72-5.25,0.85a2.586,2.586,0,0,1-1.5,0,13.728,13.728,0,0,0,.84-1.13,0.513,0.513,0,0,0,.28-0.56,1.809,1.809,0,0,0-1.59-.66h0Zm11.72,23.93a1.525,1.525,0,0,0-.94.19l-3.56.56a13.623,13.623,0,0,0-1.41-.09c-0.19,0-.25.09-0.19,0.28a1.6,1.6,0,0,1,.57,1.31v3.66a5.725,5.725,0,0,0,.09.84c0.13,0.69.31,1.03,0.56,1.03a0.313,0.313,0,0,0,.28-0.28,0.736,0.736,0,0,0,.1-0.37l3.65-.38,0.57,0.19-0.1,9.47c0,0.44-.18.59-0.56,0.47-0.5-.19-1.19-0.41-2.06-0.66-0.25-.12-0.32-0.06-0.19.19a9.44,9.44,0,0,1,2.53,2.72,0.35,0.35,0,0,0,.47,0,2.269,2.269,0,0,0,1.03-1.6q0-3.84-.09-7.78,0.09-3.84.09-7.78a1.075,1.075,0,0,1,.19-0.75,0.489,0.489,0,0,0,.19-0.47,0.615,0.615,0,0,0-.28-0.28c-0.25-.12-0.57-0.28-0.94-0.47h0Zm-0.75.85a0.378,0.378,0,0,1,.47.37v1.59l-4.22.66v-2.06Zm-10.03,3.28-0.1,2.34-3.37.66v-2.44h0.84Zm5.06,7.97v2.43a2.28,2.28,0,0,0-1.41.1,8.826,8.826,0,0,1-2.62.37v-2.44Zm-0.28-2.63a0.332,0.332,0,0,1,.37.38v1.59a2.082,2.082,0,0,0-.65-0.09,2.67,2.67,0,0,0-.57.09,11.89,11.89,0,0,1-2.9.37v-1.87Zm5.72-5.81v2.34a0.988,0.988,0,0,0-1.03,0l-3.19.47v-2.25Zm-10.03-3.38a3,3,0,0,0-.57.28l-3.37.66a6.378,6.378,0,0,1-1.41-.56c-0.31-.13-0.41-0.06-0.28.19a1.864,1.864,0,0,1,.66,1.31c0,4.19-.04,7.28-0.1,9.28-0.12,1.94-.28,3.66-0.47,5.16v0.65a3.246,3.246,0,0,0,.57,1.69c0.25,0.19.47,0.06,0.65-.38,0-1.06.03-2.53,0.1-4.4q0.09-2.715.18-6l3.57-.85a0.4,0.4,0,0,0,.37.38,0.881,0.881,0,0,0,.38-0.09l0.18-.47,0.29-4.41a2.784,2.784,0,0,1,.09-1.03,0.827,0.827,0,0,0,.28-0.38,0.515,0.515,0,0,0-.19-0.37,3.778,3.778,0,0,0-.93-0.66h0Zm-0.85,1.03c0.25-.06.38,0.07,0.38,0.38v1.78a31.345,31.345,0,0,1-3.47.47v-1.97Zm4.88,7.32a22.243,22.243,0,0,1-3.57.65,4.113,4.113,0,0,0-1.31-.37c-0.19.06-.22,0.19-0.09,0.37a2.4,2.4,0,0,1,.47,1.69c0,1.5-.04,3.03-0.1,4.59,0,0.5.13,0.75,0.38,0.75a0.757,0.757,0,0,0,.75-0.56,7.427,7.427,0,0,0,1.4-.19,6.378,6.378,0,0,1,2.54-.18,1.015,1.015,0,0,0,.56.84,0.36,0.36,0,0,0,.37-0.19,1.791,1.791,0,0,0,.19-0.84l0.09-4.97a1.435,1.435,0,0,0,.38-0.66,0.553,0.553,0,0,0-.09-0.37,3.586,3.586,0,0,0-.85-0.75,1.334,1.334,0,0,0-1.12.19h0Zm-23-27.38q-3.75.465-9,1.22a4.153,4.153,0,0,1-1.78-.28c-0.19-.06-0.22,0-0.1.19a4.086,4.086,0,0,0,1.78,1.12c0.25-.06.78-0.19,1.6-0.37,0.56-.13,1.56-0.28,3-0.47a2.293,2.293,0,0,1,.65.94,41.133,41.133,0,0,1,.19,8.53c0,0.43-.28.59-0.84,0.47l-2.07-.47c-0.37,0-.4.09-0.09,0.28a8.762,8.762,0,0,1,1.97,1.03,3.639,3.639,0,0,1,1.03,1.12,0.518,0.518,0,0,0,.38.29,0.558,0.558,0,0,0,.37-0.38,3.382,3.382,0,0,0,.38-1.69,76.43,76.43,0,0,1,0-8.62,0.643,0.643,0,0,0-.29-0.94,7.986,7.986,0,0,0-1.03-.75,41.947,41.947,0,0,1,5.82-.37c0.43-.13.5-0.35,0.18-0.66a3.687,3.687,0,0,0-1.5-.56c-0.12.06-.34,0.18-0.65,0.37h0Zm-11.72-.75a1.229,1.229,0,0,0-.75-0.28c-0.25,0-.28.09-0.1,0.28a0.9,0.9,0,0,1,.19.47,1.592,1.592,0,0,1-.09.47,27.755,27.755,0,0,1-4.41,6.19c-0.31.31-.28,0.37,0.1,0.18a20.3,20.3,0,0,0,3.37-3.09,1.387,1.387,0,0,1,.19.56q0,5.91-.47,6.85a5.507,5.507,0,0,0,.37,1.31q0.285,0.465.66,0a5.958,5.958,0,0,0,.19-1.78v-6.66a5.477,5.477,0,0,0-.38-1.12c0.5-.69.94-1.35,1.32-1.97a0.563,0.563,0,0,1,.37-0.38c0.19-.06.22-0.22,0.09-0.47a2.2,2.2,0,0,0-.65-0.56h0Zm-0.75-4.22c-0.19-.06-0.25,0-0.19.19a0.827,0.827,0,0,1,.28.38,0.515,0.515,0,0,1-.19.37,11.68,11.68,0,0,1-3.37,2.72c-0.13.19-.06,0.25,0.19,0.19a16,16,0,0,0,4.5-2.53,0.627,0.627,0,0,1,.28-0.1c0.31,0,.37-0.12.19-0.37a3.84,3.84,0,0,0-.66-0.47,3.038,3.038,0,0,0-1.03-.38h0Zm9.47,0.85a16.305,16.305,0,0,1-3.94.65,5.758,5.758,0,0,1-.94-0.18c-0.12,0-.19.03-0.19,0.09a2.052,2.052,0,0,0,1.5.94c1.38-.25,3.25-0.53,5.63-0.85,0.37-.18.41-0.37,0.09-0.56a3.187,3.187,0,0,0-1.5-.47,1.47,1.47,0,0,0-.65.38h0Zm-4.97,22.29a1.29,1.29,0,0,0-.66.09c-0.12.06-.12,0.13,0,0.19a2.318,2.318,0,0,1,1.13.75,6.2,6.2,0,0,1,.09,1.4c-1.94.13-4.09,0.32-6.47,0.57a2.674,2.674,0,0,1-1.87-.38c-0.19-.06-0.22,0-0.1.19a4.216,4.216,0,0,0,1.97,1.4,16.564,16.564,0,0,1,2.72-.65,20.041,20.041,0,0,1,3.75-.38v1.6c-1.12.12-2.34,0.22-3.66,0.28a3.573,3.573,0,0,0-1.21-.28c-0.25,0-.29.06-0.1,0.18a1.145,1.145,0,0,1,.75.66,15.118,15.118,0,0,0,.66,2.25c0.19,0.25.4,0.25,0.65,0a26.928,26.928,0,0,1,2.91-.47v1.88c-2.5.31-3.91,0.47-4.22,0.47a2.585,2.585,0,0,1-1.59-.57c-0.25-.12-0.32-0.03-0.19.28a2.51,2.51,0,0,0,1.5,1.22,4.184,4.184,0,0,0,1.03-.18c1.19-.13,2.35-0.29,3.47-0.47v1.59q-6.375.66-7.31,0.66a5.193,5.193,0,0,1-2.16-.57c-0.25-.12-0.31-0.06-0.19.19a3.943,3.943,0,0,0,2.25,1.31,7.08,7.08,0,0,1,1.13-.18q3.84-.285,6.28-0.57v1.88c-1.31.13-2.66,0.22-4.03,0.28a2.239,2.239,0,0,1-1.41-.37q-0.375-.2-0.18.18a2.158,2.158,0,0,0,1.78,1.03c2-.24,3.28-0.4,3.84-0.46v1.59c0,0.81-.22,1.22-0.66,1.22a11.505,11.505,0,0,1-1.87-.38c-0.31.07-.31,0.19,0,0.38a5.107,5.107,0,0,1,2.53,2.06c0.19,0.19.38,0.16,0.56-.09a3.14,3.14,0,0,0,.47-1.41v-3.47q1.695-.09,2.91-0.09c0.75,0.06,1.12-.06,1.12-0.38,0.06-.18-0.06-0.34-0.37-0.47l0.75-1.96h2.9a10.579,10.579,0,0,1,1.22.09,0.531,0.531,0,0,0,.57-0.47,1.167,1.167,0,0,0-.94-0.56,3.184,3.184,0,0,0-1.03-.19,5.045,5.045,0,0,1-1.6.28h-0.84a3.213,3.213,0,0,1,.56-1.4,0.567,0.567,0,0,0-.09-0.38c-0.25-.19-0.66-0.47-1.22-0.84l-0.66.28c-1.06.12-2.15,0.25-3.28,0.37v-1.87a22.773,22.773,0,0,1,2.72-.19c0.19,0.38.34,0.53,0.47,0.47a1,1,0,0,0,.37-0.47q0.195-.375.66-1.5a2.762,2.762,0,0,0,.38-0.47,2.347,2.347,0,0,0-.94-1.03l-0.47.19c-1.06.12-2.13,0.25-3.19,0.37v-1.59c2.13-.13,3.81-0.22,5.06-0.28a11.051,11.051,0,0,1,2.35.19c0.56,0,.65-0.25.28-0.75a4.489,4.489,0,0,0-1.5-.57c-0.44.13-.88,0.25-1.31,0.38-1.57.12-3.19,0.22-4.88,0.28a1.493,1.493,0,0,1,.28-1.03c0.19-.13.16-0.31-0.09-0.56a3.1,3.1,0,0,0-1.78-.75h0Zm0.56,6.75c-0.69.06-1.69,0.18-3,.37-0.06-.44-0.16-0.9-0.28-1.41,0.94-.06,2.03-0.15,3.28-0.28v1.32Zm3.84,7.21c-0.93.07-1.87,0.13-2.81,0.19v-1.78c1.06-.12,2.16-0.22,3.28-0.28Zm0.66-4.31a2.456,2.456,0,0,1,.28.38l-0.28,1.22c-1.12.12-2.28,0.22-3.47,0.28v-1.6a29.632,29.632,0,0,1,3.47-.28h0Zm-0.56-4.69c0.25-.06.34,0.04,0.28,0.29a7.151,7.151,0,0,1-.28,1.21,21.433,21.433,0,0,0-2.91.19v-1.31c1.31-.13,2.28-0.25,2.91-0.38h0Zm-4.13,27.23c-0.25,0-.28.1-0.09,0.28a2.819,2.819,0,0,1,.84,1.32v7.31c0,0.37-.18.5-0.56,0.37a9.344,9.344,0,0,1-2.25-.65c-0.37-.13-0.44-0.06-0.19.19a9.74,9.74,0,0,1,2.72,2.62c0.13,0.31.31,0.34,0.56,0.09a17.234,17.234,0,0,0,.94-1.96c-0.12-1.5-.19-2.6-0.19-3.29v-4.31a1.167,1.167,0,0,0,.29-0.65,2.788,2.788,0,0,0-2.07-1.32h0Zm3.38-7.78a1.726,1.726,0,0,1-.47.28c-2.25.5-3.69,0.82-4.31,0.94a10.226,10.226,0,0,1-1.88.19,3.2,3.2,0,0,1-1.78-.56c-0.25-.13-0.31-0.07-0.19.18a3.139,3.139,0,0,0,1.88,1.6,3.422,3.422,0,0,0,.84-0.28l5.63-1.41c0.31-.06.4,0.06,0.28,0.37-0.25.26-.63,0.66-1.13,1.22-0.56.5-1.12,1.03-1.68,1.6a10.394,10.394,0,0,0-3.38-.85c-0.13.07-.16,0.13-0.09,0.19a8.785,8.785,0,0,1,2.43,1.41c0.32,0.37.66,0.75,1.04,1.12-3,.63-5.22,1.03-6.66,1.22a4.543,4.543,0,0,1-1.13-.09c-0.25-.13-0.56-0.28-0.93-0.47h-0.19c-0.31,0-.13.34,0.56,1.03a4.617,4.617,0,0,0,1.6.94,48.645,48.645,0,0,1,5.53-1.69,27.5,27.5,0,0,1,6.37-.75c0.19,0,.25.09,0.19,0.28-0.63.69-1.25,1.35-1.88,1.97-0.12.25-.06,0.31,0.19,0.19l3.19-1.6a3.083,3.083,0,0,1,.75-0.18c0.31-.07.47-0.16,0.47-0.29a2.01,2.01,0,0,0-1.03-.93c-0.75-.5-1.22-0.66-1.41-0.47a7.576,7.576,0,0,1-1.59.28c-1,.06-2.13.19-3.38,0.37a0.754,0.754,0,0,0-.09-0.93l-0.28-.47a20.845,20.845,0,0,0,2.72-1.69,5.669,5.669,0,0,1,2.06-1.12c0.12-.07.12-0.19,0-0.38a3.167,3.167,0,0,0-.85-0.75c-0.81-.44-1.28-0.59-1.4-0.47h0Zm0.09,29.59a1.091,1.091,0,0,0-.65.28,25.529,25.529,0,0,1-3.85.75,12.6,12.6,0,0,1-1.97.18,2.311,2.311,0,0,1-1.31-.37c-0.25-.13-0.31-0.06-0.19.19a2.023,2.023,0,0,0,.85.75,2.575,2.575,0,0,0,1.12.28,4,4,0,0,0,1.03-.1c0.38-.06.6,0.04,0.66,0.29,0.06,0.62.09,1.25,0.09,1.87v6.28c-2-.81-3.47-1.44-4.4-1.87a11.44,11.44,0,0,0,.84-1.69c0.31-.13.41-0.28,0.28-0.47a3.57,3.57,0,0,0-1.87-1.12c-0.32-.07-0.38.03-0.19,0.28a1.3,1.3,0,0,1,.47.84,5.915,5.915,0,0,1-.75,2.53,14.286,14.286,0,0,1-2.25,2.81c-0.06.19,0.03,0.25,0.28,0.19a16.26,16.26,0,0,0,1.5-1.12,23.117,23.117,0,0,0,1.5-1.88q3.09,1.785,9.28,4.6a2.6,2.6,0,0,0,1.41.18l4.31-.56c0.19-.13.19-0.25,0-0.37-2.81-.38-4.63-0.66-5.44-0.85-0.87-.19-2.22-0.56-4.03-1.12v-4.69a2.962,2.962,0,0,0,.84.09,13.6,13.6,0,0,0,1.69-.18,12.816,12.816,0,0,0,2.91-.57,0.436,0.436,0,0,0,.09-0.47,3.771,3.771,0,0,0-1.5-.37,4.838,4.838,0,0,1-1.12.47,10.889,10.889,0,0,1-2.25.28,1.41,1.41,0,0,1-.57-0.09v-2.63a0.49,0.49,0,0,0-.09-0.66l-0.28-.18a9.042,9.042,0,0,0,1.5-.19c0.69-.13,1.56-0.28,2.62-0.47a0.606,0.606,0,0,0,.66-0.56c0-.25-0.41-0.44-1.22-0.56h0Zm-2.81-5.54c-0.38-.18-0.78-0.37-1.22-0.56a2.874,2.874,0,0,0-.66-0.09c-0.31.06-.31,0.19,0,0.37a1.067,1.067,0,0,1,.75,1.03v2.07q-4.59.555-6.37,0.65a1.161,1.161,0,0,0-.56-0.84c-0.25-.19-0.35-0.16-0.28.09a1.388,1.388,0,0,1,.18.75,5.782,5.782,0,0,1-.09.75,6.827,6.827,0,0,1-.38,1.32,2.233,2.233,0,0,0-.28.84,1.717,1.717,0,0,0,.19.94,0.53,0.53,0,0,0,.56.18,1.463,1.463,0,0,0,.57-0.93,6.055,6.055,0,0,0,.18-1.41v-1.03a54.658,54.658,0,0,0,6.94-.75c3.13-.25,5.25-0.38,6.38-0.38a2.9,2.9,0,0,1,.84.1v0.28c-0.44.56-.88,1.09-1.31,1.59-0.07.19,0.03,0.25,0.28,0.19a5.621,5.621,0,0,1,2.9-1.31c0.25-.13.32-0.28,0.19-0.47a7.218,7.218,0,0,0-1.31-1.13,5.01,5.01,0,0,1-.66-0.37,2.86,2.86,0,0,0-1.12.28c-1.63.13-3.56,0.28-5.81,0.47v-1.5a0.56,0.56,0,0,1,.18-0.38,0.446,0.446,0,0,0-.09-0.75h0Z" transform="translate(-1595.63 -1038.56)"/>
</svg>
