<svg id="kyouikuchokugo_ttl" xmlns="http://www.w3.org/2000/svg" width="77.031" height="111.19" viewBox="0 0 77.031 111.19">
  <defs>
    <style>
      .cls-1 {
        fill: #100d0d;
        fill-rule: evenodd;
      }
    </style>
  </defs>
  <path id="教育勅語を_書いて_みましょう" data-name="教育勅語を 書いて みましょう" class="cls-1" d="M817.713,2462.67c-0.375,0-.375.1,0,0.28a0.706,0.706,0,0,1,.282.75,23.3,23.3,0,0,1-.938,3,32.257,32.257,0,0,1-2.344,4.69c-0.126.25-.063,0.32,0.188,0.19a22.891,22.891,0,0,0,1.969-2.63,33.293,33.293,0,0,0,3.562-.37,0.482,0.482,0,0,1,.469.47q0.092,0.465-1.594,4.59a11.5,11.5,0,0,0-2.437-2.9q-1.125-.57-0.563,0a2.969,2.969,0,0,1,.938,1.03,21.293,21.293,0,0,1,1.687,2.62,14.15,14.15,0,0,1-4.594,5.25c-0.126.19-.063,0.25,0.188,0.19a13.445,13.445,0,0,0,5.062-4.5q2.343,3.57,2.813,4.12a1.05,1.05,0,0,0,.75.38c0.375,0.06,1.125.16,2.25,0.28,0.687,0.06.905-.06,0.656-0.37-0.126-.07-0.344-0.19-0.656-0.38a17.123,17.123,0,0,1-2.156-1.5,21.221,21.221,0,0,1-3.188-3.37q0.844-1.785,1.875-4.32a2.4,2.4,0,0,1,.281-0.47,0.369,0.369,0,0,0,.094-0.28,2.755,2.755,0,0,0-1.031-1.12c1.5-.25,2.344-0.41,2.531-0.47a0.807,0.807,0,0,0,.75-0.47c0-.31-0.625-0.47-1.875-0.47-0.313.19-.656,0.38-1.031,0.56a27.117,27.117,0,0,1-2.906.75c-0.438.07-.938,0.13-1.5,0.19a32.16,32.16,0,0,0,2.062-4.31,0.551,0.551,0,0,0,.188-0.38,1.07,1.07,0,0,0-.375-0.56,1.163,1.163,0,0,0-.844-0.37,1.34,1.34,0,0,0-.563-0.1h0Zm-7.218-.93q-1.033-.285-0.657.18c0.062,0.07.219,0.22,0.469,0.47a1.5,1.5,0,0,1,.188.94v1.78a19.2,19.2,0,0,1-1.969.19,7.668,7.668,0,0,1-1.219-.19c-0.187-.06-0.22,0-0.094.19a2.406,2.406,0,0,0,.844.56,1.353,1.353,0,0,0,.563.09,15.856,15.856,0,0,0,1.875-.18v2.25c-0.689.12-1.376,0.25-2.063,0.37a9.134,9.134,0,0,1-1.594.19,3.751,3.751,0,0,1-1.312-.28c-0.251-.13-0.314-0.06-0.188.19a3.612,3.612,0,0,0,1.5,1.03,2.426,2.426,0,0,0,.938-0.19,29.914,29.914,0,0,1,3.469-.75,28.1,28.1,0,0,1-5.719,5.53c-0.314.31-.251,0.38,0.187,0.19a20.617,20.617,0,0,0,3.75-2.72,10.672,10.672,0,0,0,1.219-.19,17.379,17.379,0,0,0,1.875-.37q0.374-.09.188,0.18a10.179,10.179,0,0,1-1.313,1.97c-0.313-.12-0.5-0.12-0.562,0a2.317,2.317,0,0,0,.281.57,3.586,3.586,0,0,1,.375,1.03,16.172,16.172,0,0,1-4.125,1.22,1.507,1.507,0,0,1-.938-0.29q-0.562-.09,0,0.57a4.125,4.125,0,0,0,.938.84,0.785,0.785,0,0,0,.844-0.19c0.124-.06.53-0.25,1.218-0.56,0.812-.37,1.531-0.72,2.157-1.03l0.093,1.59a5.365,5.365,0,0,1-.187,1.6,0.688,0.688,0,0,1-.656.56,2.74,2.74,0,0,1-1.313-.56c-0.25-.06-0.281.03-0.094,0.28a3.989,3.989,0,0,1,1.5,1.5,0.974,0.974,0,0,0,.469.65,0.54,0.54,0,0,0,.281-0.28,5.616,5.616,0,0,0,.657-2.34c0.061-.69.093-1.09,0.093-1.22q0-.555-0.093-2.16c0.811-.37,1.624-0.78,2.437-1.21,0.188-.19.125-0.25-0.187-0.19q-1.125.465-2.344,0.84a1.541,1.541,0,0,0-.656-1.12q0.749-.57,2.437-2.07,0.656-.27,0-0.75a2.27,2.27,0,0,0-.844-0.46,1.4,1.4,0,0,0-.656.37,16.531,16.531,0,0,1-2.437.56c0.811-.93,1.593-1.78,2.343-2.53a13.561,13.561,0,0,1,2.438-.28c0.375,0,.562-0.12.562-0.37a0.6,0.6,0,0,0-.468-0.38,2.539,2.539,0,0,0-.75-0.09,1.192,1.192,0,0,1-.469.18c-0.251.07-.5,0.13-0.75,0.19a41.476,41.476,0,0,0,2.812-3.84,2.66,2.66,0,0,0-.187-0.56,2.616,2.616,0,0,0-1.125-1.04c-0.188-.06-0.251,0-0.188.19a1.457,1.457,0,0,0,.282.38,0.426,0.426,0,0,1,.093.47,8.067,8.067,0,0,1-.843,1.59,1.233,1.233,0,0,0-.75-0.28,6.635,6.635,0,0,1-1.594.37,6.766,6.766,0,0,1,.281-1.97,0.513,0.513,0,0,0-.094-0.65,3.014,3.014,0,0,0-1.218-.56h0Zm3.093,3.65c-0.625.88-1.188,1.69-1.687,2.44l-0.563.09,0.188-2.34c0.5-.06,1-0.13,1.5-0.19h0.562Zm5.344,28.42a0.328,0.328,0,0,1,.375.37v1.59l-6.094.66v-1.87Zm0.281,2.81v1.87l-6.093.57v-1.88Zm-0.093-3.75c-0.126.06-.282,0.12-0.469,0.19l-5.063.84h-0.562a2.392,2.392,0,0,0-1.125-.38c-0.188,0-.251.1-0.188,0.29a1.651,1.651,0,0,1,.469,1.03c-0.063,4.25-.157,6.65-0.281,7.22s-0.188.87-.188,0.93a5.677,5.677,0,0,0,.094.85c0.125,0.68.312,1.03,0.563,1.03a0.72,0.72,0,0,0,.468-0.66,10.253,10.253,0,0,0,.094-1.59c0.062-.88.094-1.78,0.094-2.72l6.187-.56v2.25q0,0.93-.562.93a8.952,8.952,0,0,1-2.25-.75c-0.251-.12-0.314-0.06-0.188.19a13.742,13.742,0,0,1,2.532,2.63q0.374,0.465.656,0a3.644,3.644,0,0,0,.844-2.16v-7.22a0.964,0.964,0,0,1,.093-0.56,0.763,0.763,0,0,0,.282-0.47,0.789,0.789,0,0,0-.282-0.47,4.72,4.72,0,0,0-1.218-.84h0Zm-4.407-7.97c-0.25,0-.281.09-0.093,0.28,0.124,0.06.249,0.13,0.375,0.19a0.748,0.748,0,0,1,.375.75v1.4q-2.907.285-5.625,0.75a2.922,2.922,0,0,1-1.5,0,5.3,5.3,0,0,1-1.032-.46q-0.469-.375-0.375.09a1.8,1.8,0,0,0,.657.84,2.956,2.956,0,0,0,1.218.75c0.437-.12.844-0.25,1.219-0.37a36.411,36.411,0,0,1,4.125-.66,17.936,17.936,0,0,1-2.812,3.38c-0.314-.06-0.5,0-0.563.18q-0.189.2,0.281,0.66a1.038,1.038,0,0,0,.657.38,1.377,1.377,0,0,0,.75-0.19,69.612,69.612,0,0,1,7.5-1.69q0.749,1.125,1.125,1.59a0.554,0.554,0,0,0,.468.29c0.249,0,.375-0.25.375-0.75a3.167,3.167,0,0,0-.562-1.22,11.532,11.532,0,0,0-3.375-1.97c-0.251-.06-0.314,0-0.188.19a6.733,6.733,0,0,1,1.688,1.4c-2.876.44-5.407,0.81-7.594,1.13q1.781-1.5,2.625-2.16c0.375-.25.875-0.56,1.5-0.94,0.312-.18.312-0.34,0-0.47,2.187-.18,3.687-0.28,4.5-0.28a17.5,17.5,0,0,1,3.563.19,1.038,1.038,0,0,0,.843-0.19,0.467,0.467,0,0,0-.281-0.65,8.435,8.435,0,0,0-2.156-.57,4.609,4.609,0,0,1-.938.38l-4.875.28v-0.56a1.645,1.645,0,0,1,.094-0.66,1.1,1.1,0,0,1,.188-0.28c0.124-.06.03-0.25-0.282-0.56a2.146,2.146,0,0,0-.843-0.38,4.646,4.646,0,0,0-1.032-.09h0Zm4.875,23.92c-0.375,0-.468.1-0.281,0.29a1.48,1.48,0,0,1,.656,1.03c0,1.06-.063,2.28-0.187,3.65a6,6,0,0,1-1.688.38,1.167,1.167,0,0,1-.843-0.38c-0.188-.12-0.282-0.06-0.282.19a2.154,2.154,0,0,0,.657,1.03,0.8,0.8,0,0,0,.562.28,0.936,0.936,0,0,0,.469-0.18,7.152,7.152,0,0,1,.937-0.38,21.1,21.1,0,0,1-1.406,5.91,18.15,18.15,0,0,1-2.812,4.5c-0.063.18,0,.25,0.187,0.18a16.077,16.077,0,0,0,3.281-4.5,23.167,23.167,0,0,0,1.875-6.46,16.077,16.077,0,0,1,2.907-.66c0.187,0,.281.16,0.281,0.47a29.38,29.38,0,0,1-.469,5.34,12.708,12.708,0,0,1-1.406,4.31,0.606,0.606,0,0,1-.75.38,14.948,14.948,0,0,1-1.688-.56c-0.25-.06-0.313,0-0.187.18a4.465,4.465,0,0,1,1.219,1.13,1.263,1.263,0,0,0,.562,1.03q0.936,0.09,2.063-2.25,1.217-2.535,1.781-9.28a0.623,0.623,0,0,0,.281-0.75,2.688,2.688,0,0,0-1.125-.94c-0.187-.19-0.562-0.09-1.125.28l-2.156.47,0.187-3a0.678,0.678,0,0,0,.282-0.65l-0.094-.19a2.715,2.715,0,0,0-1.688-.85h0Zm-4.875,4.88a0.366,0.366,0,0,1,.282.37l-0.469,2.16a5.762,5.762,0,0,0-2.344.19v-2.53a6.5,6.5,0,0,1,2.531-.19h0Zm-1.968-5.16a5.582,5.582,0,0,0-1.875-.75c-0.314,0-.375.1-0.188,0.28a3.307,3.307,0,0,1,.656.66,3.227,3.227,0,0,1,.094,1.03v0.66l-3,.56a2.591,2.591,0,0,1-1.5-.66c-0.187-.12-0.25-0.06-0.187.19a2.652,2.652,0,0,0,1.218,1.41,3.024,3.024,0,0,0,1.313-.28l2.156-.47v2.15l-3.281.66a9.621,9.621,0,0,0-1.313-.56c-0.25,0-.281.09-0.093,0.28a1.485,1.485,0,0,1,.75,1.03l0.281,3.09q0.186,0.855.562,0.66l0.563-.37,1.781-.57a25.5,25.5,0,0,1-2.062,3.28,22.838,22.838,0,0,1-2.157,2.44c-0.063.19,0,.25,0.188,0.19q1.5-1.32,2.437-2.25c0.687-.75,1.437-1.66,2.25-2.72v3.84a10.46,10.46,0,0,1-.093,1.22,5.655,5.655,0,0,0-.188.94,2.973,2.973,0,0,0,.469,1.59c0.124,0.19.281,0.19,0.469,0a2.572,2.572,0,0,0,.187-1.12v-6.38a8.047,8.047,0,0,1,2.344,2.25,0.628,0.628,0,0,0,.75.29,0.441,0.441,0,0,0,.281-0.47,2.4,2.4,0,0,0-.562-1.22,14.85,14.85,0,0,0-2.813-1.41v-0.84l2.063-.28a0.923,0.923,0,0,0,.937.28l0.844-2.72c0.436-.13.562-0.34,0.375-0.66a3.947,3.947,0,0,0-1.219-1.12,0.973,0.973,0,0,0-.562.19,18.794,18.794,0,0,0-2.344.37l0.094-2.16a28.78,28.78,0,0,1,3.187-.37c0.249,0,.343-0.16.281-0.47a5.02,5.02,0,0,0-1.312-.56,0.579,0.579,0,0,0-.656.19,5.376,5.376,0,0,1-1.407.37,2.9,2.9,0,0,1,.188-1.22,1.047,1.047,0,0,0,.094-0.47h0Zm-1.313,8.07a25.283,25.283,0,0,0-2.719.84l-0.187-2.63q1.593-.465,2.906-0.75v2.54Zm10.406,26.7a0.258,0.258,0,0,1,.375.28l-0.375,3.1a36.006,36.006,0,0,0-4.687.65l-0.469-3.37c1.313-.13,3.031-0.34,5.156-0.66h0Zm0.563-.94a0.413,0.413,0,0,0-.375,0,0.887,0.887,0,0,1-.375.19c-0.813.19-1.657,0.35-2.531,0.47a22.665,22.665,0,0,1-3.094.19c-0.251-.13-0.532-0.25-0.844-0.38-0.25-.06-0.313,0-0.187.19a3.792,3.792,0,0,1,.75,1.13,30.93,30.93,0,0,1,.375,3.28,1.689,1.689,0,0,0,.468,1.03,0.66,0.66,0,0,0,.469.19,0.687,0.687,0,0,0,.281-0.66,21.58,21.58,0,0,1,3.844-.56,15.073,15.073,0,0,1,1.594.09c0.375,0,.436-0.19.187-0.56l-0.375-.28,0.657-2.44a1.7,1.7,0,0,1,.468-0.47c0.188-.12.188-0.28,0-0.47a4.5,4.5,0,0,0-1.312-.94h0Zm-0.75-10.68-0.469.18a11.808,11.808,0,0,1-1.687.38c-0.813.13-1.688,0.25-2.625,0.37a1.791,1.791,0,0,1-1.5-.37c-0.251-.13-0.314-0.06-0.188.19a2.423,2.423,0,0,0,1.594.93,6.968,6.968,0,0,0,1.406-.18,0.75,0.75,0,0,1,.375.75l-0.375,2.06a12.116,12.116,0,0,1-2.062.19,1.506,1.506,0,0,1-.938-0.38c-0.25-.12-0.313-0.06-0.187.19a2.7,2.7,0,0,0,1.5,1.12,5.337,5.337,0,0,1,1.406-.37l-0.938,3.19-2.062.28a3.21,3.21,0,0,1-1.594-.28c-0.25-.13-0.313-0.06-0.187.18a3.03,3.03,0,0,0,1.968.94,32.109,32.109,0,0,1,10.5-.75c0.312-.12.406-0.25,0.282-0.37a3.924,3.924,0,0,0-.657-0.38,2.155,2.155,0,0,0-1.5-.37,3.617,3.617,0,0,1-1.5.18l0.469-2.43a1.229,1.229,0,0,1,.281-0.57,0.348,0.348,0,0,0,0-.56,1.787,1.787,0,0,0-1.125-.56,7.813,7.813,0,0,1-2.531.56l0.375-1.31c0.312-.25.406-0.44,0.281-0.56a2.646,2.646,0,0,0-.843-0.85,22.21,22.21,0,0,1,3.75-.37q0.654-.285.187-0.66a6.458,6.458,0,0,0-1.406-.37h0Zm-0.281,4.5a0.328,0.328,0,0,1,.375.37l-0.375,2.91c-1.125.12-2.313,0.25-3.563,0.37l1.313-3.37Zm-9.469,7.78a0.328,0.328,0,0,1,.375.37L812,2546.5q-0.376.09-2.907,0.75l-0.468-2.53q1.405-.285,3.281-0.75h0Zm0.844-.75a0.446,0.446,0,0,0-.563,0,1.2,1.2,0,0,1-.375.19,13.727,13.727,0,0,1-3.469.65,4.61,4.61,0,0,0-1.218-.47c-0.188-.06-0.251,0-0.188.19a2.886,2.886,0,0,1,.656.94l0.844,3.28a0.456,0.456,0,0,0,.656.37,1.3,1.3,0,0,0,.188-0.56,9.9,9.9,0,0,1,2.531-.37,0.749,0.749,0,0,0,1.031-.57l0.469-2.25a1.143,1.143,0,0,1,.281-0.46c0.125-.13.094-0.29-0.093-0.47a4.489,4.489,0,0,0-.75-0.47h0Zm-1.032-2.91c-0.126.06-.313,0.16-0.562,0.28l-2.063.57a2.574,2.574,0,0,1-1.312-.19c-0.251-.13-0.314-0.06-0.188.19a4.282,4.282,0,0,0,1.594.75,18.411,18.411,0,0,1,3.188-.57c0.5-.12.656-0.34,0.468-0.65a3.837,3.837,0,0,0-1.125-.38h0Zm-0.093-2.72c-0.126.07-.314,0.16-0.563,0.28l-2.062.47a2.328,2.328,0,0,1-1.125-.09c-0.251-.13-0.314-0.06-0.188.19a2.385,2.385,0,0,0,1.5.65,29.112,29.112,0,0,1,3.188-.47c0.562-.12.656-0.34,0.281-0.65a3.615,3.615,0,0,0-1.031-.38h0Zm-3.375-6.09c-0.251-.13-0.314-0.06-0.188.19a7.073,7.073,0,0,0,2.344,1.4,4.181,4.181,0,0,0,1.5.28,0.456,0.456,0,0,0,.562-0.46,0.713,0.713,0,0,0-.656-0.57,9.009,9.009,0,0,1-3.562-.84h0Zm5.906,3.37a4.1,4.1,0,0,0-1.219-.37c-0.126.06-.344,0.16-0.656,0.28q-2.064.375-4.313,0.84a1.8,1.8,0,0,1-1.687-.65c-0.251-.13-0.314-0.06-0.188.19a3.339,3.339,0,0,0,1.5,1.59,19.118,19.118,0,0,1,6.188-1.22q0.936,0,.375-0.66h0Zm0.937,18.12c-0.25-.13-0.313-0.06-0.187.18a1.849,1.849,0,0,1,.281.94,2.738,2.738,0,0,1-.187,1.03c-0.126.32-.469,1.03-1.032,2.16-1.5.19-2.469,0.28-2.906,0.28a3.6,3.6,0,0,1-1.219-.28c-0.126,0-.187.03-0.187,0.09a2.475,2.475,0,0,0,1.125.94q0.28,0,1.125-.09c0.5-.06,1.093-0.13,1.781-0.19a34.977,34.977,0,0,1-3.375,4.97,1.138,1.138,0,0,0,0,.65c0.125,0.32.281,0.41,0.469,0.29a11.085,11.085,0,0,1,1.687-1.22,3.369,3.369,0,0,1,1.688-.38,1.328,1.328,0,0,1,.937.28,2.445,2.445,0,0,1,.563,1.78,21.164,21.164,0,0,0-3.281,2.44,2.782,2.782,0,0,0-.938,1.97,2.288,2.288,0,0,0,.656,1.69c0.75,0.75,2.094,1.12,4.032,1.12h3.187a7.265,7.265,0,0,0,1.688-.18c0.249-.13.281-0.29,0.093-0.47a2.456,2.456,0,0,0-2.437-.28,28.416,28.416,0,0,1-3.188.18,4.211,4.211,0,0,1-3-.84,1.645,1.645,0,0,1-.468-1.22,1.785,1.785,0,0,1,.562-1.31,16.041,16.041,0,0,1,3.188-2.25v2.44c0.124,0.25.281,0.31,0.468,0.18a0.793,0.793,0,0,0,.375-0.65v-2.44a43.84,43.84,0,0,1,5.438-2.91c0.375-.06.406-0.22,0.094-0.47a5.222,5.222,0,0,0-1.969-.93q-0.376-.09-0.188.18,0.75,0.57.375,0.75-1.968,1.23-3.843,2.44a2.617,2.617,0,0,0-.844-1.5,2.439,2.439,0,0,0-1.594-.47,6.65,6.65,0,0,0-1.031.1,4.721,4.721,0,0,0-1.313.47c0.312-.44.687-1,1.125-1.69,0.5-.81,1.093-1.75,1.782-2.81,1.936-.25,3.78-0.57,5.531-0.94,0.249-.13.281-0.28,0.094-0.47l-1.125-.56a3.686,3.686,0,0,0-1.219.47,16.077,16.077,0,0,1-2.813.65l1.125-2.15c0.249-.25.282-0.47,0.094-0.66a4.922,4.922,0,0,0-1.219-1.31h0Zm-23.468-78.61q-1.314.09-7.969,0.66-0.845.09-1.875,0.18a2.384,2.384,0,0,0-1.125-.56c-0.188-.06-0.22.03-0.094,0.28a1.23,1.23,0,0,1,.563.94c0.187,1.19.342,2.34,0.468,3.47a2.745,2.745,0,0,0,.375,1.78c0.249,0.38.469,0.28,0.657-.28,0.624-.13,1.467-0.25,2.531-0.38q2.342-.18,4.031-0.18H790.5a0.422,0.422,0,0,1,.562.37c0.249,0.5.53,0.34,0.844-.47,0.312-1.37.593-2.75,0.844-4.12,0.312-.44.312-0.75,0-0.94a4.638,4.638,0,0,0-1.125-.75h0Zm-6.282-12.84c-0.25,0-.281.09-0.093,0.28a3.1,3.1,0,0,1,.656.65,6.159,6.159,0,0,1,.187,1.32c-1.188.12-2.343,0.25-3.468,0.37a2.467,2.467,0,0,1-.938,0,2.854,2.854,0,0,1-1.125-.47c-0.25-.12-0.313-0.06-0.187.19a2.5,2.5,0,0,0,1.593,1.31,3.786,3.786,0,0,1,.75-0.28c1.125-.12,2.25-0.28,3.375-0.47v1.5q-5.251.57-7.5,0.75a3.319,3.319,0,0,1-1.031-.09,4.023,4.023,0,0,1-.844-0.47c-0.25-.12-0.313-0.06-0.187.19a2.73,2.73,0,0,0,1.594,1.4c0.687-.18,1.374-0.34,2.062-0.46s2.656-.35,5.906-0.66v1.5c-1.125.19-2.188,0.37-3.187,0.56H781.87a4.387,4.387,0,0,1-1.125-.47c-0.063,0-.094.07-0.094,0.19a3.9,3.9,0,0,0,.937.84,1.8,1.8,0,0,0,.938.29c0.187-.07.53-0.16,1.031-0.29,0.312-.06,1.156-0.21,2.531-0.46v1.5c-1.251.18-2.5,0.34-3.75,0.46h-0.562a2.009,2.009,0,0,1-1.125-.37c-0.126-.06-0.157,0-0.094.19a3.062,3.062,0,0,0,.656.65,1.4,1.4,0,0,0,.75.38,7.377,7.377,0,0,1,1.032-.28c1-.13,2.03-0.25,3.093-0.38v1.41l-6.187.75h-0.844a3.026,3.026,0,0,1-1.406-.56q-0.376-.2-0.188.18c0.312,0.38.563,0.66,0.75,0.85a1.472,1.472,0,0,0,.75.56c0.437-.13.812-0.22,1.125-0.28,0.437-.06,1.25-0.19,2.438-0.38,0.624-.12,1.812-0.28,3.562-0.47a47.657,47.657,0,0,1,6.188-.18,13.534,13.534,0,0,1,2.25.37q0.843-.375,0-0.84a6.432,6.432,0,0,0-1.875-.56,14.592,14.592,0,0,1-2.438.28q-1.406.09-3.187,0.18v-1.4a36.974,36.974,0,0,1,3.844-.28,2.163,2.163,0,0,1,.656.09q1.03-.09.375-0.66a3.75,3.75,0,0,0-1.219-.37,2.106,2.106,0,0,1-.562.28c-1.064.13-2.1,0.22-3.094,0.28v-1.5q1.688-.09,3.281-0.09h0.563a0.441,0.441,0,0,0,.468-0.28,1.5,1.5,0,0,0-.281-0.38,13.7,13.7,0,0,1,.469-1.5c0.874,0,1.718.03,2.531,0.1a7.265,7.265,0,0,1,1.688.18c0.375-.12.436-0.28,0.187-0.47a3.162,3.162,0,0,0-1.594-.75,2.361,2.361,0,0,1-.562.19h-2.063a1.857,1.857,0,0,1,.657-1.03c0.187-.19.187-0.34,0-0.47a4.943,4.943,0,0,0-1.032-.75,3.557,3.557,0,0,0-.75.1h-0.75q-0.751,0-2.812.18a0.761,0.761,0,0,1,.187-0.56c0.249-.12.156-0.41-0.281-0.84a3.09,3.09,0,0,0-.75-0.47,2.949,2.949,0,0,0-.844-0.28h0Zm5.25,4.87c-0.126.5-.25,0.97-0.375,1.41-0.876.06-1.938,0.12-3.187,0.19v-1.5c1.186,0,2.374-.04,3.562-0.1h0Zm0.75,11.16c-0.126.75-.25,1.44-0.375,2.06-0.25-.06-0.531-0.12-0.843-0.19-0.314.07-1.657,0.16-4.032,0.28-1,.07-2.188.19-3.562,0.38-0.063-.69-0.126-1.34-0.188-1.97a1.363,1.363,0,0,1,.563.09c0.811-.12,1.624-0.21,2.437-0.28,0.938-.12,2.937-0.25,6-0.37h0Zm-0.281-2.35a0.529,0.529,0,0,1,.469.57,9.417,9.417,0,0,1-.094,1.31,1.926,1.926,0,0,0-.656-0.28c-0.375.06-.813,0.12-1.313,0.19-1.438.06-2.906,0.18-4.406,0.37-1.375.13-2.313,0.19-2.812,0.19a16.012,16.012,0,0,0-.282-1.69c1.749-.19,3.406-0.34,4.969-0.47,1.5-.12,2.874-0.19,4.125-0.19h0Zm-0.469-11.06c0.188,0,.282.13,0.282,0.38-0.063.43-.126,0.84-0.188,1.22q-1.782.09-3.656,0.09v-1.5c1.249-.06,2.437-0.13,3.562-0.19h0ZM778.4,2489.37c-0.314-.13-0.407-0.06-0.281.19l0.281,0.93a34.588,34.588,0,0,0,2.25,7.69,8.6,8.6,0,0,0,2.812,3.28c0.437,0.19.718,0.1,0.844-.28a2.572,2.572,0,0,1-.187-1.12,14.214,14.214,0,0,1,.656-2.63q0-.285-0.188-0.09l-1.031,1.68c-0.25.44-.5,0.57-0.75,0.38a6.189,6.189,0,0,1-1.969-2.91,29.913,29.913,0,0,1-1.406-5.9,2.879,2.879,0,0,0-1.031-1.22h0Zm12.75,0.28c-0.314-.13-0.375-0.06-0.188.19a10.23,10.23,0,0,1,3.469,7.12c0.312,0.81.593,1.22,0.844,1.22,0.375,0,.562-0.34.562-1.03a7.5,7.5,0,0,0-1.312-4.03,11.884,11.884,0,0,0-3.375-3.47h0Zm1.031,19.6a0.447,0.447,0,0,0-.656,0l-0.375.37q-3.47,1.32-11.25,3.84a1.868,1.868,0,0,1-1.313-.09c-0.25-.12-0.313-0.06-0.187.19a2.2,2.2,0,0,0,1.875,1.12,32.275,32.275,0,0,1,3.375-1.59c3.124-1.31,5.281-2.16,6.469-2.53l0.093,0.19a19.28,19.28,0,0,0-3.562,4.31,7.548,7.548,0,0,0-1.031,3.65,6.035,6.035,0,0,0,2.437,4.88c1.562,1.31,2.719,1.97,3.469,1.97A0.418,0.418,0,0,0,792,2525a1.248,1.248,0,0,0-.844-1.04,8.449,8.449,0,0,1-3.563-2.25,4.311,4.311,0,0,1-1.312-3.18,8.241,8.241,0,0,1,2.25-5.07,7.9,7.9,0,0,1,3.844-2.81c0.687-.06.9-0.25,0.656-0.56a5.241,5.241,0,0,0-.844-0.84h0Zm-33.312-45.52-0.469.28-3.469,1.03a2.284,2.284,0,0,1-1.594,0c-0.25-.13-0.313-0.06-0.187.19a3.159,3.159,0,0,0,1.594.93,2.845,2.845,0,0,1,.75-0.46l3.281-1.04c0.187,0,.218.1,0.094,0.29q-2.345,4.59-4.782,8.53c-1.938,0-3.281.37-4.031,1.12a2.984,2.984,0,0,0-.937,2.16,1.677,1.677,0,0,0,.375,1.22,1.156,1.156,0,0,0,.843.37,2.657,2.657,0,0,0,1.219-.28,4.942,4.942,0,0,0,1.406-1.41l1.782-2.53a75.816,75.816,0,0,1,7.593,1.69,12.362,12.362,0,0,1-3.468,3.94c-0.126.25-.063,0.31,0.187,0.19a11.631,11.631,0,0,0,4.219-3.85c1.186,0.38,2.437.81,3.75,1.31a0.256,0.256,0,0,0,.375-0.28,2.62,2.62,0,0,0-.281-0.56,2.206,2.206,0,0,0-.75-0.75l-2.532-.66c0.249-.68.5-1.34,0.75-1.96a1.5,1.5,0,0,0,.282-0.38c0.124-.12-0.22-0.69-1.032-1.69-0.187-.18-0.281-0.15-0.281.1a3.122,3.122,0,0,1,.094,1.31,12.372,12.372,0,0,1-.844,2.34q-4.126-.93-7.687-1.4,1.779-2.73,5.156-8.53,0.563-.375.281-0.57c-1.063-.56-1.626-0.78-1.687-0.65h0Zm-5.157,10.4-1.781,2.72a2.048,2.048,0,0,1-.75.75,1.608,1.608,0,0,1-.75.19,0.887,0.887,0,0,1-.656-0.28,1.3,1.3,0,0,1-.188-0.85,2.418,2.418,0,0,1,.844-1.68c0.563-.57,1.655-0.85,3.281-0.85h0Zm3.469,10.74c-0.25-.13-0.313-0.06-0.187.19a2.1,2.1,0,0,1,.468,1.4l0.094,2.25q-4.407.75-7.125,1.5c-0.25,0-.281.06-0.094,0.19a2.775,2.775,0,0,0,1.313.28c0.124-.06.281-0.12,0.469-0.19q1.779-.465,5.437-1.03l0.094,4.5a27.572,27.572,0,0,1-3.75.47,4.288,4.288,0,0,1-1.5-.37c-0.126,0-.157.06-0.094,0.18a5.02,5.02,0,0,0,1.031.57,5.789,5.789,0,0,0,1.782.18c0.187,0,.53-0.03,1.031-0.09,0.436-.06.937-0.13,1.5-0.19v5.06a18.857,18.857,0,0,0-1.969-.46,6.826,6.826,0,0,0-1.031-.1,2.668,2.668,0,0,0-1.781.56,1.707,1.707,0,0,0-.657,1.32,1.792,1.792,0,0,0,.75,1.5,3.03,3.03,0,0,0,1.782.47,4.578,4.578,0,0,0,2.062-.47,3.709,3.709,0,0,0,1.688-1.69q3.375,1.41,4.593,2.06c0.375,0.19.624,0.16,0.75-.09a1.331,1.331,0,0,0-.656-1.31,5.772,5.772,0,0,0-.656-0.19c-1.251-.44-2.564-0.88-3.938-1.31v-5.44c1.688-.38,2.844-0.66,3.469-0.85a0.783,0.783,0,0,0,.656-0.37,0.459,0.459,0,0,0-.468-0.38,4.19,4.19,0,0,0-1.032-.18c-0.187.12-.468,0.28-0.843,0.47-0.626.18-1.219,0.34-1.782,0.46l-0.093-4.4a23.3,23.3,0,0,1,4.968-.19,1.384,1.384,0,0,0,1.032-.09c0.124-.19,0-0.41-0.375-0.66a6.482,6.482,0,0,0-2.157-.56,7.128,7.128,0,0,1-.843.28l-2.625.47v-2.16a2.583,2.583,0,0,0,.093-0.56,3.221,3.221,0,0,0-1.406-1.03h0Zm-2.812,14.9a8.691,8.691,0,0,1,1.125.1c0.5,0.12,1.186.34,2.062,0.65a1.943,1.943,0,0,1-.844,1.32,3.4,3.4,0,0,1-2.062.56,3.1,3.1,0,0,1-1.406-.28,1.048,1.048,0,0,1-.563-1.03,1.167,1.167,0,0,1,.375-0.85,1.785,1.785,0,0,1,1.313-.47h0Zm10.218,23.83c0.125-.25.062-0.32-0.187-0.19a12.542,12.542,0,0,1-3.188,1.41,10.864,10.864,0,0,1-2.812.37,3.823,3.823,0,0,1-2.719-.75,4.192,4.192,0,0,1-.844-3q0-3.66.282-6.66a40.65,40.65,0,0,1,.75-4.87,0.668,0.668,0,0,0-.094-0.56,1.482,1.482,0,0,0-.469-0.57,13.671,13.671,0,0,0-1.125-.84c-0.313-.12-0.375-0.03-0.187.28a2.022,2.022,0,0,1,.468,1.22c-0.313,6.63-.468,10.25-0.468,10.88q0,3.555,1.125,4.68a4.444,4.444,0,0,0,3.281,1.13,8.361,8.361,0,0,0,3.094-.56,12.315,12.315,0,0,0,3.093-1.97h0Zm-4.406,9.81c-0.187,0-.22.09-0.094,0.28a1.149,1.149,0,0,1,.469.93l0.094,2.44q0.092,2.73,0,6.19a8.72,8.72,0,0,0-2.813-.66,1.655,1.655,0,0,0-1.218.47,1.266,1.266,0,0,0-.375.94,1.51,1.51,0,0,0,.562,1.22,2.436,2.436,0,0,0,1.594.47,4.187,4.187,0,0,0,1.594-.28,4.751,4.751,0,0,0,1.312-1.04q1.688,0.945,3.656,2.07a0.456,0.456,0,0,0,.563-0.47,1.13,1.13,0,0,0-.563-0.75c-1-.5-2.125-1.03-3.375-1.6-0.063-2.56-.093-4.5-0.093-5.81,0.187,0.06.375,0.13,0.562,0.19a9.147,9.147,0,0,0,2.906-.66,0.229,0.229,0,0,0,0-.37,2.173,2.173,0,0,0-.937-0.28c-0.251.12-.563,0.28-0.938,0.47a3.589,3.589,0,0,1-1.593.18v-1.59a5.166,5.166,0,0,1,.093-1.03,2.63,2.63,0,0,0,.094-0.56,2.1,2.1,0,0,0-1.5-.75h0Zm-2.531,9.65a9.666,9.666,0,0,1,2.906.94,2.688,2.688,0,0,1-1.125.94,3.145,3.145,0,0,1-1.125.18,2.344,2.344,0,0,1-1.125-.18,1.182,1.182,0,0,1-.562-1.03,0.91,0.91,0,0,1,.281-0.66,1.057,1.057,0,0,1,.75-0.19h0Zm1.687,15.96a8.514,8.514,0,0,0-3,.84,10.766,10.766,0,0,1-2.625.94,1.449,1.449,0,0,1-.656-0.19c-0.25-.12-0.313-0.06-0.187.19a3.328,3.328,0,0,0,1.312,1.03,0.773,0.773,0,0,0,.656-0.28,10.282,10.282,0,0,1,2.813-1.59,5.218,5.218,0,0,1,1.687-.38,1.216,1.216,0,0,1,1.125.66,3.8,3.8,0,0,1,.375,1.87,16.091,16.091,0,0,1-.656,4.31,30.033,30.033,0,0,1-2.625,6.1q-0.094.285,0.188,0.09a35.966,35.966,0,0,0,3.281-5.72,11,11,0,0,0,.937-4.22,4.915,4.915,0,0,0-.75-2.62,2.091,2.091,0,0,0-1.875-1.03h0Zm-3.093-5.81q-0.376,0-.188.18a10.508,10.508,0,0,0,3.844,2.44,0.431,0.431,0,0,0,.656-0.37,1.108,1.108,0,0,0-.469-0.94,0.8,0.8,0,0,0-.562-0.28,10.318,10.318,0,0,1-3.281-1.03h0Z" transform="translate(-749.125 -2461.53)"/>
</svg>
