<svg id="maintxt" xmlns="http://www.w3.org/2000/svg" width="142.12" height="391.125" viewBox="0 0 142.12 391.125">
  <metadata><?xpacket begin="﻿" id="W5M0MpCehiHzreSzNTczkc9d"?>
<x:xmpmeta xmlns:x="adobe:ns:meta/" x:xmptk="Adobe XMP Core 5.6-c142 79.160924, 2017/07/13-01:06:39        ">
   <rdf:RDF xmlns:rdf="http://www.w3.org/1999/02/22-rdf-syntax-ns#">
      <rdf:Description rdf:about=""/>
   </rdf:RDF>
</x:xmpmeta>
                                                                                                    
                                                                                                    
                                                                                                    
                                                                                                    
                                                                                                    
                                                                                                    
                                                                                                    
                                                                                                    
                                                                                                    
                                                                                                    
                                                                                                    
                                                                                                    
                                                                                                    
                                                                                                    
                                                                                                    
                                                                                                    
                                                                                                    
                                                                                                    
                                                                                                    
                                                                                                    
                           
<?xpacket end="w"?></metadata>
<defs>
    <style>
      .cls-1 {
        fill: #fff;
        fill-rule: evenodd;
      }
    </style>
  </defs>
  <path id="はじめの百年_" data-name="はじめの百年。" class="cls-1" d="M1621.81,175.983a27.608,27.608,0,0,0-7.5-1.407,3.977,3.977,0,0,0-1.72.938,3.021,3.021,0,0,0-1.4,2.344,2.212,2.212,0,0,0,1.25,1.875,6.41,6.41,0,0,0,3.43.781,15.011,15.011,0,0,0,2.97-.313q3.12-.622,4.22-2.031,1.725,0.938,4.53,2.5a1.4,1.4,0,0,0,.63.156c0.41,0,.62-0.156.62-0.468a3.064,3.064,0,0,0-.15-0.938,4.94,4.94,0,0,0-1.72-1.562c-1.15-.521-2.3-0.989-3.44-1.407q-0.315-6.715-.31-13.906l2.97-.625c1.25-.207,1.61-0.571,1.09-1.093a3.907,3.907,0,0,0-1.56-.626,2.648,2.648,0,0,0-1.25.469l-1.1.313v-3.75a2.77,2.77,0,0,1,.32-1.25q0.3-.312.15-0.469a5.168,5.168,0,0,0-3.12-1.406c-0.32,0-.37.1-0.16,0.312a2.593,2.593,0,0,1,1.25,2.344v4.687a72.963,72.963,0,0,1-7.34,1.563,1.48,1.48,0,0,0-1.25.312,0.19,0.19,0,0,0,0,.313,4.814,4.814,0,0,0,1.72.625,17.144,17.144,0,0,0,1.71-.313q0.48-.153,5.16-1.093v13.125Zm-16.72-15.313q0.465-1.717.78-3.125c0-.625-0.73-1.614-2.18-2.969-0.42-.207-0.53-0.1-0.32.313a4.3,4.3,0,0,1,.63,2.656,38,38,0,0,1-.78,5.156,56.787,56.787,0,0,0-1.1,10.469,24.138,24.138,0,0,0,.63,6.719c0.62,1.875,1.19,2.813,1.72,2.813,0.31-.1.47-0.626,0.47-1.563a9.457,9.457,0,0,1,.15-2.188,37.246,37.246,0,0,1,1.72-3.75c0.21-.415.1-0.468-0.31-0.156-0.84,1.148-1.46,1.98-1.88,2.5q-0.465.47-.78,0a10.146,10.146,0,0,1-.47-3.437,52.246,52.246,0,0,1,.32-6.094,57.632,57.632,0,0,1,1.4-7.344h0Zm9.06,15a10.932,10.932,0,0,1,2.66.313,33.989,33.989,0,0,1,4.53,1.562,5.982,5.982,0,0,1-2.97,1.563,12.457,12.457,0,0,1-3.28.468,4.577,4.577,0,0,1-1.72-.312,2.365,2.365,0,0,1-1.4-1.25c-0.21-.313-0.06-0.781.47-1.406a4.027,4.027,0,0,1,1.71-.938h0Zm8.91,24a0.843,0.843,0,0,0,.63.469c0.31,0,.46-0.258.46-0.781a2.96,2.96,0,0,0-.78-2.187,8.946,8.946,0,0,0-3.28-1.407q-0.63,0-.15.313a8.432,8.432,0,0,1,3.12,3.593h0Zm3.75-2.031a0.843,0.843,0,0,0,.63.469c0.31,0,.46-0.259.46-0.781a2.964,2.964,0,0,0-.78-2.188,8.948,8.948,0,0,0-3.28-1.406c-0.42,0-.47.1-0.15,0.312a8.442,8.442,0,0,1,3.12,3.594h0Zm-17.97-5.312c-0.52-.208-0.62-0.052-0.31.469a3.35,3.35,0,0,1,.78,2.031q-0.78,16.563-.78,18.125,0,5.94,1.87,7.812a7.421,7.421,0,0,0,5.47,1.875,13.755,13.755,0,0,0,5.16-.937,20.072,20.072,0,0,0,5.16-3.281c0.2-.416.1-0.521-0.32-0.313a19.9,19.9,0,0,1-5.31,2.344,18.073,18.073,0,0,1-4.69.625c-2.18,0-3.7-.415-4.53-1.25-0.94-.938-1.4-2.6-1.4-5q0-6.095.46-11.094a70.916,70.916,0,0,1,1.25-8.125,1.075,1.075,0,0,0-.15-0.937,2.409,2.409,0,0,0-.78-0.938,22.279,22.279,0,0,0-1.88-1.406h0Zm7.97,41.733c-0.42-.207-0.52-0.1-0.31.313a6.619,6.619,0,0,1,.31,1.718,26.76,26.76,0,0,1-1.56,6.094,23.847,23.847,0,0,0-7.5,3.125,27.863,27.863,0,0,1-1.1-5.938,1.433,1.433,0,0,0-1.09-.937,11.265,11.265,0,0,1-.94-1.094c-0.41-.312-0.52-0.207-0.31.313a9.334,9.334,0,0,1,.47,1.562q0.78,3.907,1.72,7.032a15.4,15.4,0,0,0-3.91,4.062,7.209,7.209,0,0,0-1.25,4.063,5.648,5.648,0,0,0,.78,3.281,2.242,2.242,0,0,0,1.72.937,5.53,5.53,0,0,0,2.5-.625,16.937,16.937,0,0,0,3.75-2.968c0.42,0.73.83,1.406,1.25,2.031,0.73,0.417,1.1.261,1.1-.469q-0.63-1.091-1.41-2.656,1.875-2.812,2.97-4.688t2.97-6.093a20.242,20.242,0,0,1,2.5-.156,8.032,8.032,0,0,1,5.93,2.031,6.718,6.718,0,0,1,2.19,4.843,8.489,8.489,0,0,1-1.87,5.469,18.24,18.24,0,0,1-6.1,4.531c-0.31.313-.26,0.469,0.16,0.469a21.292,21.292,0,0,0,7.19-4.375,7.961,7.961,0,0,0,2.5-5.781,8.322,8.322,0,0,0-2.5-6.094,9.517,9.517,0,0,0-7.03-2.5,21.861,21.861,0,0,0-2.66.156q1.245-3.9,1.56-4.843a3.745,3.745,0,0,0-.47-0.938,6.162,6.162,0,0,0-1.56-1.875h0Zm-2.03,9.531a41.541,41.541,0,0,1-4.38,8.906,49.449,49.449,0,0,1-2.18-5.937,20.74,20.74,0,0,1,6.56-2.969h0Zm-7.97,3.907c0.83,2.4,1.67,4.531,2.5,6.406a9.083,9.083,0,0,1-2.66,2.344,3.56,3.56,0,0,1-1.87.468,1.574,1.574,0,0,1-1.56-.624,5.192,5.192,0,0,1-.32-2.344,5.419,5.419,0,0,1,.79-2.969,13.236,13.236,0,0,1,3.12-3.281h0Zm10.78,29.74a19.027,19.027,0,0,0-13.9,5.937q-3.285,3.282-3.29,5.938a12.789,12.789,0,0,0,.79,4.687,14.715,14.715,0,0,0,2.18,4.063c0.63,0.73,1.2.937,1.72,0.625a14.707,14.707,0,0,0,1.72-1.563,44.4,44.4,0,0,0,5.94-9.219q3.12-6.562,3.12-7.968a2.746,2.746,0,0,0-.47-1.407h1.57q5.46,0,8.28,2.813,2.19,2.19,2.19,6.406a9.977,9.977,0,0,1-1.88,6.406q-2.5,3.282-8.44,5.781c-0.21.211-.15,0.313,0.16,0.313a24.365,24.365,0,0,0,8.91-4.531,9.073,9.073,0,0,0,3.12-7.031,10.977,10.977,0,0,0-2.97-8.125q-3.12-3.125-8.75-3.125h0Zm-2.81,1.093q0,2.659-3.13,8.438-3.435,6.563-6.87,9.219a0.7,0.7,0,0,1-.78-0.157,9.271,9.271,0,0,1-1.72-3.281,10.51,10.51,0,0,1-.78-3.75,4.94,4.94,0,0,1,1.72-3.437q6.09-6.094,11.56-7.032h0Zm7.5,53.476q-0.165,5.315-.16,6.875c-5.41.313-9.95,0.73-13.59,1.25l-0.94-.156a21.663,21.663,0,0,1-.31-3.594v-3.75a1.906,1.906,0,0,0,1.41.469,64,64,0,0,1,10-.781,7.625,7.625,0,0,0,3.59-.313h0Zm4.69-17.968a0.8,0.8,0,0,0-.94.312q-5.94.469-11.72,0.781-3.75.469-9.84,1.094h-1.57a4.308,4.308,0,0,1-1.87-.312c-0.42-.208-0.73-0.364-0.94-0.469-0.31-.1-0.42,0-0.31.312a7.355,7.355,0,0,0,3.44,2.657,20.04,20.04,0,0,1,2.65-.782q2.355-.468,7.5-0.937a1.74,1.74,0,0,1,.32,1.719,56.5,56.5,0,0,1-2.5,5.624c-1.36.21-2.87,0.418-4.54,0.626a6.98,6.98,0,0,0-2.5-1.25c-0.52-.1-0.62.053-0.31,0.468a4.123,4.123,0,0,1,1.72,3.282q0.315,4.688.31,7.031v3.437q0,1.095-.15,2.657,0.465,1.874.93,1.875a1.068,1.068,0,0,0,.79-0.938,1.5,1.5,0,0,0,1.71.156,38.5,38.5,0,0,1,5.63-.781q3.285-.153,4.53-0.156h1.09a12.876,12.876,0,0,1,1.57-.156,7.112,7.112,0,0,0,.47,2.031c0.31,0.312.67,0.259,1.09-.156a1.8,1.8,0,0,0,.31-1.25v-7.5q0.15-2.03.63-6.407a6.656,6.656,0,0,1,.31-1.718,0.948,0.948,0,0,0,0-1.251c-1.36-1.249-2.19-1.718-2.5-1.406a3.857,3.857,0,0,1-.78.469q-3.915.469-9.06,0.781,1.56-2.5,2.34-3.593a10.668,10.668,0,0,1,.78-1.094c0.73-.52.88-0.989,0.47-1.406-0.11-.1-0.57-0.52-1.41-1.25,4.59-.313,7.55-0.469,8.91-0.469a28.814,28.814,0,0,1,4.84.312,9.836,9.836,0,0,0,1.57.157c0.41-.208.52-0.469,0.31-0.782-0.21-.625-1.31-1.2-3.28-1.718h0Zm-7.03,10.625h0.93a2.122,2.122,0,0,1,1.57.312,5.713,5.713,0,0,1,.15,1.563v1.718a22.348,22.348,0,0,0-.15,2.657,17.034,17.034,0,0,0-1.88-.157q-6.09.627-12.34,1.094a1.053,1.053,0,0,1-.94-0.469v-5.469q5.94-.779,12.66-1.249h0Zm-4.85,38.4V370.2q-3.75.469-6.87,0.938v-3.75a3.807,3.807,0,0,1,.31-1.406c0.21-.52-0.16-1.04-1.09-1.563,1.97-.52,4.53-1.04,7.65-1.562h0Zm-7.34-10.313h-0.94c-0.42,0-.47.156-0.16,0.469,0.84,0.21,1.25.574,1.25,1.094a31.078,31.078,0,0,1-5.46,7.187c-0.21.418-.11,0.522,0.31,0.313a26.949,26.949,0,0,0,4.84-4.063c0.31,0.313,1.1.418,2.35,0.313l3.59-.469a5.828,5.828,0,0,1,1.56,4.219q-5.94,1.1-7.65,1.25a5.018,5.018,0,0,1-3.29-.782c-0.41-.207-0.52-0.1-0.31.313a1.457,1.457,0,0,0,.63.781,13.853,13.853,0,0,0,1.72,1.25c0.31,0.21.46,0.938,0.46,2.188v4.843a39.031,39.031,0,0,1-4.84.625,2.949,2.949,0,0,1-2.19-.781c-0.41-.207-0.52-0.1-0.31.313a7.267,7.267,0,0,0,2.19,2.187,1.938,1.938,0,0,0,1.56,0,92.747,92.747,0,0,1,12.03-2.187v8.125a35.777,35.777,0,0,0,.16,3.906c0,0.937.21,1.406,0.62,1.406a4.192,4.192,0,0,0,.63-2.344q0.15-1.718.47-11.25a96.59,96.59,0,0,1,9.68-.156c1.25,0.1,2.29.21,3.13,0.313,1.25-.208,1.41-0.728.47-1.563a7.146,7.146,0,0,0-2.97-1.406,11.716,11.716,0,0,1-2.03.781q-3.915.315-8.28,0.625V362.7c2.18-.312,4.32-0.52,6.4-0.625h1.88q0.93-.468,0-1.25a10.362,10.362,0,0,0-2.66-.781q-0.465.157-1.56,0.625c-1.46.21-2.81,0.418-4.06,0.625a9.44,9.44,0,0,1,.15-2.187,1.324,1.324,0,0,0-.78-0.782,9.512,9.512,0,0,0-1.72-1.093,57.049,57.049,0,0,1,7.19-.782c1.25,0,1.88-.258,1.88-0.781a1.351,1.351,0,0,0-.94-0.937,3.722,3.722,0,0,0-1.88-.313,5.945,5.945,0,0,1-1.09.625q-6.4,1.095-8.75,1.406c-1.56.21-2.4,0.21-2.5,0a22.79,22.79,0,0,0,1.41-1.875,0.849,0.849,0,0,0,.46-0.937,3.031,3.031,0,0,0-2.65-1.094h0Zm18.9,39.688a3.917,3.917,0,0,1,2.82,1.25,3.781,3.781,0,0,1,0,5.312,3.795,3.795,0,0,1-5.63,0,3.781,3.781,0,0,1,0-5.312,3.879,3.879,0,0,1,2.81-1.25h0Zm0-.938a4.808,4.808,0,1,0,3.44,1.406,4.655,4.655,0,0,0-3.44-1.406h0Z" transform="translate(-1489.38 -154.094)"/>
  <path id="これからの千年_" data-name="これからの千年。" class="cls-1" d="M1549.44,157.858a39.76,39.76,0,0,1,4.53-.313,14.906,14.906,0,0,1,5.78.938q0.93,0.468.15,0.781l-2.34,1.406c-0.42.313-.37,0.418,0.16,0.313a15.086,15.086,0,0,1,3.9-1.094c0.42,0,1.2.053,2.35,0.156,0.83-.1.99-0.469,0.47-1.094-0.73-.937-2.3-1.665-4.69-2.187a29.321,29.321,0,0,0-5.31-.312q-1.41,0-5.63.468c-0.62.105-.42,0.418,0.63,0.938h0Zm-2.19,15.625c-0.11-.416-0.26-0.416-0.47,0a5.3,5.3,0,0,0,.94,3.281,8.512,8.512,0,0,0,3.59,2.5q4.065,1.563,12.81,1.562c1.88,0,2.82-.258,2.82-0.781,0-.625-0.84-1.145-2.5-1.562a15.753,15.753,0,0,1-3.6.312,40.521,40.521,0,0,1-7.03-.468,12.524,12.524,0,0,1-5-1.876,3.438,3.438,0,0,1-1.56-2.968h0Zm3.44,19.01c-0.53-.208-0.68-0.1-0.47.312q0.78,0.627.78,2.812c0,1.981-.06,3.8-0.16,5.469l-5.78,3.281a4.042,4.042,0,0,0-1.41,1.094c-0.1.21,0.06,0.367,0.47,0.469a11.307,11.307,0,0,0,2.19-.781l4.53-2.5-0.15,1.562q-4.7,7.969-7.19,12.344v1.25a3.066,3.066,0,0,0,.31,1.406c0.21,0.313.52,0.21,0.94-.312l5.62-5.313-0.15,2.657a10.192,10.192,0,0,1-.32,2.5q-0.465,1.252.63,3.437c0.62,0.728,1.04.728,1.25,0v-10q5.46-5.625,10.78-10.937a1.685,1.685,0,0,1,1.25-.469c0.42,0,.68.366,0.78,1.094q-0.465,10.158-.47,13.437a5.72,5.72,0,0,0,.63,3.281,2.507,2.507,0,0,0,2.03.938,6.477,6.477,0,0,0,2.97-.938,14.964,14.964,0,0,0,4.22-3.75c0.2-.52.1-0.676-0.32-0.468a19.367,19.367,0,0,1-3.9,2.812,6.033,6.033,0,0,1-2.5.781,1.518,1.518,0,0,1-1.1-.469,3.239,3.239,0,0,1-.31-1.874V213.43l0.47-12.5a1.7,1.7,0,0,0-.47-1.25,1.9,1.9,0,0,0-1.4-.468,2.861,2.861,0,0,0-2.04.937q-5.31,5.157-10.62,10.469v-5.313l1.56-2.344a4.045,4.045,0,0,1,.94-0.937c0.41-.313.41-0.571,0-0.781l-2.03-1.094,0.15-2.813a8.917,8.917,0,0,1,.47-2.812c0.11-.415-0.62-1.094-2.18-2.031h0Zm-0.16,14.843c-0.11,1.355-.16,2.867-0.16,4.532l-5.47,4.687c-0.31-.1-0.36-0.312-0.15-0.625Zm1.72,26.094c-0.42-.208-0.52-0.1-0.31.313a2.084,2.084,0,0,1,.46,1.249,7.73,7.73,0,0,1-.46,2.344q-0.8,2.19-2.35,6.25a22.748,22.748,0,0,1-5.15,1.407h-0.32a2.227,2.227,0,0,1-1.25-.313c-0.41-.207-0.52-0.1-0.31.313q1.41,2.031,2.34,1.875a10.973,10.973,0,0,1,1.1-.625q1.245-.469,2.97-1.094-2.505,6.25-4.22,9.531a6.3,6.3,0,0,1-.78,1.094,5.56,5.56,0,0,0,0,2.656c0.2,0.835.52,0.938,0.93,0.313l0.47-1.094q2.82-6.717,5.32-13.125a14.388,14.388,0,0,1,4.53-1.094,2.537,2.537,0,0,1,1.56.469,1.845,1.845,0,0,1,.62,1.562,15.208,15.208,0,0,1-1.25,5.625,40.886,40.886,0,0,1-3.12,6.407c-0.52.835-1.04,1.093-1.56,0.781l-2.03-1.094c-0.42-.207-0.53-0.1-0.32.313a10,10,0,0,1,1.88,2.031q0.15,0.315.78,2.031c0.21,0.523.47,0.625,0.78,0.313q1.725-1.717,4.06-7.344,2.19-5.468,2.19-7.969c0-1.562-.31-2.6-0.94-3.125a4.156,4.156,0,0,0-2.81-.937,14.479,14.479,0,0,0-3.91.625,56.005,56.005,0,0,1,2.66-6.094,1.457,1.457,0,0,0,.47-1.25,4.518,4.518,0,0,0-2.03-2.344h0Zm10.78,5.469c-0.42-.208-0.52-0.1-0.31.312a38.559,38.559,0,0,1,4.22,3.907,20.766,20.766,0,0,1,3.12,5.312,27.882,27.882,0,0,0,1.09,3.125,0.887,0.887,0,0,0,1.41-.156,4.553,4.553,0,0,0,.31-1.719c-0.1-1.352-.99-3.176-2.65-5.469a45.748,45.748,0,0,0-7.19-5.312h0Zm-12.66,41.79c-0.21-.312-0.36-0.312-0.47,0a1.765,1.765,0,0,0-.31,1.25,2.6,2.6,0,0,1,0,1.25L1547.4,293.5a1.218,1.218,0,0,0-.31,1.406l0.78,1.562c0.11,0.21.42,0.21,0.94,0a88.859,88.859,0,0,1,9.84-4.218,16.678,16.678,0,0,1,4.07-.938,5.528,5.528,0,0,1,2.97.781,2.9,2.9,0,0,1,1.25,2.657,4.95,4.95,0,0,1-1.57,3.593,23.773,23.773,0,0,1-7.97,4.688c-0.41.415-.31,0.52,0.32,0.312a24.622,24.622,0,0,0,8.75-3.906,4.942,4.942,0,0,0,2.18-3.906,4.8,4.8,0,0,0-1.56-3.75,6.3,6.3,0,0,0-4.37-1.406,24.8,24.8,0,0,0-5.94,1.249c-2.29.73-4.64,1.512-7.03,2.344q-0.945,0-.63-1.562l1.88-9.532a0.9,0.9,0,0,0-.31-0.937,3.6,3.6,0,0,1-.32-1.25h0Zm2.82-9.219c-0.53-.312-0.63-0.207-0.32.313a34.7,34.7,0,0,0,2.97,3.437,0.389,0.389,0,0,1,0,.625l-1.56,1.094c-0.31.313-.26,0.418,0.16,0.313a4.855,4.855,0,0,1,1.87-.469,1.91,1.91,0,0,1,1.09.312q0.63,0.315.63-.781a3.751,3.751,0,0,0-2.03-3.281,8.818,8.818,0,0,1-2.81-1.563h0Zm6.4,45.762a19.028,19.028,0,0,0-13.9,5.938q-3.285,3.282-3.29,5.938a12.789,12.789,0,0,0,.79,4.687,14.715,14.715,0,0,0,2.18,4.063c0.63,0.73,1.2.937,1.72,0.625a14.707,14.707,0,0,0,1.72-1.563,44.4,44.4,0,0,0,5.94-9.219q3.12-6.562,3.12-7.968a2.746,2.746,0,0,0-.47-1.407h1.57q5.46,0,8.28,2.813,2.19,2.19,2.19,6.406a9.982,9.982,0,0,1-1.88,6.407q-2.5,3.281-8.44,5.781c-0.21.209-.15,0.312,0.16,0.312a24.38,24.38,0,0,0,8.91-4.531,9.073,9.073,0,0,0,3.12-7.031,10.977,10.977,0,0,0-2.97-8.125q-3.12-3.125-8.75-3.126h0Zm-2.81,1.094q0,2.659-3.13,8.438-3.435,6.563-6.87,9.219a0.7,0.7,0,0,1-.78-0.157,9.271,9.271,0,0,1-1.72-3.281,10.514,10.514,0,0,1-.78-3.75,4.94,4.94,0,0,1,1.72-3.437q6.09-6.094,11.56-7.032h0Zm2.34,33.542c-0.41-.208-0.52-0.1-0.31.312a3.069,3.069,0,0,0,.63.781c0.2,0.21.2,0.367,0,.469a44.874,44.874,0,0,1-6.1,2.813q-2.97.938-6.72,1.875-0.93.314,0,.625a74.979,74.979,0,0,0,8.13-1.719A2.529,2.529,0,0,1,1556,358.9v4.531q-2.97.315-6.1,0.937a50.372,50.372,0,0,1-5.46.938,5.8,5.8,0,0,1-3.13-.781c-0.42-.208-0.52-0.1-0.31.312a5.921,5.921,0,0,0,3.9,2.657,29.868,29.868,0,0,1,4.69-1.563,30.773,30.773,0,0,1,6.41-.937v12.031c0.1,1.875.21,4.011,0.31,6.406a0.4,0.4,0,0,0,.63,0,6.363,6.363,0,0,0,.46-1.25,10.19,10.19,0,0,0,.16-2.031l0.31-15.469a69.959,69.959,0,0,1,7.66-.469,36.245,36.245,0,0,1,3.75.156,7.313,7.313,0,0,0,2.19,0,0.614,0.614,0,0,0,.47-0.624,0.928,0.928,0,0,0-.47-0.782c-2.09-.727-3.23-0.988-3.44-0.781a3.716,3.716,0,0,1-.94.469c-3.12.105-6.2,0.261-9.22,0.469l0.32-3.594a1.562,1.562,0,0,0-.16-1.563,5.751,5.751,0,0,0-2.34-1.25q1.875-.468,3.75-1.094c0.93-.312,1.56-0.519,1.87-0.624q0.78-.155,1.41-0.313,0.615-.31,0-0.937a2,2,0,0,0-.78-0.469,11.345,11.345,0,0,1-2.82-1.406h0Zm-2.03,50.989V410.2q-3.75.469-6.87,0.938v-3.75a3.807,3.807,0,0,1,.31-1.406c0.21-.52-0.16-1.04-1.09-1.563,1.97-.52,4.53-1.04,7.65-1.563h0Zm-7.34-10.312h-0.94c-0.42,0-.47.156-0.16,0.469,0.84,0.21,1.25.574,1.25,1.093a31.08,31.08,0,0,1-5.46,7.188c-0.21.418-.11,0.523,0.31,0.313a26.949,26.949,0,0,0,4.84-4.063c0.31,0.313,1.1.418,2.35,0.313l3.59-.469a5.828,5.828,0,0,1,1.56,4.219q-5.94,1.1-7.65,1.249a5.023,5.023,0,0,1-3.29-.78c-0.41-.208-0.52-0.1-0.31.312a1.461,1.461,0,0,0,.63.781,13.853,13.853,0,0,0,1.72,1.25c0.31,0.21.46,0.938,0.46,2.188v4.843a39.031,39.031,0,0,1-4.84.625,2.949,2.949,0,0,1-2.19-.781c-0.41-.207-0.52-0.1-0.31.312a7.247,7.247,0,0,0,2.19,2.188,1.938,1.938,0,0,0,1.56,0,92.911,92.911,0,0,1,12.03-2.188v8.126a35.777,35.777,0,0,0,.16,3.906c0,0.937.21,1.406,0.62,1.406a4.192,4.192,0,0,0,.63-2.344q0.15-1.718.47-11.25a96.59,96.59,0,0,1,9.68-.156c1.25,0.1,2.29.21,3.13,0.312,1.25-.207,1.41-0.727.47-1.562a7.146,7.146,0,0,0-2.97-1.406,11.8,11.8,0,0,1-2.03.781q-3.915.315-8.28,0.625V402.7c2.18-.312,4.32-0.519,6.4-0.624h1.88c0.62-.313.62-0.728,0-1.251a10.362,10.362,0,0,0-2.66-.781q-0.465.157-1.56,0.625c-1.46.21-2.81,0.418-4.06,0.625a9.44,9.44,0,0,1,.15-2.187,1.324,1.324,0,0,0-.78-0.782,9.512,9.512,0,0,0-1.72-1.093,57.049,57.049,0,0,1,7.19-.782c1.25,0,1.88-.258,1.88-0.781a1.351,1.351,0,0,0-.94-0.937,3.722,3.722,0,0,0-1.88-.313,5.945,5.945,0,0,1-1.09.625q-6.4,1.095-8.75,1.406c-1.56.21-2.4,0.21-2.5,0a22.961,22.961,0,0,0,1.41-1.875,0.849,0.849,0,0,0,.46-0.937,3.031,3.031,0,0,0-2.65-1.094h0Zm18.9,39.688a3.92,3.92,0,0,1,2.82,1.249,3.782,3.782,0,0,1,0,5.313,3.795,3.795,0,0,1-5.63,0,3.782,3.782,0,0,1,0-5.313,3.882,3.882,0,0,1,2.81-1.249h0Zm0-.938a4.809,4.809,0,1,0,3.44,1.407,4.653,4.653,0,0,0-3.44-1.407h0Z" transform="translate(-1489.38 -154.094)"/>
  <path id="まごころを継ぐ_永遠の杜をめざして" data-name="まごころを継ぐ 永遠の杜をめざして" class="cls-1" d="M1499.28,155.326c-0.25-.124-0.31-0.061-0.19.188a2.137,2.137,0,0,1,.47,1.406l0.09,2.25c-2.93.5-5.31,1-7.12,1.5-0.25,0-.28.063-0.09,0.187a2.709,2.709,0,0,0,1.31.282,3.38,3.38,0,0,1,.47-0.188c1.18-.312,3-0.656,5.43-1.031l0.1,4.5a27.745,27.745,0,0,1-3.75.469,4.272,4.272,0,0,1-1.5-.375c-0.13,0-.16.063-0.1,0.187a5.113,5.113,0,0,0,1.04.563,5.5,5.5,0,0,0,1.78.187,10.015,10.015,0,0,0,1.03-.094q0.66-.092,1.5-0.187v5.062a18.675,18.675,0,0,0-1.97-.468,7.866,7.866,0,0,0-1.03-.094,2.629,2.629,0,0,0-1.78.562,1.684,1.684,0,0,0-.66,1.313,1.781,1.781,0,0,0,.75,1.5,3.008,3.008,0,0,0,1.78.469,4.515,4.515,0,0,0,2.06-.469,3.658,3.658,0,0,0,1.69-1.688q3.375,1.407,4.6,2.063,0.555,0.281.75-.094a1.36,1.36,0,0,0-.66-1.313c-0.19-.061-0.41-0.124-0.66-0.187q-1.875-.654-3.93-1.312v-5.438c1.68-.375,2.84-0.656,3.46-0.843a0.808,0.808,0,0,0,.66-0.376,0.456,0.456,0,0,0-.47-0.375,4.072,4.072,0,0,0-1.03-.187,8.989,8.989,0,0,1-.84.469c-0.63.187-1.22,0.344-1.78,0.469l-0.1-4.407a23.043,23.043,0,0,1,4.97-.187,1.31,1.31,0,0,0,1.03-.094c0.13-.188,0-0.406-0.37-0.657a6.557,6.557,0,0,0-2.16-.562,6.119,6.119,0,0,1-.84.281l-2.63.469V156.92a2.815,2.815,0,0,0,.1-0.562,3.283,3.283,0,0,0-1.41-1.032h0Zm-2.81,14.906a8.378,8.378,0,0,1,1.12.094c0.5,0.126,1.19.344,2.06,0.656a1.922,1.922,0,0,1-.84,1.313,3.37,3.37,0,0,1-2.06.562,3.163,3.163,0,0,1-1.41-.281,1.052,1.052,0,0,1-.56-1.031,1.163,1.163,0,0,1,.37-0.844,1.8,1.8,0,0,1,1.32-.469h0Zm-1.03,12.688a23.863,23.863,0,0,1,2.71-.187,8.915,8.915,0,0,1,3.47.562c0.38,0.188.41,0.344,0.1,0.469l-1.41.844q-0.375.28,0.09,0.187a9.069,9.069,0,0,1,2.35-.656c0.25,0,.72.032,1.4,0.094,0.5-.062.6-0.282,0.29-0.656a4.917,4.917,0,0,0-2.82-1.313,17.441,17.441,0,0,0-3.18-.188c-0.57,0-1.69.094-3.38,0.282-0.37.063-.25,0.25,0.38,0.562h0Zm-1.32,9.375c-0.06-.249-0.15-0.249-0.28,0a3.23,3.23,0,0,0,.56,1.969,5.11,5.11,0,0,0,2.16,1.5,23.091,23.091,0,0,0,7.69.938c1.12,0,1.69-.156,1.69-0.469q0-.562-1.5-0.938a9.4,9.4,0,0,1-2.16.188,24.237,24.237,0,0,1-4.22-.282,7.531,7.531,0,0,1-3-1.124,2.079,2.079,0,0,1-.94-1.782h0Zm13.03-9.187a0.51,0.51,0,0,0,.38.281c0.19,0,.28-0.155.28-0.469a1.785,1.785,0,0,0-.47-1.312,5.33,5.33,0,0,0-1.97-.844q-0.375,0-.09.188a4.987,4.987,0,0,1,1.87,2.156h0Zm1.5-1.5a0.51,0.51,0,0,0,.38.281c0.19,0,.28-0.156.28-0.469a1.785,1.785,0,0,0-.47-1.312,5.33,5.33,0,0,0-1.97-.844c-0.25,0-.28.063-0.09,0.187a5,5,0,0,1,1.87,2.157h0Zm-13.21,25.312a23.863,23.863,0,0,1,2.71-.187,8.915,8.915,0,0,1,3.47.562c0.38,0.188.41,0.344,0.1,0.469l-1.41.844q-0.375.28,0.09,0.187a9.113,9.113,0,0,1,2.35-.656c0.25,0,.72.032,1.4,0.094,0.5-.062.6-0.282,0.29-0.657a4.924,4.924,0,0,0-2.82-1.312,17.441,17.441,0,0,0-3.18-.188c-0.57,0-1.69.094-3.38,0.282-0.37.063-.25,0.25,0.38,0.562h0Zm-1.32,9.375c-0.06-.249-0.15-0.249-0.28,0a3.23,3.23,0,0,0,.56,1.969,5.118,5.118,0,0,0,2.16,1.5,23.1,23.1,0,0,0,7.69.937c1.12,0,1.69-.155,1.69-0.468q0-.562-1.5-0.938a9.4,9.4,0,0,1-2.16.188,24.237,24.237,0,0,1-4.22-.282,7.515,7.515,0,0,1-3-1.125,2.076,2.076,0,0,1-.94-1.781h0Zm7.97,12.047a1.465,1.465,0,0,0-1.22.375,28.765,28.765,0,0,1-4.59,1.125,1.377,1.377,0,0,1-1.5-.469c-0.25-.125-0.31-0.062-0.19.187,0.69,1.125,1.22,1.627,1.6,1.5a1.868,1.868,0,0,1,1.12-.562l4.41-1.219v0.281c-1.88,2.438-3.53,4.563-4.97,6.375a28.9,28.9,0,0,1-3,3.469c-0.38.188-.69,0.344-0.94,0.469a4.229,4.229,0,0,0,.28,1.312,0.338,0.338,0,0,0,.47,0,32.8,32.8,0,0,1,4.13-2.437,11.086,11.086,0,0,1,4.96-1.313,4.609,4.609,0,0,1,2.91.751,2.139,2.139,0,0,1,.84,1.781,3.4,3.4,0,0,1-1.68,2.718,20.784,20.784,0,0,1-6.19,2.438q-0.285.281,0.09,0.281,5.355-.936,7.03-2.156a3.827,3.827,0,0,0,1.88-3.188,2.487,2.487,0,0,0-.94-2.062,4.947,4.947,0,0,0-3.56-1.031,12.61,12.61,0,0,0-3.56.468,28.051,28.051,0,0,0-4.69,1.782l7.97-9.188a2.567,2.567,0,0,1,.65-0.375c0.25-.061.29-0.187,0.1-0.375Zm-2.9,22.7c-0.25-.124-0.32-0.062-0.19.187a1.791,1.791,0,0,1,.28.938,2.655,2.655,0,0,1-.19,1.031c-0.12.314-.47,1.031-1.03,2.156q-2.25.282-2.91,0.282a3.634,3.634,0,0,1-1.21-.282c-0.13,0-.19.033-0.19,0.094a2.486,2.486,0,0,0,1.12.938c0.19,0,.57-0.031,1.13-0.094,0.5-.062,1.09-0.125,1.78-0.187a34.087,34.087,0,0,1-3.38,4.968,1.212,1.212,0,0,0,0,.656c0.13,0.314.29,0.407,0.47,0.282a12.03,12.03,0,0,1,1.69-1.219,3.394,3.394,0,0,1,1.69-.375,1.3,1.3,0,0,1,.94.281,2.459,2.459,0,0,1,.56,1.781,20.919,20.919,0,0,0-3.28,2.438,2.764,2.764,0,0,0-.94,1.969,2.273,2.273,0,0,0,.66,1.687c0.75,0.75,2.09,1.125,4.03,1.125h3.18a7.014,7.014,0,0,0,1.69-.187c0.25-.125.28-0.281,0.1-0.469a4.009,4.009,0,0,0-1.22-.469,3.806,3.806,0,0,0-1.22.188,27.083,27.083,0,0,1-3.19.187,4.188,4.188,0,0,1-3-.844,1.657,1.657,0,0,1-.47-1.218,1.817,1.817,0,0,1,.56-1.313,16.782,16.782,0,0,1,3.19-2.25v2.438c0.13,0.25.28,0.313,0.47,0.187a0.816,0.816,0,0,0,.38-0.656v-2.438a44.027,44.027,0,0,1,5.43-2.906c0.38-.061.41-0.218,0.1-0.469a5.32,5.32,0,0,0-1.97-.937c-0.25-.062-0.31,0-0.19.188,0.5,0.374.63,0.625,0.38,0.749q-1.98,1.219-3.85,2.438a2.531,2.531,0,0,0-.84-1.5,2.449,2.449,0,0,0-1.6-.469,6.43,6.43,0,0,0-1.03.094,4.891,4.891,0,0,0-1.31.469c0.31-.437.69-1,1.13-1.688,0.5-.811,1.09-1.749,1.78-2.812,1.93-.249,3.78-0.563,5.53-0.938,0.25-.124.28-0.281,0.09-0.469l-1.12-.562a3.8,3.8,0,0,0-1.22.469,15.957,15.957,0,0,1-2.81.656l1.12-2.156c0.25-.249.28-0.469,0.09-0.657a5.136,5.136,0,0,0-1.21-1.312h0Zm-0.57,26.188a2.8,2.8,0,0,0-1.03-.282c-0.37-.061-0.4.063-0.09,0.375a1.491,1.491,0,0,1,.65,1.406v10.782q-0.09,1.688-.18,2.812a2.515,2.515,0,0,0,.47,1.5c0.12,0.312.28,0.343,0.46,0.094a3.857,3.857,0,0,1,1.88-.656c0.75-.125,2.09-0.249,4.03-0.375a36.425,36.425,0,0,1,4.31-.094c0.69,0,.72-0.218.1-0.656-1.25-.5-1.91-0.656-1.97-0.469a11.9,11.9,0,0,1-1.5.375q-3.285.189-6.66,0.656l0.1-13.031a3.465,3.465,0,0,1,.18-1.219q0.57-.374-0.75-1.218h0Zm4.41-1.313q-0.285,0-.09.282a1.589,1.589,0,0,1,.84,1.312v5.719a27.127,27.127,0,0,1-2.72.468,2.27,2.27,0,0,1-1.12-.093c-0.44-.188-0.54-0.094-0.29.281a2.034,2.034,0,0,0,1.04.75c0.37-.062,1.21-0.249,2.53-0.562a23.252,23.252,0,0,1-3.66,5.718c-0.13.251-.06,0.313,0.19,0.188a27.588,27.588,0,0,0,4.03-4.782,32.52,32.52,0,0,1-.28,4.594,3.145,3.145,0,0,0,.37,1.406q0.66,0.939.75-.093,0-1.407.1-5.907a33.9,33.9,0,0,1,2.72,3.657,0.621,0.621,0,0,0,.75.281,0.783,0.783,0,0,0,.18-0.563,2.085,2.085,0,0,0-.47-1.406q-0.75-.562-3.18-2.437V283.8c1.37-.124,2.59-0.281,3.65-0.469q1.125-.281-0.18-0.75a1.389,1.389,0,0,0-1.13-.187,2.408,2.408,0,0,0-.56.281,11.827,11.827,0,0,1-1.78.375v-4.969a2.246,2.246,0,0,1,.18-0.75c0.32-.124.25-0.375-0.18-0.75a3.439,3.439,0,0,0-1.69-.656h0Zm3.94,1.875c-0.38,0-.44.126-0.19,0.375a0.631,0.631,0,0,1,.09.75,24.6,24.6,0,0,1-1.59,3.375c-0.06.188,0,.22,0.19,0.094,1.43-1.625,2.34-2.719,2.72-3.281q0.75-.282.18-0.75a1.971,1.971,0,0,0-1.4-.563h0Zm-13.32-1.781q-0.555-.093-0.18.281a0.647,0.647,0,0,1,.09.75,11.8,11.8,0,0,1-1.97,3.563c-0.19-.188-0.4-0.031-0.65.468q-0.285.564,0.09,0.657l2.34,1.406-1.97,2.625a1.512,1.512,0,0,1-.75,0c-0.37-.188-0.43.22-0.18,1.219,0.12,0.375.34,0.407,0.65,0.093a5.005,5.005,0,0,1,2.16-.75,0.653,0.653,0,0,1,.37.75v4.5q-0.09.939-.18,1.407a3.211,3.211,0,0,0,.37,1.312q0.57,0.75.66-.469v-6.468a3.225,3.225,0,0,1,.09-0.751,0.84,0.84,0,0,0-.47-0.562q1.125-.281,2.16-0.469a3.167,3.167,0,0,0,.66.844c0.25,0.25.4,0.157,0.46-.281a3.14,3.14,0,0,0-.46-1.688,9.942,9.942,0,0,0-1.6-1.125c-0.31-.187-0.37-0.124-0.19.188a9.576,9.576,0,0,1,.75,1.406,23.691,23.691,0,0,1-3.93.844,63.637,63.637,0,0,0,4.22-4.875,11.64,11.64,0,0,1,.93-0.844c0.38-.187.28-0.5-0.28-0.937a3.957,3.957,0,0,0-1.03-.657c-0.31-.061-0.37.033-0.19,0.281a0.636,0.636,0,0,1,.1.844,19.543,19.543,0,0,1-1.97,3l-1.88-1.593a19.15,19.15,0,0,0,2.53-3,2.446,2.446,0,0,1,.57-0.563c0.43-.124.47-0.343,0.09-0.656a2.841,2.841,0,0,0-1.41-.75h0Zm7.6,3.187c-0.63-.5-0.81-0.469-0.56.094q0.645,1.688.84,2.25,0.375,1.314.84,0.656a3.859,3.859,0,0,0-.09-1.875,3,3,0,0,0-1.03-1.125h0Zm-5.44,8.063c-0.19-.188-0.25-0.125-0.19.187,0.32,1.188.6,2.344,0.85,3.469q0.27,0.751.75-.094a3.154,3.154,0,0,0,0-1.5,9.236,9.236,0,0,0-1.41-2.063h0Zm-4.41.937c-0.31,0-.31.126,0,0.375a0.545,0.545,0,0,1,.29.656,28.239,28.239,0,0,1-1.5,3.751c-0.07.25,0.03,0.281,0.28,0.093a23,23,0,0,0,1.78-2.906,6.2,6.2,0,0,1,.37-0.656c0.38-.124.44-0.343,0.19-0.656a1.883,1.883,0,0,0-1.41-.657h0Zm14.72,17.313a0.51,0.51,0,0,0,.38.281c0.19,0,.28-0.155.28-0.469a1.785,1.785,0,0,0-.47-1.312,5.33,5.33,0,0,0-1.97-.844q-0.375,0-.09.188a4.987,4.987,0,0,1,1.87,2.156h0Zm1.97-1.407a0.509,0.509,0,0,0,.38.282c0.18,0,.28-0.155.28-0.469a1.789,1.789,0,0,0-.47-1.313,5.412,5.412,0,0,0-1.97-.843c-0.25,0-.28.063-0.09,0.187a5.057,5.057,0,0,1,1.87,2.156h0Zm-7.4-5.062c-0.25-.124-0.32-0.061-0.19.187a1.743,1.743,0,0,1,.19.75,1.8,1.8,0,0,1-.29.938,50.136,50.136,0,0,1-4.31,6.844,1.575,1.575,0,0,0,0,1.5,81.257,81.257,0,0,1,5.06,8.812q0.285,0.563.66,0.375a0.676,0.676,0,0,0,.38-0.656,2.493,2.493,0,0,0-.1-0.75,16.747,16.747,0,0,0-1.03-1.875q-0.66-1.125-4.41-6a1.556,1.556,0,0,1-.18-0.656,0.788,0.788,0,0,1,.18-0.563c0.82-1.062,1.66-2.187,2.54-3.375,0.56-.811,1.15-1.624,1.78-2.437a3.2,3.2,0,0,1,.84-0.75q0.285-.187,0-0.75a4.739,4.739,0,0,0-1.12-1.594h0Zm-0.75,40.406a1.286,1.286,0,0,0-.94.375,11.58,11.58,0,0,1-3.47,1.032,1.554,1.554,0,0,1-.94-0.563c-0.19-.188-0.28-0.155-0.28.094a1.807,1.807,0,0,0,1.13,1.5,0.6,0.6,0,0,0,.65,0,16.657,16.657,0,0,1,3-1.407,0.262,0.262,0,0,1,.38.281v10.126a0.657,0.657,0,0,1-.57.75,6.51,6.51,0,0,1-1.96-.469c-0.25-.062-0.32,0-0.19.188l1.78,1.218a2.6,2.6,0,0,1,.75.938,0.418,0.418,0,0,0,.66.093,4.915,4.915,0,0,0,.56-1.125,4.292,4.292,0,0,0,.19-1.312,30.841,30.841,0,0,1-.29-6.469l0.1-1.313q3.18,3.377,6,6.188l2.53,0.281a2.34,2.34,0,0,0,.94,0c0.18-.061.22-0.124,0.09-0.187s-0.25-.125-0.37-0.188a45.411,45.411,0,0,1-8.35-6l0.56-.188q2.91-.936,4.79-1.594c0.43-.187.62-0.406,0.56-0.656a4.64,4.64,0,0,0-2.35-1.219q-0.375,0-.09.281c0.25,0.251.31,0.438,0.19,0.563a11.82,11.82,0,0,1-4.13,2.437l-0.37-.281,0.09-1.406a2.628,2.628,0,0,1,.47-1.031,0.4,0.4,0,0,0-.09-0.282,2.678,2.678,0,0,0-1.03-.656h0Zm-4.69,4.125c-0.19-.125-0.35-0.03-0.47.281-0.5.188-1.06,0.408-1.69,0.657a2.326,2.326,0,0,1-1.03.281,1.368,1.368,0,0,1-.94-0.469c-0.18-.124-0.25-0.061-0.18.188a1.825,1.825,0,0,0,.75.843,2.156,2.156,0,0,0,.93.469l0.57-.375a5.239,5.239,0,0,1,1.59-.75,11.172,11.172,0,0,1-4.41,6.657c-0.12.187-.06,0.25,0.19,0.187a12.689,12.689,0,0,0,3.19-2.531,18.138,18.138,0,0,0,2.34-4.032,0.616,0.616,0,0,0,.47-0.562,0.3,0.3,0,0,0-.19-0.281,8.522,8.522,0,0,0-1.12-.563h0Zm2.06-8.25c-0.25-.124-0.31-0.061-0.19.187a11.516,11.516,0,0,0,2.25,1.5,4.233,4.233,0,0,0,1.78.281,1.235,1.235,0,0,0,.94-0.188c0.13-.5-0.25-0.905-1.12-1.218l-0.47.093a5.926,5.926,0,0,1-3.19-.656h0Zm7.22,33.148a0.736,0.736,0,0,0,.37.469c0.38,0.188.5,0.407,0.38,0.656a4.8,4.8,0,0,1-1.41,1.688,2.469,2.469,0,0,0-1.12-.281,1.29,1.29,0,0,0-.28-1.031,0.983,0.983,0,0,1,.28-0.188,1.284,1.284,0,0,0,.75-0.375c0.06-.124-0.03-0.249-0.28-0.375a1.069,1.069,0,0,1-.38-0.375Zm1.03-2.906a0.789,0.789,0,0,0-.84.188l-4.22.656a1.456,1.456,0,0,1-1.03-.188,0.639,0.639,0,0,0-.57-0.093c-0.12.063-.12,0.156,0,0.281a1.84,1.84,0,0,1,.66,1.5,5.12,5.12,0,0,0,.38,1.594c0.25,0.25.4,0.313,0.46,0.187a0.821,0.821,0,0,0,.29-0.844,2.777,2.777,0,0,0,1.03,0,0.361,0.361,0,0,1,0,.563,21.217,21.217,0,0,1-2.07,1.781c-0.75.563-1.68,1.219-2.81,1.969-0.12.25-.06,0.313,0.19,0.187a31.587,31.587,0,0,0,4.59-2.718,0.62,0.62,0,0,1,.19.468v1.875a3.191,3.191,0,0,1-.09.75,1.175,1.175,0,0,0-.1.751l0.47,1.031a0.337,0.337,0,0,0,.47,0,2.835,2.835,0,0,0,.19-0.844v-3.375a10.283,10.283,0,0,1,2.53,1.594c0.62,0.625,1.16,1.188,1.59,1.687q0.57,0.657.66-.093a2.149,2.149,0,0,0-.66-1.313,7.03,7.03,0,0,0-2.62-1.781,26.854,26.854,0,0,1,2.62-1.5,0.306,0.306,0,0,0,.1-0.375,2.239,2.239,0,0,0-1.41-.657,0.364,0.364,0,0,1-.37-0.187,0.883,0.883,0,0,0,.56-0.656,3.578,3.578,0,0,1,.84-1.313,0.881,0.881,0,0,0-.19-0.469,2.229,2.229,0,0,0-.84-0.656h0Zm-0.94.844a0.256,0.256,0,0,1,.28.375l-0.28,1.125a26.609,26.609,0,0,1-4.12.375l-0.19-1.313,0.75-.093Zm-3.18-7.5c-0.25-.061-0.32,0-0.19.187a9.9,9.9,0,0,0,.75.657,0.392,0.392,0,0,1,.09.281l-0.09,1.5-1.78.187a6.672,6.672,0,0,1-1.41-.374c-0.25-.125-0.31-0.062-0.19.187a2.638,2.638,0,0,0,.75.656,3.542,3.542,0,0,0,1.13.188q0.555,0,1.5-.094v1.594l-4.13.656a2.531,2.531,0,0,1-1.4-.281c-0.25-.125-0.32-0.062-0.19.187a2.006,2.006,0,0,0,1.5,1.031c0.44-.124.87-0.249,1.31-0.375a22.674,22.674,0,0,1,3.28-.562,37.863,37.863,0,0,1,3.94-.188l2.44,0.094c0.5,0,.56-0.187.19-0.562-0.57-.249-1.19-0.531-1.88-0.844a4.7,4.7,0,0,1-.66.281l-2.62.375-0.84.094a9.66,9.66,0,0,1,.09-1.594c0.94-.124,1.78-0.249,2.53-0.375,0.44-.124.56-0.312,0.38-0.562a1.7,1.7,0,0,0-1.32-.375,4.68,4.68,0,0,1-1.59.469,3.41,3.41,0,0,1,.19-1.126,0.729,0.729,0,0,0-.1-0.843,1.987,1.987,0,0,0-.65-0.282c-0.25-.061-0.6-0.124-1.03-0.187h0Zm-7.13,8.531a0.75,0.75,0,0,0-.56.188,4.784,4.784,0,0,1-.85.562,4.542,4.542,0,0,1-1.12.469,0.549,0.549,0,0,1-.56-0.094,1.729,1.729,0,0,0-.47-0.469,0.752,0.752,0,0,0-.1.469,1.219,1.219,0,0,0,.85,1.031,0.6,0.6,0,0,0,.65,0l1.41-.937c0.38-.249.47-0.188,0.28,0.187l-0.75,1.782a0.474,0.474,0,0,0,0,.562,2.791,2.791,0,0,1,.94,1.031,0.559,0.559,0,0,1,0,.75l-2.63,1.782a0.813,0.813,0,0,0-.56.656c-0.06.5,0.06,0.719,0.38,0.656a4.028,4.028,0,0,1,1.4-.281,18.813,18.813,0,0,1,3.66.469q1.875,0.375,8.62,2.062a6.47,6.47,0,0,0,1.22-.187q0.855-.189,3.75-1.031,0.57-.187,0-0.376a57.712,57.712,0,0,1-8.53-.468q-2.25-.282-6.19-1.031a8.67,8.67,0,0,0-2.81-.094q-0.84,0-.09-0.375,1.875-.655,3-1.125a0.751,0.751,0,0,0,.28-0.469,1.135,1.135,0,0,0-.28-0.656,9.068,9.068,0,0,0-1.5-1.313,0.412,0.412,0,0,1-.1-0.562l1.32-1.782a0.705,0.705,0,0,0,.47-0.656,2.016,2.016,0,0,0-1.13-.75h0Zm-2.44-6.656q-0.375-.093-0.18.187a9.033,9.033,0,0,1,1.87,2.344,1.025,1.025,0,0,0,.66.375,0.611,0.611,0,0,0,.47-0.469,3.352,3.352,0,0,0-.66-1.593,7.376,7.376,0,0,0-2.16-.844h0Zm9.66,25.758a11.407,11.407,0,0,0-8.34,3.563c-1.32,1.312-1.97,2.5-1.97,3.562a7.639,7.639,0,0,0,.47,2.813,8.732,8.732,0,0,0,1.31,2.437,0.794,0.794,0,0,0,1.03.375,8.59,8.59,0,0,0,1.03-.937,26.212,26.212,0,0,0,3.56-5.532q1.875-3.937,1.88-4.781a1.764,1.764,0,0,0-.28-0.844h0.93a6.728,6.728,0,0,1,4.97,1.688,5.193,5.193,0,0,1,1.32,3.844,5.985,5.985,0,0,1-1.13,3.843,12.172,12.172,0,0,1-5.06,3.469c-0.13.126-.1,0.187,0.09,0.187a14.622,14.622,0,0,0,5.35-2.718,5.437,5.437,0,0,0,1.87-4.219,6.578,6.578,0,0,0-1.78-4.875,7.1,7.1,0,0,0-5.25-1.875h0Zm-1.69.656q0,1.6-1.87,5.063a16.852,16.852,0,0,1-4.13,5.531,0.425,0.425,0,0,1-.47-0.093,5.655,5.655,0,0,1-1.03-1.969,6.362,6.362,0,0,1-.47-2.25,3,3,0,0,1,1.03-2.063q3.66-3.656,6.94-4.219h0Zm2.16,21.844c-0.63,0-.69.157-0.19,0.469a1.47,1.47,0,0,1,.75,1.313v4.593a17.144,17.144,0,0,1-2.44.188,4.152,4.152,0,0,1-1.87-.375c-0.38-.062-0.41.063-0.1,0.375,0.82,0.813,1.5,1.157,2.07,1.031a11.518,11.518,0,0,1,2.34-.375q0,5.719-.09,6.937c-1.38.188-2.44,0.345-3.19,0.469a3.635,3.635,0,0,1-1.41-.094,2.164,2.164,0,0,1-.93-0.468c-0.25-.125-0.32-0.062-0.19.187a2.277,2.277,0,0,0,.84,1.125,1.888,1.888,0,0,0,1.03.563,24.453,24.453,0,0,1,3.94-.844,38.32,38.32,0,0,1,3.94-.282h2.15c0.63-.124.72-0.374,0.29-0.749a4.685,4.685,0,0,0-1.41-.469,4.036,4.036,0,0,1-1.41.281c-0.93.063-1.81,0.126-2.62,0.188q0.09-4.311.19-7.031c0.62-.062,1.21-0.125,1.78-0.188,0.68-.062,1.34-0.125,1.97-0.188,0.43-.124.53-0.312,0.28-0.562a6.98,6.98,0,0,0-1.32-.469,6.63,6.63,0,0,0-1.03.375c-0.43.063-1,.157-1.68,0.281q0-2.624.09-3.75a2.938,2.938,0,0,1,.19-1.125c0.18-.187.03-0.436-0.47-0.75a5.858,5.858,0,0,0-1.5-.656h0Zm-8.53-1.031c-0.25,0-.28.093-0.1,0.281a1.5,1.5,0,0,1,.85,1.125v3.469a28.249,28.249,0,0,1-2.91.656,3.03,3.03,0,0,1-1.31-.375c-0.19-.061-0.22,0-0.1.187a2.045,2.045,0,0,0,1.04,1.032,0.844,0.844,0,0,0,.84.094,23.727,23.727,0,0,0,2.44-.75,16.223,16.223,0,0,1-1.69,3.375,29.679,29.679,0,0,1-3.09,4.312q-0.2.376,0.18,0.188c1.07-1,1.85-1.782,2.35-2.344a35.34,35.34,0,0,0,2.15-2.813q0,1.969-.18,6.657a3.273,3.273,0,0,1-.29,1.312,6.93,6.93,0,0,0,.19,1.313,0.652,0.652,0,0,0,.56.562c0.32,0,.47-0.25.47-0.75v-1.219q0-4.124.1-9.281a2.8,2.8,0,0,1,.93.75,10.964,10.964,0,0,1,.66,1.125,0.607,0.607,0,0,0,.56.375,0.672,0.672,0,0,0,.38-0.937,1.381,1.381,0,0,0-.85-1.032q-0.84-.374-1.59-0.75v-1.031q1.5-.187,2.34-0.375c0.57-.187.72-0.375,0.47-0.562a3.53,3.53,0,0,0-.93-0.375c-0.25.063-.51,0.126-0.75,0.187a7.176,7.176,0,0,1-1.13.281,9.131,9.131,0,0,1,.28-2.906c0.19-.249.1-0.562-0.28-0.937a2.14,2.14,0,0,0-1.59-.844h0Zm5.72,23.031c-0.25-.125-0.32-0.061-0.19.187a1.791,1.791,0,0,1,.28.938,2.655,2.655,0,0,1-.19,1.031c-0.12.313-.47,1.031-1.03,2.157q-2.25.281-2.91,0.281a3.653,3.653,0,0,1-1.21-.281c-0.13,0-.19.032-0.19,0.093a2.486,2.486,0,0,0,1.12.938c0.19,0,.57-0.031,1.13-0.094,0.5-.061,1.09-0.125,1.78-0.188a33.991,33.991,0,0,1-3.38,4.969,1.212,1.212,0,0,0,0,.656c0.13,0.314.29,0.408,0.47,0.282a12.03,12.03,0,0,1,1.69-1.219,3.394,3.394,0,0,1,1.69-.375,1.3,1.3,0,0,1,.94.281,2.459,2.459,0,0,1,.56,1.781,20.919,20.919,0,0,0-3.28,2.438,2.764,2.764,0,0,0-.94,1.969,2.273,2.273,0,0,0,.66,1.687c0.75,0.75,2.09,1.125,4.03,1.125h3.18a7.014,7.014,0,0,0,1.69-.187c0.25-.125.28-0.282,0.1-0.469a4.009,4.009,0,0,0-1.22-.469,3.806,3.806,0,0,0-1.22.188,27.083,27.083,0,0,1-3.19.187,4.188,4.188,0,0,1-3-.844,1.655,1.655,0,0,1-.47-1.218,1.817,1.817,0,0,1,.56-1.313,16.782,16.782,0,0,1,3.19-2.25v2.438c0.13,0.25.28,0.313,0.47,0.187a0.816,0.816,0,0,0,.38-0.656v-2.438a44.027,44.027,0,0,1,5.43-2.906c0.38-.061.41-0.218,0.1-0.469a5.3,5.3,0,0,0-1.97-.937c-0.25-.062-0.31,0-0.19.187,0.5,0.375.63,0.626,0.38,0.75q-1.98,1.219-3.85,2.438a2.531,2.531,0,0,0-.84-1.5,2.449,2.449,0,0,0-1.6-.469,6.43,6.43,0,0,0-1.03.094,4.891,4.891,0,0,0-1.31.469c0.31-.437.69-1,1.13-1.688,0.5-.811,1.09-1.749,1.78-2.812,1.93-.249,3.78-0.563,5.53-0.938,0.25-.124.28-0.281,0.09-0.469l-1.12-.562a3.829,3.829,0,0,0-1.22.469,15.957,15.957,0,0,1-2.81.656l1.12-2.156c0.25-.249.28-0.469,0.09-0.657a5.136,5.136,0,0,0-1.21-1.312h0Zm1.87,25.594c-0.25-.125-0.31-0.062-0.19.187a3.845,3.845,0,0,1,.19,1.031,15.809,15.809,0,0,1-.94,3.657,14.407,14.407,0,0,0-4.5,1.875,16.783,16.783,0,0,1-.65-3.563,0.867,0.867,0,0,0-.66-0.562,6.076,6.076,0,0,1-.56-0.657c-0.25-.187-0.32-0.124-0.19.188a4.785,4.785,0,0,1,.28.937c0.31,1.563.66,2.97,1.03,4.219a9.369,9.369,0,0,0-2.34,2.438,4.31,4.31,0,0,0-.75,2.437,3.328,3.328,0,0,0,.47,1.969,1.327,1.327,0,0,0,1.03.562,3.315,3.315,0,0,0,1.5-.375,10.164,10.164,0,0,0,2.25-1.781q0.375,0.657.75,1.219,0.66,0.375.66-.281c-0.25-.437-0.54-0.969-0.85-1.594,0.75-1.125,1.35-2.063,1.78-2.813a40.455,40.455,0,0,0,1.78-3.656,12.379,12.379,0,0,1,1.5-.094,4.848,4.848,0,0,1,3.57,1.219,4.053,4.053,0,0,1,1.31,2.906,5.1,5.1,0,0,1-1.13,3.282,10.916,10.916,0,0,1-3.65,2.719q-0.285.281,0.09,0.281a12.666,12.666,0,0,0,4.31-2.625,4.762,4.762,0,0,0,1.5-3.469,4.976,4.976,0,0,0-1.5-3.656,5.691,5.691,0,0,0-4.21-1.5,13.18,13.18,0,0,0-1.6.093c0.5-1.561.81-2.531,0.94-2.906a2.455,2.455,0,0,0-.28-0.562,3.746,3.746,0,0,0-.94-1.125h0Zm-1.22,5.718a25.026,25.026,0,0,1-2.62,5.344,30.8,30.8,0,0,1-1.32-3.562,12.53,12.53,0,0,1,3.94-1.782h0Zm-4.78,2.344q0.75,2.158,1.5,3.844a5.51,5.51,0,0,1-1.59,1.406,2.173,2.173,0,0,1-1.13.281,0.964,0.964,0,0,1-.94-0.375,3.267,3.267,0,0,1-.18-1.406,3.231,3.231,0,0,1,.47-1.781,7.985,7.985,0,0,1,1.87-1.969h0Zm9.84,27.125c0.19,0.188.32,0.126,0.38-.187a4.718,4.718,0,0,0-.47-1.875,51.688,51.688,0,0,1-3.66-4.5,25.793,25.793,0,0,1,3.57-1.032c0.31-.248.28-0.468-0.1-0.656a2.121,2.121,0,0,0-1.5-.187c-0.25.126-.53,0.281-0.84,0.469a12.169,12.169,0,0,1-1.59.656,25.9,25.9,0,0,1-1.13-2.438c-0.19-.562-0.37-1.218-0.56-1.968a2.145,2.145,0,0,0-1.22-.375,7.636,7.636,0,0,0-1.22.093q-0.375.094,0,.282a1.545,1.545,0,0,1,1.13.375,8.016,8.016,0,0,1,.75,1.406,30.508,30.508,0,0,0,1.5,2.906c-1,.375-2.1.75-3.29,1.125a10.7,10.7,0,0,1-1.68.375,1.481,1.481,0,0,1-.94-0.375c-0.25-.249-0.31-0.187-0.19.188a2.571,2.571,0,0,0,1.22.937,1.709,1.709,0,0,0,.94.094c1.31-.563,2.72-1.093,4.22-1.594q1.59,1.968,3.37,4.313c0.06,0.126,0,.187-0.19.187a13.851,13.851,0,0,1-1.5-.094q-0.375,0,0,.282a5.4,5.4,0,0,1,3,1.593h0Zm-2.25,4.688c-0.68.063-1.15,0.094-1.4,0.094a13.413,13.413,0,0,1-4.78-.75q-1.5-.562-1.5-1.5a1.161,1.161,0,0,1,.37-0.844c0.13-.249.06-0.312-0.19-0.188a1.375,1.375,0,0,0-.65,1.125c0,0.876.72,1.688,2.15,2.438a12.455,12.455,0,0,0,5.54.937,6.13,6.13,0,0,0,1.4-.093,0.329,0.329,0,0,0,0-.469,1.5,1.5,0,0,0-.94-0.75h0Zm4.04-12.844a0.494,0.494,0,0,0,.37.281c0.19,0,.28-0.155.28-0.468a1.747,1.747,0,0,0-.47-1.313,5.346,5.346,0,0,0-1.97-.844q-0.375,0-.09.188a5.071,5.071,0,0,1,1.88,2.156h0Zm1.96-1.5a0.507,0.507,0,0,0,.38.281c0.19,0,.28-0.155.28-0.468a1.788,1.788,0,0,0-.47-1.313,5.346,5.346,0,0,0-1.97-.844q-0.375,0-.09.188a4.993,4.993,0,0,1,1.87,2.156h0Zm-1.96,37.085c0.12-.249.06-0.312-0.19-0.188a12.022,12.022,0,0,1-3.19,1.407,10.856,10.856,0,0,1-2.81.375,3.821,3.821,0,0,1-2.72-.751,4.207,4.207,0,0,1-.84-3q0-3.657.28-6.657a41.233,41.233,0,0,1,.75-4.875,0.664,0.664,0,0,0-.1-0.562,1.374,1.374,0,0,0-.47-0.563,13.227,13.227,0,0,0-1.12-.843c-0.31-.125-0.38-0.031-0.19.281a1.986,1.986,0,0,1,.47,1.219q-0.465,9.937-.47,10.875c0,2.375.38,3.937,1.13,4.687a4.438,4.438,0,0,0,3.28,1.125,8.266,8.266,0,0,0,3.09-.562,12.032,12.032,0,0,0,3.1-1.969h0Zm-1.41,9.649a0.457,0.457,0,0,0-.66,0l-0.37.376q-3.465,1.313-11.25,3.843a1.9,1.9,0,0,1-1.31-.093c-0.25-.125-0.32-0.062-0.19.187a2.211,2.211,0,0,0,1.87,1.125,31.268,31.268,0,0,1,3.38-1.594q4.68-1.968,6.47-2.531l0.09,0.188a19.4,19.4,0,0,0-3.56,4.312,7.542,7.542,0,0,0-1.03,3.656,6.041,6.041,0,0,0,2.43,4.875c1.57,1.313,2.72,1.969,3.47,1.969a0.418,0.418,0,0,0,.47-0.563,1.236,1.236,0,0,0-.84-1.031,8.514,8.514,0,0,1-3.56-2.25,4.323,4.323,0,0,1-1.32-3.187,8.207,8.207,0,0,1,2.25-5.063,7.9,7.9,0,0,1,3.85-2.812c0.68-.062.9-0.249,0.65-0.563a5.27,5.27,0,0,0-.84-0.844h0Z" transform="translate(-1489.38 -154.094)"/>
</svg>
