<svg id="midokoro_ttl" xmlns="http://www.w3.org/2000/svg" width="49.031" height="207.5" viewBox="0 0 49.031 207.5">
  <defs>
    <style>
      .cls-1 {
        fill: #100d0d;
        fill-rule: evenodd;
      }
    </style>
  </defs>
  <path id="明治神宮の_杜_もり_みどころ" data-name="明治神宮の 杜（もり）・みどころ" class="cls-1" d="M629.586,1649.77a3.472,3.472,0,0,1-.844.28q-2.531.555-4.594,0.84a4.581,4.581,0,0,0-1.5-.47c-0.313-.06-0.375,0-0.187.19a1.722,1.722,0,0,1,.844,1.12q0.092,0.66.093,3.57a23.453,23.453,0,0,1-.843,6.84,15.4,15.4,0,0,1-3.094,5.34c-0.126.25-.063,0.32,0.187,0.19a16.146,16.146,0,0,0,2.719-3.09,13.881,13.881,0,0,0,1.781-4.6c1.25-.06,3.094-0.24,5.532-0.56q0.092,3.285.093,6.47c0,0.31-.187.41-0.562,0.28-0.75-.19-1.532-0.4-2.344-0.65-0.25-.13-0.313-0.07-0.187.18q1.217,0.75,2.343,1.41a1.805,1.805,0,0,1,.657.84c0.124,0.38.312,0.44,0.562,0.19a11.393,11.393,0,0,0,.844-1.5,6.487,6.487,0,0,1-.188-1.59q-0.28-6-.093-12.85a1.5,1.5,0,0,1,.281-0.93,0.311,0.311,0,0,0,0-.57,10.3,10.3,0,0,0-1.5-.93h0Zm0.094,5.34v3.47q-2.064.375-5.438,0.65a27.952,27.952,0,0,0,.188-3.28,26.4,26.4,0,0,1,5.25-.84h0Zm-0.469-4.31a0.376,0.376,0,0,1,.469.37v3.19a2.17,2.17,0,0,0-.657-0.09c-0.313.06-.843,0.18-1.593,0.37-0.938.19-1.938,0.34-3,.47v-3.56h0.562q2.156-.375,4.219-0.75h0Zm-9.844,5.34v3.38H618.9q-1.595.375-3.281,0.75,0-1.785-.094-3.57a0.96,0.96,0,0,0,.844,0c0.75-.18,1.749-0.37,3-0.56h0Zm-0.094-5.06a4.184,4.184,0,0,1-.75.37q-1.595.375-3.281,0.66a5.341,5.341,0,0,0-1.031-.47c-0.251-.12-0.314-0.06-0.188.19a1.164,1.164,0,0,1,.375.65,4.562,4.562,0,0,1,.188,1.41q0.091,3.09,0,6.66,0,1.59.656,1.59c0.312-.06.437-0.47,0.375-1.22,1.187-.25,2.375-0.47,3.563-0.65a4.473,4.473,0,0,0,.562.37,0.41,0.41,0,0,0,.563-0.09,3.022,3.022,0,0,0,.093-1.32q-0.095-6.375.282-6.75a0.41,0.41,0,0,0-.094-0.65,4.634,4.634,0,0,0-1.313-.75h0Zm-0.375.94a0.376,0.376,0,0,1,.469.37v3q-1.876.375-3.844,0.75v-3.37a28.851,28.851,0,0,1,3.375-.75h0Zm-1.125,31.79q-1.687,3-3.468,5.53a0.537,0.537,0,0,1-.844-0.09q-0.562-.465-0.375.18a4.063,4.063,0,0,0,.844,1.32,4.141,4.141,0,0,0,.656.56c0.436,0.37.687,0.28,0.75-.28a4.3,4.3,0,0,1,.375-1.41q1.216-2.715,2.25-5.62c0.061-.31,0-0.38-0.188-0.19h0Zm7.032-10.13c-0.438-.06-0.469.1-0.094,0.47a0.925,0.925,0,0,1,.281,1.13,45.2,45.2,0,0,1-3.375,5.72c-0.187.06-.407,0.12-0.656,0.18-0.251,0-.281.47-0.094,1.41q0.188,0.375.75,0a4.469,4.469,0,0,1,1.313-.56,39.362,39.362,0,0,1,7.593-1.5c0.188,0.37.375,0.75,0.563,1.12q0.749,0.945,1.125-.18a4.264,4.264,0,0,0-.844-1.88,19.242,19.242,0,0,0-2.625-2.06c-0.187-.13-0.25-0.1-0.187.09a16.7,16.7,0,0,1,1.593,2.25,61.314,61.314,0,0,0-7.781,1.22q2.061-2.625,3.938-5.34a3.047,3.047,0,0,1,.468-0.38c0.188-.12.156-0.34-0.093-0.65a5.744,5.744,0,0,0-1.875-1.04h0Zm4.687,11.91c0.375,0,.563.13,0.563,0.38l-0.469,3.65a40.744,40.744,0,0,0-6.375.38,14.8,14.8,0,0,0-.281-3.66,51.672,51.672,0,0,1,6.562-.75h0Zm0.938-1.03c-0.126.06-.314,0.16-0.563,0.28q-3.75.285-7.125,0.75c-0.438-.19-0.844-0.34-1.219-0.47-0.313-.12-0.407-0.03-0.281.28a4.126,4.126,0,0,1,.75,1.6,10.622,10.622,0,0,1,.188,3.37,2.019,2.019,0,0,0,.375.85,0.366,0.366,0,0,0,.656-0.1,0.73,0.73,0,0,0,.094-0.28,29.433,29.433,0,0,1,6.093-.47,0.377,0.377,0,0,0,.375.47,0.715,0.715,0,0,0,.844-0.66l0.75-3.46a0.878,0.878,0,0,1,.375-0.47q0.374-.285,0-0.75a4.3,4.3,0,0,0-1.312-.94h0Zm-14.719-10.59c-0.375-.13-0.469-0.03-0.281.28a13.533,13.533,0,0,0,1.781,2.06,2.146,2.146,0,0,0,1.125.66c0.249,0,.375-0.19.375-0.57a1.965,1.965,0,0,0-.563-1.22,4.906,4.906,0,0,1-2.437-1.21h0Zm-1.688,5.06c-0.375-.25-0.468-0.19-0.281.19a7.434,7.434,0,0,0,1.781,1.87,1.5,1.5,0,0,0,1.125.28q0.75-.555-0.562-1.59a4.565,4.565,0,0,1-2.063-.75h0Zm12.094,23.01v2.34l-2.344.38h-0.656c-0.126-1.32-.187-2.1-0.187-2.35Zm-1.031-4.97c-0.251.06-.251,0.16,0,0.28a6.205,6.205,0,0,1,.75.56,0.943,0.943,0,0,1,.187.66v2.81l-3.375.38a2.2,2.2,0,0,0-1.312-.47c-0.251,0-.314.09-0.188,0.28a1.108,1.108,0,0,1,.657.75c0.187,2.19.281,3.78,0.281,4.78a2.7,2.7,0,0,0,.844,2.25,0.706,0.706,0,0,0,.562-0.66l2.625-.28v6.94a1.008,1.008,0,0,0,.469.94c0.249,0,.406-0.35.469-1.03v-1.97c0-1.19.03-2.88,0.093-5.06,0.875-.07,1.688-0.1,2.438-0.1a1.283,1.283,0,0,0,.75.66,0.769,0.769,0,0,0,.562-0.47c0.062-.38.188-1.09,0.375-2.16q0.282-1.68.563-3.75a0.526,0.526,0,0,1,.187-0.37c0.312-.13.188-0.44-0.375-0.94a2.828,2.828,0,0,0-.75-0.56,0.523,0.523,0,0,0-.375.19l-3.281.46v-2.43a1.021,1.021,0,0,1,.094-0.47c0.249-.31.124-0.63-0.375-0.94a2.615,2.615,0,0,0-1.875-.28h0Zm5.062,4.5a0.328,0.328,0,0,1,.375.37l-0.093,2.16a1.7,1.7,0,0,0-1.032-.37,8.947,8.947,0,0,1-2.156.46v-2.34Zm-1.312,3.19h1.5c-0.063.75-.126,1.59-0.188,2.53a1.877,1.877,0,0,1-.656-0.1l-0.469.19-1.875.19,0.094-2.63Zm-2.719.37v2.63l-2.719.28-0.187-2.63h0.562Zm-6.937-3.56c-0.251-.06-0.375,0-0.375.19a5.008,5.008,0,0,1-1.219.47c-1.125.25-2.189,0.43-3.188,0.56a1.1,1.1,0,0,1-.937-0.38c-0.188-.12-0.281-0.09-0.281.1a1.147,1.147,0,0,0,.281.56,2.357,2.357,0,0,0,1.219.75c1-.38,2.187-0.78,3.562-1.22a0.261,0.261,0,0,1,.281.38,31.635,31.635,0,0,1-2.718,4.21,17.891,17.891,0,0,1-3.094,3.1c-0.126.19-.063,0.25,0.187,0.19a19.476,19.476,0,0,0,1.875-1.5q0.563-.48,2.25-2.16l0.188,0.19v2.72a19.352,19.352,0,0,1-.188,2.9c-0.063.38-.126,0.72-0.187,1.03a5.138,5.138,0,0,0,.656,1.97c0.249,0.25.437,0.19,0.563-.19a8.178,8.178,0,0,0,.093-1.31v-7.97c0.188-.12.125-0.28-0.187-0.47a28.757,28.757,0,0,0,1.969-2.71,0.813,0.813,0,0,0,.468-0.47c-0.25-.19-0.656-0.5-1.218-0.94h0Zm-2.813-4.41c-0.187-.12-0.25-0.06-0.187.19a6.457,6.457,0,0,0,2.625,2.72q0.843,0.285.656-.84a1.068,1.068,0,0,0-.656-0.75,9.833,9.833,0,0,1-2.438-1.32h0Zm2.625,8.63c-0.187-.06-0.25,0-0.187.19,0.75,1,1.374,1.84,1.875,2.53a0.6,0.6,0,0,0,.656.28q0.281-.09.187-0.66a2.888,2.888,0,0,0-.468-1.12,1.944,1.944,0,0,0-.75-0.57,4.215,4.215,0,0,1-1.313-.65h0Zm2.531,15.04c-0.25,0-.281.09-0.093,0.28a1.252,1.252,0,0,1,.75.94v1.59l-4.688.47h-1.406l-0.281-.94c-0.188-.19-0.282-0.15-0.282.1a7.191,7.191,0,0,1-.093,1.31,4.331,4.331,0,0,1-1.219,1.78,1.775,1.775,0,0,0,.375,1.5,0.636,0.636,0,0,0,.844-0.47,4.524,4.524,0,0,0,.75-2.53h1.031q2.813-.285,5.531-0.66c2-.18,4.219-0.28,6.656-0.28,0.5,0.06.594,0.25,0.282,0.56l-1.125,1.69c-0.126.25-.063,0.32,0.187,0.19l1.875-1.22a1.668,1.668,0,0,1,1.125-.19,0.255,0.255,0,0,0,.281-0.37,3.611,3.611,0,0,0-1.593-1.69h-0.375q-2.626.285-6.75,0.66v-1.03a0.543,0.543,0,0,1,.281-0.47q0.281-.195-0.188-0.66a3.33,3.33,0,0,0-1.875-.56h0Zm4.594,5.34a7.963,7.963,0,0,0-1.594.47c-1.5.19-2.5,0.31-3,.38s-1.157.12-1.968,0.18a5.915,5.915,0,0,0-1.125-.37c-0.251-.13-0.314-0.06-0.188.19a3.519,3.519,0,0,1,.656,1.12l0.282,2.53a1.466,1.466,0,0,0,.562.94c0.188,0.13.343,0.03,0.469-.28l1.031-.1a1.121,1.121,0,0,1,.281.85,14.119,14.119,0,0,1-.562,1.97l-2.531.18a2.893,2.893,0,0,0-1.407-.37c-0.25,0-.25.09,0,0.28a1.651,1.651,0,0,1,.75,1.03l0.657,4.03c0.249,0.5.5,0.63,0.75,0.38a1.217,1.217,0,0,0,.281-0.47c1.561-.25,2.686-0.41,3.375-0.47q0.936-.09,2.25-0.09a6.9,6.9,0,0,1,1.125.18,0.438,0.438,0,0,0,.469-0.09,1.3,1.3,0,0,0,.093-0.56l1.032-2.81a1.007,1.007,0,0,1,.468-0.38c0.249-.19.188-0.47-0.187-0.84a3.661,3.661,0,0,0-1.031-.75,8.377,8.377,0,0,0-1.5.18l-4.032.47a18.7,18.7,0,0,0,1.032-1.68c0.187-.19.342-0.35,0.468-0.47a0.239,0.239,0,0,0,0-.38,2.215,2.215,0,0,0-.562-0.37l2.062-.47a1.359,1.359,0,0,0,.75.37,0.382,0.382,0,0,0,.375-0.18,3.218,3.218,0,0,0,.188-0.57q0.563-1.215,1.031-2.43a1.069,1.069,0,0,1,.375-0.38c0.188-.12.062-0.34-0.375-0.66a3.343,3.343,0,0,0-.75-0.56h0Zm0,7.97c0.375,0,.53.13,0.469,0.38l-0.656,3.28-0.75-.1q-3,.375-5.907.66l-0.562-3.38q2.624-.18,7.406-0.84h0Zm-0.75-7.03c0.249,0,.343.16,0.281,0.47a20.991,20.991,0,0,1-.656,2.34,1.362,1.362,0,0,1-.562-0.19,5.8,5.8,0,0,1-.657.29,20.787,20.787,0,0,1-3.562.56l-0.469-2.72,1.125-.09,3.75-.57Zm-1.031,21.09a11.415,11.415,0,0,0-8.344,3.57c-1.312,1.31-1.969,2.5-1.969,3.56a7.778,7.778,0,0,0,.469,2.81,8.947,8.947,0,0,0,1.313,2.44,0.789,0.789,0,0,0,1.031.37,8.339,8.339,0,0,0,1.031-.93,26.593,26.593,0,0,0,3.563-5.54q1.874-3.93,1.875-4.78a1.659,1.659,0,0,0-.282-0.84h0.938a6.718,6.718,0,0,1,4.969,1.69,5.192,5.192,0,0,1,1.312,3.84,5.954,5.954,0,0,1-1.125,3.84,12.1,12.1,0,0,1-5.062,3.47c-0.126.13-.094,0.19,0.093,0.19a14.521,14.521,0,0,0,5.344-2.72,5.432,5.432,0,0,0,1.875-4.22,6.589,6.589,0,0,0-1.781-4.87,7.1,7.1,0,0,0-5.25-1.88h0Zm-1.688.66q0,1.59-1.875,5.06a16.781,16.781,0,0,1-4.125,5.53,0.4,0.4,0,0,1-.468-0.09,5.552,5.552,0,0,1-1.032-1.97,6.274,6.274,0,0,1-.468-2.25,2.96,2.96,0,0,1,1.031-2.06q3.656-3.66,6.937-4.22h0ZM595.8,1650.7c-0.626,0-.689.16-0.188,0.47a1.476,1.476,0,0,1,.75,1.31v4.6a18.122,18.122,0,0,1-2.437.19,4.169,4.169,0,0,1-1.875-.38c-0.375-.06-0.408.06-0.094,0.38a2.5,2.5,0,0,0,2.062,1.03,11.582,11.582,0,0,1,2.344-.38c0,3.81-.032,6.13-0.094,6.94-1.375.19-2.437,0.34-3.187,0.47a3.605,3.605,0,0,1-1.406-.1,2.147,2.147,0,0,1-.938-0.46c-0.25-.13-0.313-0.07-0.187.18a2.259,2.259,0,0,0,.843,1.13,1.884,1.884,0,0,0,1.032.56,24.693,24.693,0,0,1,3.937-.84,37.338,37.338,0,0,1,3.938-.28h2.156q0.936-.195.281-0.75a4.6,4.6,0,0,0-1.406-.47,4.2,4.2,0,0,1-1.406.28c-0.938.06-1.814,0.12-2.625,0.19,0.061-2.88.124-5.22,0.187-7.04,0.624-.06,1.219-0.12,1.781-0.18,0.687-.06,1.344-0.13,1.969-0.19,0.437-.13.53-0.31,0.281-0.56a6.688,6.688,0,0,0-1.312-.47,6.184,6.184,0,0,0-1.031.37c-0.438.07-1,.16-1.688,0.28,0-1.74.031-3,.094-3.75a3,3,0,0,1,.187-1.12c0.188-.19.031-0.44-0.468-0.75a5.747,5.747,0,0,0-1.5-.66h0Zm-8.532-1.03c-0.25,0-.281.1-0.093,0.28a1.513,1.513,0,0,1,.843,1.13v3.47a28.4,28.4,0,0,1-2.906.65,3,3,0,0,1-1.312-.37c-0.188-.06-0.22,0-0.094.19a2.079,2.079,0,0,0,1.031,1.03,0.854,0.854,0,0,0,.844.09,20.877,20.877,0,0,0,2.437-.75,16.315,16.315,0,0,1-1.687,3.38,29.14,29.14,0,0,1-3.094,4.31c-0.126.25-.063,0.31,0.188,0.19,1.062-1,1.842-1.79,2.343-2.35s1.219-1.5,2.157-2.81q0,1.965-.188,6.66a3.342,3.342,0,0,1-.281,1.31,6.4,6.4,0,0,0,.187,1.31,0.641,0.641,0,0,0,.563.56q0.468,0,.469-0.75v-1.22q0-4.125.093-9.28a2.841,2.841,0,0,1,.938.75,10.62,10.62,0,0,1,.656,1.13c0.249,0.31.437,0.44,0.563,0.37a0.662,0.662,0,0,0,.375-0.93,1.385,1.385,0,0,0-.844-1.04c-0.563-.24-1.094-0.5-1.594-0.75v-1.03c1-.12,1.781-0.25,2.344-0.37,0.562-.19.718-0.38,0.469-0.56a3.564,3.564,0,0,0-.938-0.38c-0.25.06-.5,0.13-0.75,0.19a7.7,7.7,0,0,1-1.125.28,9.254,9.254,0,0,1,.281-2.91q0.282-.375-0.281-0.93a2.129,2.129,0,0,0-1.594-.85h0Zm15.469,31.93a10.151,10.151,0,0,0-9-5.15,10.12,10.12,0,0,0-5.437,1.4,12.811,12.811,0,0,0-3.657,3.66,0.262,0.262,0,0,0,.094.37,0.3,0.3,0,0,0,.375-0.09,11.779,11.779,0,0,1,3.656-3.19,10.236,10.236,0,0,1,4.969-1.12,10.381,10.381,0,0,1,4.875,1.12,9.428,9.428,0,0,1,3.656,3.28,0.306,0.306,0,0,0,.375.1,0.279,0.279,0,0,0,.094-0.38h0Zm-10.781,5.41c-0.251-.13-0.314-0.06-0.188.19a1.545,1.545,0,0,1,.469,1.4c0,0.25-.032.66-0.094,1.22-0.063.5-.126,1.13-0.187,1.88l-3.938,1.12a0.119,0.119,0,0,0,0,.19,4.3,4.3,0,0,0,.938.19q1.406-.285,2.906-0.66-0.375,3.66-.562,5.44a5.31,5.31,0,0,1-1.782-.1,1.191,1.191,0,0,1-.75-1.03c-0.126-.37-0.25-0.37-0.375,0a1.906,1.906,0,0,0,.469,1.41,3.483,3.483,0,0,0,2.344.66q-0.189,1.875-.188,3.18a4.825,4.825,0,0,0,.563,2.63,3.6,3.6,0,0,0,3.187,1.5,4.45,4.45,0,0,0,3.282-1.13,3.93,3.93,0,0,0,1.125-2.9,12.929,12.929,0,0,0-1.032-4.13c-0.25-.25-0.313-0.22-0.187.1a18.617,18.617,0,0,1,.375,3.65,3.565,3.565,0,0,1-.938,2.63,3.738,3.738,0,0,1-2.718.84,2.732,2.732,0,0,1-2.157-.75,3.664,3.664,0,0,1-.656-2.44,31.266,31.266,0,0,1,.188-3.28,12.11,12.11,0,0,0,4.218-.56q0.655-.285.469-0.75a2.514,2.514,0,0,0-1.406-.38,5.125,5.125,0,0,1-1.219.47,10.148,10.148,0,0,1-1.969.28q0.282-3.465.657-5.53a10.943,10.943,0,0,1,3.75-.09c0.375,0,.468-0.19.281-0.56a2.888,2.888,0,0,0-2.063-.75l-1.875.47,0.094-1.04a5.865,5.865,0,0,1,.281-1.5,0.688,0.688,0,0,0,.094-0.75,5.238,5.238,0,0,0-1.406-1.12h0Zm4.219,26.59a0.608,0.608,0,0,0-.563.19,0.515,0.515,0,0,0,.375.37,2.073,2.073,0,0,1,.656.94,10.308,10.308,0,0,1,.282,2.91,30.807,30.807,0,0,1-.844,7.12,18.266,18.266,0,0,1-2.625,5.82q-0.282.465,0.187,0.18a16.961,16.961,0,0,0,3.188-5.53,18.019,18.019,0,0,0,1.125-6,25.176,25.176,0,0,0-.188-3.56,2.715,2.715,0,0,0-1.593-2.44h0Zm-5.625-2.44c-0.126-.06-0.188-0.03-0.188.1a1.852,1.852,0,0,1,.188.84,29.736,29.736,0,0,1-.657,3.75,16.49,16.49,0,0,0-.468,3,7.829,7.829,0,0,0,.656,3.28c0.312,0.32.562,0.28,0.75-.09a8.335,8.335,0,0,1,.469-2.25c0.312-1,.717-2.12,1.218-3.38,0.062-.24,0-0.28-0.187-0.09a22.45,22.45,0,0,0-1.594,3.38q-0.189.27-.281,0a12.929,12.929,0,0,1,.281-4.04q0.468-2.055.844-3.18c-0.063-.13-0.157-0.31-0.281-0.57a2.206,2.206,0,0,0-.75-0.75h0Zm-6,25.32a12.642,12.642,0,0,0,3.656,3.65,10.035,10.035,0,0,0,5.437,1.41,10.131,10.131,0,0,0,9-5.16,0.268,0.268,0,0,0-.093-0.37,0.314,0.314,0,0,0-.375.09,9.278,9.278,0,0,1-3.657,3.28,10.386,10.386,0,0,1-4.875,1.13,10.233,10.233,0,0,1-4.968-1.13,11.736,11.736,0,0,1-3.657-3.18,0.306,0.306,0,0,0-.375-0.1,0.277,0.277,0,0,0-.093.38h0Zm9.187,15.05a1.3,1.3,0,1,0,.844.38,1.17,1.17,0,0,0-.844-0.38h0Zm1.031,17.19-0.468.28-3.469,1.04a2.4,2.4,0,0,1-1.594,0c-0.25-.13-0.313-0.07-0.187.18a3.32,3.32,0,0,0,1.593.94,2.694,2.694,0,0,1,.75-0.47l3.282-1.03c0.187,0,.218.09,0.093,0.28q-2.345,4.59-4.781,8.53c-1.938,0-3.281.38-4.031,1.13a2.943,2.943,0,0,0-.938,2.15,1.665,1.665,0,0,0,.375,1.22,1.17,1.17,0,0,0,.844.38,2.79,2.79,0,0,0,1.219-.28,4.955,4.955,0,0,0,1.406-1.41l1.781-2.53a73.088,73.088,0,0,1,7.594,1.69,12.33,12.33,0,0,1-3.469,3.93c-0.126.25-.063,0.32,0.188,0.19a11.534,11.534,0,0,0,4.219-3.84c1.186,0.37,2.437.81,3.75,1.31a0.258,0.258,0,0,0,.375-0.28,2.2,2.2,0,0,0-.282-0.56,2.036,2.036,0,0,0-.75-0.75l-2.531-.66c0.249-.69.5-1.34,0.75-1.97a1.461,1.461,0,0,0,.281-0.37c0.125-.13-0.219-0.69-1.031-1.69q-0.281-.285-0.281.09a3.2,3.2,0,0,1,.094,1.32,12.635,12.635,0,0,1-.844,2.34q-4.126-.93-7.688-1.41,1.78-2.715,5.157-8.53c0.375-.25.468-0.43,0.281-0.56q-1.6-.84-1.688-0.66h0Zm-5.156,10.41-1.781,2.72a2.228,2.228,0,0,1-.75.75,1.743,1.743,0,0,1-.75.19,0.9,0.9,0,0,1-.656-0.29,1.243,1.243,0,0,1-.188-0.84,2.453,2.453,0,0,1,.844-1.69q0.843-.84,3.281-0.84h0Zm8.156,17.87a6.324,6.324,0,0,1,1.782-.75c0.436-.12.53-0.34,0.281-0.65a1.958,1.958,0,0,0-1.125-.57,6.322,6.322,0,0,0-1.406-.09c-0.188.06-.188,0.16,0,0.28,0.562,0.06.78,0.16,0.656,0.28q-3.846,2.91-5.813,4.5a60.186,60.186,0,0,1-2.062-6.94,4.153,4.153,0,0,0-1.125-.37,4.642,4.642,0,0,0-1.031-.09c-0.188.06-.188,0.15,0,0.28a1.454,1.454,0,0,1,1.125.84q0.654,1.785,2.531,6.75a14.2,14.2,0,0,0-2.625,2.72,3.623,3.623,0,0,0-.75,2.16,2.8,2.8,0,0,0,.844,2.06q1.311,1.3,6.093,1.31a31.633,31.633,0,0,0,4.032-.19q1.311-.18.656-0.75a2,2,0,0,0-1.406-.56,13.939,13.939,0,0,1-4.5.47,10.757,10.757,0,0,1-4.219-.56,1.571,1.571,0,0,1-.938-1.5q0-1.785,2.157-3.66a68.894,68.894,0,0,1,6.843-4.97h0Zm4.5-1.78a0.493,0.493,0,0,0,.375.28c0.188,0,.282-0.15.282-0.47a1.77,1.77,0,0,0-.469-1.31,5.421,5.421,0,0,0-1.969-.84q-0.375,0-.094.18a5.088,5.088,0,0,1,1.875,2.16h0Zm1.688-1.5a0.491,0.491,0,0,0,.375.28c0.187,0,.281-0.15.281-0.47a1.77,1.77,0,0,0-.469-1.31,5.423,5.423,0,0,0-1.968-.84q-0.376,0-.094.18a5.1,5.1,0,0,1,1.875,2.16h0Zm-14.719,24.94a22.785,22.785,0,0,1,2.719-.19,9.038,9.038,0,0,1,3.469.56c0.375,0.19.405,0.35,0.093,0.47l-1.406.85c-0.25.18-.22,0.25,0.094,0.18a9.26,9.26,0,0,1,2.344-.65q0.374,0,1.406.09,0.749-.09.281-0.66a4.956,4.956,0,0,0-2.812-1.31,17.982,17.982,0,0,0-3.188-.19c-0.562,0-1.687.1-3.375,0.29-0.375.06-.25,0.25,0.375,0.56h0Zm-1.312,9.37q-0.095-.375-0.282,0a3.187,3.187,0,0,0,.563,1.97,5.03,5.03,0,0,0,2.156,1.5,22.911,22.911,0,0,0,7.688.94c1.125,0,1.687-.16,1.687-0.47,0-.37-0.5-0.69-1.5-0.94a9.14,9.14,0,0,1-2.156.19,24.023,24.023,0,0,1-4.219-.28,7.38,7.38,0,0,1-3-1.13,2.053,2.053,0,0,1-.937-1.78h0Zm7.968,12.05a1.449,1.449,0,0,0-1.218.37,28.7,28.7,0,0,1-4.594,1.13,1.369,1.369,0,0,1-1.5-.47c-0.251-.12-0.314-0.06-0.188.19q1.03,1.68,1.594,1.5a1.865,1.865,0,0,1,1.125-.56l4.406-1.22v0.28q-2.812,3.66-4.968,6.37a28.935,28.935,0,0,1-3,3.47c-0.375.19-.689,0.35-0.938,0.47a4.065,4.065,0,0,0,.281,1.31,0.329,0.329,0,0,0,.469,0,33.2,33.2,0,0,1,4.125-2.43,11.089,11.089,0,0,1,4.969-1.32,4.622,4.622,0,0,1,2.906.75,2.136,2.136,0,0,1,.844,1.78,3.4,3.4,0,0,1-1.688,2.72,20.474,20.474,0,0,1-6.187,2.44c-0.188.19-.157,0.28,0.094,0.28q5.343-.93,7.031-2.15a3.834,3.834,0,0,0,1.875-3.19,2.489,2.489,0,0,0-.938-2.06,4.939,4.939,0,0,0-3.562-1.04,12.7,12.7,0,0,0-3.563.47,28.95,28.95,0,0,0-4.687,1.78l7.969-9.18a2.323,2.323,0,0,1,.656-0.38c0.249-.06.281-0.19,0.094-0.37Z" transform="translate(-583.188 -1649.66)"/>
</svg>
