<svg id="miri_ttl" xmlns="http://www.w3.org/2000/svg" width="77.85" height="119.6" viewBox="0 0 77.85 119.6">
  <defs>
    <style>
      .cls-1 {
        fill: #100d0d;
        fill-rule: evenodd;
      }
    </style>
  </defs>
  <path id="明治神宮_国際神道文化_研究所" data-name="明治神宮 国際神道文化 研究所" class="cls-1" d="M1553.29,1849.05a3.461,3.461,0,0,1-.84.29q-2.535.555-4.59,0.84a4.573,4.573,0,0,0-1.5-.47c-0.32-.06-0.38,0-0.19.19a1.685,1.685,0,0,1,.84,1.12,34.241,34.241,0,0,1,.1,3.57,23.16,23.16,0,0,1-.85,6.84,15.387,15.387,0,0,1-3.09,5.34c-0.13.25-.06,0.31,0.19,0.19a16.674,16.674,0,0,0,2.72-3.09,13.925,13.925,0,0,0,1.78-4.6q1.875-.09,5.53-0.56,0.09,3.285.09,6.47c0,0.31-.19.41-0.56,0.28q-1.125-.285-2.34-0.66c-0.25-.12-0.32-0.06-0.19.19q1.215,0.75,2.34,1.41a1.763,1.763,0,0,1,.66.84c0.12,0.38.31,0.44,0.56,0.19a10.719,10.719,0,0,0,.84-1.5,6.8,6.8,0,0,1-.18-1.59q-0.285-6-.1-12.85a1.586,1.586,0,0,1,.28-0.94,0.3,0.3,0,0,0,0-.56,10.284,10.284,0,0,0-1.5-.94h0Zm0.1,5.35v3.47q-2.07.375-5.44,0.65a26.906,26.906,0,0,0,.19-3.28,26.407,26.407,0,0,1,5.25-.84h0Zm-0.47-4.31a0.378,0.378,0,0,1,.47.37v3.19a2.18,2.18,0,0,0-.66-0.1c-0.31.07-.84,0.19-1.59,0.38-0.94.19-1.94,0.34-3,.47v-3.56h0.56c1.44-.25,2.84-0.5,4.22-0.75h0Zm-9.84,5.34v3.37h-0.47c-1.07.25-2.16,0.51-3.28,0.75,0-1.18-.04-2.37-0.1-3.56a0.973,0.973,0,0,0,.85,0c0.75-.19,1.75-0.37,3-0.56h0Zm-0.1-5.06a4.36,4.36,0,0,1-.75.37c-1.06.25-2.15,0.47-3.28,0.66a5.388,5.388,0,0,0-1.03-.47c-0.25-.13-0.31-0.06-0.19.19a1.156,1.156,0,0,1,.38.65,4.74,4.74,0,0,1,.18,1.41q0.105,3.09,0,6.66,0,1.59.66,1.59c0.31-.06.44-0.47,0.38-1.22,1.18-.25,2.37-0.47,3.56-0.66a4.246,4.246,0,0,0,.56.38,0.406,0.406,0,0,0,.56-0.09,2.969,2.969,0,0,0,.1-1.32c-0.07-4.25.03-6.5,0.28-6.75a0.407,0.407,0,0,0-.1-0.65,4.546,4.546,0,0,0-1.31-.75h0Zm-0.37.93a0.384,0.384,0,0,1,.47.38v3c-1.25.25-2.54,0.5-3.85,0.75v-3.38a30.994,30.994,0,0,1,3.38-.75h0Zm-1.13,28.2a63.407,63.407,0,0,1-3.47,5.53,0.532,0.532,0,0,1-.84-0.09c-0.38-.32-0.5-0.25-0.38.18a4.168,4.168,0,0,0,.85,1.32,5.363,5.363,0,0,0,.65.56c0.44,0.37.69,0.28,0.75-.28a4.362,4.362,0,0,1,.38-1.41c0.81-1.81,1.56-3.69,2.25-5.62,0.06-.32,0-0.38-0.19-0.19h0Zm7.03-10.13c-0.43-.06-0.47.1-0.09,0.47a0.928,0.928,0,0,1,.28,1.13,45.679,45.679,0,0,1-3.37,5.72q-0.285.09-.66,0.18-0.375,0-.09,1.41,0.18,0.375.75,0a4.157,4.157,0,0,1,1.31-.56,39.4,39.4,0,0,1,7.59-1.5c0.19,0.37.38,0.75,0.56,1.12,0.5,0.63.88,0.56,1.13-.19a4.4,4.4,0,0,0-.84-1.87,19.674,19.674,0,0,0-2.63-2.06c-0.19-.13-0.25-0.1-0.19.09a16.424,16.424,0,0,1,1.6,2.25,61.115,61.115,0,0,0-7.78,1.22q2.055-2.625,3.93-5.34a3.224,3.224,0,0,1,.47-0.38q0.285-.18-0.09-0.66a5.878,5.878,0,0,0-1.88-1.03h0Zm4.69,11.91c0.38,0,.56.13,0.56,0.37l-0.47,3.66a39.543,39.543,0,0,0-6.37.38,14.8,14.8,0,0,0-.28-3.66,50.02,50.02,0,0,1,6.56-.75h0Zm0.94-1.03c-0.13.06-.31,0.16-0.56,0.28q-3.75.285-7.13,0.75c-0.44-.19-0.84-0.34-1.22-0.47-0.31-.12-0.4-0.03-0.28.28a3.974,3.974,0,0,1,.75,1.6,10.716,10.716,0,0,1,.19,3.37,2.06,2.06,0,0,0,.37.84,0.368,0.368,0,0,0,.66-0.09,0.724,0.724,0,0,0,.09-0.28,28.87,28.87,0,0,1,6.1-.47,0.378,0.378,0,0,0,.37.47,0.727,0.727,0,0,0,.85-0.66l0.75-3.47a0.861,0.861,0,0,1,.37-0.46q0.375-.285,0-0.75a4.288,4.288,0,0,0-1.31-.94h0Zm-14.72-10.6c-0.38-.12-0.47-0.03-0.28.29a13.764,13.764,0,0,0,1.78,2.06,2.105,2.105,0,0,0,1.12.65c0.25,0,.38-0.18.38-0.56a1.986,1.986,0,0,0-.56-1.22,4.886,4.886,0,0,1-2.44-1.22h0Zm-1.69,5.07c-0.37-.25-0.47-0.19-0.28.18a7.408,7.408,0,0,0,1.78,1.88,1.555,1.555,0,0,0,1.13.28q0.75-.555-0.57-1.59a4.579,4.579,0,0,1-2.06-.75h0Zm12.1,19.41v2.34l-2.35.38h-0.65c-0.13-1.32-.19-2.1-0.19-2.35Zm-1.04-4.97c-0.25.06-.25,0.15,0,0.28a5.4,5.4,0,0,1,.75.56,0.914,0.914,0,0,1,.19.66v2.81l-3.37.38a2.221,2.221,0,0,0-1.32-.47c-0.25,0-.31.09-0.18,0.28a1.1,1.1,0,0,1,.65.75c0.19,2.19.28,3.78,0.28,4.78a2.731,2.731,0,0,0,.85,2.25,0.7,0.7,0,0,0,.56-0.66l2.63-.28v6.94a1.01,1.01,0,0,0,.46.94c0.25,0,.41-0.35.47-1.03v-1.97c0-1.19.03-2.88,0.1-5.07q1.305-.09,2.43-0.09a1.328,1.328,0,0,0,.75.66,0.779,0.779,0,0,0,.57-0.47c0.06-.38.18-1.1,0.37-2.16,0.19-1.12.38-2.37,0.56-3.75a0.555,0.555,0,0,1,.19-0.37c0.31-.13.19-0.44-0.37-0.94a2.812,2.812,0,0,0-.75-0.56,0.56,0.56,0,0,0-.38.18l-3.28.47v-2.43a1.064,1.064,0,0,1,.09-0.47c0.25-.32.13-0.63-0.37-0.94a2.627,2.627,0,0,0-1.88-.28h0Zm5.07,4.5a0.324,0.324,0,0,1,.37.37l-0.09,2.16a1.828,1.828,0,0,0-1.03-.38,8.443,8.443,0,0,1-2.16.47v-2.34Zm-1.32,3.19h1.5c-0.06.75-.12,1.59-0.18,2.53a1.908,1.908,0,0,1-.66-0.1l-0.47.19-1.87.19,0.09-2.63Zm-2.71.37v2.63l-2.72.28-0.19-2.63h0.56Zm-6.94-3.56c-0.25-.06-0.38,0-0.38.19a4.587,4.587,0,0,1-1.22.46q-1.68.375-3.18,0.57a1.1,1.1,0,0,1-.94-0.38c-0.19-.12-0.28-0.09-0.28.1a1.124,1.124,0,0,0,.28.56,2.355,2.355,0,0,0,1.22.75c1-.38,2.19-0.78,3.56-1.22a0.255,0.255,0,0,1,.28.37,30.8,30.8,0,0,1-2.72,4.22,17.72,17.72,0,0,1-3.09,3.1c-0.13.18-.06,0.25,0.19,0.18a17.025,17.025,0,0,0,1.87-1.5c0.38-.31,1.13-1.03,2.25-2.15l0.19,0.19v2.71a18.735,18.735,0,0,1-.19,2.91c-0.06.38-.12,0.72-0.19,1.03a5.358,5.358,0,0,0,.66,1.97c0.25,0.25.44,0.19,0.56-.19a7.2,7.2,0,0,0,.1-1.31v-7.97c0.18-.12.12-0.28-0.19-0.47a28.594,28.594,0,0,0,1.97-2.72,0.793,0.793,0,0,0,.47-0.46c-0.25-.19-0.66-0.5-1.22-0.94h0Zm-2.81-4.41c-0.19-.12-0.25-0.06-0.19.19a6.551,6.551,0,0,0,2.62,2.72c0.57,0.19.78-.1,0.66-0.85a1.094,1.094,0,0,0-.66-0.75,9.816,9.816,0,0,1-2.43-1.31h0Zm2.62,8.63c-0.19-.07-0.25,0-0.19.18,0.75,1,1.38,1.85,1.88,2.54a0.6,0.6,0,0,0,.65.28c0.19-.07.25-0.28,0.19-0.66a2.834,2.834,0,0,0-.47-1.12,1.86,1.86,0,0,0-.75-0.57,4.322,4.322,0,0,1-1.31-.65h0Zm2.53,11.44c-0.25,0-.28.09-0.09,0.28a1.25,1.25,0,0,1,.75.94v1.59l-4.69.47h-1.41l-0.28-.94c-0.18-.19-0.28-0.15-0.28.09a7.459,7.459,0,0,1-.09,1.32,4.343,4.343,0,0,1-1.22,1.78,1.8,1.8,0,0,0,.37,1.5,0.647,0.647,0,0,0,.85-0.47,4.469,4.469,0,0,0,.75-2.53h1.03c1.87-.19,3.72-0.41,5.53-0.66q3-.285,6.66-0.28c0.5,0.06.59,0.25,0.28,0.56l-1.13,1.69c-0.12.25-.06,0.31,0.19,0.19l1.88-1.22a1.649,1.649,0,0,1,1.12-.19,0.255,0.255,0,0,0,.28-0.37,3.594,3.594,0,0,0-1.59-1.69h-0.38q-2.625.285-6.75,0.66V1911a0.556,0.556,0,0,1,.28-0.46q0.285-.195-0.18-0.66a3.348,3.348,0,0,0-1.88-.56h0Zm4.6,5.34a8,8,0,0,0-1.6.47c-1.5.19-2.5,0.31-3,.37s-1.15.13-1.97,0.19a5.794,5.794,0,0,0-1.12-.37c-0.25-.13-0.31-0.06-0.19.18a3.692,3.692,0,0,1,.66,1.13l0.28,2.53a1.471,1.471,0,0,0,.56.94c0.19,0.12.34,0.03,0.47-.28l1.03-.1a1.124,1.124,0,0,1,.28.85,13.2,13.2,0,0,1-.56,1.97l-2.53.18a2.8,2.8,0,0,0-1.41-.37c-0.25,0-.25.09,0,0.28a1.629,1.629,0,0,1,.75,1.03l0.66,4.03c0.25,0.5.5,0.63,0.75,0.38a1.227,1.227,0,0,0,.28-0.47c1.56-.25,2.69-0.41,3.37-0.47q0.945-.09,2.25-0.09a6.872,6.872,0,0,1,1.13.18,0.441,0.441,0,0,0,.47-0.09,1.357,1.357,0,0,0,.09-0.56l1.03-2.82a1.134,1.134,0,0,1,.47-0.37c0.25-.19.19-0.47-0.19-0.84a3.533,3.533,0,0,0-1.03-.75,8.488,8.488,0,0,0-1.5.18l-4.03.47a15.656,15.656,0,0,0,1.03-1.69c0.19-.18.35-0.34,0.47-0.46a0.234,0.234,0,0,0,0-.38,2.078,2.078,0,0,0-.56-0.37l2.06-.47a1.345,1.345,0,0,0,.75.37,0.384,0.384,0,0,0,.38-0.19,2.835,2.835,0,0,0,.18-0.56c0.38-.81.72-1.62,1.04-2.44a1.07,1.07,0,0,1,.37-0.37c0.19-.13.06-0.34-0.37-0.66a3.045,3.045,0,0,0-.75-0.56h0Zm0,7.97c0.37,0,.53.13,0.46,0.37l-0.65,3.29-0.75-.1q-3,.375-5.91.66l-0.56-3.38q2.625-.18,7.41-0.84h0Zm-0.75-7.03c0.25,0,.34.15,0.28,0.47a22.553,22.553,0,0,1-.66,2.34,1.387,1.387,0,0,1-.56-0.19,4.155,4.155,0,0,1-.66.28,19.918,19.918,0,0,1-3.56.57l-0.47-2.72,1.13-.1,3.75-.56Zm-25.63-66.08q-2.715.2-12.84,1.03a5.441,5.441,0,0,0-1.32-.37c-0.37-.13-0.4,0-0.09.37a1.907,1.907,0,0,1,.56,1.41v1.31l-0.37,9.85a5.449,5.449,0,0,1-.28,1.97,5.72,5.72,0,0,0,.47,1.59q0.465,0.66.75,0.09a2.082,2.082,0,0,0,.09-0.65q7.41-.285,12.28-0.47a1.908,1.908,0,0,1,1.31.84c0.44,0.56.78,0.53,1.03-.09a4.456,4.456,0,0,0,.29-1.6v-12.65a2.631,2.631,0,0,1,.18-1.22c0.25-.38.25-0.62,0-0.75a5.337,5.337,0,0,0-1.5-.94,1.221,1.221,0,0,0-.56.28h0Zm-2.53,3.1c-0.13.06-.31,0.15-0.56,0.28a44.448,44.448,0,0,1-5.91.75,2.081,2.081,0,0,1-1.5-.38c-0.31-.12-0.34-0.03-0.09.28a2.019,2.019,0,0,0,1.4.85,16.885,16.885,0,0,0,2.25-.19,1.679,1.679,0,0,1,.28,1.03l-0.09,1.97a14.225,14.225,0,0,1-2.25.19,3.989,3.989,0,0,1-1.22-.28c-0.25-.06-0.28.03-0.09,0.28a2,2,0,0,0,1.31.75,17.147,17.147,0,0,0,2.25-.19v3.94c-1.62.19-2.78,0.31-3.47,0.37a2.252,2.252,0,0,1-1.31-.28c-0.25-.12-0.31-0.06-0.19.19,0.69,0.94,1.35,1.25,1.97.94,1.06-.19,2.13-0.35,3.19-0.47a30.284,30.284,0,0,1,5.9,0q0.66-.285,0-0.75a3.051,3.051,0,0,0-1.31-.47,2.4,2.4,0,0,0-.56.19c-1.06.06-2.16,0.12-3.28,0.18q0-1.3.09-3.93a29.789,29.789,0,0,0,3.28-.47q0.945-.375-0.09-0.75c-0.25-.06-0.53-0.13-0.84-0.19a1.323,1.323,0,0,1-.38.28,15.7,15.7,0,0,1-1.97.38c0.13-1.19.22-2.03,0.28-2.53a1.109,1.109,0,0,0-.28-0.57c2.63-.25,4.1-0.4,4.41-0.47,0.25-.18.19-0.4-0.19-0.65a2.482,2.482,0,0,0-1.03-.28h0Zm2.62-2.25c0.38,0,.57.12,0.57,0.37,0.06,0.94.09,1.75,0.09,2.44v3.09q0,4.875-.09,8.91a1.387,1.387,0,0,0-.94-0.47q-5.625.375-10.69,0.66a12.383,12.383,0,0,1-2.06-.1c0.12-4,.25-7.46.37-10.4,0-1.5.04-2.75,0.1-3.75a4.1,4.1,0,0,0,.94.09q5.895-.66,11.71-0.84h0Zm-4.03,7.97q-0.375-.195-0.18.18a5.105,5.105,0,0,0,1.87,1.97c0.69,0.13.81-.25,0.38-1.12-0.44-.19-1.13-0.53-2.07-1.03h0Zm4.69,11.69c-0.25.13-.5,0.26-0.75,0.38a5.294,5.294,0,0,1-1.31.19,2.429,2.429,0,0,1-.94-0.19c-0.25-.06-0.31.03-0.19,0.28a3.053,3.053,0,0,0,1.32.84c0.12-.06.25-0.12,0.37-0.18a1.5,1.5,0,0,1,.94-0.1,10.821,10.821,0,0,1-1.78,2.82l-1.32-1.32a0.558,0.558,0,0,0-.46,0c-0.25.19-.25,0.32,0,0.38a0.515,0.515,0,0,1,.37.19,14.98,14.98,0,0,1,1.03,1.12,16.673,16.673,0,0,1-1.87,1.78c-0.13.13-.1,0.19,0.09,0.19,0.19-.12.5-0.31,0.94-0.56,0.31-.19.75-0.47,1.31-0.85l2.63,2.53a0.986,0.986,0,0,0,.75.29h2.34a0.123,0.123,0,0,0,0-.19,16.622,16.622,0,0,1-3-1.5c-0.5-.38-1.22-0.91-2.16-1.6a24.4,24.4,0,0,0,2.25-2.62,6.462,6.462,0,0,1,.57-0.66c0.18-.18.03-0.47-0.47-0.84a1.469,1.469,0,0,0-.66-0.38h0Zm-10.5.94c0.19-.19.06-0.4-0.37-0.65a2.246,2.246,0,0,0-.94-0.47,1.333,1.333,0,0,0-.56.37,11.185,11.185,0,0,1-2.25.47,12.175,12.175,0,0,0-1.22-.28c-0.25-.06-0.32.03-0.19,0.28a1.957,1.957,0,0,1,.66.84v9.66a26.728,26.728,0,0,1-.38,4.59,5.6,5.6,0,0,0,.38,1.13c0.18,0.37.34,0.53,0.46,0.47a1.544,1.544,0,0,0,.47-1.03,3.2,3.2,0,0,1-.09-0.75l0.19-14.25,2.06-.47c0.25-.06.34,0.03,0.28,0.28l-1.22,3.28c-0.19.06-.15,0.22,0.1,0.47,0.18,0.19.37,0.37,0.56,0.56a2.394,2.394,0,0,1,.65,1.78,2.229,2.229,0,0,1-.28,1.41,0.981,0.981,0,0,1-.75.28h-1.03a0.123,0.123,0,0,0,0,.19,2.011,2.011,0,0,1,1.13.94,0.369,0.369,0,0,0,.37.18,1.55,1.55,0,0,0,.85-0.56,2.653,2.653,0,0,0,.75-1.97,2.924,2.924,0,0,0-.85-2.15,8.438,8.438,0,0,0-1.03-.94l1.88-3.28c0.12-.13.25-0.25,0.37-0.38h0Zm9.56,8.91a3.81,3.81,0,0,1-.75.28l-6.65.94a2.749,2.749,0,0,1-1.69-.38c-0.25-.06-0.31.03-0.19,0.28a2.852,2.852,0,0,0,1.78.85,26.28,26.28,0,0,1,3-.57,0.739,0.739,0,0,1,.28.66v3.56a0.931,0.931,0,0,1-.18.66,0.9,0.9,0,0,1-.66.28l-1.41-.19a0.123,0.123,0,0,0,0,.19,5.927,5.927,0,0,1,2.07,1.22,0.713,0.713,0,0,0,.47.37,1.713,1.713,0,0,0,.65-1.21v-4.41c0.06-.19.13-0.41,0.19-0.66l-0.47-.56a30.838,30.838,0,0,1,4.22-.28c0.44-.06.66-0.22,0.66-0.47,0-.19-0.44-0.37-1.32-0.56h0Zm-8.06-10.22a0.9,0.9,0,0,1,.19.66,3.639,3.639,0,0,1-.38,1.4,26.19,26.19,0,0,1-1.68,3.19q-0.195.375,0.18,0.09l0.75-.75c0.69,0.69,1.32,1.29,1.88,1.78a37.313,37.313,0,0,1-2.81,3.94c-0.07.19,0,.25,0.18,0.19a23.633,23.633,0,0,0,5.82-8.72,3.779,3.779,0,0,1,.46-0.56c0.25-.19.29-0.38,0.1-0.56a1.971,1.971,0,0,0-1.13-.75c-0.18.12-.43,0.28-0.75,0.46a11.1,11.1,0,0,1-1.31.1,2.649,2.649,0,0,0-1.31-.75c-0.25-.06-0.31.03-0.19,0.28h0Zm0.38,2.72,1.68,1.5c-0.25.5-.5,0.97-0.75,1.4a9.065,9.065,0,0,1-.75-0.84,9.959,9.959,0,0,1-1.22-.47,14.5,14.5,0,0,0,1.04-1.59h0Zm2.53-1.88c0.31-.06.4,0.07,0.28,0.38a17.88,17.88,0,0,1-.85,2.25,1.157,1.157,0,0,0-.46-0.56c-0.5-.19-0.94-0.35-1.32-0.47a11.938,11.938,0,0,0,.75-1.32,15.449,15.449,0,0,0,1.6-.28h0Zm4.31,7.5a1.561,1.561,0,0,0-.84-0.37,2.19,2.19,0,0,0-.66.28,21.23,21.23,0,0,1-3.09.28,2.8,2.8,0,0,1-1.22-.19c-0.19-.18-0.28-0.15-0.28.1a2.853,2.853,0,0,0,1.59.93c1.06-.12,2.34-0.28,3.84-0.46a0.872,0.872,0,0,0,.66-0.57h0Zm-0.19,4.6c-0.19-.06-0.25,0-0.19.18,0.82,1.01,1.69,2.07,2.63,3.19,0.44,0.19.62,0.07,0.56-.37a4.443,4.443,0,0,0-.56-1.5c-0.44-.25-1.25-0.75-2.44-1.5h0Zm-6.84.18c-0.25-.06-0.31,0-0.19.19a1.084,1.084,0,0,1,.47.56,1.736,1.736,0,0,1-.56.75,12.143,12.143,0,0,1-2.82,1.88c-0.12.13-.06,0.19,0.19,0.19a10.075,10.075,0,0,0,4.13-2.16,1.156,1.156,0,0,1,.47-0.28c0.18-.06.06-0.25-0.38-0.56a6.2,6.2,0,0,0-1.31-.57h0Zm5.44,11.35v2.34l-2.35.38h-0.65c-0.13-1.32-.19-2.1-0.19-2.35Zm-1.04-4.97c-0.25.06-.25,0.15,0,0.28a5.4,5.4,0,0,1,.75.56,0.914,0.914,0,0,1,.19.66v2.81l-3.37.38a2.221,2.221,0,0,0-1.32-.47c-0.25,0-.31.09-0.18,0.28a1.1,1.1,0,0,1,.65.75c0.19,2.19.28,3.78,0.28,4.78a2.731,2.731,0,0,0,.85,2.25,0.7,0.7,0,0,0,.56-0.66l2.63-.28v6.94a1.01,1.01,0,0,0,.46.94c0.25,0,.41-0.35.47-1.03v-1.97c0-1.19.03-2.88,0.1-5.07q1.305-.09,2.43-0.09a1.328,1.328,0,0,0,.75.66,0.779,0.779,0,0,0,.57-0.47c0.06-.38.18-1.1,0.37-2.16,0.19-1.12.38-2.37,0.56-3.75a0.555,0.555,0,0,1,.19-0.37c0.31-.13.19-0.44-0.37-0.94a2.812,2.812,0,0,0-.75-0.56,0.56,0.56,0,0,0-.38.18l-3.28.47v-2.43a1.064,1.064,0,0,1,.09-0.47c0.25-.32.13-0.63-0.37-0.94a2.627,2.627,0,0,0-1.88-.28h0Zm5.07,4.5a0.324,0.324,0,0,1,.37.37l-0.09,2.16a1.828,1.828,0,0,0-1.03-.38,8.443,8.443,0,0,1-2.16.47v-2.34Zm-1.32,3.19h1.5c-0.06.75-.12,1.59-0.18,2.53a1.908,1.908,0,0,1-.66-0.1l-0.47.19-1.87.19,0.09-2.63Zm-2.71.37v2.63l-2.72.28-0.19-2.63h0.56Zm-6.94-3.56c-0.25-.06-0.38,0-0.38.19a4.587,4.587,0,0,1-1.22.46q-1.68.375-3.18,0.57a1.1,1.1,0,0,1-.94-0.38c-0.19-.12-0.28-0.09-0.28.1a1.124,1.124,0,0,0,.28.56,2.355,2.355,0,0,0,1.22.75c1-.38,2.19-0.78,3.56-1.22a0.255,0.255,0,0,1,.28.37,30.8,30.8,0,0,1-2.72,4.22,17.72,17.72,0,0,1-3.09,3.1c-0.13.18-.06,0.25,0.19,0.18a17.025,17.025,0,0,0,1.87-1.5c0.38-.31,1.13-1.03,2.25-2.15l0.19,0.19v2.71a18.735,18.735,0,0,1-.19,2.91c-0.06.38-.12,0.72-0.19,1.03a5.358,5.358,0,0,0,.66,1.97c0.25,0.25.44,0.19,0.56-.19a7.2,7.2,0,0,0,.1-1.31v-7.97c0.18-.12.12-0.28-0.19-0.47a28.594,28.594,0,0,0,1.97-2.72,0.793,0.793,0,0,0,.47-0.46c-0.25-.19-0.66-0.5-1.22-0.94h0Zm-2.81-4.41c-0.19-.12-0.25-0.06-0.19.19a6.551,6.551,0,0,0,2.62,2.72c0.57,0.19.78-.1,0.66-0.85a1.094,1.094,0,0,0-.66-0.75,9.816,9.816,0,0,1-2.43-1.31h0Zm2.62,8.63c-0.19-.07-0.25,0-0.19.18,0.75,1,1.38,1.85,1.88,2.54a0.6,0.6,0,0,0,.65.28c0.19-.07.25-0.28,0.19-0.66a2.834,2.834,0,0,0-.47-1.12,1.86,1.86,0,0,0-.75-0.57,4.322,4.322,0,0,1-1.31-.65h0Zm9,21.19v1.87a2.195,2.195,0,0,0-.66-0.09c-1.56.25-2.84,0.44-3.84,0.56a4.461,4.461,0,0,1-.84-0.09v-1.69c1.81-.19,3.59-0.38,5.34-0.56h0Zm-1.59-9.66c-0.5,0-.5.13,0,0.38a0.83,0.83,0,0,1,.47.84,6.361,6.361,0,0,1-1.6,2.81,29.9,29.9,0,0,1-4.12.66,2.858,2.858,0,0,1-1.03-.1,4.174,4.174,0,0,1-.75-0.56c-0.25-.31-0.32-0.25-0.19.19a2.174,2.174,0,0,0,1.87,1.41,4.711,4.711,0,0,0,.85-0.19,10.541,10.541,0,0,1,1.78-.38,1.229,1.229,0,0,1,.28.75,4.443,4.443,0,0,1-.28,1.32l-1.13.18a3.8,3.8,0,0,0-1.4-.47c-0.44,0-.53.1-0.28,0.29a1.862,1.862,0,0,1,.75.93,6.883,6.883,0,0,1,.18,1.88c0,1.25-.03,2.47-0.09,3.65a3.7,3.7,0,0,0-.09.85,2.609,2.609,0,0,0,.37,1.31c0.13,0.25.28,0.25,0.47,0l0.19-.37c1.93-.13,3.72-0.25,5.34-0.38a2.952,2.952,0,0,0,.19.75c0.25,0.38.44,0.38,0.56,0a2.253,2.253,0,0,0,.19-1.03l0.09-6.19a1.791,1.791,0,0,1,.19-0.84c0.25-.19.19-0.44-0.19-0.75a8.025,8.025,0,0,0-.94-0.66,3.074,3.074,0,0,1-.84.28c-0.81.13-1.75,0.28-2.81,0.47a4.555,4.555,0,0,1,.56-1.22c0.44-.25.5-0.47,0.19-0.65a1.137,1.137,0,0,0-.56-0.28,24.413,24.413,0,0,1,4.96-.38,7.173,7.173,0,0,1,1.13.09c0.44-.18.5-0.43,0.19-0.75a3.994,3.994,0,0,0-1.5-.46,7.272,7.272,0,0,1-1.22.28,15.875,15.875,0,0,1-2.25.28c0.62-.63,1.25-1.28,1.87-1.97a5.142,5.142,0,0,1,.75-0.47c0.32-.19.25-0.44-0.18-0.75a3.724,3.724,0,0,0-1.97-.75h0Zm-9.19,7.69a0.532,0.532,0,0,0-.84.09c-0.44.25-1.07,0.56-1.88,0.94a1.833,1.833,0,0,1-1.59-.19c-0.32-.25-0.41-0.15-0.28.28,0.5,0.82.9,1.19,1.21,1.13a1.156,1.156,0,0,0,.47-0.28c0.57-.32,1.13-0.6,1.69-0.85,0.25-.12.31-0.06,0.19,0.19l-0.75,1.69a0.5,0.5,0,0,0,.09.75,4.829,4.829,0,0,1,.75.94,0.442,0.442,0,0,1-.19.65,28.472,28.472,0,0,1-2.53,1.69,1.053,1.053,0,0,0-.93.66c0,0.75.15,1.03,0.46,0.84,0.44-.06.94-0.13,1.5-0.19a11.476,11.476,0,0,1,3.1.28q1.5,0.285,7.78,2.25c2,0.57,3.16.88,3.47,0.94a0.731,0.731,0,0,0,.56-0.19l3.66-1.31c0.37-.19.37-0.28,0-0.28q-1.035.09-2.07,0.09a39.744,39.744,0,0,1-9.09-1.22,53,53,0,0,0-7.41-1.4,1.189,1.189,0,0,0-.65,0c1.31-.75,2.4-1.35,3.28-1.78,0.81-.25,1.16-0.5,1.03-0.75a1.417,1.417,0,0,0-.47-0.57,17.485,17.485,0,0,0-1.69-.93,0.333,0.333,0,0,1-.18-0.47l1.12-1.41a2.016,2.016,0,0,1,.75-0.37c0.31-.13.13-0.53-0.56-1.22h0Zm10.78,6.65a0.827,0.827,0,0,0-.66-0.09,41.663,41.663,0,0,1-4.68.47v-2.06a1.377,1.377,0,0,0,1.03,0c1.81-.25,3.25-0.41,4.31-0.47v2.15Zm-0.37-7.12a0.328,0.328,0,0,1,.37.37v1.41a2.379,2.379,0,0,0-1.12-.09,31.337,31.337,0,0,1-4.22.56v-1.5c2.87-.5,4.53-0.75,4.97-0.75h0Zm-6.85-6.38c-0.44-.12-0.5-0.06-0.19.19a6.736,6.736,0,0,1,1.69,1.5,10.092,10.092,0,0,0,.66.94c0.31,0.37.56,0.31,0.75-.19a1.536,1.536,0,0,0-.66-1.5,7.687,7.687,0,0,0-2.25-.94h0Zm-6.09.75c-0.5,0-.53.13-0.1,0.38a3.493,3.493,0,0,1,1.6,1.22,2.283,2.283,0,0,0,1.31,1.03c0.31,0,.47-0.22.47-0.66a2.915,2.915,0,0,0-1.31-1.68c-0.69-.13-1.35-0.22-1.97-0.29h0Zm9.19,23.59a3.007,3.007,0,0,1,.93,1.5,3.57,3.57,0,0,1-.28,1.22,24.183,24.183,0,0,1-1.59,3c-0.56-.56-1.41-1.34-2.53-2.34-1.07-.88-1.97-1.6-2.72-2.16a49.06,49.06,0,0,1,6.19-1.22h0Zm-3.1-4.59c-0.31,0-.34.09-0.09,0.28a1.466,1.466,0,0,1,1.12,1.5l0.1,2.34-6.28,1.03a2.356,2.356,0,0,1-1.5-.75c-0.25-.12-0.32-0.06-0.19.19a8.277,8.277,0,0,0,.84,1.13,2.318,2.318,0,0,0,1.13.84,3.809,3.809,0,0,1,.47-0.28,1.868,1.868,0,0,1,.75-0.28,28.752,28.752,0,0,1,3,2.53c0.62,0.62,1.4,1.44,2.34,2.44a19.947,19.947,0,0,1-9.19,6.65c-0.19.25-.09,0.35,0.28,0.28a19.824,19.824,0,0,0,4.97-1.96,17.157,17.157,0,0,0,4.69-4.04c1.06,1.19,1.87,2.1,2.44,2.72s1.5,1.82,2.81,3.57a1.546,1.546,0,0,0,.94.56h3.47c0.31,0,.37-0.1.18-0.28a12.989,12.989,0,0,1-4.5-2.63,35.375,35.375,0,0,1-4.78-4.69,21.812,21.812,0,0,0,2.35-4.5,0.513,0.513,0,0,1,.37-0.28,0.346,0.346,0,0,0,0-.56,6.53,6.53,0,0,0-2.06-1.31c0.75-.13,1.5-0.22,2.25-0.28a17.9,17.9,0,0,1,3.75,0c0.56-.06.69-0.28,0.37-0.66a3.892,3.892,0,0,0-1.87-.75,1.177,1.177,0,0,0-.56.28q-2.445.48-5.35,0.85v-1.6a0.871,0.871,0,0,1,.19-0.65,0.438,0.438,0,0,0-.09-0.57,4.337,4.337,0,0,0-2.35-1.12h0Zm1.6,20.77c-0.25,0-.29.1-0.1,0.28a1.531,1.531,0,0,1,.85,1.13v12.47a3.7,3.7,0,0,0,.56,2.25c0.62,0.81,2.09,1.22,4.4,1.22a20.756,20.756,0,0,0,3.47-.28c1.07-.19,1.25-0.63.57-1.32-0.19-.18-0.29-1.25-0.29-3.18a0.1,0.1,0,0,0-.18,0l-0.66,2.62a1.387,1.387,0,0,1-1.31,1.03,21.534,21.534,0,0,1-3.1.19,2.816,2.816,0,0,1-2.06-.66,2.7,2.7,0,0,1-.47-1.87v-6a44.819,44.819,0,0,0,5.63-3.19c0.75-.12,1-0.31.75-0.56a9.772,9.772,0,0,0-1.41-1.22,1.493,1.493,0,0,0-.84-0.19c-0.25,0-.28.1-0.1,0.28a1.041,1.041,0,0,1,.38.66,4.587,4.587,0,0,1-1.31,1.5,18.612,18.612,0,0,1-3.1,2.16l0.28-4.97a2.486,2.486,0,0,1,.19-0.85,0.44,0.44,0,0,0,0-.65,2.4,2.4,0,0,0-.94-0.57,8.266,8.266,0,0,0-1.21-.28h0Zm-4.69.47c-0.13,0-.19.03-0.19,0.1a3.693,3.693,0,0,1,.56,1.31,14.225,14.225,0,0,1-1.4,3.19,47.682,47.682,0,0,1-3.47,4.96c-0.13.25-.06,0.32,0.19,0.19a22.787,22.787,0,0,0,3.18-3.56l0.38,0.66q-0.285,4.59-.47,6.18a13.12,13.12,0,0,0-.28,2.07,5.543,5.543,0,0,0,.47,2.06c0.18,0.31.37,0.31,0.56,0a4.377,4.377,0,0,0,.19-1.6c0.06-.99.18-3.78,0.37-8.34l0.19-.75a3.771,3.771,0,0,0-.84-0.94,32.2,32.2,0,0,0,2.15-3.47,0.464,0.464,0,0,0,.28-0.65,2.831,2.831,0,0,0-1.87-1.41h0Zm-15.69-101.06a3.967,3.967,0,0,0-1.41-.28,3.11,3.11,0,0,1-.93.47c-0.75.12-2.28,0.28-4.6,0.47a2.7,2.7,0,0,1-1.97-.47c-0.18-.13-0.25-0.06-0.18.18a3.175,3.175,0,0,0,1.59,1.13,2.093,2.093,0,0,1,.66,1.69v2.81a8.906,8.906,0,0,1-1.69.28,1.539,1.539,0,0,1-1.13-.37q-0.375-.195-0.18.18a3.335,3.335,0,0,0,.84.75,1.635,1.635,0,0,0,.84.28c0.25-.06.69-0.18,1.32-0.37a15.615,15.615,0,0,1-1.03,5.06,19.593,19.593,0,0,1-2.44,4.31c-0.13.25-.06,0.32,0.19,0.19a17.494,17.494,0,0,0,2.71-3.65,15.791,15.791,0,0,0,1.5-6.1,29.394,29.394,0,0,1,3.19-.28c-0.12,4.75-.22,7.56-0.28,8.44a5.524,5.524,0,0,0,.19,1.4q0.285,0.75.75-.09a5.676,5.676,0,0,0,.28-1.97v-7.78a13.253,13.253,0,0,1,2.81.09,0.6,0.6,0,0,0,.66-0.56c0-.31-0.66-0.53-1.97-0.65a4.051,4.051,0,0,1-1.5.18l0.09-2.62a0.955,0.955,0,0,0-.09-0.94,7.552,7.552,0,0,0-.94-0.75c0.69-.06,1.5-0.15,2.44-0.28,0.69-.19.78-0.44,0.28-0.75h0Zm-3.37,1.12a2.1,2.1,0,0,1,.65,1.5v2.82c-1.12.12-2.15,0.25-3.09,0.37v-3a0.687,0.687,0,0,0-.1-0.65,4.82,4.82,0,0,0-1.03-.75c1.25-.07,2.44-0.16,3.57-0.29h0Zm-8.07-.18a12.312,12.312,0,0,1-4.03.93,3.33,3.33,0,0,1-1.69-.56c-0.25-.12-0.31-0.06-0.18.19a2.906,2.906,0,0,0,1.78,1.12,0.643,0.643,0,0,1,.28.57,11.968,11.968,0,0,1-1.03,3.93,32.388,32.388,0,0,1-2.25,4.41c-0.13.25-.06,0.31,0.19,0.19a14.469,14.469,0,0,0,2.62-3.94,0.737,0.737,0,0,1,.38.84v2.25a4.6,4.6,0,0,1-.1,1.04c0.06,0.31.13,0.62,0.19,0.93q0.465,1.125.84-.09a3.114,3.114,0,0,1,.57-0.19,6.82,6.82,0,0,1,2.06-.28,1.821,1.821,0,0,0,.56.09,0.9,0.9,0,0,0,.47-0.84l0.56-3.56,0.19-.38c0.12-.18.06-0.34-0.19-0.47a3.772,3.772,0,0,0-1.22-.46,1.563,1.563,0,0,0-.65.18,6.159,6.159,0,0,1-2.63.66,2.123,2.123,0,0,0-.75-0.28,25.46,25.46,0,0,0,1.03-2.72,2.665,2.665,0,0,1,.28-0.56,0.452,0.452,0,0,0,0-.66,3.523,3.523,0,0,0-.65-0.66,39.081,39.081,0,0,0,4.4-.75c0.44-.12.47-0.31,0.1-0.56a2.358,2.358,0,0,0-1.13-.37h0Zm-3.09,7.12,2.62-.56c0.32,0,.47.06,0.47,0.19,0,0.5-.12,1.78-0.37,3.84a1.692,1.692,0,0,0-.94.09,5.979,5.979,0,0,1-1.69.38Zm4.22,17.78h-0.66c-0.12.12-.09,0.22,0.1,0.28l0.28,0.28a1.545,1.545,0,0,1,.09,1.03c-0.06.44-.12,0.94-0.19,1.5a21.77,21.77,0,0,1-3.18.75,2.13,2.13,0,0,1-1.13-.28c-0.25-.13-0.28-0.03-0.09.28a5.4,5.4,0,0,0,1.31,1.03,1.666,1.666,0,0,0,1.03-.28l1.88-.66a11.14,11.14,0,0,1-2.72,5.35,14.284,14.284,0,0,1-3.47,2.44q-0.2.18,0.09,0.18a14.025,14.025,0,0,0,4.41-2.81,13.073,13.073,0,0,0,2.81-5.62l2.91-.94c0.25-.06.37,0.06,0.37,0.37-0.25,1.88-.4,3.53-0.47,4.97a3.255,3.255,0,0,0,.47,2.35c0.5,0.5,1.85.75,4.03,0.75h1.6a2.137,2.137,0,0,0,1.59-.38,0.441,0.441,0,0,0,0-.56,1.072,1.072,0,0,1-.37-0.75v-2.91c-0.07-.12-0.13-0.12-0.19,0a7.293,7.293,0,0,1-1.03,3.19,4.081,4.081,0,0,1-2.63.56,3.637,3.637,0,0,1-2.34-.47,2.173,2.173,0,0,1-.28-1.4q0-.285.09-2.25c0.13-1.5.47-2.47,1.03-2.91,0-.44-0.44-0.9-1.31-1.41a1.908,1.908,0,0,0-.75.38l-2.53.66a3.609,3.609,0,0,1,.37-1.41q0.285-.285-0.09-0.66a3.092,3.092,0,0,0-1.03-.65h0Zm-0.47-1.97a1.471,1.471,0,0,0-.56-0.94c-0.25-.12-0.5-0.25-0.75-0.37s-0.32-.07-0.19.18a0.9,0.9,0,0,1,.28.66,4.481,4.481,0,0,1-1.03,1.69,17.461,17.461,0,0,1-2.44,2.34c-0.06.13-.03,0.16,0.1,0.09a10.564,10.564,0,0,0,3.93-3,1.848,1.848,0,0,1,.38-0.28,0.355,0.355,0,0,0,.28-0.37h0Zm3-1.78c-0.25-.06-0.34.03-0.28,0.28a0.861,0.861,0,0,1,.65.94v1.03a1.971,1.971,0,0,0,.38,1.4,3.608,3.608,0,0,0,2.53.66,11.023,11.023,0,0,0,2.53-.28c0.5-.13.63-0.34,0.38-0.66a1.907,1.907,0,0,0-1.03-.37,0.9,0.9,0,0,0-.47.18,3.293,3.293,0,0,1-1.78.38,2.229,2.229,0,0,1-1.41-.28,1.172,1.172,0,0,1-.38-0.85,9.188,9.188,0,0,1,.19-1.21c0.25-.25.31-0.44,0.19-0.57a2.1,2.1,0,0,0-1.5-.65h0Zm-2.25-3.75a0.256,0.256,0,0,0-.19.18,1.555,1.555,0,0,1,.75.66,11.66,11.66,0,0,1,.1,1.97q-2.82.285-6,.66a6.986,6.986,0,0,0-.38-0.94c-0.12-.13-0.22-0.13-0.28,0a3.17,3.17,0,0,1,0,1.5,3.633,3.633,0,0,1-.84,1.5,1.646,1.646,0,0,0,.18,1.4,0.744,0.744,0,0,0,.75-0.37,4.838,4.838,0,0,0,.57-2.53q4.59-.57,7.31-0.85c1.62-.12,3.31-0.18,5.06-0.18h1.13c0.43,0.06.46,0.25,0.09,0.56a13.506,13.506,0,0,1-1.5,1.31c-0.31.32-.28,0.38,0.09,0.19a12.158,12.158,0,0,1,2.07-.84,4.481,4.481,0,0,1,1.12-.1,0.255,0.255,0,0,0,.28-0.37,1.808,1.808,0,0,0-.47-0.66c-0.31-.31-0.62-0.62-0.93-0.94h-0.29a18.19,18.19,0,0,1-3.09.28l-3.94.29,0.1-1.32a0.962,0.962,0,0,1,.18-0.47c0.25-.18.1-0.4-0.46-0.65a2.48,2.48,0,0,0-1.41-.28h0Zm-0.94,25.93a4.548,4.548,0,0,1-1.31.47,19.3,19.3,0,0,1-3.09.47,3.528,3.528,0,0,0-1.41-.47c-0.25,0-.28.09-0.09,0.28a3.521,3.521,0,0,1,.75.84,12.569,12.569,0,0,1,.09,1.78c0,0.75-.09,2-0.28,3.75a17.425,17.425,0,0,1-1.6,5.07c-0.12.25-.06,0.31,0.19,0.18a13.473,13.473,0,0,0,1.6-3.09c0.25-.81.56-2.12,0.93-3.94,1.13-.12,2.32-0.28,3.57-0.47a2.2,2.2,0,0,0,.56.1c0.25,0,.4-0.25.47-0.75a10.873,10.873,0,0,1,.75-2.91c0.31-.19.28-0.41-0.1-0.66a2.532,2.532,0,0,0-1.03-.65h0Zm7.88-5.25c-0.75-.19-1-0.1-0.75.28a0.572,0.572,0,0,1,.28.47,8.481,8.481,0,0,1-.75.84,18.247,18.247,0,0,1-2.53,1.69c-0.63.31-1.25,0.62-1.88,0.94-0.12.06-.12,0.15,0,0.28a1.68,1.68,0,0,1,.85.65,4.051,4.051,0,0,1,.18,1.5,17.537,17.537,0,0,1-.56,5.07,15.567,15.567,0,0,1-2.62,4.59c-0.13.25-.07,0.31,0.18,0.19a13.6,13.6,0,0,0,3-4.13,18.978,18.978,0,0,0,1.13-5.25,5.228,5.228,0,0,0,1.12.1,13.17,13.17,0,0,0,1.5-.28,1.774,1.774,0,0,1,.57,1.31v9.56a3.241,3.241,0,0,0,.18.94c0.25,0.37.5,0.25,0.75-.38,0.07-.93.1-1.9,0.1-2.9v-6.85a0.626,0.626,0,0,1,.28-0.56,0.35,0.35,0,0,0,0-.47c-0.25-.19-0.6-0.47-1.03-0.84,1.56-.25,2.72-0.41,3.47-0.47,0.43-.06.81-0.13,1.12-0.19,0.31-.25.34-0.43,0.09-0.56a11.4,11.4,0,0,0-1.31-.47c-0.31.13-.59,0.25-0.84,0.38-1.5.37-2.56,0.62-3.19,0.75a12.252,12.252,0,0,1-2.81.28,4.432,4.432,0,0,0-.1-1.32,0.582,0.582,0,0,0-.46-0.37c-0.32-.13-0.66-0.25-1.04-0.38q5.16-2.34,6.1-2.9c0.5-.13.53-0.41,0.09-0.85a3.422,3.422,0,0,0-1.12-.65h0Zm-8.44,6.28a0.328,0.328,0,0,1,.37.37c-0.06.88-.15,1.72-0.28,2.54q-1.3.27-3.75,0.75c0.07-.75.1-1.54,0.1-2.35a2.229,2.229,0,0,0-.1-0.75c0.94-.12,2.16-0.31,3.66-0.56h0Zm2.06-4.41a7.051,7.051,0,0,0-1.22-.28,3.326,3.326,0,0,1-.65.47,8.619,8.619,0,0,1-1.41.38c-0.81.12-1.81,0.28-3,.46a2.277,2.277,0,0,1-1.31-.28c-0.25-.12-0.31-0.06-0.19.19a1.54,1.54,0,0,0,.66.75,2.126,2.126,0,0,0,.93.28c0.38-.12.85-0.25,1.41-0.37,0.94-.19,1.84-0.38,2.72-0.57a10.62,10.62,0,0,1,2.16-.18c0.62-.19.59-0.47-0.1-0.85h0Z" transform="translate(-1478.06 -1849.06)"/>
</svg>
