<svg id="museum_ttl" xmlns="http://www.w3.org/2000/svg" width="46.66" height="126.63" viewBox="0 0 46.66 126.63">
  <defs>
    <style>
      .cls-1 {
        fill: #100d0d;
        fill-rule: evenodd;
      }
    </style>
  </defs>
  <path id="明治神宮_ミュージアム" data-name="明治神宮 ミュージアム" class="cls-1" d="M1522.29,1638.05a3.461,3.461,0,0,1-.84.29q-2.535.555-4.59,0.84a4.573,4.573,0,0,0-1.5-.47c-0.32-.06-0.38,0-0.19.19a1.685,1.685,0,0,1,.84,1.12,34.241,34.241,0,0,1,.1,3.57,23.16,23.16,0,0,1-.85,6.84,15.387,15.387,0,0,1-3.09,5.34c-0.13.25-.06,0.31,0.19,0.19a16.674,16.674,0,0,0,2.72-3.09,13.925,13.925,0,0,0,1.78-4.6q1.875-.09,5.53-0.56,0.09,3.285.09,6.47c0,0.31-.19.41-0.56,0.28q-1.125-.285-2.34-0.66c-0.25-.12-0.32-0.06-0.19.19q1.215,0.75,2.34,1.41a1.763,1.763,0,0,1,.66.84c0.12,0.38.31,0.44,0.56,0.19a10.719,10.719,0,0,0,.84-1.5,6.8,6.8,0,0,1-.18-1.59q-0.285-6-.1-12.85a1.586,1.586,0,0,1,.28-0.94,0.3,0.3,0,0,0,0-.56,10.284,10.284,0,0,0-1.5-.94h0Zm0.1,5.35v3.47q-2.07.375-5.44,0.65a26.906,26.906,0,0,0,.19-3.28,26.407,26.407,0,0,1,5.25-.84h0Zm-0.47-4.31a0.378,0.378,0,0,1,.47.37v3.19a2.18,2.18,0,0,0-.66-0.1c-0.31.07-.84,0.19-1.59,0.38-0.94.19-1.94,0.34-3,.47v-3.56h0.56c1.44-.25,2.84-0.5,4.22-0.75h0Zm-9.84,5.34v3.37h-0.47c-1.07.25-2.16,0.51-3.28,0.75,0-1.18-.04-2.37-0.1-3.56a0.973,0.973,0,0,0,.85,0c0.75-.19,1.75-0.37,3-0.56h0Zm-0.1-5.06a4.36,4.36,0,0,1-.75.37c-1.06.25-2.15,0.47-3.28,0.66a5.388,5.388,0,0,0-1.03-.47c-0.25-.13-0.31-0.06-0.19.19a1.156,1.156,0,0,1,.38.65,4.74,4.74,0,0,1,.18,1.41q0.105,3.09,0,6.66,0,1.59.66,1.59c0.31-.06.44-0.47,0.38-1.22,1.18-.25,2.37-0.47,3.56-0.66a4.246,4.246,0,0,0,.56.38,0.406,0.406,0,0,0,.56-0.09,2.969,2.969,0,0,0,.1-1.32c-0.07-4.25.03-6.5,0.28-6.75a0.407,0.407,0,0,0-.1-0.65,4.546,4.546,0,0,0-1.31-.75h0Zm-0.37.93a0.384,0.384,0,0,1,.47.38v3c-1.25.25-2.54,0.5-3.85,0.75v-3.38a30.994,30.994,0,0,1,3.38-.75h0Zm-1.13,30a63.407,63.407,0,0,1-3.47,5.53,0.532,0.532,0,0,1-.84-0.09c-0.38-.32-0.5-0.25-0.38.18a4.168,4.168,0,0,0,.85,1.32,5.363,5.363,0,0,0,.65.56c0.44,0.37.69,0.28,0.75-.28a4.362,4.362,0,0,1,.38-1.41c0.81-1.81,1.56-3.69,2.25-5.62,0.06-.32,0-0.38-0.19-0.19h0Zm7.03-10.13c-0.43-.06-0.47.1-0.09,0.47a0.928,0.928,0,0,1,.28,1.13,45.679,45.679,0,0,1-3.37,5.72q-0.285.09-.66,0.18-0.375,0-.09,1.41,0.18,0.375.75,0a4.157,4.157,0,0,1,1.31-.56,39.4,39.4,0,0,1,7.59-1.5c0.19,0.37.38,0.75,0.56,1.12,0.5,0.63.88,0.56,1.13-.19a4.4,4.4,0,0,0-.84-1.87,19.674,19.674,0,0,0-2.63-2.06c-0.19-.13-0.25-0.1-0.19.09a16.424,16.424,0,0,1,1.6,2.25,61.115,61.115,0,0,0-7.78,1.22q2.055-2.625,3.93-5.34a3.224,3.224,0,0,1,.47-0.38q0.285-.18-0.09-0.66a5.878,5.878,0,0,0-1.88-1.03h0Zm4.69,11.91c0.38,0,.56.13,0.56,0.37l-0.47,3.66a39.543,39.543,0,0,0-6.37.38,14.8,14.8,0,0,0-.28-3.66,50.02,50.02,0,0,1,6.56-.75h0Zm0.94-1.03c-0.13.06-.31,0.16-0.56,0.28q-3.75.285-7.13,0.75c-0.44-.19-0.84-0.34-1.22-0.47-0.31-.12-0.4-0.03-0.28.28a3.974,3.974,0,0,1,.75,1.6,10.716,10.716,0,0,1,.19,3.37,2.06,2.06,0,0,0,.37.84,0.368,0.368,0,0,0,.66-0.09,0.724,0.724,0,0,0,.09-0.28,28.87,28.87,0,0,1,6.1-.47,0.378,0.378,0,0,0,.37.47,0.727,0.727,0,0,0,.85-0.66l0.75-3.47a0.861,0.861,0,0,1,.37-0.46q0.375-.285,0-0.75a4.288,4.288,0,0,0-1.31-.94h0Zm-14.72-10.6c-0.38-.12-0.47-0.03-0.28.29a13.764,13.764,0,0,0,1.78,2.06,2.105,2.105,0,0,0,1.12.65c0.25,0,.38-0.18.38-0.56a1.986,1.986,0,0,0-.56-1.22,4.886,4.886,0,0,1-2.44-1.22h0Zm-1.69,5.07c-0.37-.25-0.47-0.19-0.28.18a7.408,7.408,0,0,0,1.78,1.88,1.555,1.555,0,0,0,1.13.28q0.75-.555-0.57-1.59a4.579,4.579,0,0,1-2.06-.75h0Zm12.1,21.21v2.34l-2.35.38h-0.65c-0.13-1.32-.19-2.1-0.19-2.35Zm-1.04-4.97c-0.25.06-.25,0.15,0,0.28a5.4,5.4,0,0,1,.75.56,0.914,0.914,0,0,1,.19.66v2.81l-3.37.38a2.221,2.221,0,0,0-1.32-.47c-0.25,0-.31.09-0.18,0.28a1.1,1.1,0,0,1,.65.75c0.19,2.19.28,3.78,0.28,4.78a2.731,2.731,0,0,0,.85,2.25,0.7,0.7,0,0,0,.56-0.66l2.63-.28v6.94a1.01,1.01,0,0,0,.46.94c0.25,0,.41-0.35.47-1.03v-1.97c0-1.19.03-2.88,0.1-5.07q1.305-.09,2.43-0.09a1.328,1.328,0,0,0,.75.66,0.779,0.779,0,0,0,.57-0.47c0.06-.38.18-1.1,0.37-2.16,0.19-1.12.38-2.37,0.56-3.75a0.555,0.555,0,0,1,.19-0.37c0.31-.13.19-0.44-0.37-0.94a2.812,2.812,0,0,0-.75-0.56,0.56,0.56,0,0,0-.38.18l-3.28.47v-2.43a1.064,1.064,0,0,1,.09-0.47c0.25-.32.13-0.63-0.37-0.94a2.627,2.627,0,0,0-1.88-.28h0Zm5.07,4.5a0.324,0.324,0,0,1,.37.37l-0.09,2.16a1.828,1.828,0,0,0-1.03-.38,8.443,8.443,0,0,1-2.16.47v-2.34Zm-1.32,3.19h1.5c-0.06.75-.12,1.59-0.18,2.53a1.908,1.908,0,0,1-.66-0.1l-0.47.19-1.87.19,0.09-2.63Zm-2.71.37v2.63l-2.72.28-0.19-2.63h0.56Zm-6.94-3.56c-0.25-.06-0.38,0-0.38.19a4.587,4.587,0,0,1-1.22.46q-1.68.375-3.18,0.57a1.1,1.1,0,0,1-.94-0.38c-0.19-.12-0.28-0.09-0.28.1a1.124,1.124,0,0,0,.28.56,2.355,2.355,0,0,0,1.22.75c1-.38,2.19-0.78,3.56-1.22a0.255,0.255,0,0,1,.28.37,30.8,30.8,0,0,1-2.72,4.22,17.72,17.72,0,0,1-3.09,3.1c-0.13.18-.06,0.25,0.19,0.18a17.025,17.025,0,0,0,1.87-1.5c0.38-.31,1.13-1.03,2.25-2.15l0.19,0.19v2.71a18.735,18.735,0,0,1-.19,2.91c-0.06.38-.12,0.72-0.19,1.03a5.358,5.358,0,0,0,.66,1.97c0.25,0.25.44,0.19,0.56-.19a7.2,7.2,0,0,0,.1-1.31v-7.97c0.18-.12.12-0.28-0.19-0.47a28.594,28.594,0,0,0,1.97-2.72,0.793,0.793,0,0,0,.47-0.46c-0.25-.19-0.66-0.5-1.22-0.94h0Zm-2.81-4.41c-0.19-.12-0.25-0.06-0.19.19a6.551,6.551,0,0,0,2.62,2.72c0.57,0.19.78-.1,0.66-0.85a1.094,1.094,0,0,0-.66-0.75,9.816,9.816,0,0,1-2.43-1.31h0Zm2.62,8.63c-0.19-.07-0.25,0-0.19.18,0.75,1,1.38,1.85,1.88,2.54a0.6,0.6,0,0,0,.65.28c0.19-.07.25-0.28,0.19-0.66a2.834,2.834,0,0,0-.47-1.12,1.86,1.86,0,0,0-.75-0.57,4.322,4.322,0,0,1-1.31-.65h0Zm2.53,13.24c-0.25,0-.28.09-0.09,0.28a1.25,1.25,0,0,1,.75.94v1.59l-4.69.47h-1.41l-0.28-.94c-0.18-.19-0.28-0.15-0.28.09a7.459,7.459,0,0,1-.09,1.32,4.343,4.343,0,0,1-1.22,1.78,1.8,1.8,0,0,0,.37,1.5,0.647,0.647,0,0,0,.85-0.47,4.469,4.469,0,0,0,.75-2.53h1.03c1.87-.19,3.72-0.41,5.53-0.66q3-.285,6.66-0.28c0.5,0.06.59,0.25,0.28,0.56l-1.13,1.69c-0.12.25-.06,0.31,0.19,0.19l1.88-1.22a1.649,1.649,0,0,1,1.12-.19,0.255,0.255,0,0,0,.28-0.37,3.594,3.594,0,0,0-1.59-1.69h-0.38q-2.625.285-6.75,0.66v-1.04a0.556,0.556,0,0,1,.28-0.46q0.285-.2-0.18-0.66a3.348,3.348,0,0,0-1.88-.56h0Zm4.6,5.34a8,8,0,0,0-1.6.47c-1.5.19-2.5,0.31-3,.37s-1.15.13-1.97,0.19a5.794,5.794,0,0,0-1.12-.37c-0.25-.13-0.31-0.06-0.19.18a3.692,3.692,0,0,1,.66,1.13l0.28,2.53a1.471,1.471,0,0,0,.56.94c0.19,0.12.34,0.03,0.47-.28l1.03-.1a1.124,1.124,0,0,1,.28.85,13.2,13.2,0,0,1-.56,1.97l-2.53.18a2.8,2.8,0,0,0-1.41-.37c-0.25,0-.25.09,0,0.28a1.629,1.629,0,0,1,.75,1.03l0.66,4.03c0.25,0.5.5,0.63,0.75,0.38a1.227,1.227,0,0,0,.28-0.47c1.56-.25,2.69-0.41,3.37-0.47q0.945-.09,2.25-0.09a6.872,6.872,0,0,1,1.13.18,0.441,0.441,0,0,0,.47-0.09,1.357,1.357,0,0,0,.09-0.56l1.03-2.82a1.134,1.134,0,0,1,.47-0.37c0.25-.19.19-0.47-0.19-0.84a3.533,3.533,0,0,0-1.03-.75,8.488,8.488,0,0,0-1.5.18l-4.03.47a15.656,15.656,0,0,0,1.03-1.69c0.19-.18.35-0.34,0.47-0.46a0.234,0.234,0,0,0,0-.38,2.078,2.078,0,0,0-.56-0.37l2.06-.47a1.345,1.345,0,0,0,.75.37,0.384,0.384,0,0,0,.38-0.19,2.835,2.835,0,0,0,.18-0.56c0.38-.81.72-1.62,1.04-2.44a1.07,1.07,0,0,1,.37-0.37c0.19-.13.06-0.34-0.37-0.66a3.045,3.045,0,0,0-.75-0.56h0Zm0,7.97c0.37,0,.53.13,0.46,0.37l-0.65,3.29-0.75-.1q-3,.375-5.91.66l-0.56-3.38q2.625-.18,7.41-0.84h0Zm-0.75-7.03c0.25,0,.34.15,0.28,0.47a22.553,22.553,0,0,1-.66,2.34,1.387,1.387,0,0,1-.56-0.19,4.155,4.155,0,0,1-.66.28,19.918,19.918,0,0,1-3.56.57l-0.47-2.72,1.13-.1,3.75-.56Zm-35-65.29c-0.25-.12-0.32-0.06-0.19.19q2.8,1.5,4.97,2.62c0.5,0.25.78,0.16,0.84-.28a2.818,2.818,0,0,0-.75-1.12,5.027,5.027,0,0,0-2.06-.75Zm0.18-6.19c-0.25,0-.28.1-0.09,0.28q3.75,2.25,5.16,3.29c0.43,0.25.68,0.15,0.75-.29a2.218,2.218,0,0,0-.66-1.21,3.059,3.059,0,0,0-1.59-1.04c-1.07-.24-2.25-0.59-3.57-1.03h0Zm-2.15,12.1c-0.25,0-.28.09-0.1,0.28a46.572,46.572,0,0,1,5.25,2.25,35.357,35.357,0,0,1,4.13,2.62c0.5,0.06.69-.18,0.56-0.75a8.1,8.1,0,0,0-1.78-1.78,33.45,33.45,0,0,0-8.06-2.62h0Zm10.5,14.7a2.149,2.149,0,0,0-.57.28c-1.25.25-2.59,0.5-4.03,0.75a4.144,4.144,0,0,1-.75.09,2.082,2.082,0,0,1-.65-0.09c-0.19-.06-0.22,0-0.1.19a2.5,2.5,0,0,0,1.22.75,5.636,5.636,0,0,1,.94-0.29l3.47-.75a0.252,0.252,0,0,1,.28.29c-0.38,1.37-.81,2.9-1.31,4.59-1.94.37-3.88,0.75-5.82,1.12l-1.03.1c-0.25,0-.28.09-0.09,0.28,0.25,0.06.75,0.22,1.5,0.47a0.822,0.822,0,0,0,.66-0.19,18.655,18.655,0,0,1,4.68-1.03,21.366,21.366,0,0,1,5.25-.09c0.5,0,.6-0.19.28-0.57a4.034,4.034,0,0,0-1.59-.65c-0.19.06-.59,0.15-1.22,0.28l-1.97.19c0.82-1.82,1.44-3.35,1.88-4.6,0.5-.19.56-0.37,0.19-0.56Zm-5.72,17.32a1.357,1.357,0,0,0-.56-0.09,0.112,0.112,0,0,0,0,.19,1.439,1.439,0,0,1,.65.75,4.568,4.568,0,0,1,.19,1.59v3.56q0,6.375-.09,7.6a17.03,17.03,0,0,1-.38,2.43,3.948,3.948,0,0,0,.94,1.69c0.31,0.25.47,0.16,0.47-.28a20.667,20.667,0,0,1-.19-2.63v-12.28a2.737,2.737,0,0,1,.28-0.93,0.3,0.3,0,0,0,.09-0.38,1.98,1.98,0,0,0-.37-0.47,6.749,6.749,0,0,0-1.03-.75h0Zm5.9,25.76a0.518,0.518,0,0,0,.38.29c0.19,0,.28-0.16.28-0.47a1.8,1.8,0,0,0-.47-1.32,5.371,5.371,0,0,0-1.97-.84c-0.25,0-.28.06-0.09,0.19a4.954,4.954,0,0,1,1.87,2.15h0Zm1.5-1.5a0.518,0.518,0,0,0,.38.29c0.19,0,.28-0.16.28-0.47a1.8,1.8,0,0,0-.47-1.32,5.371,5.371,0,0,0-1.97-.84c-0.25,0-.28.06-0.09,0.19a4.954,4.954,0,0,1,1.87,2.15h0Zm1.41,3.29c0.13-.32.03-0.38-0.28-0.19a34.61,34.61,0,0,1-7.41,7.4c-2.75,1.94-4.43,2.91-5.06,2.91a0.731,0.731,0,0,1-.56-0.19,0.611,0.611,0,0,1-.19-0.47c0-.24-0.09-0.24-0.28,0a1.72,1.72,0,0,0,.09,1.22,5.473,5.473,0,0,0,1.41.94,0.773,0.773,0,0,0,.47-0.28,24.725,24.725,0,0,0,3.56-2.44,31.216,31.216,0,0,0,8.25-8.9h0Zm-12.56-4.5c-0.25-.13-0.31-0.07-0.19.18a16.3,16.3,0,0,1,2.44,1.69,1.808,1.808,0,0,0,1.03.66c0.25,0,.34-0.22.28-0.66a3.291,3.291,0,0,0-.66-1.12,1.8,1.8,0,0,0-.93-0.38c-0.32-.06-0.97-0.19-1.97-0.37h0Zm-1.97,5.43c-0.25,0-.28.1-0.09,0.28a19.21,19.21,0,0,1,2.43,1.5,2.187,2.187,0,0,0,.85.47c0.25,0,.34-0.18.28-0.56a1.331,1.331,0,0,0-.75-1.12,23.661,23.661,0,0,0-2.72-.57h0Zm5.72,21.85c-0.25,0-.28.09-0.1,0.28a1.234,1.234,0,0,1,.57.94,12.875,12.875,0,0,1-1.22,4.59,14.9,14.9,0,0,1-3.66,5.35c-0.19.25-.12,0.31,0.19,0.18a15.285,15.285,0,0,0,3.66-4.12,20.125,20.125,0,0,0,2.15-5.53c0.31-.25.38-0.47,0.19-0.66a3.183,3.183,0,0,0-1.78-1.03h0Zm7.4-4.87a0.711,0.711,0,0,0-.65.18c-2.88.57-6.78,1.25-11.72,2.07a10.323,10.323,0,0,1-2.34.09c-0.38-.06-0.44.03-0.19,0.28a8.692,8.692,0,0,0,1.59,1.03,3.394,3.394,0,0,1,.85-0.28c2.5-.62,6.5-1.41,12-2.34,0.31,0,.37.12,0.18,0.37a23.244,23.244,0,0,1-4.87,4.78c-0.25.25-.22,0.35,0.09,0.28a37.636,37.636,0,0,0,3.85-2.62c0.75-.62,1.65-1.47,2.71-2.53,0.5-.19.57-0.38,0.19-0.56Zm-7.59,21.86c-0.25-.12-0.31-0.06-0.19.19a1.223,1.223,0,0,1,.47,1.03,21.505,21.505,0,0,1-1.78,4.31,72.556,72.556,0,0,1-4.78,7.78h-0.56c-0.19,0-.22.1-0.1,0.28a5.788,5.788,0,0,0,1.22,1.13,2.257,2.257,0,0,0,.56-0.28q3.855-1.035,11.63-3.1a20.025,20.025,0,0,1,1.41,2.25,1,1,0,0,0,.75.57c0.25,0,.34-0.32.28-0.94a3.075,3.075,0,0,0-.66-1.78,39.641,39.641,0,0,0-3.94-3.75c-0.18-.13-0.25-0.06-0.18.19a27.5,27.5,0,0,1,2.15,3q-2.535.645-5.62,1.31c-2.13.44-4.28,0.81-6.47,1.12a63.233,63.233,0,0,0,4.12-5.62,50.679,50.679,0,0,0,3-5.25,0.466,0.466,0,0,0,.38-0.66,5.447,5.447,0,0,0-.94-1.4,4.315,4.315,0,0,0-.75-0.38h0Z" transform="translate(-1478.25 -1638.06)"/>
</svg>
