<svg id="rekishidb_ttl" xmlns="http://www.w3.org/2000/svg" width="76.844" height="116.84" viewBox="0 0 76.844 116.84">
  <defs>
    <style>
      .cls-1 {
        fill: #100d0d;
        fill-rule: evenodd;
      }
    </style>
  </defs>
  <path id="明治神宮_歴史_データベース" data-name="明治神宮 歴史 データベース" class="cls-1" d="M628.723,2255.52a3.472,3.472,0,0,1-.844.28q-2.532.555-4.594,0.84a4.581,4.581,0,0,0-1.5-.47c-0.313-.06-0.375,0-0.187.19a1.72,1.72,0,0,1,.843,1.12q0.093,0.66.094,3.57a23.416,23.416,0,0,1-.844,6.84,15.4,15.4,0,0,1-3.093,5.34c-0.126.25-.063,0.32,0.187,0.19a16.146,16.146,0,0,0,2.719-3.09,13.881,13.881,0,0,0,1.781-4.6c1.25-.06,3.094-0.24,5.531-0.56q0.093,3.285.094,6.47c0,0.31-.187.41-0.562,0.28-0.75-.19-1.533-0.4-2.344-0.65q-0.376-.2-0.188.18,1.218,0.75,2.344,1.41a1.8,1.8,0,0,1,.656.84c0.125,0.38.312,0.44,0.563,0.19a11.514,11.514,0,0,0,.844-1.5,6.487,6.487,0,0,1-.188-1.59q-0.28-6-.094-12.85a1.5,1.5,0,0,1,.282-0.93,0.311,0.311,0,0,0,0-.57,10.3,10.3,0,0,0-1.5-.93h0Zm0.093,5.34v3.47q-2.062.375-5.437,0.65a28.174,28.174,0,0,0,.187-3.28,26.407,26.407,0,0,1,5.25-.84h0Zm-0.468-4.31a0.375,0.375,0,0,1,.468.37v3.19a2.158,2.158,0,0,0-.656-0.09c-0.313.06-.844,0.18-1.594,0.37-0.937.19-1.938,0.34-3,.47v-3.56h0.563q2.155-.375,4.219-0.75h0Zm-9.844,5.34v3.38h-0.469q-1.595.375-3.281,0.75,0-1.785-.094-3.57a0.96,0.96,0,0,0,.844,0c0.75-.18,1.749-0.37,3-0.56h0Zm-0.094-5.06a4.184,4.184,0,0,1-.75.37q-1.595.375-3.281,0.66a5.369,5.369,0,0,0-1.031-.47c-0.251-.12-0.314-0.06-0.188.19a1.164,1.164,0,0,1,.375.65,4.562,4.562,0,0,1,.188,1.41q0.091,3.09,0,6.66,0,1.59.656,1.59c0.312-.06.436-0.47,0.375-1.22,1.186-.25,2.374-0.47,3.562-0.65a4.466,4.466,0,0,0,.563.37,0.409,0.409,0,0,0,.562-0.09,3.006,3.006,0,0,0,.094-1.32q-0.095-6.375.281-6.75a0.409,0.409,0,0,0-.093-0.65,4.634,4.634,0,0,0-1.313-.75h0Zm-0.375.94a0.376,0.376,0,0,1,.469.37v3q-1.876.375-3.844,0.75v-3.37a28.851,28.851,0,0,1,3.375-.75h0Zm-1.125,29.99q-1.687,3-3.469,5.53a0.536,0.536,0,0,1-.843-0.09c-0.375-.31-0.5-0.25-0.375.19a4.148,4.148,0,0,0,1.5,1.87c0.436,0.38.687,0.28,0.75-.28a4.3,4.3,0,0,1,.375-1.41q1.216-2.715,2.25-5.62c0.061-.31,0-0.38-0.188-0.19h0Zm7.031-10.12c-0.438-.07-0.468.09-0.093,0.46a0.926,0.926,0,0,1,.281,1.13,45.443,45.443,0,0,1-3.375,5.72c-0.188.06-.407,0.12-0.656,0.19-0.251,0-.282.46-0.094,1.4,0.124,0.25.375,0.25,0.75,0a4.473,4.473,0,0,1,1.312-.56,39.382,39.382,0,0,1,7.594-1.5c0.188,0.37.375,0.75,0.563,1.12q0.749,0.945,1.125-.18a4.275,4.275,0,0,0-.844-1.88,19.37,19.37,0,0,0-2.625-2.06c-0.188-.13-0.251-0.09-0.188.09a16.713,16.713,0,0,1,1.594,2.25,61.314,61.314,0,0,0-7.781,1.22q2.061-2.625,3.937-5.34a3.108,3.108,0,0,1,.469-0.38c0.188-.12.155-0.34-0.094-0.65a5.491,5.491,0,0,0-1.875-1.03h0Zm4.688,11.9c0.375,0,.562.13,0.562,0.38l-0.468,3.65a40.744,40.744,0,0,0-6.375.38,14.805,14.805,0,0,0-.282-3.66,51.71,51.71,0,0,1,6.563-.75h0Zm0.937-1.03c-0.126.06-.313,0.16-0.562,0.28q-3.751.285-7.125,0.75c-0.438-.19-0.844-0.34-1.219-0.47-0.313-.12-0.407-0.03-0.281.28a4.193,4.193,0,0,1,.75,1.6,10.59,10.59,0,0,1,.187,3.37,2.044,2.044,0,0,0,.375.85,0.367,0.367,0,0,0,.657-0.1,0.724,0.724,0,0,0,.093-0.28,29.448,29.448,0,0,1,6.094-.47,0.377,0.377,0,0,0,.375.47,0.714,0.714,0,0,0,.844-0.65l0.75-3.47a0.869,0.869,0,0,1,.375-0.47q0.374-.285,0-0.75a4.507,4.507,0,0,0-1.313-.94h0Zm-14.718-10.59c-0.375-.13-0.469-0.03-0.282.28a13.049,13.049,0,0,0,1.782,2.06,2.146,2.146,0,0,0,1.125.66c0.249,0,.375-0.19.375-0.57a1.92,1.92,0,0,0-.563-1.21,5,5,0,0,1-2.437-1.22h0Zm-1.688,5.06c-0.375-.25-0.469-0.19-0.281.19a7.434,7.434,0,0,0,1.781,1.87,1.5,1.5,0,0,0,1.125.28q0.75-.555-0.562-1.59a4.565,4.565,0,0,1-2.063-.75h0Zm12.094,21.21v2.34l-2.344.38h-0.656c-0.126-1.32-.188-2.1-0.188-2.35Zm-1.031-4.97c-0.251.06-.251,0.16,0,0.28a6.205,6.205,0,0,1,.75.56,0.943,0.943,0,0,1,.187.66v2.81l-3.375.38a2.2,2.2,0,0,0-1.312-.47c-0.251,0-.314.09-0.188,0.28a1.106,1.106,0,0,1,.656.75c0.188,2.19.282,3.78,0.282,4.78a2.7,2.7,0,0,0,.843,2.25,0.707,0.707,0,0,0,.563-0.66l2.625-.28v6.94a1.008,1.008,0,0,0,.469.94c0.249,0,.405-0.35.468-1.03v-1.97c0-1.19.031-2.88,0.094-5.06,0.875-.07,1.688-0.1,2.438-0.1a1.283,1.283,0,0,0,.75.66,0.769,0.769,0,0,0,.562-0.47c0.062-.38.188-1.09,0.375-2.16q0.282-1.68.563-3.75a0.526,0.526,0,0,1,.187-0.37c0.312-.13.188-0.44-0.375-0.94a2.828,2.828,0,0,0-.75-0.56,0.523,0.523,0,0,0-.375.19l-3.281.46v-2.43a1.021,1.021,0,0,1,.094-0.47c0.249-.31.124-0.63-0.375-0.94a2.615,2.615,0,0,0-1.875-.28h0Zm5.062,4.5a0.332,0.332,0,0,1,.375.37l-0.094,2.16a1.7,1.7,0,0,0-1.031-.37,8.947,8.947,0,0,1-2.156.46V2304Zm-1.312,3.19h1.5c-0.063.75-.126,1.59-0.188,2.53a1.874,1.874,0,0,1-.656-0.1l-0.469.19-1.875.19,0.094-2.63Zm-2.719.37v2.63l-2.719.28-0.187-2.63h0.562Zm-6.938-3.56c-0.25-.06-0.375,0-0.375.19a4.983,4.983,0,0,1-1.218.47c-1.125.25-2.189,0.43-3.188,0.56a1.1,1.1,0,0,1-.937-0.38c-0.188-.12-0.282-0.09-0.282.1a1.151,1.151,0,0,0,.282.56,2.355,2.355,0,0,0,1.218.75c1-.38,2.187-0.78,3.563-1.22a0.261,0.261,0,0,1,.281.38,31.65,31.65,0,0,1-2.719,4.21,17.883,17.883,0,0,1-3.093,3.1c-0.126.19-.063,0.25,0.187,0.19a19.476,19.476,0,0,0,1.875-1.5q0.563-.48,2.25-2.16l0.188,0.19v2.72a19.352,19.352,0,0,1-.188,2.9c-0.063.38-.126,0.72-0.187,1.03a5.121,5.121,0,0,0,.656,1.97c0.249,0.25.436,0.19,0.562-.19a8.054,8.054,0,0,0,.094-1.31v-7.97c0.188-.12.125-0.28-0.187-0.47a28.585,28.585,0,0,0,1.968-2.71,0.816,0.816,0,0,0,.469-0.47c-0.25-.19-0.656-0.5-1.219-0.94h0Zm-2.812-4.41c-0.188-.12-0.251-0.06-0.188.19a6.468,6.468,0,0,0,2.625,2.72q0.844,0.285.657-.84a1.07,1.07,0,0,0-.657-0.75,9.8,9.8,0,0,1-2.437-1.32h0Zm2.625,8.63c-0.188-.06-0.251,0-0.188.19,0.75,1,1.374,1.84,1.875,2.53a0.6,0.6,0,0,0,.657.28q0.281-.09.187-0.66a2.891,2.891,0,0,0-.469-1.12,1.944,1.944,0,0,0-.75-0.57,4.2,4.2,0,0,1-1.312-.65h0Zm2.531,13.24c-0.25,0-.281.09-0.094,0.28a1.25,1.25,0,0,1,.75.94v1.59l-4.687.47h-1.406l-0.282-.94c-0.187-.19-0.281-0.15-0.281.1a7.086,7.086,0,0,1-.094,1.31,4.319,4.319,0,0,1-1.218,1.78,1.775,1.775,0,0,0,.375,1.5,0.635,0.635,0,0,0,.843-0.47,4.516,4.516,0,0,0,.75-2.53h1.032q2.813-.285,5.531-0.66c2-.18,4.219-0.28,6.656-0.28,0.5,0.06.593,0.25,0.281,0.56l-1.125,1.69c-0.126.25-.063,0.32,0.188,0.19l1.875-1.22a1.668,1.668,0,0,1,1.125-.19,0.255,0.255,0,0,0,.281-0.37,3.609,3.609,0,0,0-1.594-1.69h-0.375q-2.625.285-6.75,0.66v-1.03a0.544,0.544,0,0,1,.282-0.47q0.281-.2-0.188-0.66a3.33,3.33,0,0,0-1.875-.56h0Zm4.594,5.34a7.943,7.943,0,0,0-1.594.47c-1.5.19-2.5,0.31-3,.38s-1.157.12-1.969,0.18a5.865,5.865,0,0,0-1.125-.37c-0.25-.13-0.313-0.06-0.187.19a3.519,3.519,0,0,1,.656,1.12l0.281,2.53a1.467,1.467,0,0,0,.563.94c0.187,0.13.343,0.03,0.469-.28l1.031-.1a1.121,1.121,0,0,1,.281.85,14.119,14.119,0,0,1-.562,1.97l-2.532.18a2.889,2.889,0,0,0-1.406-.37c-0.25,0-.25.09,0,0.28a1.651,1.651,0,0,1,.75,1.03l0.656,4.03c0.249,0.5.5,0.63,0.75,0.38a1.207,1.207,0,0,0,.282-0.47c1.561-.25,2.686-0.41,3.375-0.47q0.936-.09,2.25-0.09a6.9,6.9,0,0,1,1.125.18,0.436,0.436,0,0,0,.468-0.09,1.285,1.285,0,0,0,.094-0.56l1.031-2.81a1.016,1.016,0,0,1,.469-0.38c0.249-.19.188-0.47-0.187-0.84a3.665,3.665,0,0,0-1.032-.75,8.377,8.377,0,0,0-1.5.18l-4.031.47a18.4,18.4,0,0,0,1.031-1.68c0.188-.19.343-0.35,0.469-0.47a0.239,0.239,0,0,0,0-.38,2.215,2.215,0,0,0-.562-0.37l2.062-.47a1.359,1.359,0,0,0,.75.37,0.382,0.382,0,0,0,.375-0.18,3.218,3.218,0,0,0,.188-0.57q0.563-1.215,1.031-2.43a1.052,1.052,0,0,1,.375-0.38c0.187-.12.061-0.34-0.375-0.66a3.365,3.365,0,0,0-.75-0.56h0Zm0,7.97c0.375,0,.53.13,0.469,0.38l-0.657,3.28-0.75-.1q-3,.375-5.906.66l-0.562-3.38q2.624-.18,7.406-0.84h0Zm-0.75-7.03c0.249,0,.343.16,0.281,0.47a20.991,20.991,0,0,1-.656,2.34,1.365,1.365,0,0,1-.563-0.19,5.717,5.717,0,0,1-.656.29,20.787,20.787,0,0,1-3.562.56l-0.469-2.72,1.125-.09,3.75-.57ZM592.6,2265.92c-0.626,0-.689.16-0.188,0.47a1.079,1.079,0,0,1,.375,1.03c0.062,2,.094,3.38.094,4.13-1.376.12-2.438,0.22-3.188,0.28v-0.94a1.644,1.644,0,0,1,.188-1.12,0.576,0.576,0,0,0-.188-0.85,3.556,3.556,0,0,0-1.406-.75c-0.375-.12-0.438-0.03-0.187.28a1.357,1.357,0,0,1,.562,1.03,22.471,22.471,0,0,1,.094,2.44,10.322,10.322,0,0,1-1.406.1,2.931,2.931,0,0,1-1.219-.38c-0.251-.12-0.314-0.06-0.188.19a4.607,4.607,0,0,0,1.313,1.03,1.657,1.657,0,0,0,1.5.19,32.765,32.765,0,0,1,8.344-.85,19.3,19.3,0,0,1,3.562.28c0.624,0,.718-0.24.281-0.75a5.959,5.959,0,0,0-1.593-.65c-0.438.06-.876,0.12-1.313,0.19l-4.125.18v-2.43a18.411,18.411,0,0,0,4.594-.57c0.436-.12.436-0.28,0-0.47a2.88,2.88,0,0,0-1.406-.28,8.627,8.627,0,0,1-3.188.75v-0.56a2.444,2.444,0,0,1,.094-0.75,0.433,0.433,0,0,0-.188-0.75,2.889,2.889,0,0,0-1.218-.47h0Zm3.656-8.34c-0.375,0-.407.12-0.094,0.37a1.019,1.019,0,0,1,.656.94v1.03a6.811,6.811,0,0,1-1.781.28,2.154,2.154,0,0,1-.656-0.09c-0.375-.13-0.469-0.03-0.281.28a1.991,1.991,0,0,0,1.312.56,3.091,3.091,0,0,0,.844-0.28,18.168,18.168,0,0,1-3.094,3.75c-0.187.25-.126,0.32,0.188,0.19a20.189,20.189,0,0,0,3.468-2.91,11.833,11.833,0,0,1-.187,3.28,2.441,2.441,0,0,0,.375,1.22q0.28,0.75.562,0a3.51,3.51,0,0,0,.188-1.12v-3.75q1.968,2.715,2.719,3.65a0.63,0.63,0,0,0,.562.29c0.563,0,1.25-.04,2.063-0.1,0.312-.06.312-0.15,0-0.28a25.55,25.55,0,0,1-5.344-4.03v-0.38c1.062-.12,2.03-0.21,2.906-0.28,0.563-.12.593-0.34,0.094-0.65a3.564,3.564,0,0,0-.938-0.38,1.926,1.926,0,0,1-.656.28,12.233,12.233,0,0,1-1.406.28,2,2,0,0,1,.094-1.12c0.187-.19.124-0.38-0.188-0.56a3.709,3.709,0,0,0-1.406-.47h0Zm-6.094.84c-0.438-.06-0.532.03-0.281,0.28a1.509,1.509,0,0,1,.375.57,1.616,1.616,0,0,1,.094.93c-0.563.13-1,.22-1.313,0.28a2.1,2.1,0,0,1-.937,0c-0.375-.06-0.438.04-0.188,0.29a1.246,1.246,0,0,0,.844.46,5.487,5.487,0,0,0,1.219-.18,25.567,25.567,0,0,1-3.094,4.87c-0.188.32-.126,0.38,0.187,0.19a15.341,15.341,0,0,0,3.282-3.75q0,2.16-.094,2.91a2.572,2.572,0,0,0,.187,1.12c0.312,0.44.531,0.5,0.657,0.19a2.512,2.512,0,0,0,.093-0.75v-3.94c0.75,0.63,1.281,1.06,1.594,1.31,0.5,0.25.656,0.07,0.469-.56a3,3,0,0,0-1.969-1.03v-0.84c0.624-.13,1.156-0.25,1.594-0.38q0.563-.375-0.469-0.66c-0.438.13-.813,0.22-1.125,0.29a1.543,1.543,0,0,1,.188-0.85q0-.465-1.313-0.75h0Zm8.719-3a5.714,5.714,0,0,1-.844.28c-3,.32-6.656.75-10.969,1.32q-0.843-.375-1.5-0.66c-0.313-.13-0.375-0.06-0.187.19a1.338,1.338,0,0,1,.469.93,27.411,27.411,0,0,1-.844,6.66,24.342,24.342,0,0,1-2.25,5.91q-0.282.465,0.187,0.18a16.03,16.03,0,0,0,2.625-4.4,30.414,30.414,0,0,0,1.407-7.97,77.152,77.152,0,0,1,12.843-1.22q1.313-.09.375-0.75a2.973,2.973,0,0,0-1.312-.47h0Zm-1.219,26.44c0.312,0,.437.12,0.375,0.37a24.8,24.8,0,0,1-.562,3.1c-1.313,0-2.719.06-4.219,0.19,0.061-1.25.094-2.35,0.094-3.29,1.437-.12,2.874-0.25,4.312-0.37h0Zm-6.094-4.13c-0.375-.06-0.438.04-0.187,0.29a1.582,1.582,0,0,1,.844,1.31v2.34c-1.688.25-3.126,0.44-4.313,0.56a5.511,5.511,0,0,0-1.687-.93c-0.251-.07-0.282.06-0.094,0.37a2.491,2.491,0,0,1,.75.94,6.71,6.71,0,0,1,.375,1.69v1.4a5.8,5.8,0,0,0,.094,1.13,0.651,0.651,0,0,0,.562.56,0.381,0.381,0,0,0,.375-0.47,30.992,30.992,0,0,1,3.75-.65,8.893,8.893,0,0,1-.469,2.81,22.915,22.915,0,0,0-2.906-1.22c-0.313-.06-0.344.03-0.094,0.28a20.714,20.714,0,0,1,2.813,1.5,7.171,7.171,0,0,1-2.25,2.91,12.06,12.06,0,0,1-3.938,2.06c-0.187.12-.156,0.19,0.094,0.19a10.871,10.871,0,0,0,4.406-1.69,7.639,7.639,0,0,0,2.625-3,58.645,58.645,0,0,1,5.438,4.31,1.907,1.907,0,0,0,1.406.56h3.281c0.375-.12.375-0.25,0-0.37a9.05,9.05,0,0,1-3.468-1.13q-1.219-.645-4.875-3.09c-0.626-.37-1.125-0.69-1.5-0.94a16.762,16.762,0,0,0,.562-3.28,33.255,33.255,0,0,1,4.219-.09,0.536,0.536,0,0,0,.562.19,5.881,5.881,0,0,0,.469-1.04,8.341,8.341,0,0,1,.375-1.21c0.188-.57.343-1.04,0.469-1.41a0.994,0.994,0,0,1,.375-0.47c0.124-.12.094-0.28-0.094-0.47a3.368,3.368,0,0,0-.844-0.65,2.592,2.592,0,0,0-.937.18c-1.376.07-2.845,0.19-4.406,0.38v-1.78a1.292,1.292,0,0,1,.187-0.75,0.269,0.269,0,0,0,.188-0.38,2.792,2.792,0,0,0-2.157-.94h0Zm0.657,4.6c0,1-.033,2.09-0.094,3.28-1,.12-2.282.31-3.844,0.56a25.342,25.342,0,0,0-.187-3.28c1.374-.19,2.749-0.37,4.125-0.56h0Zm-20.094-22.97a0.491,0.491,0,0,0,.375.28c0.187,0,.281-0.15.281-0.47a1.77,1.77,0,0,0-.469-1.31,5.423,5.423,0,0,0-1.968-.84q-0.376,0-.094.18a5.1,5.1,0,0,1,1.875,2.16h0Zm1.5-1.5a0.491,0.491,0,0,0,.375.28c0.187,0,.281-0.15.281-0.47a1.77,1.77,0,0,0-.469-1.31,5.423,5.423,0,0,0-1.968-.84q-0.376,0-.094.18a5.1,5.1,0,0,1,1.875,2.16h0Zm-4.781,3.19q-3.564.555-11.813,2.15a1.872,1.872,0,0,1-1.031-.09c-0.251,0-.281.09-0.094,0.28a5.653,5.653,0,0,0,1.5.84,2.3,2.3,0,0,0,.938-0.37,20.933,20.933,0,0,1,2.906-.75,16.714,16.714,0,0,1,2.437-.38,1.531,1.531,0,0,1,.563.75,12.821,12.821,0,0,1-1.5,4.97,11.908,11.908,0,0,1-4.313,4.78c-0.187.25-.126,0.35,0.188,0.29a16.094,16.094,0,0,0,4.312-3.75,17.222,17.222,0,0,0,2.532-6,1.106,1.106,0,0,1,.281-0.47c0.124-.13.094-0.25-0.094-0.38-0.313-.12-0.688-0.25-1.125-0.37q2.438-.375,4.406-0.57a12.674,12.674,0,0,1,2.907.19q0.749-.18.093-0.75a7.163,7.163,0,0,0-2.062-.75,2.826,2.826,0,0,0-1.031.38h0Zm-2.625-4.78c-0.188.12-.375,0.25-0.563,0.37l-4.781,1.13a4.113,4.113,0,0,1-.938.09,2.655,2.655,0,0,1-1.031-.19c-0.25-.06-0.313,0-0.187.19a5.954,5.954,0,0,0,1.218,1.03c0.188-.06.5-0.15,0.938-0.28a30.523,30.523,0,0,1,6.469-1.13q0.936-.09.375-0.75a6.249,6.249,0,0,0-1.5-.46h0Zm-2.907,20.67a1.358,1.358,0,0,0-.562-0.09,0.119,0.119,0,0,0,0,.19,1.469,1.469,0,0,1,.656.75,4.706,4.706,0,0,1,.188,1.59v3.56c0,4.25-.033,6.79-0.094,7.6a16.466,16.466,0,0,1-.375,2.43,3.94,3.94,0,0,0,.937,1.69c0.312,0.25.469,0.16,0.469-.28a21.222,21.222,0,0,1-.187-2.62v-12.29a2.8,2.8,0,0,1,.281-0.93,0.316,0.316,0,0,0,.094-0.38,2.211,2.211,0,0,0-.375-0.47,7.446,7.446,0,0,0-1.032-.75h0Zm5.438,22.63c0.249-.06.312,0.03,0.187,0.28a15.985,15.985,0,0,1-1.687,3.47c-0.689,1.13-1.469,2.34-2.344,3.66a2.349,2.349,0,0,0-.281-1.22,4.13,4.13,0,0,0-1.219-.85l-2.531-1.21a29.432,29.432,0,0,0,3.187-3.57c1.688-.18,3.249-0.37,4.688-0.56h0Zm1.781,0.19-1.219-1.13a0.669,0.669,0,0,0-.75.19,31.429,31.429,0,0,1-4.593.66,7.884,7.884,0,0,0-1.5-.85c-0.251-.12-0.314-0.06-0.188.19a1.012,1.012,0,0,1,.469.94c0,0.37-.656,1.31-1.969,2.81a29.731,29.731,0,0,1-4.219,4.13q-0.189.375,0.188,0.18a27.043,27.043,0,0,0,3.937-3q1.969,1.785,3.563,3.19l0.375,0.28a25.566,25.566,0,0,1-3.656,4.13,30.191,30.191,0,0,1-4.125,3.18c-0.188.19-.157,0.29,0.093,0.29a26.324,26.324,0,0,0,7.313-5.72,40.2,40.2,0,0,0,5.906-8.91c0.437-.19.563-0.37,0.375-0.56h0Zm0.281,21.86a0.518,0.518,0,0,0,.375.28c0.188,0,.282-0.16.282-0.47a1.77,1.77,0,0,0-.469-1.31,5.235,5.235,0,0,0-1.969-.85c-0.25,0-.281.07-0.094,0.19a5.027,5.027,0,0,1,1.875,2.16h0Zm1.5-1.5a0.518,0.518,0,0,0,.375.28c0.188,0,.282-0.16.282-0.47a1.77,1.77,0,0,0-.469-1.31,5.235,5.235,0,0,0-1.969-.85c-0.25,0-.281.07-0.094,0.19a5.027,5.027,0,0,1,1.875,2.16h0Zm-10.687,2.25a2.335,2.335,0,0,0-1.031-.38,0.749,0.749,0,0,0-.375.1l-4.5,2.62a0.908,0.908,0,0,1-1.032-.09c-0.126-.06-0.187-0.03-0.187.09a0.765,0.765,0,0,0,.281.47,3.94,3.94,0,0,0,1.219.84c0.124,0.07.312-.06,0.562-0.37l3.375-2.72a1.227,1.227,0,0,1,.75-0.28,5.772,5.772,0,0,1,1.875.94q1.407,0.93,5.813,4.03a38.806,38.806,0,0,0,4.219,2.72c0.436,0.25.656,0.15,0.656-.29a2.385,2.385,0,0,0-.75-1.4,4.564,4.564,0,0,1-.938-0.38q-4.875-2.8-9.937-5.9h0Zm1.687,13.49a1.358,1.358,0,0,0-.562-0.09,0.119,0.119,0,0,0,0,.19,1.469,1.469,0,0,1,.656.75,4.706,4.706,0,0,1,.188,1.59v3.56c0,4.25-.033,6.79-0.094,7.6a16.466,16.466,0,0,1-.375,2.43,3.94,3.94,0,0,0,.937,1.69c0.312,0.25.469,0.16,0.469-.28a21.222,21.222,0,0,1-.187-2.62v-12.29a2.8,2.8,0,0,1,.281-0.93,0.316,0.316,0,0,0,.094-0.38,2.211,2.211,0,0,0-.375-0.47,7.446,7.446,0,0,0-1.032-.75h0Zm5.625,22.68-1.312-.94a0.894,0.894,0,0,0-.938.28c-1.438.38-3,.79-4.687,1.22a20.1,20.1,0,0,1-3.281.75,7.11,7.11,0,0,1-1.125-.09,0.554,0.554,0,0,0,.281.47,10.423,10.423,0,0,0,1.031.75,0.62,0.62,0,0,0,.75-0.19c0.75-.31,1.655-0.62,2.719-0.94,1.561-.43,3.094-0.84,4.594-1.22,0.375-.06.468,0.07,0.281,0.38a46.42,46.42,0,0,1-4.781,6.94,36.647,36.647,0,0,1-6.375,5.81c-0.126.19-.063,0.25,0.187,0.19a43.33,43.33,0,0,0,3.938-2.63,35.746,35.746,0,0,0,3.656-3.56,20.611,20.611,0,0,1,2.812,2.25,24.222,24.222,0,0,1,3.75,4.03c0.5,0.38.75,0.25,0.75-.37a5.161,5.161,0,0,0-1.687-2.72,33.144,33.144,0,0,0-5.438-3.47,42.7,42.7,0,0,0,4.5-6.38c0.437-.18.563-0.37,0.375-0.56h0Z" transform="translate(-554.5 -2255.41)"/>
</svg>
