<svg id="shichigosan_ttl" xmlns="http://www.w3.org/2000/svg" width="107.19" height="27.03" viewBox="0 0 107.19 27.03">
  <defs>
    <style>
      .cls-1 {
        fill: #fff;
        fill-rule: evenodd;
      }
    </style>
  </defs>
  <path id="七五三" class="cls-1" d="M1566.18,2690.8c-0.31.21-.31,0.42,0,0.62a2.015,2.015,0,0,1,1.72,2.04c0.21,2.18.37,5.31,0.47,9.37q-4.065,1.1-7.66,2.19a11.022,11.022,0,0,1-2.65.47,5.174,5.174,0,0,1-2.03-.47c-0.63-.21-0.73,0-0.32.62q1.875,2.505,3.44,2.03a21.027,21.027,0,0,1,2.19-1.09q3.435-1.41,7.03-2.5c0.21,5.31.78,8.65,1.72,10q1.41,1.875,6.87,1.88c4.07,0,6.25-.11,6.57-0.32,0.41-.31.47-0.62,0.15-0.93a4.756,4.756,0,0,0-2.97-1.1,6.88,6.88,0,0,1-1.87.63,18.554,18.554,0,0,1-2.5.15q-4.845,0-5.31-1.72c-0.63-.72-0.99-3.75-1.1-9.06q4.695-1.41,6.88-1.87a66.654,66.654,0,0,1,8.44-1.25c1.35-.11,1.66-0.57.93-1.41-1.98-.73-3.07-0.99-3.28-0.78l-1.09.78q-7.035,1.725-11.88,3.28v-5.15c0-.84.05-1.83,0.16-2.97a11.607,11.607,0,0,0,.47-1.41,2.7,2.7,0,0,0-1.25-1.41c-1.36-.72-2.4-0.93-3.13-0.62h0Zm49.1,0.94a3.812,3.812,0,0,1-.94.62,43.762,43.762,0,0,1-9.53,1.56,4.87,4.87,0,0,1-3.75-1.09c-0.42-.21-0.52-0.1-0.31.31a6.759,6.759,0,0,0,2.5,2.66,21.771,21.771,0,0,1,4.06-.78,5.4,5.4,0,0,1,1.09,2.03,3.125,3.125,0,0,1-.15.94l-2.04,5.47a39.734,39.734,0,0,1-4.21.46,5.225,5.225,0,0,1-2.35-.62c-0.31-.21-0.42-0.1-0.31.31a5.961,5.961,0,0,0,2.03,2.19c1.15-.31,2.6-0.63,4.38-0.94l-4.54,10a29.916,29.916,0,0,1-5.46.63,7.991,7.991,0,0,1-2.5-.32c-0.32-.2-0.42-0.15-0.32.16a6.956,6.956,0,0,0,2.82,2.34q9.99-3.435,28.12-2.03c0.94,0,1.15-.36.63-1.09a9.725,9.725,0,0,0-3.44-1.41,10.931,10.931,0,0,1-1.41.63h-3.59c0-.63.31-3.54,0.94-8.75a1.65,1.65,0,0,1,.31-0.63,0.753,0.753,0,0,0,0-1.09,3.033,3.033,0,0,0-2.66-1.41,4.76,4.76,0,0,1-.94.32l-5.62.93,1.87-4.68a2.576,2.576,0,0,1,.47-0.63,1.066,1.066,0,0,0-.15-1.41,9.354,9.354,0,0,0-1.72-1.56,75.839,75.839,0,0,1,9.06-.94c0.83-.2.99-0.57,0.47-1.09a5.059,5.059,0,0,0-2.81-1.09h0Zm-1.25,11.56c0.62-.1.93,0.1,0.93,0.62v1.57q0,4.53-.31,8.43a111.97,111.97,0,0,0-12.03.79l4.84-10.16Zm39.25-1.41a6.1,6.1,0,0,1-2.35.78c-3.43.42-6.93,0.89-10.47,1.41a5.119,5.119,0,0,1-2.81-.31c-0.31-.21-0.42-0.05-0.31.47a9.008,9.008,0,0,0,2.03,1.72c0.1,0.21.68,0.1,1.72-.32a32.172,32.172,0,0,1,4.69-.93,46.146,46.146,0,0,1,9.37-.47c0.83,0,1.25-.16,1.25-0.47a0.639,0.639,0,0,0-.31-0.78,7.455,7.455,0,0,0-2.81-1.1h0Zm-0.16-10.31q-1.245,1.1-7.19,1.72-2.805.315-5.93,0.47a5.52,5.52,0,0,1-3.13-.47c-0.42-.21-0.52-0.1-0.31.31a4.646,4.646,0,0,0,2.65,2.19,9.214,9.214,0,0,0,2.19-.47,100.878,100.878,0,0,1,14.22-1.41,0.993,0.993,0,0,0,.94-0.62c0.21-.31.05-0.63-0.47-0.94a17.866,17.866,0,0,0-2.97-.78h0Zm5.63,20.78a6.167,6.167,0,0,1-1.72.63q-7.2.15-12.19,0.62-5.625.63-10.47,1.56a4.29,4.29,0,0,1-3.12-.62c-0.32-.1-0.42,0-0.32.31a1.676,1.676,0,0,0,.78,1.1c0.42,0.31.99,0.73,1.72,1.25a1.183,1.183,0,0,0,1.41,0,48.663,48.663,0,0,1,8.75-2.04,95.053,95.053,0,0,1,10.62-.62,33.708,33.708,0,0,1,3.75.16,37.712,37.712,0,0,0,3.91.46,0.79,0.79,0,0,0,.78-0.78,2.446,2.446,0,0,0-1.09-1.09,7.652,7.652,0,0,0-2.81-.94h0Z" transform="translate(-1555.47 -2690.66)"/>
</svg>
