<svg id="shiseikan_ttl" xmlns="http://www.w3.org/2000/svg" width="50.094" height="67.28" viewBox="0 0 50.094 67.28">
  <defs>
    <style>
      .cls-1 {
        fill: #100d0d;
        fill-rule: evenodd;
      }
    </style>
  </defs>
  <path id="武道場_至誠館" data-name="武道場 至誠館" class="cls-1" d="M594.046,1850.29c-0.251-.07-0.313,0-0.188.18a3.151,3.151,0,0,1,1.782,1.97q0.468,1.965.937,3.66c-3.25.62-6.094,1.16-8.531,1.59a2.174,2.174,0,0,1-1.594-.47c-0.187-.06-0.25,0-0.187.19a3.3,3.3,0,0,0,1.406,1.22,1,1,0,0,0,1.031,0q1.688-.465,3.563-0.84a0.794,0.794,0,0,1,.468.84l0.094,6.66-2.812.75v-2.91a3.984,3.984,0,0,1,.187-1.03c0.062-.63-0.656-1.09-2.156-1.41-0.251-.06-0.313,0-0.188.19a2.713,2.713,0,0,1,.75.66,1.363,1.363,0,0,1,.282.84v4.03a4.284,4.284,0,0,1-1.219.19,2.036,2.036,0,0,1-1.031-.28q-0.282-.285-0.282,0a2.361,2.361,0,0,0,1.313,1.59c0.187,0.25.593,0.16,1.219-.28a13.092,13.092,0,0,1,2.437-.94c2.5-.87,4.781-1.72,6.844-2.53,0.124-.19.062-0.25-0.188-0.19-1.375.38-2.781,0.72-4.218,1.03v-3.56c0.687-.06,1.687-0.22,3-0.47,0.562-.18.718-0.37,0.468-0.56a1.656,1.656,0,0,0-.843-0.28,1.567,1.567,0,0,0-.75.28,8.505,8.505,0,0,1-1.407.28h-0.468v-1.97a0.934,0.934,0,0,0,0-.84c-0.126-.12-0.22-0.22-0.282-0.28q1.407-.285,3.375-0.66a29.492,29.492,0,0,0,3.938,7.6,10.1,10.1,0,0,0,4.219,3.75,0.653,0.653,0,0,0,.656-0.19,0.971,0.971,0,0,0-.188-0.94,2.2,2.2,0,0,1-.281-0.75c0.062-.69.249-1.84,0.563-3.47,0.061-.25,0-0.31-0.188-0.19q-0.751,1.785-1.312,2.91a0.671,0.671,0,0,1-.75.09,12.7,12.7,0,0,1-3.282-3.75,25.675,25.675,0,0,1-2.437-5.25,31.152,31.152,0,0,1,4.312-.46c0.625-.07,1.187-0.13,1.688-0.19,0.5-.13.562-0.34,0.187-0.66a4.273,4.273,0,0,0-1.687-.47c-0.188.07-.532,0.19-1.031,0.38-1.251.19-2.5,0.37-3.75,0.56a12.529,12.529,0,0,1-.563-2.06,10.073,10.073,0,0,1-.187-1.78,1.575,1.575,0,0,0-.563-1.41,1.668,1.668,0,0,0-1.031-.28,8.453,8.453,0,0,1-1.125-.09h0Zm5.25,0.84h-0.469c-0.187.06-.187,0.16,0,0.28a6.429,6.429,0,0,1,2.344,2.16,0.786,0.786,0,0,0,.656.18,0.62,0.62,0,0,0,.281-0.56,1.665,1.665,0,0,0-.468-1.22,4.543,4.543,0,0,0-2.344-.84h0Zm-5.719,1.69c-0.187.12-.469,0.28-0.844,0.47a16.947,16.947,0,0,1-3,.65,2.462,2.462,0,0,1-1.125-.28c-0.187-.06-0.25,0-0.187.19a2,2,0,0,0,1.031.75,4.193,4.193,0,0,0,.75.09,22.485,22.485,0,0,0,4.219-.94c0.375-.18.437-0.4,0.187-0.65a1.668,1.668,0,0,0-1.031-.28h0Zm7.5,31.01v1.87a2.158,2.158,0,0,0-.656-0.09c-1.563.25-2.845,0.43-3.844,0.56a4.517,4.517,0,0,1-.844-0.09v-1.69c1.812-.19,3.594-0.38,5.344-0.56h0Zm-1.594-9.66c-0.5,0-.5.13,0,0.37a0.831,0.831,0,0,1,.469.85,6.285,6.285,0,0,1-1.594,2.81,29.812,29.812,0,0,1-4.125.66,2.915,2.915,0,0,1-1.031-.1,5.254,5.254,0,0,1-.75-0.56c-0.25-.31-0.313-0.25-0.187.19a2.167,2.167,0,0,0,1.875,1.4,4.395,4.395,0,0,0,.843-0.18,9.7,9.7,0,0,1,1.782-.38,1.25,1.25,0,0,1,.281.75,4.436,4.436,0,0,1-.281,1.31l-1.125.19a3.889,3.889,0,0,0-1.407-.47c-0.438,0-.531.1-0.281,0.28a1.837,1.837,0,0,1,.75.94,6.615,6.615,0,0,1,.188,1.88c0,1.25-.032,2.47-0.094,3.65a3.47,3.47,0,0,0-.094.85,2.645,2.645,0,0,0,.375,1.31q0.188,0.375.469,0l0.187-.38c1.937-.12,3.718-0.24,5.344-0.37a3.2,3.2,0,0,0,.188.75q0.374,0.555.562,0a2.324,2.324,0,0,0,.188-1.03l0.093-6.19a1.839,1.839,0,0,1,.188-0.84q0.373-.285-0.188-0.75a9.037,9.037,0,0,0-.937-0.66,3.091,3.091,0,0,1-.844.28c-0.813.13-1.75,0.28-2.812,0.47a4.548,4.548,0,0,1,.562-1.22c0.437-.25.5-0.47,0.188-0.65a1.229,1.229,0,0,0-.563-0.29,25.149,25.149,0,0,1,4.969-.37,7.11,7.11,0,0,1,1.125.09q0.655-.27.187-0.75a3.974,3.974,0,0,0-1.5-.47,7.216,7.216,0,0,1-1.218.29,15.994,15.994,0,0,1-2.25.28c0.624-.63,1.249-1.28,1.875-1.97a5.038,5.038,0,0,1,.75-0.47q0.468-.285-0.188-0.75a3.712,3.712,0,0,0-1.969-.75h0Zm-9.187,7.69a0.537,0.537,0,0,0-.844.09c-0.438.25-1.063,0.56-1.875,0.94a1.878,1.878,0,0,1-1.594-.19c-0.313-.25-0.407-0.15-0.281.28,0.5,0.81.906,1.19,1.219,1.13a1.216,1.216,0,0,0,.469-0.28c0.562-.32,1.125-0.6,1.687-0.85,0.249-.12.312-0.06,0.188,0.19l-0.75,1.69a0.507,0.507,0,0,0,.093.75,4.9,4.9,0,0,1,.75.93,0.454,0.454,0,0,1-.187.66,29.687,29.687,0,0,1-2.531,1.69,1.07,1.07,0,0,0-.938.65c0,0.75.156,1.04,0.469,0.85,0.437-.06.937-0.13,1.5-0.19a11.447,11.447,0,0,1,3.094.28q1.5,0.285,7.781,2.25c2,0.56,3.155.88,3.469,0.94a0.746,0.746,0,0,0,.562-0.19l3.656-1.31c0.375-.19.375-0.28,0-0.28q-1.032.09-2.062,0.09a39.712,39.712,0,0,1-9.094-1.22,51.6,51.6,0,0,0-7.406-1.4,1.212,1.212,0,0,0-.656,0c1.312-.75,2.4-1.35,3.281-1.78q1.218-.375,1.031-0.75a1.482,1.482,0,0,0-.469-0.57,15.933,15.933,0,0,0-1.687-.93,0.339,0.339,0,0,1-.188-0.47l1.125-1.41a2.016,2.016,0,0,1,.75-0.37c0.312-.13.125-0.53-0.562-1.22h0Zm10.781,6.65a0.816,0.816,0,0,0-.656-0.09,41.747,41.747,0,0,1-4.688.47v-2.06a1.384,1.384,0,0,0,1.032,0c1.812-.25,3.249-0.41,4.312-0.47v2.15Zm-0.375-7.12a0.328,0.328,0,0,1,.375.37v1.41a2.167,2.167,0,0,0-1.125-.09,31.03,31.03,0,0,1-4.219.56v-1.5q4.313-.75,4.969-0.75h0Zm-6.844-6.38c-0.438-.12-0.5-0.06-0.187.19a6.805,6.805,0,0,1,1.687,1.5,8.4,8.4,0,0,0,.657.94c0.312,0.37.562,0.31,0.75-.19a1.519,1.519,0,0,0-.657-1.5,7.735,7.735,0,0,0-2.25-.94h0Zm-6.093.75c-0.5,0-.532.13-0.094,0.38a3.525,3.525,0,0,1,1.594,1.22,2.283,2.283,0,0,0,1.312,1.03c0.312,0,.469-0.22.469-0.66a2.971,2.971,0,0,0-1.313-1.69c-0.688-.12-1.344-0.21-1.968-0.28h0Zm16.125,29.35c-0.75.25-1.282,0.4-1.594,0.47q-4.22.555-8.438,1.03a2.406,2.406,0,0,1-1.968-.38c-0.251-.12-0.314-0.06-0.188.19a3.022,3.022,0,0,0,1.781,1.22,14.288,14.288,0,0,1,1.5-.38c0.188,0.07.25,0.16,0.188,0.28a7.048,7.048,0,0,1-1.594,2.16c-0.375.38-1.063,1-2.062,1.88-0.188.18-.157,0.28,0.093,0.28a19.016,19.016,0,0,0,3.188-2.25,5.825,5.825,0,0,0,1.781.09,0.385,0.385,0,0,1,.094.28,9.051,9.051,0,0,1-1.406,1.88,15.788,15.788,0,0,1-3,2.43c-0.126.25-.063,0.32,0.187,0.19a19.86,19.86,0,0,0,2.531-1.59c0.625-.5,1.531-1.31,2.719-2.44,0.312-.12.375-0.28,0.188-0.47a2.662,2.662,0,0,1-.375-0.47,17.391,17.391,0,0,0,1.875-.28,0.433,0.433,0,0,1,.281.47,21.755,21.755,0,0,1-6.188,6.47c-0.187.19-.156,0.25,0.094,0.19a43.649,43.649,0,0,0,3.75-2.53,36.589,36.589,0,0,0,3.469-3.66c0.312-.19.375-0.38,0.187-0.56-0.125-.13-0.281-0.28-0.468-0.47,0.811-.13,1.624-0.25,2.437-0.38,0.188,0,.281.16,0.281,0.47a12.032,12.032,0,0,1-1.031,3.28,17.616,17.616,0,0,1-1.594,2.91,0.8,0.8,0,0,1-.937.37,4.585,4.585,0,0,1-1.313-.46c-0.25-.13-0.313-0.07-0.187.18a7.158,7.158,0,0,1,1.406,1.78c0.249,0.32.469,0.38,0.656,0.19a11.333,11.333,0,0,0,1.594-1.97,28.487,28.487,0,0,0,2.438-5.72,7.018,7.018,0,0,1,.375-0.65q0.28-.285-0.094-0.66a3.44,3.44,0,0,0-1.219-.75,5.759,5.759,0,0,1-1.125.38q-2.439.465-6,.84h-0.656c0.312-.37.562-0.66,0.75-0.84a0.4,0.4,0,0,0,.187-0.57,1.952,1.952,0,0,0-.375-0.46q3.375-.375,7.032-0.75a19.235,19.235,0,0,1,2.25-.1c0.375-.06.436-0.28,0.187-0.65a3.183,3.183,0,0,0-1.687-.47h0Zm-3.282-5.72a0.377,0.377,0,0,1,.375.47v1.31a4.843,4.843,0,0,0-1.593.09,28.2,28.2,0,0,1-3.375.47c-0.063-.62-0.126-1.25-0.188-1.87h1.219c1-.13,2.187-0.28,3.562-0.47h0Zm0.375,4.4a2.356,2.356,0,0,0-.75-0.28c-0.25.07-.594,0.16-1.031,0.28-1,.13-2.032.25-3.094,0.38a13.524,13.524,0,0,0-.093-1.78,46.59,46.59,0,0,1,4.968-.56v1.96Zm-0.093-5.43c-0.188.12-.375,0.25-0.563,0.37-1.188.19-2.594,0.38-4.219,0.56h-0.656a5.6,5.6,0,0,0-1.219-.37c-0.125,0-.156.06-0.093,0.19a2.1,2.1,0,0,1,.75,1.12c0.124,1.31.249,2.85,0.375,4.6a0.515,0.515,0,0,0,.562.46,0.974,0.974,0,0,0,.375-0.46c1.187-.13,2.531-0.29,4.031-0.47h0.657a0.7,0.7,0,0,0,.562.65,0.875,0.875,0,0,0,.563-0.65c0.061-1.32.124-2.63,0.187-3.94a6.532,6.532,0,0,1,.188-0.75q0.28-.465,0-0.66a4.734,4.734,0,0,0-1.5-.65h0Zm-12.188,1.31c-0.187.06-.187,0.16,0,0.28a2.175,2.175,0,0,1,.656,1.59v3.29a11.546,11.546,0,0,1-2.156.37,3.512,3.512,0,0,1-1.125-.28c-0.187-.06-0.219.03-0.094,0.28a7.414,7.414,0,0,0,1.594,1.03,2.112,2.112,0,0,0,.563-0.28,7.7,7.7,0,0,1,1.125-.28l0.093,4.22c-0.813.37-1.625,0.72-2.437,1.03a1.28,1.28,0,0,1-.844.09,3.763,3.763,0,0,1-.469-0.18q-0.469-.195-0.187.18a3.039,3.039,0,0,0,1.594,1.22,8.061,8.061,0,0,0,1.031-.65q2.155-1.41,4.875-3.1c0.124-.19.062-0.25-0.188-0.19-0.688.32-1.5,0.69-2.437,1.13l0.094-4.03c0.687-.13,1.312-0.25,1.875-0.38a3.236,3.236,0,0,0,.75-0.18q0.468-.195,0-0.57a1.682,1.682,0,0,0-1.125-.28,4.391,4.391,0,0,1-1.5.56v-1.96a3.228,3.228,0,0,1,.187-1.32,0.408,0.408,0,0,0,.094-0.65,2.564,2.564,0,0,0-1.969-.94h0Zm-17.187-48.84a3.5,3.5,0,0,0-1.125.28c-1.563.12-3,.28-4.313,0.47a42.636,42.636,0,0,1-5.062.65,3.718,3.718,0,0,1-1.688-.37c-0.25-.13-0.313-0.06-0.187.18a2.752,2.752,0,0,0,2.437,1.22,21.1,21.1,0,0,1,3.188-.65,1.17,1.17,0,0,1,0,.65,33.93,33.93,0,0,1-3.188,4.41,8.085,8.085,0,0,1-1.031.09c-0.188-.06-0.251,0-0.188.19a4.968,4.968,0,0,0,.469.75c0.249,0.31.469,0.41,0.656,0.28a19.912,19.912,0,0,1,3.75-1.12,1.825,1.825,0,0,1,.938,1.68v2.25a30,30,0,0,1-3.094.29,4.326,4.326,0,0,1-1.125-.1,3.322,3.322,0,0,1-.844-0.37c-0.25-.13-0.313-0.06-0.187.18a4.01,4.01,0,0,0,1.781,1.41,1.363,1.363,0,0,0,.563-0.09c0.562-.13,1.53-0.28,2.906-0.47v3.84c-4.063.56-6.281,0.85-6.656,0.85a4.375,4.375,0,0,1-1.688-.47c-0.25-.06-0.313.03-0.187,0.28a4.855,4.855,0,0,0,2.343,1.22,3.924,3.924,0,0,0,1.032-.28q3.375-.57,4.312-0.66a37.158,37.158,0,0,1,3.844-.19c1.812,0,3.031.03,3.656,0.1,0.563,0.06,1.5.18,2.813,0.37,0.312-.12.4-0.28,0.281-0.47a2.838,2.838,0,0,0-1.875-1.12q-0.47.09-1.031,0.18c-1.938.07-3.876,0.1-5.813,0.1l0.094-3.94a9.273,9.273,0,0,1,2.062-.28q1.218-.09,2.344-0.09c0.563,0,.844-0.13.844-0.38a0.392,0.392,0,0,0-.375-0.37,5.712,5.712,0,0,0-1.781-.38,7.7,7.7,0,0,0-1.125.28c-0.563.13-1.219,0.25-1.969,0.38a7.936,7.936,0,0,1,.187-2.25q0.375-.48.094-0.75a5.2,5.2,0,0,0-1.781-.94c1.749-.38,3.53-0.78,5.344-1.22a14.532,14.532,0,0,1,1.125,1.78,0.491,0.491,0,0,0,.375.28q0.468,0,.468-0.93a3.305,3.305,0,0,0-.656-1.69,21.664,21.664,0,0,0-3-1.78c-0.25-.13-0.313-0.06-0.187.18,0.5,0.51,1,1.07,1.5,1.69q-5.157,1.035-8.438,1.6,1.688-1.605,3.75-3.85c0.312-.12.375-0.28,0.188-0.47a6.2,6.2,0,0,0-.938-0.75,26.953,26.953,0,0,1,4.219-.47,21.963,21.963,0,0,1,2.812,0c0.812,0.07,1.156-.15,1.032-0.65a3.332,3.332,0,0,0-1.875-.56h0Zm-3.938,23.62c-0.25,0-.281.09-0.094,0.28a2.516,2.516,0,0,1,1.219,1.69l0.75,3.56-2.906.75-0.938.19a2,2,0,0,1-1.218-.28c-0.251-.06-0.345.03-0.282,0.28a2.723,2.723,0,0,1,.844.84,12.377,12.377,0,0,1,.281,2.91,19.564,19.564,0,0,1-.281,3.56,22.51,22.51,0,0,1-.937,3.28c0,0.25.093,0.32,0.281,0.19a27.454,27.454,0,0,0,1.312-3.56,22.907,22.907,0,0,0,.563-2.81q1.03-.285,2.062-0.66a0.258,0.258,0,0,1,.375.28,16.829,16.829,0,0,1-1.031,4.59,0.793,0.793,0,0,1-.75.29l-0.844-.19c-0.25,0-.281.09-0.093,0.28a2.2,2.2,0,0,1,1.218,1.5c0.125,0.25.282,0.28,0.469,0.09a10.12,10.12,0,0,0,1.219-2.72,26.39,26.39,0,0,0,.844-3.84,0.687,0.687,0,0,0,.093-0.56,5.806,5.806,0,0,0-1.312-.66c-0.375.19-.656,0.35-0.844,0.47a5.58,5.58,0,0,1-1.406.47v-2.44c-0.063-.12-0.188-0.34-0.375-0.65h0.375l3.375-.85a31.453,31.453,0,0,0,1.031,3.85q0.282,0.75,1.219,3c-0.563.93-1,1.62-1.313,2.06a13.037,13.037,0,0,1-1.5,1.97c-0.125.25-.063,0.31,0.188,0.18a18.864,18.864,0,0,0,3.094-3.37,18.515,18.515,0,0,0,2.25,3.19,10.876,10.876,0,0,0,1.781,1.4c0.5,0.06.75-.06,0.75-0.37a8.53,8.53,0,0,0-.375-1.22v-0.56l0.375-3.28c0-.25-0.094-0.29-0.281-0.1l-0.844,2.72a0.619,0.619,0,0,1-.563.47,9.24,9.24,0,0,1-1.125-1.13,17.452,17.452,0,0,1-1.5-2.06,24.357,24.357,0,0,0,1.688-4.22c0.437-.25.562-0.47,0.375-0.65a2.584,2.584,0,0,0-1.969-1.22c-0.25,0-.281.09-0.094,0.28a1.236,1.236,0,0,1,.657.84,7.646,7.646,0,0,1-.282,1.69,17.731,17.731,0,0,1-.843,2.34,18.172,18.172,0,0,1-1.032-2.71,32.508,32.508,0,0,1-.843-3.38q1.217-.285,3.843-0.66a1.215,1.215,0,0,0,1.032-.37,2.208,2.208,0,0,0-1.875-.56,12.484,12.484,0,0,1-3.188.93,25.041,25.041,0,0,1-.281-2.9,2.444,2.444,0,0,1,.094-0.75,0.611,0.611,0,0,0-.282-0.66,3.271,3.271,0,0,0-2.156-1.03h0Zm4.125,0.84c-0.313-.06-0.407,0-0.281.19a15.164,15.164,0,0,1,2.531,2.25c0.5,0.38.718,0.22,0.656-.47a2.6,2.6,0,0,0-.656-1.31q-1.314-.375-2.25-0.66h0Zm-8.906,12.29a2.23,2.23,0,0,0-.75.18,15.661,15.661,0,0,1-3.281.75,2.858,2.858,0,0,0-1.125-.37c-0.314-.06-0.407,0-0.282.19a2,2,0,0,1,.657.93l0.656,2.35a1.079,1.079,0,0,0,.375.93q0.468,0.285.562-.09l0.094-.37a14.466,14.466,0,0,1,1.969-.38h0.187a1.294,1.294,0,0,1,.75.19c0.188,0.12.343,0.06,0.469-.19l0.094-.28,0.562-2.53a0.59,0.59,0,0,0,.282-0.56,3.193,3.193,0,0,0-1.219-.75h0Zm-0.563.84a0.509,0.509,0,0,1,.282.19l-0.188,2.25c-0.813.12-1.75,0.31-2.812,0.56l-0.469-2.25q1.688-.375,3.187-0.75h0Zm-0.656-6.19a1.287,1.287,0,0,0-.937.19,8.251,8.251,0,0,1-2.438.37c-0.25,0-.281.1-0.094,0.29a3.836,3.836,0,0,0,1.219.46c0.437-.06,1.468-0.24,3.094-0.56,0.249-.12.281-0.25,0.094-0.37a4.609,4.609,0,0,0-.938-0.38h0Zm0.563,2.53a1.4,1.4,0,0,0-.938.19,15.062,15.062,0,0,1-1.594.47,9.13,9.13,0,0,1-1.406.09c-0.25,0-.281.1-0.094,0.28a3.7,3.7,0,0,0,1.219.47q0.656-.09,3.656-0.75c0.25-.12.282-0.25,0.094-0.37a5.273,5.273,0,0,0-.937-0.38h0Zm0.375-5.53-0.469.19-3.75.84a1.346,1.346,0,0,1-.75,0,1.726,1.726,0,0,1-.938-0.65c-0.187-.13-0.25-0.06-0.187.18a2.019,2.019,0,0,0,.375.75,3.813,3.813,0,0,0,1.031.85,0.348,0.348,0,0,0,.469,0,7.555,7.555,0,0,1,2.25-.75,10.159,10.159,0,0,1,1.781-.28,6.788,6.788,0,0,0,1.594-.1,0.317,0.317,0,0,0,.281-0.28,0.848,0.848,0,0,0-.562-0.56,2.538,2.538,0,0,0-1.125-.19h0Zm-3.75-3.09c-0.251-.06-0.314,0-0.188.19a8.247,8.247,0,0,0,1.875,1.12c0.312,0.13.844,0.31,1.594,0.56a0.619,0.619,0,0,0,.75-0.28,0.468,0.468,0,0,0,0-.56,2.263,2.263,0,0,0-1.406-.56,23.424,23.424,0,0,1-2.625-.47h0Zm11.437,22.28h-0.375c-0.313.06-.344,0.19-0.094,0.37a1.4,1.4,0,0,1,1.032,1.41v1.69c-1.251.19-2.407,0.37-3.469,0.56a6.952,6.952,0,0,0-.844-1.03c-0.313-.13-0.407-0.06-0.281.19a4.539,4.539,0,0,1,.469,1.22,2.354,2.354,0,0,1-.188,1.03,4.968,4.968,0,0,1-.469.75,2.544,2.544,0,0,0,.282,1.31,0.562,0.562,0,0,0,.75-0.28,5.582,5.582,0,0,0,.375-2.53,37.822,37.822,0,0,1,7.781-.94c0.312-.06.375,0.06,0.187,0.37l-1.312,1.5c-0.063.19,0,.29,0.187,0.29a6.812,6.812,0,0,1,1.875-1.22,2.212,2.212,0,0,1,.844-0.19,0.368,0.368,0,0,0,.375-0.47,2.874,2.874,0,0,0-1.219-1.12,0.717,0.717,0,0,0-.656.18c-1.188.07-2.376,0.13-3.562,0.19v-0.66a2.341,2.341,0,0,1,.187-1.03,0.4,0.4,0,0,0,.094-0.56,3.516,3.516,0,0,0-1.969-1.03h0Zm4.594,7.03a6.882,6.882,0,0,0-1.313-.84,0.365,0.365,0,0,0-.562.18l-3.375.66a2.708,2.708,0,0,0-1.5-.56c-0.251,0-.281.09-0.094,0.28a1.813,1.813,0,0,1,.75,1.12,5.954,5.954,0,0,1,.094,1.13v4.03c0,0.94-.032,1.75-0.094,2.44a9.451,9.451,0,0,1-.281,1.5,8.328,8.328,0,0,0,.375,1.59c0.187,0.5.406,0.53,0.656,0.1l0.188-.66c0.874-.06,2.218-0.16,4.031-0.28a7.11,7.11,0,0,1,1.125.09c0.375,0,.5-0.15.375-0.47l-0.375-.37a11.061,11.061,0,0,1,.656-2.25c0.249-.19.312-0.38,0.188-0.56a3.733,3.733,0,0,0-1.407-1.04,0.43,0.43,0,0,0-.468.19c-0.563.06-1.032,0.13-1.407,0.19-0.75.12-1.656,0.25-2.718,0.37v-2.71a33.131,33.131,0,0,1,3.656-.38,0.585,0.585,0,0,0,.75-0.56,19.217,19.217,0,0,1,.562-2.25c0.375-.5.437-0.81,0.188-0.94h0Zm-1.219,7.03c0.437-.06.656,0.06,0.656,0.38a20.586,20.586,0,0,1-.375,2.43c-1.875.25-3.281,0.41-4.218,0.47v-2.81Zm-3.937-6.28,3.281-.66c0.312,0,.469.1,0.469,0.29-0.063.87-.126,1.71-0.188,2.53-0.876.12-2.062,0.31-3.562,0.56v-2.72Zm-8.719-3.75c-0.251,0-.281.09-0.094,0.28a1.609,1.609,0,0,1,.75.66,8.24,8.24,0,0,1,.094,1.69,13.987,13.987,0,0,1-1.781.28,3.66,3.66,0,0,0-1.313-.47c-0.187.06-.219,0.15-0.094,0.28,0.5,0.19.75,0.78,0.75,1.78v1.5l-0.281,5.25a5.874,5.874,0,0,1-.187,1.41,4.635,4.635,0,0,0,.468,1.4,0.876,0.876,0,0,0,.469.57,0.611,0.611,0,0,0,.375-0.47c0.312-.25.781-0.6,1.406-1.03,0.563-.38,1.407-0.97,2.532-1.79a6.26,6.26,0,0,1,.468,1.5,0.849,0.849,0,0,0,.657.66,0.8,0.8,0,0,0,.468-0.75,3,3,0,0,0-.375-1.59,8.322,8.322,0,0,0-2.625-1.88c-0.313-.12-0.407-0.06-0.281.19a6.466,6.466,0,0,1,1.406,1.5,16.247,16.247,0,0,1-3.937,1.97v-1.13l0.187-3.37c0.875-.13,1.969-0.28,3.282-0.47h0.562c0.125,0.31.281,0.41,0.469,0.28a1.615,1.615,0,0,0,.375-1.41,14.672,14.672,0,0,1,.469-3.28c0.312-.43.343-0.75,0.093-0.93a4.965,4.965,0,0,0-1.125-.66,2.455,2.455,0,0,0-.562.28c-0.375.06-.719,0.13-1.031,0.19a2.018,2.018,0,0,1,.187-1.22,0.549,0.549,0,0,0,.094-0.66,1.884,1.884,0,0,0-1.031-.56h-0.844Zm2.906,5.44-0.094,1.69a19.607,19.607,0,0,1-3.656.56l0.094-1.78Zm-0.281-2.44c0.249,0,.375.09,0.375,0.28v1.31l-3.656.66,0.093-1.31-0.187-.47a6.411,6.411,0,0,0,1.406-.19,12.6,12.6,0,0,1,1.969-.28h0Zm-2.625-7.31c-0.313-.13-0.407-0.06-0.281.19a0.687,0.687,0,0,1,.562.75,8.317,8.317,0,0,1-1.406,2.53,22.473,22.473,0,0,1-3.281,3.65c-0.126.25-.032,0.32,0.281,0.19a32.275,32.275,0,0,0,2.531-2.16c0.5-.5,1.5-1.68,3-3.56a8.808,8.808,0,0,1,1.219.94q0.373,0.375,1.219,1.41a0.646,0.646,0,0,0,.656.18,0.48,0.48,0,0,0,.187-0.47,2.659,2.659,0,0,0-.843-1.4c-0.5-.25-1.251-0.56-2.25-0.94a1.489,1.489,0,0,0-.563-0.75,3.217,3.217,0,0,0-1.031-.56h0Z" transform="translate(-556.406 -1850.28)"/>
</svg>
