<svg id="sukeikai_ttl" xmlns="http://www.w3.org/2000/svg" width="48.75" height="87.28" viewBox="0 0 48.75 87.28">
  <defs>
    <style>
      .cls-1 {
        fill: #100d0d;
        fill-rule: evenodd;
      }
    </style>
  </defs>
  <path id="明治神宮_崇敬会" data-name="明治神宮 崇敬会" class="cls-1" d="M820.6,2054.32a3.457,3.457,0,0,1-.844.28c-1.687.37-3.219,0.66-4.593,0.84a4.841,4.841,0,0,0-1.5-.47c-0.314-.06-0.375,0-0.188.19a1.737,1.737,0,0,1,.844,1.13c0.061,0.44.094,1.62,0.094,3.56a23.45,23.45,0,0,1-.844,6.84,15.51,15.51,0,0,1-3.094,5.35q-0.189.375,0.188,0.18a16.141,16.141,0,0,0,2.718-3.09,13.729,13.729,0,0,0,1.782-4.59q1.874-.09,5.531-0.57,0.091,3.285.094,6.47c0,0.32-.188.41-0.563,0.28-0.75-.18-1.532-0.4-2.344-0.65-0.25-.13-0.313-0.06-0.187.19,0.811,0.5,1.594.97,2.344,1.4a1.818,1.818,0,0,1,.656.85q0.186,0.555.562,0.18a11.393,11.393,0,0,0,.844-1.5,6.487,6.487,0,0,1-.187-1.59q-0.282-6-.094-12.84a1.519,1.519,0,0,1,.281-0.94,0.3,0.3,0,0,0,0-.56,9.54,9.54,0,0,0-1.5-.94h0Zm0.094,5.34v3.47q-2.064.375-5.438,0.66a28.079,28.079,0,0,0,.188-3.28,27.245,27.245,0,0,1,5.25-.85h0Zm-0.469-4.31a0.38,0.38,0,0,1,.469.37v3.19a2.163,2.163,0,0,0-.656-0.09c-0.314.06-.844,0.19-1.594,0.37-0.938.19-1.938,0.35-3,.47v-3.56h0.562q2.155-.375,4.219-0.75h0Zm-9.844,5.34v3.38h-0.468q-1.6.375-3.282,0.75c0-1.19-.032-2.38-0.093-3.56a1.029,1.029,0,0,0,.843,0q1.125-.285,3-0.57h0Zm-0.093-5.06a4.174,4.174,0,0,1-.75.38c-1.064.25-2.157,0.46-3.282,0.65a5.341,5.341,0,0,0-1.031-.47c-0.25-.12-0.313-0.06-0.187.19a1.169,1.169,0,0,1,.375.66,4.482,4.482,0,0,1,.187,1.4q0.093,3.105,0,6.66,0,1.59.656,1.59c0.312-.06.437-0.47,0.375-1.22,1.187-.24,2.375-0.46,3.563-0.65a3.555,3.555,0,0,0,.562.37,0.4,0.4,0,0,0,.563-0.09,3,3,0,0,0,.094-1.31q-0.094-6.375.281-6.75a0.419,0.419,0,0,0-.094-0.66,5.181,5.181,0,0,0-1.312-.75h0Zm-0.375.94a0.375,0.375,0,0,1,.468.37v3q-1.876.375-3.843,0.75v-3.37a28.756,28.756,0,0,1,3.375-.75h0Zm-1.125,30.59a64.06,64.06,0,0,1-3.469,5.53,0.537,0.537,0,0,1-.844-0.09c-0.375-.31-0.5-0.25-0.375.19a4.166,4.166,0,0,0,1.5,1.87c0.437,0.38.687,0.28,0.75-.28a4.22,4.22,0,0,1,.375-1.4c0.812-1.82,1.562-3.69,2.25-5.63,0.062-.31,0-0.37-0.187-0.19h0Zm7.031-10.12c-0.438-.06-0.469.09-0.094,0.47a0.911,0.911,0,0,1,.281,1.12,44.507,44.507,0,0,1-3.375,5.72c-0.187.06-.407,0.13-0.656,0.19-0.25,0-.281.47-0.094,1.4q0.188,0.375.75,0a4.758,4.758,0,0,1,1.313-.56,39.368,39.368,0,0,1,7.594-1.5c0.187,0.38.375,0.75,0.562,1.13,0.5,0.62.875,0.56,1.125-.19a4.315,4.315,0,0,0-.844-1.88,19.242,19.242,0,0,0-2.625-2.06c-0.187-.12-0.25-0.09-0.187.1a16.713,16.713,0,0,1,1.594,2.25,60.952,60.952,0,0,0-7.782,1.21c1.374-1.74,2.687-3.53,3.938-5.34a3,3,0,0,1,.469-0.37q0.281-.2-0.094-0.66a5.681,5.681,0,0,0-1.875-1.03h0Zm4.687,11.9c0.375,0,.563.13,0.563,0.38l-0.469,3.66a39.448,39.448,0,0,0-6.375.37,14.791,14.791,0,0,0-.281-3.66,51.672,51.672,0,0,1,6.562-.75h0Zm0.938-1.03c-0.126.07-.314,0.16-0.563,0.28q-3.75.285-7.125,0.75c-0.438-.18-0.843-0.34-1.218-0.46-0.314-.13-0.408-0.04-0.282.28a4.153,4.153,0,0,1,.75,1.59,10.684,10.684,0,0,1,.188,3.38,2.035,2.035,0,0,0,.375.84,0.365,0.365,0,0,0,.656-0.09,0.747,0.747,0,0,0,.094-0.29,28.752,28.752,0,0,1,6.094-.46,0.372,0.372,0,0,0,.375.46,0.708,0.708,0,0,0,.843-0.65l0.75-3.47a0.916,0.916,0,0,1,.375-0.47q0.374-.285,0-0.75a4.484,4.484,0,0,0-1.312-.94h0Zm-14.719-10.59c-0.375-.13-0.469-0.03-0.281.28a12.6,12.6,0,0,0,1.781,2.06,2.153,2.153,0,0,0,1.125.66c0.249,0,.375-0.19.375-0.56a1.94,1.94,0,0,0-.562-1.22,5,5,0,0,1-2.438-1.22h0Zm-1.687,5.06c-0.375-.25-0.469-0.19-0.282.19a7.261,7.261,0,0,0,1.782,1.87,1.552,1.552,0,0,0,1.125.29c0.5-.38.312-0.91-0.563-1.6a4.336,4.336,0,0,1-2.062-.75h0Zm12.093,21.81v2.34l-2.343.38h-0.657q-0.189-1.965-.187-2.34Zm-1.031-4.97c-0.25.06-.25,0.16,0,0.28a5.128,5.128,0,0,1,.75.57,0.893,0.893,0,0,1,.188.65v2.81l-3.375.38a2.272,2.272,0,0,0-1.313-.47c-0.25,0-.313.09-0.187,0.28a1.106,1.106,0,0,1,.656.75c0.187,2.19.281,3.78,0.281,4.78a2.7,2.7,0,0,0,.844,2.25,0.7,0.7,0,0,0,.562-0.65l2.625-.28v6.93a1.01,1.01,0,0,0,.469.94c0.249,0,.406-0.34.469-1.03v-1.97c0-1.19.031-2.87,0.094-5.06,0.874-.06,1.687-0.1,2.437-0.1a1.286,1.286,0,0,0,.75.66,0.748,0.748,0,0,0,.563-0.47c0.061-.37.187-1.09,0.375-2.15q0.281-1.7.562-3.75a0.547,0.547,0,0,1,.188-0.38c0.312-.12.187-0.44-0.375-0.94a3.083,3.083,0,0,0-.75-0.56,0.521,0.521,0,0,0-.375.19l-3.282.47v-2.44a1.05,1.05,0,0,1,.094-0.47c0.249-.31.125-0.62-0.375-0.94a2.667,2.667,0,0,0-1.875-.28h0Zm5.063,4.5a0.335,0.335,0,0,1,.375.38l-0.094,2.15a1.778,1.778,0,0,0-1.031-.37,8.857,8.857,0,0,1-2.157.47V2104Zm-1.313,3.19h1.5c-0.063.75-.126,1.59-0.187,2.53a2.161,2.161,0,0,1-.657-0.09l-0.468.18-1.875.19,0.093-2.62Zm-2.719.37v2.63l-2.718.28-0.188-2.62h0.563Zm-6.937-3.56c-0.251-.06-0.375,0-0.375.19a4.618,4.618,0,0,1-1.219.47c-1.125.25-2.188,0.44-3.187,0.56a1.1,1.1,0,0,1-.938-0.37q-0.28-.2-0.281.09a1.118,1.118,0,0,0,.281.56,2.361,2.361,0,0,0,1.219.75c1-.37,2.187-0.78,3.562-1.22a0.262,0.262,0,0,1,.282.38,31.806,31.806,0,0,1-2.719,4.22,18.173,18.173,0,0,1-3.094,3.09c-0.126.19-.063,0.25,0.188,0.19a19.744,19.744,0,0,0,1.875-1.5q0.563-.465,2.25-2.16l0.187,0.19v2.72a19.5,19.5,0,0,1-.187,2.9c-0.063.38-.126,0.72-0.188,1.04a5.162,5.162,0,0,0,.656,1.96q0.374,0.375.563-.18a8.3,8.3,0,0,0,.094-1.32v-7.96c0.187-.13.124-0.29-0.188-0.47a29.01,29.01,0,0,0,1.969-2.72,0.79,0.79,0,0,0,.469-0.47c-0.251-.19-0.657-0.5-1.219-0.94h0Zm-2.813-4.4c-0.187-.13-0.25-0.07-0.187.18a6.4,6.4,0,0,0,2.625,2.72q0.843,0.285.656-.84a1.106,1.106,0,0,0-.656-0.75,10.239,10.239,0,0,1-2.438-1.31h0Zm2.625,8.62c-0.187-.06-0.25,0-0.187.19,0.75,1,1.374,1.84,1.875,2.53a0.6,0.6,0,0,0,.656.28c0.188-.06.249-0.28,0.188-0.66a2.891,2.891,0,0,0-.469-1.12,1.846,1.846,0,0,0-.75-0.56,4.486,4.486,0,0,1-1.313-.66h0Zm2.532,13.84c-0.251,0-.282.09-0.094,0.28a1.284,1.284,0,0,1,.75.94v1.59l-4.688.47H807.1l-0.281-.94c-0.188-.18-0.281-0.15-0.281.1a7.175,7.175,0,0,1-.094,1.31,4.321,4.321,0,0,1-1.219,1.78,1.764,1.764,0,0,0,.375,1.5,0.636,0.636,0,0,0,.844-0.47,4.5,4.5,0,0,0,.75-2.53h1.031c1.875-.19,3.718-0.4,5.531-0.65q3-.285,6.657-0.29,0.749,0.105.281,0.57l-1.125,1.68c-0.126.26-.063,0.32,0.187,0.19l1.875-1.22a1.667,1.667,0,0,1,1.125-.18,0.262,0.262,0,0,0,.282-0.38,3.665,3.665,0,0,0-1.594-1.69h-0.375q-2.626.285-6.75,0.66v-1.03a0.557,0.557,0,0,1,.281-0.47q0.282-.18-0.187-0.66a3.332,3.332,0,0,0-1.875-.56h0Zm4.593,5.34a7.943,7.943,0,0,0-1.593.47c-1.5.19-2.5,0.32-3,.38s-1.158.12-1.969,0.19a5.807,5.807,0,0,0-1.125-.38c-0.251-.12-0.314-0.06-0.188.19a3.523,3.523,0,0,1,.657,1.12l0.281,2.53a1.466,1.466,0,0,0,.562.94c0.188,0.13.343,0.03,0.469-.28l1.031-.09a1.1,1.1,0,0,1,.282.84,13.752,13.752,0,0,1-.563,1.97l-2.531.19a2.8,2.8,0,0,0-1.406-.38c-0.251,0-.251.1,0,0.28a1.68,1.68,0,0,1,.75,1.03l0.656,4.04c0.249,0.5.5,0.62,0.75,0.37a1.217,1.217,0,0,0,.281-0.47c1.562-.25,2.687-0.4,3.375-0.47q0.936-.09,2.25-0.09a6.531,6.531,0,0,1,1.125.19,0.467,0.467,0,0,0,.469-0.1,1.3,1.3,0,0,0,.094-0.56l1.031-2.81a1,1,0,0,1,.469-0.38c0.249-.18.187-0.47-0.188-0.84a4.083,4.083,0,0,0-1.031-.75,7.687,7.687,0,0,0-1.5.19l-4.031.47a18.684,18.684,0,0,0,1.031-1.69c0.187-.19.343-0.34,0.469-0.47a0.241,0.241,0,0,0,0-.38,2.53,2.53,0,0,0-.563-0.37l2.063-.47a1.389,1.389,0,0,0,.75.38,0.389,0.389,0,0,0,.375-0.19,3.157,3.157,0,0,0,.187-0.56c0.375-.82.718-1.63,1.031-2.44a1.069,1.069,0,0,1,.375-0.38c0.188-.12.062-0.34-0.375-0.65a3.123,3.123,0,0,0-.75-0.57h0Zm0,7.97c0.375,0,.531.13,0.469,0.38l-0.656,3.28-0.75-.09c-2,.25-3.97.46-5.906,0.65l-0.563-3.37q2.624-.2,7.406-0.85h0Zm-0.75-7.03c0.249,0,.343.16,0.282,0.47a19.9,19.9,0,0,1-.657,2.34,1.47,1.47,0,0,1-.562-0.18,5.6,5.6,0,0,1-.656.28,20.813,20.813,0,0,1-3.563.56l-0.469-2.72,1.125-.09,3.75-.56Zm-27.031-63.24-0.656.28q-6.844.66-9,.84a2.333,2.333,0,0,1-1.688-.47c-0.187-.06-0.25,0-0.187.19a2.966,2.966,0,0,0,1.219,1.13,1.186,1.186,0,0,0,.656.18,9.242,9.242,0,0,1,1.125-.28c0.811-.12,1.843-0.25,3.094-0.37a3.349,3.349,0,0,1,.281.94,22.961,22.961,0,0,1,.094,2.71c0,0.75-.126,1.1-0.375,1.04l-1.875-.38c-0.251-.06-0.314,0-0.188.19l1.406,0.84,0.469,0.56a1.12,1.12,0,0,0,.656.75h0.188a1.376,1.376,0,0,0,.656-1.21c-0.063-.63-0.094-1.44-0.094-2.44,0-.94.031-1.75,0.094-2.44a4.8,4.8,0,0,1-.75-0.66q2.905-.18,6.375-0.09,0.845,0,.281-0.66a3.892,3.892,0,0,0-1.781-.65h0Zm-1.125,2.81c-0.25-.06-0.313,0-0.187.19a6.775,6.775,0,0,1,1.5,1.4c0.249,0.38.687,1.04,1.312,1.97l0.469,0.38c0.436,0.12.656-.16,0.656-0.85a2.2,2.2,0,0,0-.75-1.5,9.161,9.161,0,0,0-3-1.59h0Zm-4.875-14.25c-0.25,0-.281.09-0.094,0.28a2.627,2.627,0,0,1,.75.66v2.25q-2.907.375-5.062,0.75a10.41,10.41,0,0,1,.281-1.88,0.6,0.6,0,0,0-.469-0.47,3.145,3.145,0,0,0-1.125-.18c-0.25,0-.313.09-0.187,0.28a0.874,0.874,0,0,1,.656.75v0.56a2.34,2.34,0,0,1-.187,1.03c-0.063.75,0.218,1.13,0.843,1.13a19.013,19.013,0,0,1,4.594-1.22,38.329,38.329,0,0,1,6.938-.47c0,0.44.124,0.66,0.375,0.66a0.625,0.625,0,0,0,.375-0.29q0.281-.555.75-1.68a1.429,1.429,0,0,1,.281-0.38c0.187-.19.061-0.47-0.375-0.84a2.677,2.677,0,0,0-1.406-.66c-0.251-.06-0.282.03-0.094,0.28a1.639,1.639,0,0,1,.562.66,3.407,3.407,0,0,1-.187,1.59h-2.625c-0.626,0-1.594.07-2.906,0.19v-1.69a0.655,0.655,0,0,1,.187-0.47q0.374-.36-0.75-0.75a6.067,6.067,0,0,0-1.125-.09h0Zm0,4.69c-0.313,0-.344.09-0.094,0.28a5.377,5.377,0,0,1,.563.47,6.317,6.317,0,0,1,.094,1.31c-2.625.31-4.845,0.6-6.657,0.84a2.372,2.372,0,0,0-.937-0.65c-0.188-.06-0.251,0-0.188.19a1.727,1.727,0,0,1,.375,1.12,3.924,3.924,0,0,1-.375,1.59,1.7,1.7,0,0,0,.094.94,0.543,0.543,0,0,0,.375.38,1.156,1.156,0,0,0,.656-1.03,11.849,11.849,0,0,0,.188-1.88h0.75c2.5-.37,5-0.69,7.5-0.94s4.249-.37,5.25-0.37a2.721,2.721,0,0,1,1.125.09v0.19l-0.938,1.5c-0.063.19,0,.25,0.188,0.19a4.872,4.872,0,0,1,1.406-.94,5.665,5.665,0,0,1,1.313-.09c0.249-.13.312-0.25,0.187-0.38a4.2,4.2,0,0,0-1.781-1.5,0.649,0.649,0,0,0-.75.19q-1.125,0-2.813.09c-1.375.13-2.688,0.25-3.937,0.38a2.623,2.623,0,0,1,.187-1.13,0.386,0.386,0,0,0-.281-0.47,2.668,2.668,0,0,0-1.5-.37h0Zm3.656,4.03-0.375.28c-1.563.25-3,.44-4.312,0.56a1.9,1.9,0,0,1-1.688-.28c-0.187-.06-0.25,0-0.187.19a2.044,2.044,0,0,0,1.687.84q1.03,0,3.282-.18,3-.2,3.093-0.57c0.125-.18.031-0.37-0.281-0.56a3.069,3.069,0,0,0-1.219-.28h0Zm-7.406,5.72c-0.187-.06-0.25,0-0.187.19a0.665,0.665,0,0,1,.375.65,16.757,16.757,0,0,1-3.844,2.91c-0.126.12-.063,0.19,0.187,0.19a15.732,15.732,0,0,0,4.594-2.44c0.5-.13.656-0.28,0.469-0.47a4.655,4.655,0,0,0-1.594-1.03h0Zm10.313,15.5c-0.375-.06-0.438.04-0.188,0.29a1.8,1.8,0,0,1,.563.65,1.943,1.943,0,0,1,0,.85,10.692,10.692,0,0,1-.938,3q-2.157-2.625-3.094-2.82c-0.25,0-.281.1-0.093,0.28a1.813,1.813,0,0,1,.937.66c0.75,0.94,1.374,1.78,1.875,2.53a13.788,13.788,0,0,1-2.062,3.19,10.61,10.61,0,0,1-2.719,2.44q-0.376.375,0.281,0.18a12.362,12.362,0,0,0,5.063-4.96q1.406,2.055,3.281,4.31a0.508,0.508,0,0,0,.562.28h2.344c0.5-.06.469-0.19-0.094-0.38a18.791,18.791,0,0,1-5.625-4.87,22.371,22.371,0,0,0,1.407-3.94c0.375-.19.436-0.4,0.187-0.65a4.992,4.992,0,0,0-1.687-1.04h0Zm-2.25-5.71c-0.126,0-.157.06-0.094,0.18a1,1,0,0,1,.469.66,15.942,15.942,0,0,1-.657,2.72,26.275,26.275,0,0,1-1.875,4.03c0,0.13.062,0.16,0.188,0.09,0.5-.62,1-1.28,1.5-1.97a3.04,3.04,0,0,0,1.125,0,38.28,38.28,0,0,0,5.531-1.21c0.375-.19.375-0.35,0-0.47a2.868,2.868,0,0,0-1.312-.28,2.112,2.112,0,0,0-.563.28,12.951,12.951,0,0,1-3,.93,8.3,8.3,0,0,1-1.312.1,14.912,14.912,0,0,0,1.312-3,1.188,1.188,0,0,1,.469-0.56c0.249-.25.155-0.53-0.281-0.85a5.442,5.442,0,0,0-1.5-.65h0Zm-6.469,9.56c0.249,0,.343.09,0.281,0.28l-0.281,1.97-2.438.37-0.093-2.15Zm-3.656-.75c-0.251-.13-0.314-0.06-0.188.19a4.968,4.968,0,0,1,.469.75,9.273,9.273,0,0,1,0,2.62,1.822,1.822,0,0,0,.281.94c0.188,0.44.375,0.5,0.563,0.19a1.676,1.676,0,0,0,.187-0.75c0.75-.07,1.374-0.13,1.875-0.19a0.976,0.976,0,0,1,.563.19,0.456,0.456,0,0,0,.562-0.47,4.52,4.52,0,0,1,.656-2.07,0.3,0.3,0,0,0,0-.56q-0.937-.93-1.218-0.75a16.8,16.8,0,0,1-2.719.56c-0.375-.24-0.719-0.46-1.031-0.65h0Zm-0.75-3.47c-0.126,0-.157.06-0.094,0.19a1.018,1.018,0,0,1,.469.75,6.356,6.356,0,0,1-.657,1.78c-0.438.87-1.063,1.97-1.875,3.28-0.126.25-.063,0.31,0.188,0.19a19.429,19.429,0,0,0,3-3.94,33.616,33.616,0,0,1,6.094-1.13,0.5,0.5,0,0,1,.562.66c-0.063.75-.187,1.69-0.375,2.81a21.6,21.6,0,0,1-.937,3.57,3.189,3.189,0,0,1-.938,1.59,0.863,0.863,0,0,1-.375.09,5.751,5.751,0,0,1-1.594-.47c-0.126,0-.187.04-0.187,0.1a3.16,3.16,0,0,1,1.219,1.4,2.261,2.261,0,0,1,.187.75c0,0.13.094,0.19,0.281,0.19q0.655,0,1.5-1.5,1.593-2.715,2.157-8.72c0.249-.12.312-0.28,0.187-0.47a1.443,1.443,0,0,0-1.312-.93q-1.782.375-5.907,1.31a1.3,1.3,0,0,0-.281-0.94,3.3,3.3,0,0,0-1.312-.56h0Zm5.812-5.81c-0.375-.06-0.438.03-0.187,0.28a1.2,1.2,0,0,1,.656,1.22c-0.063.37-.157,0.84-0.281,1.4-1.188.19-2.1,0.35-2.719,0.47a4.936,4.936,0,0,0-.188-1.87,2.868,2.868,0,0,0-1.687-.85c-0.188-.06-0.22,0-0.094.19,0.5,0.31.844,1.19,1.031,2.63a15.43,15.43,0,0,1-2.062.28,2.357,2.357,0,0,1-1.219-.47c-0.313-.19-0.407-0.13-0.281.19a1.923,1.923,0,0,0,1.687,1.12c0.624-.12,1.281-0.25,1.969-0.37,0.062,0.87.125,1.5,0.188,1.87,0.375,0.88.624,0.97,0.75,0.28v-2.25c0.687-.12,1.53-0.28,2.531-0.47l-0.469,2.35c0,0.18.062,0.28,0.188,0.28a0.867,0.867,0,0,0,.562-0.66l0.656-2.06q1.125-.09,2.344-0.09c0.875,0,.9-0.29.094-0.85a3.61,3.61,0,0,0-1.219-.28,2.178,2.178,0,0,1-.937.38,2.767,2.767,0,0,1,.468-1.32q0.374-.375-0.281-0.75a5.442,5.442,0,0,0-1.5-.65h0Zm6.75,32.62a1.926,1.926,0,0,1-.656.28l-9.188.94a1.39,1.39,0,0,1-1.312-.47c-0.251-.12-0.314-0.06-0.188.19a2.29,2.29,0,0,0,1.125,1.41,7.823,7.823,0,0,1,1.219-.38c0.687-.12,1.406-0.25,2.156-0.37a0.882,0.882,0,0,1,.188.46,2.083,2.083,0,0,1-.094.66,9.9,9.9,0,0,1-.656,1.41l-1.5,2.25a1.778,1.778,0,0,1-1.406-.19c-0.375-.25-0.469-0.19-0.282.19,0.249,0.44.5,0.9,0.75,1.4a0.392,0.392,0,0,0,.563.1c0.187-.13.375-0.25,0.562-0.38a78.509,78.509,0,0,0,7.782-1.5,6.746,6.746,0,0,1,.937,1.31c0.312,0.38.593,0.47,0.844,0.29a0.948,0.948,0,0,0,.187-1.13,4.528,4.528,0,0,0-1.218-1.31,17.743,17.743,0,0,0-2.719-1.78c-0.251-.13-0.314-0.06-0.188.18a17.065,17.065,0,0,1,1.969,2.16l-7.219.66,2.719-3.38a0.8,0.8,0,0,0,.563-0.56,2.1,2.1,0,0,0-1.032-.94c1.749-.12,3.125-0.19,4.125-0.19,0.687,0,1.843.04,3.469,0.1q0.655,0,.281-0.66a5.121,5.121,0,0,0-1.781-.75h0Zm-2.625-3.19a7.013,7.013,0,0,1-2.25.66,14.727,14.727,0,0,1-2.25.28,2.654,2.654,0,0,1-1.219-.28c-0.25-.12-0.313-0.06-0.187.19a1.589,1.589,0,0,0,1.219,1.12,3.787,3.787,0,0,1,.937-0.28c1.625-.25,3.249-0.43,4.875-0.56,0.375,0,.437-0.19.188-0.56a3.275,3.275,0,0,0-1.313-.57h0Zm-1.312-6.37a3,3,0,0,0-1.5-.94h-0.75c-0.126.19-.126,0.32,0,0.38a0.522,0.522,0,0,1,.375.75,18,18,0,0,1-3.375,5.34,26.881,26.881,0,0,1-5.625,5.25c-0.126.25-.063,0.31,0.187,0.19a29.833,29.833,0,0,0,9.75-9.38q4.782,5.25,6.938,7.32a1.648,1.648,0,0,0,.937.46,25.852,25.852,0,0,0,2.625.19c0.249,0,.281-0.09.094-0.28a44,44,0,0,1-5.156-3.66q-1.969-1.68-5.157-4.4a3.3,3.3,0,0,1,.469-0.56q0.936-.105.188-0.66h0Z" transform="translate(-774.469 -2053.38)"/>
</svg>
