<svg id="taisai_ttl" xmlns="http://www.w3.org/2000/svg" width="224.21" height="33.13" viewBox="0 0 224.21 33.13">
  <defs>
    <style>
      .cls-1 {
        fill: #fff;
        fill-rule: evenodd;
      }
    </style>
  </defs>
  <path id="鎮座百年大祭" class="cls-1" d="M1447.96,2922.08c-0.62-.1-0.73.11-0.31,0.63l0.63,0.78a57.835,57.835,0,0,1-3.44,6.09q-1.56,2.19-4.38,5.47c-0.1.31,0.06,0.42,0.47,0.31,0.63-.52,1.57-1.4,2.82-2.65a8.375,8.375,0,0,0,1.56.46,10.145,10.145,0,0,0,2.03.16,1.436,1.436,0,0,1,.62,1.41v1.87c-1.35.42-2.86,0.84-4.53,1.25a3.812,3.812,0,0,1-2.18-.47c-0.42-.2-0.53-0.1-0.32.32a5.517,5.517,0,0,0,1.41,1.25,1.9,1.9,0,0,0,.78.46,10.369,10.369,0,0,0,1.41-.46,28.619,28.619,0,0,1,3.43-.94c0,3.12-.05,6.15-0.15,9.06a32.919,32.919,0,0,1-5.94,1.88,8.94,8.94,0,0,1-1.09-.47c-0.42-.21-0.53-0.11-0.32.31a6.817,6.817,0,0,0,2.04,1.87,0.751,0.751,0,0,0,.93,0l0.63-.62q4.215-1.875,8.75-3.91a1.933,1.933,0,0,0,.47.94,15.444,15.444,0,0,0,1.4.94,2.246,2.246,0,0,0,1.88-.31q3.285-.48,7.65-0.94a60.479,60.479,0,0,1,8.91-.63h0.94c0.52-.2.62-0.47,0.31-0.78,0-.31-0.89-0.62-2.66-0.94a4.754,4.754,0,0,1-1.09.32l-1.41.31-12.96,1.41h-0.94a3.82,3.82,0,0,1-2.19-.47l1.09-.78c0.21-.32.11-0.47-0.31-0.47l-4.53,1.87c0.1-2.71.21-5.73,0.31-9.06a27.264,27.264,0,0,1,3.6-.78c1.04,0,1.45-.26,1.25-0.78a2.816,2.816,0,0,0-1.72-.78,1.257,1.257,0,0,0-.78.46l-2.35.47,0.16-1.56a0.71,0.71,0,0,0,.16-0.94l-1.25-.62a23.512,23.512,0,0,0,4.21-1.25,0.558,0.558,0,0,0,0-.78,2.088,2.088,0,0,0-1.4-.32,3.757,3.757,0,0,0-1.25.47c-1.67.53-2.97,0.89-3.91,1.1a4.972,4.972,0,0,1-1.87-.32,79.355,79.355,0,0,0,5-6.4c2.7,2.4,4.53,3.59,5.47,3.59,0.52,0.11.72-.1,0.62-0.62a2.485,2.485,0,0,0-1.25-1.72,12.516,12.516,0,0,1-4.37-1.88c0.1-.2.2-0.41,0.31-0.62,0.62-.42.47-0.83-0.47-1.25a4.068,4.068,0,0,0-1.88-.94h0Zm10.79,25.63c-0.32.1-.32,0.26,0,0.46l0.62,0.32c0,0.41-.73,1.2-2.19,2.34a23.452,23.452,0,0,1-3.59,2.19c-0.31.31-.26,0.47,0.16,0.47a18.437,18.437,0,0,0,7.5-4.07,6.64,6.64,0,0,1,.78-0.31q0.615-.15,0-0.78a4.215,4.215,0,0,0-2.35-.62h-0.93Zm2.65-25.94c-0.42.1-.42,0.26,0,0.47a2.215,2.215,0,0,1,1.25,1.25v2.97a30.915,30.915,0,0,1-5,.46,5.174,5.174,0,0,1-2.03-.62c-0.52-.21-0.68-0.1-0.47.31a4.5,4.5,0,0,0,1.41,1.41,2.711,2.711,0,0,0,1.25.47c0.41-.11.88-0.21,1.4-0.32l3.44-.62v3.28l-3.9.63a5.185,5.185,0,0,0-1.57-.32c-0.73-.1-0.83.06-0.31,0.47a2.247,2.247,0,0,1,.78,1.56v2.5a44.715,44.715,0,0,1-.31,5.79v0.62a3.3,3.3,0,0,0,.31,1.72,1.06,1.06,0,0,0,.94.47,0.748,0.748,0,0,0,.62-0.78h1.88l7.34-.63c0.32,0.84.63,1.25,0.94,1.25s0.52-.41.63-1.25v-4.84c0.1-1.98.15-3.8,0.15-5.47a2.343,2.343,0,0,1,.47-0.63c0.31-.31.16-0.72-0.47-1.25-1.04-.72-1.72-0.98-2.03-0.78a19.187,19.187,0,0,1-3.91.63v-3.13q4.53-.465,7.19-0.62l0.63-.31a0.406,0.406,0,0,0,0-.63,6.169,6.169,0,0,0-2.35-.62,3.725,3.725,0,0,0-1.56.46c-1.35.21-2.66,0.42-3.91,0.63l0.16-1.72a1.511,1.511,0,0,1,.31-1.09c0.32-.32.21-0.68-0.31-1.1a5.326,5.326,0,0,0-2.97-.62h0Zm6.41,13.28h0.78l-0.16,2.97a7.156,7.156,0,0,0-1.09-.16c-2.61.31-5.37,0.63-8.28,0.94v-2.97h1.4Zm-0.78,4.22h1.4l-0.15,2.34-2.03.16-7.19.78v-2.81l0.94,0.15Zm0.78-8.13a0.632,0.632,0,0,1,.78.63v2.34a8.243,8.243,0,0,0-1.56-.15l-6.72.93h-1.1l-0.15-2.65Zm-15.16,7.5c-0.52-.1-0.62.11-0.31,0.63a1.73,1.73,0,0,1,.31.47,4.712,4.712,0,0,1-.15,1.09c-0.21.31-.79,1.25-1.72,2.81-0.21.53-.06,0.58,0.47,0.16l3.28-3.28a0.5,0.5,0,0,0,.62-0.47,2.826,2.826,0,0,0-2.5-1.41h0Zm-10.31,2.19c-0.42-.21-0.52-0.1-0.31.31,0.72,1.25,1.35,2.3,1.87,3.13a16.024,16.024,0,0,0,1.25,1.4c0.63,0.32.99,0.16,1.1-.46a4.169,4.169,0,0,0-.94-2.5c-0.73-.52-1.72-1.15-2.97-1.88h0Zm23.59,6.41c-0.41-.11-0.47.05-0.15,0.47q2.49,2.025,4.68,3.9a16.292,16.292,0,0,0,1.1,1.25,1.349,1.349,0,0,0,.94.47c0.41,0,.57-0.42.46-1.25a4.289,4.289,0,0,0-1.56-2.5,31,31,0,0,0-5.47-2.34h0Zm29.25-17.19c-0.31.21-.26,0.42,0.16,0.62a1.371,1.371,0,0,1,.94.94l0.15,11.88c-1.56.21-3.12,0.41-4.68,0.62a3.83,3.83,0,0,1-2.82-.94c-0.31-.1-0.41,0-0.31.32a6.479,6.479,0,0,0,2.5,2.18,2.634,2.634,0,0,0,.78-0.15q2.34-.465,4.53-0.78l0.16,5.78q-4.38.315-8.91,0.78h-1.25a6.141,6.141,0,0,1-2.65-.94c-0.32-.1-0.42,0-0.32.31a5.925,5.925,0,0,0,3.44,2.35c0.63-.11,1.41-0.26,2.35-0.47a86.373,86.373,0,0,1,10.62-1.09,45.167,45.167,0,0,1,10,.62c0.94,0.1,1.35-.1,1.25-0.62-0.52-.73-1.67-1.31-3.44-1.72a10.793,10.793,0,0,1-1.25.31c-2.6.1-5.36,0.21-8.28,0.31v-5.78a70.087,70.087,0,0,1,7.03-.47c1.15-.31,1.41-0.73.78-1.25a9.839,9.839,0,0,0-2.34-.62c-0.52.21-1.09,0.41-1.72,0.62a29.345,29.345,0,0,1-3.75.47v-10.47a0.88,0.88,0,0,1,.31-0.62q0.48-.315,0-0.78a4.84,4.84,0,0,0-3.28-1.41h0Zm7.82,0.16c-0.32-.11-0.42,0-0.32.31,0.73,0.73.94,1.35,0.63,1.87a28.163,28.163,0,0,1-4.69,5.78c-0.1.32,0,.42,0.31,0.32a44.481,44.481,0,0,0,4.07-3.13,17.344,17.344,0,0,1,3.59,2.66c0.73,1.04,1.3,1.56,1.72,1.56a0.875,0.875,0,0,0,.94-0.78,3.375,3.375,0,0,0-1.25-2.03,35.037,35.037,0,0,0-4.69-1.88c0.41-.41.88-0.93,1.4-1.56a4.942,4.942,0,0,1,.79-0.62c0.41-.21.1-0.79-0.94-1.72a3.587,3.587,0,0,0-1.56-.78h0Zm-12.97,1.09c-0.42-.1-0.53.05-0.32,0.47a3.777,3.777,0,0,1,.94,1.25,18.144,18.144,0,0,1-5.31,7.34c-0.21.42-.11,0.52,0.31,0.31a15.6,15.6,0,0,0,5.16-4.53,9.776,9.776,0,0,1,2.81,3.13,0.94,0.94,0,0,0,1.88,0,2.668,2.668,0,0,0-.63-1.72,19.6,19.6,0,0,0-3.75-1.88,8.041,8.041,0,0,0,.78-1.25,2.9,2.9,0,0,1,.78-0.78c0.32-.2.26-0.52-0.15-0.93a6.185,6.185,0,0,0-2.5-1.41h0Zm3.59-9.69c-0.42,0-.52.16-0.31,0.47,1.14,0.63,1.72,1.25,1.72,1.88v2.96l-10,.63c-1.05-.52-1.93-0.94-2.66-1.25-0.42,0-.47.16-0.16,0.47a3.763,3.763,0,0,1,.94,1.87v1.57a58.322,58.322,0,0,1-.94,11.56,41.639,41.639,0,0,1-3.12,9.22c0,0.41.16,0.47,0.47,0.15a24.012,24.012,0,0,0,3.75-8.12,85.806,85.806,0,0,0,1.87-14.22q8.6-.63,17.03-1.09,4.845,0,6.41.15c0.94-.21,1.04-0.67.31-1.4a6.818,6.818,0,0,0-2.5-1.1c-0.62.31-1.2,0.58-1.72,0.78-1.04.11-2.03,0.21-2.96,0.32l-5,.31,0.15-2.5a1.269,1.269,0,0,1,.31-0.94c0.32-.41,0-0.83-0.93-1.25a21,21,0,0,0-2.66-.47h0Zm47.06,19.69q-0.15,5.31-.15,6.87-8.13.48-13.6,1.25l-0.93-.15a21.76,21.76,0,0,1-.32-3.6v-3.75a1.893,1.893,0,0,0,1.41.47,64.994,64.994,0,0,1,10-.78,7.611,7.611,0,0,0,3.59-.31h0Zm4.69-17.97a0.8,0.8,0,0,0-.94.31q-5.94.48-11.72,0.78c-2.5.32-5.78,0.68-9.84,1.1h-1.56a4.348,4.348,0,0,1-1.88-.31c-0.41-.21-0.73-0.37-0.93-0.47-0.32-.11-0.42,0-0.32.31a7.422,7.422,0,0,0,3.44,2.66,18.784,18.784,0,0,1,2.66-.79q2.34-.465,7.5-0.93a1.735,1.735,0,0,1,.31,1.72,54.249,54.249,0,0,1-2.5,5.62q-2.04.315-4.53,0.63a7.049,7.049,0,0,0-2.5-1.25c-0.52-.11-0.63.05-0.31,0.46a4.127,4.127,0,0,1,1.71,3.29q0.315,4.68.32,7.03v3.43c0,0.73-.06,1.62-0.16,2.66,0.31,1.25.63,1.88,0.94,1.88a1.084,1.084,0,0,0,.78-0.94,1.5,1.5,0,0,0,1.72.15,38.629,38.629,0,0,1,5.62-.78q3.285-.15,4.53-0.15h1.1a11.808,11.808,0,0,1,1.56-.16,7.466,7.466,0,0,0,.47,2.03,0.7,0.7,0,0,0,1.09-.15,1.808,1.808,0,0,0,.32-1.25v-7.5c0.1-1.36.31-3.49,0.62-6.41a7.145,7.145,0,0,1,.31-1.72,0.924,0.924,0,0,0,0-1.25c-1.35-1.25-2.18-1.72-2.5-1.41a2.939,2.939,0,0,1-.78.47q-3.9.48-9.06,0.78c1.04-1.66,1.82-2.86,2.34-3.59a12.5,12.5,0,0,1,.78-1.09c0.73-.52.89-0.99,0.47-1.41-0.1-.1-0.57-0.52-1.4-1.25q6.87-.465,8.9-0.47a29.765,29.765,0,0,1,4.85.31,9.132,9.132,0,0,0,1.56.16c0.41-.21.52-0.47,0.31-0.78-0.21-.63-1.3-1.2-3.28-1.72h0Zm-7.03,10.63h0.94a2.1,2.1,0,0,1,1.56.31,5.569,5.569,0,0,1,.16,1.56v1.72a20.339,20.339,0,0,0-.16,2.66,15.59,15.59,0,0,0-1.88-.16q-6.09.63-12.34,1.09a1.039,1.039,0,0,1-.94-0.47v-5.46q5.94-.78,12.66-1.25h0Zm33.16-1.72v7.34c-2.5.31-4.8,0.63-6.88,0.94v-3.75a3.8,3.8,0,0,1,.31-1.41c0.21-.52-0.15-1.04-1.09-1.56q2.97-.78,7.66-1.56h0Zm-7.35-10.32h-0.94c-0.41,0-.46.16-0.15,0.47a1.3,1.3,0,0,1,1.25,1.1,31.108,31.108,0,0,1-5.47,7.18c-0.21.42-.11,0.53,0.31,0.32a27.055,27.055,0,0,0,4.85-4.07c0.31,0.32,1.09.42,2.34,0.32l3.59-.47a5.862,5.862,0,0,1,1.57,4.22c-3.96.73-6.52,1.14-7.66,1.25a5.047,5.047,0,0,1-3.28-.78c-0.42-.21-0.52-0.11-0.31.31a1.5,1.5,0,0,0,.62.78,15.4,15.4,0,0,0,1.72,1.25c0.31,0.21.47,0.94,0.47,2.19v4.84a39.083,39.083,0,0,1-4.85.63,2.917,2.917,0,0,1-2.18-.79c-0.42-.2-0.53-0.1-0.32.32a7.167,7.167,0,0,0,2.19,2.18,1.938,1.938,0,0,0,1.56,0,93.5,93.5,0,0,1,12.04-2.18v8.12c0,1.67.05,2.97,0.15,3.91,0,0.94.21,1.4,0.63,1.4a4.189,4.189,0,0,0,.62-2.34q0.15-1.71.47-11.25a96.337,96.337,0,0,1,9.69-.16c1.25,0.11,2.29.21,3.12,0.32,1.25-.21,1.41-0.73.47-1.57a7.22,7.22,0,0,0-2.97-1.4,11.889,11.889,0,0,1-2.03.78q-3.9.315-8.28,0.62v-7.34c2.19-.31,4.32-0.52,6.41-0.62h1.87c0.63-.32.63-0.73,0-1.25a9.924,9.924,0,0,0-2.65-.79c-0.32.11-.84,0.32-1.57,0.63-1.46.21-2.81,0.42-4.06,0.62a8.642,8.642,0,0,1,.16-2.18,1.31,1.31,0,0,0-.78-0.78,9.869,9.869,0,0,0-1.72-1.1,56.646,56.646,0,0,1,7.18-.78c1.25,0,1.88-.26,1.88-0.78a1.333,1.333,0,0,0-.94-0.94,3.744,3.744,0,0,0-1.87-.31,6.558,6.558,0,0,1-1.1.62c-4.27.73-7.18,1.2-8.75,1.41s-2.39.21-2.5,0a22.9,22.9,0,0,0,1.41-1.87,0.881,0.881,0,0,0,.47-0.94,3.048,3.048,0,0,0-2.66-1.1h0Zm42.38,1.41a2.554,2.554,0,0,1,1.09,2.19,46.363,46.363,0,0,1-.31,6.4c-2.29.21-4.64,0.47-7.03,0.79a5.519,5.519,0,0,1-4.38-.79c-0.62-.52-0.83-0.46-0.62.16,1.04,1.77,1.97,2.71,2.81,2.81a46.489,46.489,0,0,1,9.06-1.56,21.749,21.749,0,0,1-4.37,9.38,40.273,40.273,0,0,1-8.91,7.81c-0.31.42-.21,0.52,0.31,0.31q11.73-5.625,14.69-16.25,5,8.13,9.06,14.53a1.957,1.957,0,0,0,1.72.94,55.123,55.123,0,0,1,6.1.31c0.52-.1.52-0.31,0-0.62q-5.625-2.82-7.66-4.85-3.6-4.05-9.06-11.09l0.15-.63a52.6,52.6,0,0,1,6.72-.46,50.88,50.88,0,0,1,6.41.31c1.04-.1,1.19-0.52.47-1.25a16.431,16.431,0,0,0-3.13-1.1,6.207,6.207,0,0,0-.78.32q-4.845.315-9.53,0.78c0.1-.73.21-1.88,0.31-3.44a8.992,8.992,0,0,1,.47-3.12,0.887,0.887,0,0,0-.16-1.41,3.82,3.82,0,0,0-1.56-.94,5.017,5.017,0,0,0-1.87-.31c-0.73.1-.73,0.37,0,0.78h0Zm46.12,21.41c-0.42-.11-0.52,0-0.31.31a33.123,33.123,0,0,1,5.78,5.62,0.873,0.873,0,0,0,1.25.16,1.055,1.055,0,0,0,.31-0.78,6.071,6.071,0,0,0-1.72-2.66c-2.18-1.14-3.96-2.03-5.31-2.65h0Zm3.75-4.53a7.862,7.862,0,0,1-1.72.46q-3.9.48-7.65,0.79-4.23.465-8.28,0.62a4.852,4.852,0,0,1-2.19-.94c-0.31-.1-0.42.06-0.31,0.47a5.963,5.963,0,0,0,2.65,2.03c0.42-.1,1.04-0.2,1.88-0.31a51.39,51.39,0,0,1,6.25-.78,2.552,2.552,0,0,1,.31.94v5.47a1.713,1.713,0,0,1-.47,1.25c-0.31.31-1.41,0-3.28-.94-0.42,0-.47.15-0.16,0.47a33.669,33.669,0,0,1,2.82,1.87,1.694,1.694,0,0,1,.78,1.25,0.271,0.271,0,0,0,.31.31,1.319,1.319,0,0,0,1.09-.78,7.618,7.618,0,0,0,.32-2.81c0.1-1.66.15-3.59,0.15-5.78a1.979,1.979,0,0,0-.62-1.41,74.24,74.24,0,0,1,8.28-.15,9.213,9.213,0,0,0,2.97-.32,1,1,0,0,0-.63-1.09,10.886,10.886,0,0,0-2.5-.62h0Zm-2.97-4.22c-0.52-.11-1.09-0.21-1.72-0.32a2.819,2.819,0,0,0-.62.47c-2.4.32-4.79,0.58-7.19,0.78a1.892,1.892,0,0,1-1.72-.62c-0.41-.21-0.57-0.1-0.47.31a3.9,3.9,0,0,0,2.66,1.72c0.42-.1.94-0.21,1.56-0.31q2.82-.315,6.72-0.78c0.94,0,1.41-.16,1.41-0.47a0.919,0.919,0,0,0-.63-0.78h0Zm3.28-12.19a1.348,1.348,0,0,0-.93.47,13.263,13.263,0,0,1-3.44.62,3.107,3.107,0,0,1-1.41-.31c-0.31-.21-0.47-0.1-0.47.31a5.3,5.3,0,0,0,1.72,1.25c0.32-.1.73-0.2,1.25-0.31a12.076,12.076,0,0,1,2.03-.47c0.52-.1.68,0.06,0.47,0.47a14.56,14.56,0,0,1-2.81,3.75c-1.15-.83-2.34-1.61-3.59-2.34a2.265,2.265,0,0,0-.94.15,0.306,0.306,0,0,0,.16.47,1.713,1.713,0,0,1,1.25.47c0.72,0.63,1.5,1.3,2.34,2.03a20.37,20.37,0,0,1-4.53,3.44c-0.21.31-.11,0.47,0.31,0.47a38.975,38.975,0,0,0,5.16-3.13l5.47,5.63a1.909,1.909,0,0,0,1.4.47l4.06-.16c0.52-.21.47-0.41-0.15-0.62a25.577,25.577,0,0,1-3.91-1.88,29.373,29.373,0,0,1-5.94-4.22,42.853,42.853,0,0,0,3.75-3.9,6.462,6.462,0,0,1,.94-0.79c0.31-.2.1-0.57-0.62-1.09a3.787,3.787,0,0,0-1.57-.78h0Zm-17.34-2.5c-0.31,0-.42.16-0.31,0.47a1.337,1.337,0,0,1,.94.94,28,28,0,0,1-7.82,10.15c-0.1.31,0,.42,0.32,0.31a21.364,21.364,0,0,0,2.96-1.87c1.57,1.35,2.76,2.34,3.6,2.97a21.488,21.488,0,0,1-6.25,4.69c-0.21.21-.16,0.36,0.15,0.46a23.451,23.451,0,0,0,8.6-5.78,41.206,41.206,0,0,0,5.15-6.87,4.16,4.16,0,0,1,.94-0.94c0.52-.31.57-0.62,0.16-0.94a5.9,5.9,0,0,0-1.88-1.25,9.033,9.033,0,0,0-1.56.63l-3.75.78a10.539,10.539,0,0,0,.63-1.09c0.2-.21.46-0.47,0.78-0.79s0-.78-0.94-1.4a3.292,3.292,0,0,0-1.72-.47h0Zm5.47,3.91c0.41,0,.52.26,0.31,0.78a26.272,26.272,0,0,1-2.65,4.22c-0.53-.52-1.15-1.1-1.88-1.72a8.593,8.593,0,0,1-2.03-.47,23.017,23.017,0,0,0,1.41-1.88c1.97-.41,3.59-0.72,4.84-0.93h0Zm-6.56,3.28a27.841,27.841,0,0,1,3.59,2.5,32.758,32.758,0,0,1-2.19,2.81,4.337,4.337,0,0,0-1.25-1.72c-0.93-.41-1.82-0.78-2.65-1.09a14.784,14.784,0,0,0,2.5-2.5h0Zm3.28,17.34a3.534,3.534,0,0,0-1.56-.62c-0.53-.11-0.68,0-0.47.31,0.52,0.42.67,0.73,0.47,0.94a25.252,25.252,0,0,1-6.41,4.21c-0.31.32-.26,0.47,0.16,0.47a24.05,24.05,0,0,0,4.84-2.03c0.94-.52,1.82-1.04,2.66-1.56,0.31-.1.62-0.21,0.93-0.31,0.63-.21.42-0.68-0.62-1.41h0Z" transform="translate(-1440.38 -2921.31)"/>
</svg>
