<svg id="ttl-news" xmlns="http://www.w3.org/2000/svg" width="107.94" height="23.35" viewBox="0 0 107.94 23.35">
  <defs>
    <style>
      .cls-1 {
        fill: #fff;
        fill-rule: evenodd;
      }
    </style>
  </defs>
  <path id="最新情報" class="cls-1" d="M1062.29,3248.71a0.442,0.442,0,0,1,.55.43l-0.11,1.42a6.62,6.62,0,0,0-1.42-.43c-0.22.07-.44,0.14-0.66,0.22l-8.31.87a16.344,16.344,0,0,0-.44-1.86l0.87,0.11c2.77-.29,5.95-0.55,9.52-0.76h0Zm-1.86,2.4a18.811,18.811,0,0,1,2.19.11l-0.22,1.75a3.918,3.918,0,0,0-.88-0.22,1.858,1.858,0,0,0-.76.22q-3.18.33-6.34,0.55l-1.97.11v-1.75q3.93-.33,7.98-0.77h0Zm2.95,7.11c-0.21-.14-0.4-0.07-0.54.22q-3.615.66-4.05,0.66a1.931,1.931,0,0,1-.98-0.33c-0.22-.15-0.33-0.11-0.33.11a2.3,2.3,0,0,0,1.31,1.53,3.578,3.578,0,0,0,.66-0.22l2.95-.88a0.3,0.3,0,0,1,.44.33,22.08,22.08,0,0,1-1.64,3.83c-1.03-.95-1.94-1.75-2.74-2.41a1.486,1.486,0,0,0-.87-0.32c-0.37,0-.44.14-0.22,0.43a3.062,3.062,0,0,1,.65.33,13.176,13.176,0,0,1,2.63,2.74,21.406,21.406,0,0,1-1.86,2.18,11.672,11.672,0,0,1-2.41,1.86c-0.14.22-.07,0.33,0.22,0.33a19.127,19.127,0,0,0,2.41-1.42,22.375,22.375,0,0,0,2.41-2.19q1.74,1.86,3.28,3.5a1.167,1.167,0,0,0,.87.55l3.28-.22c0.44-.07.44-0.22,0-0.44a13.476,13.476,0,0,1-3.28-1.64,34.832,34.832,0,0,1-3.5-2.62,19.534,19.534,0,0,0,2.08-4.05,2.408,2.408,0,0,1,.44-0.55c0.22-.22.14-0.43-0.22-0.65a10.624,10.624,0,0,0-.99-0.66h0Zm2.19-3.17a7.148,7.148,0,0,1-1.75.44q-5.58.105-11.37,0.76a31.114,31.114,0,0,1-4.16.44,2.216,2.216,0,0,1-1.64-.66c-0.22-.14-0.33-0.07-0.33.22a2.587,2.587,0,0,0,2.3,1.64,4.872,4.872,0,0,1,.87-0.11,0.886,0.886,0,0,1,.55.66v7.55a10.908,10.908,0,0,1-2.08.65,0.618,0.618,0,0,1-.54-0.43c-0.22-.15-0.33-0.11-0.33.1a2.477,2.477,0,0,0,.43.88q0.66,1.095.99,0.87c0.22-.14.58-0.36,1.09-0.65,1.17-.58,2.92-1.5,5.25-2.74l-0.11,3.83a1.13,1.13,0,0,0,.33,1.1c0.37,0.21.58,0.11,0.66-.33a3.127,3.127,0,0,0,.22-1.31v-9.08a6.383,6.383,0,0,1,.11-1.32,1.438,1.438,0,0,0-.77-0.65,32.752,32.752,0,0,1,6.23-.44h3.5c0.88,0,1.75.04,2.63,0.11,0.44-.14.44-0.44,0-0.87a9.7,9.7,0,0,0-2.08-.66h0Zm-11.37,1.97a0.385,0.385,0,0,1,.54.22,6.646,6.646,0,0,1,.11,1.64c-1.09.29-2.29,0.54-3.61,0.76v-1.42a1.051,1.051,0,0,0-.32-0.76Zm0.65,4.59a11.051,11.051,0,0,1-3.72.77v-1.86a37.1,37.1,0,0,0,3.72-.77v1.86Zm-3.72,1.75a35.713,35.713,0,0,0,3.72-.87v1.64l-3.72,1.42v-2.19Zm10.39-15.42c-3.71.29-7,.58-9.84,0.87a5.858,5.858,0,0,0-1.31-.65c-0.37-.07-0.44.04-0.22,0.33a1.8,1.8,0,0,1,.66.87,13.828,13.828,0,0,1,.43,3.5,2.116,2.116,0,0,0,.44,1.53c0.22,0.37.4,0.51,0.55,0.44a0.5,0.5,0,0,0,.33-0.55,1.828,1.828,0,0,1,.87,0l8.64-.65a0.891,0.891,0,0,0,.66.54c0.29,0,.54-0.43.76-1.31a20.008,20.008,0,0,0,.44-2.95,1.62,1.62,0,0,1,.44-0.77c0.14-.14,0-0.36-0.44-0.65a9.965,9.965,0,0,0-1.2-.77,2.347,2.347,0,0,0-1.21.22h0Zm29.47-.11c-0.29-.07-0.36,0-0.22.22a1.229,1.229,0,0,1,.44.66q0,0.54-2.84,3.28a4.245,4.245,0,0,1-1.97,1.42h-0.88c-0.14.15,0,.33,0.44,0.55a1.046,1.046,0,0,1,.44.54,2.37,2.37,0,0,1,.11.88,26.715,26.715,0,0,1-2.52,12.03c-0.07.29,0,.36,0.22,0.22a26.326,26.326,0,0,0,2.3-4.38,27.011,27.011,0,0,0,1.2-6.56l1.09,0.33a12.271,12.271,0,0,1,2.41-.55l0.33,0.33v12.36c0.29,0.87.62,0.87,0.98,0,0-.29.04-1.31,0.11-3.06,0.07-1.32.15-4.12,0.22-8.43,0.29-.36.37-0.61,0.22-0.76a4.578,4.578,0,0,1-.66-0.55l3.83-.44c0.37-.14.4-0.36,0.11-0.65a3.879,3.879,0,0,0-1.64-.66,4.578,4.578,0,0,0-.66.55c-1.16.22-2.37,0.44-3.61,0.65a18.291,18.291,0,0,1-2.62.22v-1.2a1.983,1.983,0,0,1,.11-0.77l-0.77-.43c0.44-.29.88-0.59,1.32-0.88,1.45-1.02,2.77-2,3.93-2.95a0.893,0.893,0,0,1,.66-0.22c0.44-.07.55-0.22,0.33-0.44a4.418,4.418,0,0,0-2.41-1.31h0Zm-11.05-.44a6.287,6.287,0,0,0-1.2-.11c-0.29-.07-0.36,0-0.22.22a7.523,7.523,0,0,1,.77.66,1.039,1.039,0,0,1,.33.76v1.97a22.279,22.279,0,0,1-2.52.22,5.212,5.212,0,0,1-1.42-.33c-0.22-.07-0.29,0-0.22.22l1.2,0.99a0.985,0.985,0,0,1,.88.98l0.44,3.17a14.661,14.661,0,0,1-3.18.55c-0.21-.07-0.43-0.15-0.65-0.22-0.29-.14-0.37-0.07-0.22.22a2.66,2.66,0,0,0,1.31,1.2,23.673,23.673,0,0,1,3.83-1.09,1.349,1.349,0,0,1,.66.76,19.619,19.619,0,0,1,.11,2.41c-1.83.37-3.14,0.59-3.94,0.66a2.882,2.882,0,0,1-1.64-.44c-0.29-.15-0.37-0.07-0.22.22a4.177,4.177,0,0,0,1.53,1.42,24.121,24.121,0,0,1,3.5-.87,24.218,24.218,0,0,1-5.03,6.01c-0.07.22,0,.29,0.22,0.22,1.16-.88,2.08-1.6,2.73-2.19a40.044,40.044,0,0,0,2.85-2.95l-0.11,2.3a20.752,20.752,0,0,1-.44,2.62,7.909,7.909,0,0,0,.33,1.75,0.882,0.882,0,0,0,.65.44c0.29,0,.44-0.66.44-1.97v-2.63c0-.94.04-1.82,0.11-2.62a14.6,14.6,0,0,1,2.08,2.08c0.58,0.36.87,0.29,0.87-.22a1.93,1.93,0,0,0-.54-1.42c-0.81-.29-1.61-0.59-2.41-0.88v-0.87a17.869,17.869,0,0,1,1.86-.33c0.73-.07,1.42-0.11,2.08-0.11,0.29-.15.36-0.33,0.22-0.55a3.6,3.6,0,0,0-1.32-.65,3.807,3.807,0,0,0-.98.43,18.345,18.345,0,0,1-1.86.33,4.852,4.852,0,0,1,.22-1.97,1.21,1.21,0,0,0-.88-1.09,17.577,17.577,0,0,1,2.52-.44c0.8-.07,1.57-0.11,2.3-0.11,0.36-.14.47-0.33,0.32-0.54a1.9,1.9,0,0,0-.98-0.55,0.39,0.39,0,0,0-.55,0,9.793,9.793,0,0,1-1.64.44l0.88-2.63a0.916,0.916,0,0,0,.54-0.55,5.759,5.759,0,0,0-1.42-.98l2.3-.11c0.36-.14.47-0.29,0.33-0.44a1.658,1.658,0,0,0-1.97-.54,6.951,6.951,0,0,1-1.97.43v-0.76a2.341,2.341,0,0,1,.33-1.53v-0.33a1.726,1.726,0,0,0-1.21-.66h0Zm1.43,4.05c0.36,0,.54.33,0.54,0.98l-0.32,3.18-2.85.43-0.11-2.84a2.087,2.087,0,0,0-.76-1.31Zm38.1,5.47-0.65.22c-1.46.29-2.96,0.54-4.49,0.76l-0.76.22a7.191,7.191,0,0,0-1.64-.65c-0.29-.08-0.37,0-0.22.21a1.523,1.523,0,0,1,.76,1.21,43.179,43.179,0,0,1,0,6.23,6.144,6.144,0,0,1-.32,2.08v0.66a3.514,3.514,0,0,0,.32,1.53c0.29,0.36.55,0.36,0.77,0,0.07-.22.15-0.48,0.22-0.77,0.07-1.31.14-2.7,0.22-4.15a1.83,1.83,0,0,0,.98.21c2.12-.29,3.76-0.51,4.92-0.65v2.73c-0.07.81-.32,1.1-0.76,0.88-0.88-.37-1.53-0.66-1.97-0.88-0.29-.14-0.37-0.07-0.22.22a18.291,18.291,0,0,1,2.08,1.97c0.22,0.36.4,0.69,0.55,0.98s0.32,0.33.54,0.11a4.035,4.035,0,0,0,.99-1.64q-0.225-4.8-.11-8.97a1.755,1.755,0,0,1,.11-0.76,0.62,0.62,0,0,0,.11-0.88,3.889,3.889,0,0,0-1.43-.87h0Zm-0.87,6.23c-1.02.22-2.34,0.44-3.94,0.66a2.307,2.307,0,0,1-.98,0v-2.19h0.76a31.024,31.024,0,0,1,4.27-.55,3.7,3.7,0,0,1,.87.11v2.19a5.547,5.547,0,0,0-.98-0.22h0Zm0.44-5.25a0.484,0.484,0,0,1,.54.55v1.86a3.265,3.265,0,0,0-.98-0.22c-1.39.29-2.81,0.55-4.27,0.77h-0.65v-2.08q2.73-.435,5.36-0.88h0Zm-4.38-11.04c-0.29,0-.33.11-0.11,0.32a2.6,2.6,0,0,1,.88.88,7.41,7.41,0,0,1,.11,1.53c-1.17.15-2.26,0.26-3.28,0.33a2.357,2.357,0,0,1-1.54-.33c-0.29-.14-0.36-0.07-0.21.22a2.128,2.128,0,0,0,1.96.87c1.17-.07,2.19-0.14,3.07-0.21v1.75a16.618,16.618,0,0,1-2.96.43,2.641,2.641,0,0,1-1.53-.54c-0.29-.15-0.36-0.08-0.22.21a4.26,4.26,0,0,0,1.75,1.32,4.464,4.464,0,0,0,1.1-.22c0.51-.07,1.09-0.15,1.75-0.22v1.75q-2.955.435-5.47,0.98a3.058,3.058,0,0,1-1.53-.32c-0.22-.15-0.29-0.11-0.22.11a1.924,1.924,0,0,0,1.64,1.31c0.44-.15,1.27-0.37,2.51-0.66,0.73-.14,1.97-0.36,3.72-0.65a37.925,37.925,0,0,1,4.27-.22,24.993,24.993,0,0,1,3.17.22c0.66,0,.84-0.22.55-0.66a2.933,2.933,0,0,0-1.97-.77q-0.435.12-.99,0.33c-1.53,0-3.02.08-4.48,0.22v-1.86c0.51-.07,1.13-0.14,1.86-0.22a14.683,14.683,0,0,1,1.75-.11c0.58,0,.77-0.22.55-0.65a3.139,3.139,0,0,0-1.64-.55,5.061,5.061,0,0,0-.77.33,12.161,12.161,0,0,1-1.75.33v-1.75c1.6-.22,3.03-0.4,4.27-0.55,0.58-.15.65-0.36,0.21-0.66a6.933,6.933,0,0,0-1.64-.43,6.034,6.034,0,0,1-.76.32c-0.51.08-1.17,0.19-1.97,0.33a2.926,2.926,0,0,1,.11-0.87,0.834,0.834,0,0,0-.11-0.77,3.182,3.182,0,0,0-2.08-.87h0Zm-10.28.98q-0.225.105,0,.33a2.683,2.683,0,0,1,.77.65,3.453,3.453,0,0,1,.11.99q0,7.545-.11,15.09a15.439,15.439,0,0,1-.33,2.08,5.2,5.2,0,0,0,.44,1.97c0.43,0.51.76,0.36,0.98-.44v-3.17q0.1-6.78.11-14.55a3.328,3.328,0,0,1,.22-0.98,0.793,0.793,0,0,0,0-1.2,4.429,4.429,0,0,0-2.19-.77h0Zm-1.2,5.58c-0.08-.15-0.15-0.15-0.22,0a6.622,6.622,0,0,1-1.53,3.61v1.09a1.7,1.7,0,0,0,.43.88c0.15,0.14.37,0,.66-0.44a7.317,7.317,0,0,0,.88-2.84,6.45,6.45,0,0,0-.22-2.3h0Zm4.59-.77c-0.22,0-.29.11-0.22,0.33a3.792,3.792,0,0,0,2.3,1.42,0.516,0.516,0,0,0,.55-0.33,1.164,1.164,0,0,0-.66-1.09c-0.37-.07-1.02-0.18-1.97-0.33h0Zm41.74,2.85-0.55.32-3.5.77a2.1,2.1,0,0,1-1.31-.22c-0.3-.14-0.37-0.07-0.22.22a2.046,2.046,0,0,0,1.53.98,1.342,1.342,0,0,0,.66-0.32l2.62-.66c0.29-.07.44,0.07,0.44,0.44,0,0.65-.7,2.26-2.08,4.81-0.95-1.02-1.68-1.79-2.19-2.3a0.642,0.642,0,0,0-.43-0.22c-0.22,0-.3.08-0.22,0.22a0.783,0.783,0,0,1,.32.33,17.547,17.547,0,0,1,2.08,2.85,41.962,41.962,0,0,1-2.95,3.82c-0.15.3-.07,0.37,0.22,0.22a20.856,20.856,0,0,0,3.28-3.06c1.68,2.62,2.62,4.05,2.84,4.27a2.54,2.54,0,0,0,1.1.43c0.22,0,1.16.08,2.84,0.22,0.29,0,.33-0.11.11-0.33a18.9,18.9,0,0,1-3.28-2.29,33.409,33.409,0,0,1-2.95-3.18,33.156,33.156,0,0,0,2.84-5.79l0.55-.55a1.321,1.321,0,0,0-.55-0.44,11.922,11.922,0,0,1-1.2-.54h0Zm-0.11-7-0.66.32a34.594,34.594,0,0,1-6.01,1.1,2.386,2.386,0,0,0-1.75-.55c-0.15,0-.22.04-0.22,0.11a2.565,2.565,0,0,1,.87.88,4.438,4.438,0,0,1,.22,1.75l-0.33,12.79a3.794,3.794,0,0,1-.33,1.86c0,1.61.37,2.41,1.1,2.41,0.36,0,.51-0.51.44-1.53l0.43-16.85,5.8-1.09a0.606,0.606,0,0,1,.44.33v0.44l-0.55,1.85a1.055,1.055,0,0,1-.98.77,13.508,13.508,0,0,1-1.64-.33c-0.3-.07-0.33,0-0.11.22a4.17,4.17,0,0,1,1.53.99,11.192,11.192,0,0,0,.76.87,0.271,0.271,0,0,0,.44,0c0.58-.58,1.17-1.97,1.75-4.16a1.231,1.231,0,0,1,.44-0.65,0.373,0.373,0,0,0,.11-0.44,4.616,4.616,0,0,0-1.75-1.09h0Zm-12.69.43a4.85,4.85,0,0,0-2.41-.98c-0.29,0-.36.11-0.22,0.33a1.484,1.484,0,0,1,1.1,1.42v1.86l-2.74.22a3,3,0,0,1-1.53-.55,0.1,0.1,0,0,0-.11.11,4.259,4.259,0,0,0,1.53,1.42c0.15,0,1.1-.14,2.85-0.44v2.85a18.206,18.206,0,0,1-3.06.33,6.985,6.985,0,0,1-2.74-.55c-0.36-.07-0.4.04-0.11,0.33a5.875,5.875,0,0,0,2.08,1.31c0.07,0,.55-0.07,1.42-0.22a5.778,5.778,0,0,0,.99,3.06l-1.75.22a2.424,2.424,0,0,1-1.75-.43c-0.3-.15-0.37-0.08-0.22.21a3.305,3.305,0,0,0,1.64,1.32c0.44-.15,1.46-0.4,3.06-0.77a0.523,0.523,0,0,1,.44.55v1.97c-1.61.29-3.03,0.51-4.27,0.65a5.659,5.659,0,0,1-1.09-.33c-0.15-.07-0.22-0.03-0.22.11a2.933,2.933,0,0,0,1.75,1.21,2.426,2.426,0,0,0,.77-0.22l3.06-.55-0.11,1.86a16.531,16.531,0,0,1-.33,2.41,3.845,3.845,0,0,0,.66,1.53c0.29,0.29.51,0.25,0.65-.11a4.746,4.746,0,0,0,.22-1.53l0.11-4.27a36.933,36.933,0,0,1,3.72-.33c0.66-.07.77-0.32,0.33-0.76a4.6,4.6,0,0,0-1.31-.44,3.718,3.718,0,0,1-.99.33l-1.75.22a12.457,12.457,0,0,1,.11-1.86,1.621,1.621,0,0,0-.55-0.55l3.39-.33c0.3,0,.37-0.18.22-0.54a2.337,2.337,0,0,0-1.31-.44l-1.09.33a7.15,7.15,0,0,1,1.75-2.63l-0.77-.65c0.95-.08,1.82-0.15,2.63-0.22q0.54-.105.54-0.33a0.6,0.6,0,0,0-.32-0.44,3.144,3.144,0,0,0-1.54-.44c-0.21.08-.51,0.19-0.87,0.33l-2.19.44,0.11-2.73c0.66-.08,1.24-0.15,1.75-0.22,1.31-.15,1.86-0.37,1.64-0.66a2.632,2.632,0,0,0-1.2-.55c-0.37.15-.77,0.3-1.2,0.44-0.3.07-.63,0.15-0.99,0.22v-0.88a4.756,4.756,0,0,1,.11-1.09c0.22-.22.25-0.4,0.11-0.55h0Zm0.44,6.79a1.022,1.022,0,0,1,.11.76l-0.77,2.52-1.97.32a5.959,5.959,0,0,0-1.2-3.06Z" transform="translate(-1046.31 -3246.84)"/>
</svg>
