<svg id="ttl-gate" xmlns="http://www.w3.org/2000/svg" width="127.6" height="23.41" viewBox="0 0 127.6 23.41">
  <defs>
    <style>
      .cls-1 {
        fill-rule: evenodd;
      }
    </style>
  </defs>
  <path id="開閉門時間" class="cls-1" d="M1075.13,2935.91c-0.37.15-.66,0.25-0.88,0.33q-3.615.435-5.8,0.54h-0.43a3.573,3.573,0,0,1-1.54-.43,0.089,0.089,0,0,0-.1.11,2.7,2.7,0,0,0,1.64,1.31,2.926,2.926,0,0,0,.87-0.11,1.171,1.171,0,0,1,.22.33,1.522,1.522,0,0,1,.11.65,13.386,13.386,0,0,1-.11,1.97,12.952,12.952,0,0,1-1.75.11,3.96,3.96,0,0,1-1.31-.22,2.654,2.654,0,0,1-.99-0.54c-0.29-.15-0.36-0.08-0.22.21a3.488,3.488,0,0,0,1.21,1.1,2.917,2.917,0,0,0,1.31.54,2.159,2.159,0,0,0,.66-0.1,3.433,3.433,0,0,1,1.09-.22q-0.225,2.625-3.06,5.68c-0.15.3-.08,0.37,0.22,0.22a9.081,9.081,0,0,0,2.62-2.62,6.332,6.332,0,0,0,1.2-3.5l3.18-.33v3.72a4.031,4.031,0,0,1-.22,1.2,2.251,2.251,0,0,0,.43,1.42,0.271,0.271,0,0,0,.44,0,1.617,1.617,0,0,0,.22-0.65v-5.8h1.64a13.807,13.807,0,0,1,2.3.22c0.51-.07.55-0.33,0.11-0.77a3.748,3.748,0,0,0-1.75-.54c-0.22.07-.48,0.14-0.77,0.22a9.893,9.893,0,0,1-1.53.1l0.11-1.42a1.838,1.838,0,0,0-.55-1.53h3.07a0.4,0.4,0,0,0,.32-0.11,0.251,0.251,0,0,0,0-.33,1.262,1.262,0,0,0-.32-0.21,5.547,5.547,0,0,0-1.64-.55h0Zm-2.3,1.31a5.233,5.233,0,0,1,.44,1.2v1.75c-1.25.15-2.27,0.26-3.07,0.33v-1.64a1.254,1.254,0,0,1,.22-0.44,0.442,0.442,0,0,0,.11-0.32,0.589,0.589,0,0,0-.33-0.44,0.328,0.328,0,0,1-.22-0.22Zm7.87-4.59a47.991,47.991,0,0,1-5.68.76v-2.08l5.68-.65v1.97Zm0.22-6.02a0.613,0.613,0,0,0-.65.22,18.736,18.736,0,0,1-2.63.55c-1.24.22-2.19,0.36-2.84,0.43a3.051,3.051,0,0,0-1.64-.65c-0.37-.07-0.44,0-0.22.22a2.118,2.118,0,0,1,.76.65,2.424,2.424,0,0,1,.22,1.1v2.95a8.371,8.371,0,0,0-.11,1.31,2.765,2.765,0,0,0,.44,1.1c0.29,0.29.47,0.32,0.55,0.11l0.22-.44c2.18-.22,4.08-0.4,5.68-0.55l0.11,7.77v2.95q0,1.53-.54,1.53a6.09,6.09,0,0,1-1.1-.22c-0.44-.14-0.95-0.29-1.53-0.43-0.37-.15-0.44-0.08-0.22.21a11.182,11.182,0,0,1,1.86,1.1,4.28,4.28,0,0,1,1.42,1.42,0.634,0.634,0,0,0,.44.44c0.29,0,.55-0.37.77-1.1a2.891,2.891,0,0,0,.22-1.42q-0.225-3.72-.44-10.39v-3.17a23.14,23.14,0,0,1,.33-3.83,3.778,3.778,0,0,0,.21-0.87,3.107,3.107,0,0,0-1.31-.99h0Zm-10.39,1.97a1.167,1.167,0,0,0-.55-0.77,1.883,1.883,0,0,0-.98-0.54,8.1,8.1,0,0,1-1.2.44q-3.285.54-3.72,0.54a3.162,3.162,0,0,0-1.64-.87c-0.29-.15-0.37-0.07-0.22.22a3.332,3.332,0,0,1,.33.43,1.993,1.993,0,0,1,.33.99c0,4.88-.08,8.31-0.22,10.28s-0.33,3.68-.55,5.14a4.962,4.962,0,0,0,.22,2.41,0.922,0.922,0,0,0,.55.87,1.078,1.078,0,0,0,.54-0.98c0-.73.04-1.46,0.11-2.19l0.44-9.84,4.26-.33a0.7,0.7,0,0,0,.66.33c0.07-.08.15-0.15,0.22-0.22a2.469,2.469,0,0,0,.44-0.99l0.54-4.04a3.68,3.68,0,0,1,.33-0.44,0.649,0.649,0,0,0,.11-0.44h0Zm-2.19-.22c0.29,0,.44.11,0.44,0.33a5.591,5.591,0,0,1-.11,1.86,0.731,0.731,0,0,0-.65-0.33,14.432,14.432,0,0,1-1.86.44,7.716,7.716,0,0,1-2.08.22v-1.86c0.36-.07.94-0.18,1.75-0.33,0.58-.07,1.42-0.18,2.51-0.33h0Zm0.33,2.95-0.22,2.19a35.86,35.86,0,0,1-4.48.44l0.11-2.3q2.955-.21,4.59-0.33h0Zm11.6-3.6a0.434,0.434,0,0,1,.43.54v1.97a3.561,3.561,0,0,0-1.86-.55,6.322,6.322,0,0,1-1.2.44,20,20,0,0,1-2.62.33l-0.11-1.97c1.38-.14,3.17-0.4,5.36-0.76h0Zm27.38-1.54a1.818,1.818,0,0,0-.76.22l-4.38.66a3.079,3.079,0,0,1-1.86-.55c-0.29-.14-0.37-0.07-0.22.22a1.824,1.824,0,0,1,.77,1.31v3.94a3.091,3.091,0,0,0,.22,1.2,0.764,0.764,0,0,0,.76.55,1.582,1.582,0,0,1,.55-0.33l4.92-.33v11.93c0,0.58-.18.87-0.55,0.87a12.306,12.306,0,0,1-2.62-.55c-0.37-.14-0.48-0.07-0.33.22a8.722,8.722,0,0,1,3.28,2.19,0.684,0.684,0,0,0,.55.55,1.1,1.1,0,0,0,.66-0.88,6.219,6.219,0,0,0,.43-2.08l-0.33-6.78a97.714,97.714,0,0,1,.22-10.5,0.656,0.656,0,0,1,.33-0.43c0.15-.15.11-0.29-0.11-0.44a8.227,8.227,0,0,0-1.53-.99h0Zm-5.25,4.49c1.75-.15,3.46-0.33,5.14-0.55v1.86l-5.03.66Zm-7.33-2.85a0.4,0.4,0,0,1,.55.44v1.64h-0.55l-4.26.77v-2.08Zm3.83,5.47c-0.29-.14-0.37-0.07-0.22.22a1.885,1.885,0,0,1,.77.77,16.576,16.576,0,0,1,.11,2.29l-5.47.88a3.2,3.2,0,0,1-1.86-.55c-0.29-.07-0.37,0-0.22.22,0.95,1.02,1.64,1.53,2.08,1.53a25.649,25.649,0,0,1,2.62-.76c0.88-.15,1.82-0.29,2.85-0.44v1.09a23.478,23.478,0,0,1-3.28,2.74,40.189,40.189,0,0,1-4.05,2.4c-0.15.3-.04,0.37,0.33,0.22a29.248,29.248,0,0,0,7-3.72l0.11,3.72c0,0.44-.15.66-0.44,0.66a7.033,7.033,0,0,1-2.3-.88c-0.29-.14-0.36-0.07-0.22.22a20.385,20.385,0,0,1,2.3,1.64,4.314,4.314,0,0,1,.77,1.32,0.273,0.273,0,0,0,.43,0,8.542,8.542,0,0,0,.77-2.08,23.866,23.866,0,0,1-.33-2.63l-0.11-2.73,0.99-.55a1.9,1.9,0,0,0-.99-0.98v-0.55c1.1-.07,2.3-0.11,3.61-0.11,0.29-.14.36-0.33,0.22-0.55a5.2,5.2,0,0,0-1.75-.76,0.574,0.574,0,0,0-.55.22,2.625,2.625,0,0,1-1.53.33,4.438,4.438,0,0,1,.22-1.75,0.531,0.531,0,0,0-.22-0.77Zm8.09-6.01c0.37-.07.55,0.11,0.55,0.54v1.54a0.684,0.684,0,0,0-.65-0.11,27.054,27.054,0,0,1-4.6.65l-0.11-1.97Zm-11.26-.55a2.314,2.314,0,0,1-.88.33l-4.15.66a9.174,9.174,0,0,0-1.42-.66c-0.37-.07-0.48,0-0.33.22a2.848,2.848,0,0,1,.87,1.75c0,2.19-.04,4.48-0.11,6.89a55.691,55.691,0,0,1-.76,8.09,12.388,12.388,0,0,0,.11,1.86q0.21,1.425.87,1.53a3.119,3.119,0,0,0,.44-1.31q0.105-4.815.44-11.59l3.83-.66a3.971,3.971,0,0,1,1.09.11c0.36,0.29.62,0.26,0.76-.11l0.22-1.09,0.33-4.71c0.37-.22.44-0.4,0.22-0.54a7.007,7.007,0,0,0-1.53-.77h0Zm-0.88,4.16h0.77l-0.11,1.97-4.16.76h-0.54v-2.08Zm39.39-3.94a11.417,11.417,0,0,1-1.43.44,32.627,32.627,0,0,1-4.59.54,2.519,2.519,0,0,0-1.42-.43c-0.37-.08-0.44,0-0.22.22a1.584,1.584,0,0,1,.77,1.31v4.04a1.388,1.388,0,0,0,0,1.1,6.436,6.436,0,0,0,.43.76c0.22,0.22.48,0.08,0.77-.43q3.6-.33,5.69-0.55,0.1,6.24.11,12.25c0,0.51-.37.66-1.1,0.44-2.11-.66-3.02-0.95-2.73-0.88-0.29-.14-0.37-0.07-0.22.22a22.571,22.571,0,0,1,2.51,1.53,3.111,3.111,0,0,1,.99.99c0.14,0.8.47,0.94,0.98,0.43a3.431,3.431,0,0,0,.66-1.2,1.467,1.467,0,0,0,.11-1.2q-0.225-8.97,0-17.39a1.061,1.061,0,0,1,.33-0.77c0.29-.22.18-0.47-0.33-0.76a5.965,5.965,0,0,0-1.31-.66h0Zm0,4.05v2.18a1.7,1.7,0,0,0-1.32.11,23.559,23.559,0,0,1-4.48.44v-2.19a38.635,38.635,0,0,0,5.8-.54h0Zm-11.38-3.72c-0.15.07-.4,0.22-0.76,0.44-1.25.29-2.41,0.51-3.5,0.65a6.709,6.709,0,0,1-1.21.11,2.248,2.248,0,0,0-1.2-.44c-0.59,0-.62.19-0.11,0.55a1.844,1.844,0,0,1,.66,1.2q0,5.91-.44,13.68a11.137,11.137,0,0,1-.44,1.64,1.376,1.376,0,0,0,0,1.09,5.136,5.136,0,0,0,.66,1.42c0.36,0.22.65-.11,0.87-0.98q0.225-5.475.33-11.05c1.6-.22,3.17-0.47,4.7-0.77a0.97,0.97,0,0,0,.88.44,1.547,1.547,0,0,0,.55-1.42,28.952,28.952,0,0,1,.43-4.7c0.44-.44.37-0.8-0.22-1.1a5.64,5.64,0,0,0-1.2-.76h0Zm-0.11,4.37c0,0.81-.04,1.57-0.11,2.3q-2.4.435-4.92,0.87v-2.4a5.243,5.243,0,0,0,.98-0.11q1.98-.33,4.05-0.66h0Zm-0.33-3.06a0.392,0.392,0,0,1,.44.44,14.683,14.683,0,0,1-.11,1.75,0.515,0.515,0,0,0-.65,0c-1.03.29-2.16,0.54-3.4,0.76h-0.98v-2.18c1.38-.22,2.95-0.48,4.7-0.77h0Zm11.38-.55a0.392,0.392,0,0,1,.44.44v1.64a40.923,40.923,0,0,1-5.8.55v-1.86q1.2-.105,5.36-0.77h0Zm20.83-2.18c-0.22,0-.22.11,0,0.32a2.406,2.406,0,0,1,.88,1.54v2.62a12.077,12.077,0,0,1-2.63.44,1.847,1.847,0,0,1-1.42-.33c-0.36-.15-0.47-0.07-0.33.22a3.018,3.018,0,0,0,1.97,1.09,16.027,16.027,0,0,0,2.41-.44v3.5a27.968,27.968,0,0,1-4.27.77,7.909,7.909,0,0,1-1.75-.33v-3.06a3.578,3.578,0,0,1,.22-0.66,0.572,0.572,0,0,0,.22-0.32,0.912,0.912,0,0,0-.55-0.55,11.319,11.319,0,0,0-1.09-.66l-0.77.33a34.3,34.3,0,0,1-3.5.77,2.764,2.764,0,0,0-1.2-.66c-0.22-.15-0.33-0.11-0.33.11a1.436,1.436,0,0,1,.55,1.2c0,0.73.04,1.68,0.11,2.85-0.07,3.21-.15,5.36-0.22,6.45a3.375,3.375,0,0,0,.11.98,5.4,5.4,0,0,0,.33,1.32c0.29,0.51.54,0.51,0.76,0a4.221,4.221,0,0,0,.11-0.99,24.884,24.884,0,0,0,3.94-.76,1.044,1.044,0,0,0,.44.87c0.14,0.15.33,0.11,0.54-.11a1.944,1.944,0,0,0,.33-1.2v-5.58a2.838,2.838,0,0,0,2.19.98,8.4,8.4,0,0,0,1.86-.43,35.17,35.17,0,0,1,4.92-.99,1.637,1.637,0,0,1,.44.88,9.365,9.365,0,0,1,.22,1.97q-5.04.975-6.78,1.31a4.762,4.762,0,0,1-1.32-.22c-0.36-.14-0.43-0.04-0.22.33a3.8,3.8,0,0,0,1.75.87,3.377,3.377,0,0,0,.99-0.22,26.758,26.758,0,0,1,5.58-1.09q0,3.51-.11,6.45c0,0.66-.18.99-0.55,0.99a9.21,9.21,0,0,1-2.62-.99c-0.3-.14-0.37-0.07-0.22.22a15.963,15.963,0,0,1,1.97,1.53c0.36,0.44.69,0.84,0.98,1.21,0.22,0.51.51,0.58,0.88,0.22a8.887,8.887,0,0,0,.98-2.52,8.4,8.4,0,0,1-.22-2.08v-5.25l1.75-.11h1.42c0.37-.22.4-0.43,0.11-0.65a1.419,1.419,0,0,0-.76-0.33c-0.3-.07-0.66-0.15-1.1-0.22a7.388,7.388,0,0,1-1.42.33v-0.99a1.89,1.89,0,0,0-.11-0.76,4.987,4.987,0,0,0-.76-0.88,19.317,19.317,0,0,1,2.07-.11,12.8,12.8,0,0,0,2.3-.11c0.29-.14.33-0.32,0.11-0.54l-0.33-.22a15.89,15.89,0,0,0-2.19-.55,10.875,10.875,0,0,1-1.64.55c-0.8.07-1.82,0.22-3.06,0.44l0.11-3.5a23.148,23.148,0,0,1,3.61-.55c0.88-.15,1.31-0.33,1.31-0.55a1.267,1.267,0,0,0-.87-0.54,3.412,3.412,0,0,0-.88-0.22,2.617,2.617,0,0,0-.98.32,14.942,14.942,0,0,1-2.19.55v-0.76a3.442,3.442,0,0,1,.33-1.86c0.22-.15.18-0.37-0.11-0.66-1.09-.8-1.86-1.13-2.3-0.98h0Zm-10.39,11.04a2.017,2.017,0,0,0,.99,0c1.02-.14,2.04-0.33,3.06-0.54l-0.11,4.37-2.95.66-0.99.11v-4.6Zm1.1-5.14c0.94-.22,1.75-0.44,2.4-0.65a0.663,0.663,0,0,1,.55.76v3.61a19.224,19.224,0,0,1-4.05.66v-4.27a5.132,5.132,0,0,0,1.1-.11h0Zm8.75,9.41c-0.37-.07-0.44,0-0.22.22a20.645,20.645,0,0,1,2.18,2.29c0.44,0.52.77,0.44,0.99-.21a1.919,1.919,0,0,0-.44-1.21,10.5,10.5,0,0,0-2.51-1.09h0Zm34.12-14.55a1.767,1.767,0,0,0-1.09.22l-4.16.66a13.7,13.7,0,0,0-1.64-.11c-0.22,0-.29.11-0.22,0.33a1.865,1.865,0,0,1,.66,1.53v4.26a5.825,5.825,0,0,0,.11.99c0.14,0.8.36,1.2,0.65,1.2a0.375,0.375,0,0,0,.33-0.33,0.988,0.988,0,0,0,.11-0.44l4.27-.43,0.65,0.22-0.11,11.04c0,0.51-.22.7-0.65,0.55-0.59-.22-1.39-0.47-2.41-0.77-0.29-.14-0.37-0.07-0.22.22a11.056,11.056,0,0,1,2.95,3.17,0.39,0.39,0,0,0,.55,0,2.611,2.611,0,0,0,1.2-1.86c0-2.98-.03-6.01-0.11-9.07,0.08-2.99.11-6.02,0.11-9.08a1.317,1.317,0,0,1,.22-0.88,0.537,0.537,0,0,0,.22-0.54,0.635,0.635,0,0,0-.33-0.33c-0.29-.15-0.65-0.33-1.09-0.55h0Zm-0.88.99c0.37,0,.55.14,0.55,0.43v1.86l-4.92.77v-2.41Zm-11.7,3.82-0.11,2.74-3.94.76v-2.84h0.99Zm5.91,9.3v2.84a2.721,2.721,0,0,0-1.64.11,10.128,10.128,0,0,1-3.07.44v-2.84Zm-0.33-3.06a0.392,0.392,0,0,1,.44.44v1.86a2.273,2.273,0,0,0-.77-0.11,2.543,2.543,0,0,0-.65.11,14.081,14.081,0,0,1-3.4.43v-2.18Zm6.67-6.78v2.73a1.156,1.156,0,0,0-1.2,0l-3.72.55v-2.63Zm-11.7-3.94a2.547,2.547,0,0,0-.66.33l-3.94.76a7.915,7.915,0,0,1-1.64-.65c-0.36-.15-0.47-0.07-0.32.22a2.2,2.2,0,0,1,.76,1.53q0,7.32-.11,10.83c-0.14,2.26-.33,4.26-0.54,6.01v0.77a3.768,3.768,0,0,0,.65,1.97c0.29,0.21.55,0.07,0.77-.44,0-1.24.03-2.96,0.11-5.14q0.1-3.18.22-7l4.15-.99a0.46,0.46,0,0,0,.44.44,1.057,1.057,0,0,0,.44-0.11l0.22-.55,0.32-5.14a3.187,3.187,0,0,1,.11-1.2,1,1,0,0,0,.33-0.44,0.6,0.6,0,0,0-.22-0.43,4.148,4.148,0,0,0-1.09-.77h0Zm-0.99,1.2c0.29-.07.44,0.08,0.44,0.44v2.08a39.208,39.208,0,0,1-4.05.55v-2.3Zm5.69,8.53a25.294,25.294,0,0,1-4.15.77,4.884,4.884,0,0,0-1.54-.44c-0.21.08-.25,0.22-0.11,0.44a2.746,2.746,0,0,1,.55,1.97c0,1.75-.04,3.54-0.11,5.36,0,0.58.15,0.87,0.44,0.87a0.881,0.881,0,0,0,.87-0.65,9.857,9.857,0,0,0,1.65-.22,7.507,7.507,0,0,1,2.95-.22,1.216,1.216,0,0,0,.65.98,0.435,0.435,0,0,0,.44-0.22,2.08,2.08,0,0,0,.22-0.98l0.11-5.8a1.707,1.707,0,0,0,.44-0.76,0.649,0.649,0,0,0-.11-0.44,4.211,4.211,0,0,0-.99-0.87,1.559,1.559,0,0,0-1.31.21h0Z" transform="translate(-1062.03 -2925.81)"/>
</svg>
