<svg id="ttl-oomigokoro" xmlns="http://www.w3.org/2000/svg" width="79.88" height="38.16" viewBox="0 0 79.88 38.16">
  <defs>
    <style>
      .cls-1 {
        fill-rule: evenodd;
      }
    </style>
  </defs>
  <path id="おお" class="cls-1" d="M1063.82,3856.11c-0.15,0-.16.06-0.05,0.17a0.8,0.8,0,0,1,.38.65v0.17c0,0.43-.02,1.13-0.06,2.07-0.51.15-1.04,0.28-1.58,0.39a0.621,0.621,0,0,1-.66-0.17c-0.14-.07-0.18-0.03-0.11.11a1.3,1.3,0,0,0,.6.55,0.34,0.34,0,0,0,.28,0c0.54-.11,1.04-0.22,1.47-0.33-0.03,1.2-.05,2.21-0.05,3.01a6.358,6.358,0,0,0-1.86,1.42,1.4,1.4,0,0,0-.33.82,1.364,1.364,0,0,0,.66,1.2,1.983,1.983,0,0,0,1.04.39,0.7,0.7,0,0,0,.65-0.5,7.645,7.645,0,0,0,.33-2.78v-0.44a14.762,14.762,0,0,1,1.48-.6,5.346,5.346,0,0,1,1.86-.39,2.578,2.578,0,0,1,1.91.61,1.545,1.545,0,0,1,.44,1.14,2.1,2.1,0,0,1-.6,1.43,7.189,7.189,0,0,1-2.03,1.36c-0.11.11-.09,0.17,0.06,0.17a6.322,6.322,0,0,0,2.35-1.21,2.174,2.174,0,0,0,.88-1.75,1.992,1.992,0,0,0-.55-1.47,2.808,2.808,0,0,0-2.08-.77,6.641,6.641,0,0,0-1.86.33,15,15,0,0,0-1.86.77q0-1.32.06-2.85c1.05-.22,1.8-0.38,2.24-0.49,0.14-.07.16-0.16,0.05-0.27a4.085,4.085,0,0,0-.93-0.28,0.6,0.6,0,0,0-.22.17,7.937,7.937,0,0,1-1.14.32l0.05-1.03a2.923,2.923,0,0,1,.11-0.77,0.833,0.833,0,0,0,.05-0.49,2.208,2.208,0,0,0-.98-0.66h0Zm5.36,1.1c-0.07.03-.09,0.07-0.05,0.1a3.156,3.156,0,0,1,.76.61,6.534,6.534,0,0,1,.71,1.14,0.532,0.532,0,0,0,.49.33c0.15,0,.22-0.11.22-0.33a1.816,1.816,0,0,0-.6-1.03,3.012,3.012,0,0,0-1.53-.82h0Zm-5.14,5.96a10.03,10.03,0,0,1-.27,2.35,0.54,0.54,0,0,1-.44.44,1.2,1.2,0,0,1-.77-0.28,0.921,0.921,0,0,1-.38-0.65,1.13,1.13,0,0,1,.44-0.88,12.324,12.324,0,0,1,1.42-.98h0Zm13.04-7.06c-0.15,0-.17.06-0.06,0.17a0.773,0.773,0,0,1,.38.65v0.17c0,0.43-.02,1.13-0.05,2.07q-0.765.225-1.59,0.39a0.609,0.609,0,0,1-.65-0.17c-0.15-.07-0.19-0.03-0.11.11a1.3,1.3,0,0,0,.6.55,0.315,0.315,0,0,0,.27,0c0.55-.11,1.04-0.22,1.48-0.33-0.04,1.2-.06,2.21-0.06,3.01a6.664,6.664,0,0,0-1.86,1.42,1.447,1.447,0,0,0-.32.82,1.376,1.376,0,0,0,.65,1.2,2.013,2.013,0,0,0,1.04.39,0.719,0.719,0,0,0,.66-0.5,7.645,7.645,0,0,0,.33-2.78v-0.44a13.537,13.537,0,0,1,1.47-.6,5.437,5.437,0,0,1,1.86-.39,2.6,2.6,0,0,1,1.92.61,1.538,1.538,0,0,1,.43,1.14,2.1,2.1,0,0,1-.6,1.43,7.111,7.111,0,0,1-2.02,1.36c-0.11.11-.09,0.17,0.05,0.17a6.366,6.366,0,0,0,2.36-1.21,2.164,2.164,0,0,0,.87-1.75,1.953,1.953,0,0,0-.55-1.47,2.8,2.8,0,0,0-2.07-.77,6.525,6.525,0,0,0-1.86.33,13.836,13.836,0,0,0-1.86.77c0-.88.01-1.83,0.05-2.85,1.06-.22,1.81-0.38,2.24-0.49q0.225-.1.06-0.27a4.4,4.4,0,0,0-.93-0.28,0.529,0.529,0,0,0-.22.17,8.122,8.122,0,0,1-1.15.32l0.06-1.03a2.561,2.561,0,0,1,.11-0.77,0.833,0.833,0,0,0,.05-0.49,2.271,2.271,0,0,0-.98-0.66h0Zm5.35,1.1c-0.07.03-.09,0.07-0.05,0.1a3.272,3.272,0,0,1,.77.61,7.193,7.193,0,0,1,.71,1.14,0.522,0.522,0,0,0,.49.33c0.14,0,.22-0.11.22-0.33a1.816,1.816,0,0,0-.6-1.03,3,3,0,0,0-1.54-.82h0Zm-5.14,5.96a9.034,9.034,0,0,1-.27,2.35,0.53,0.53,0,0,1-.44.44,1.169,1.169,0,0,1-.76-0.28,0.9,0.9,0,0,1-.39-0.65,1.162,1.162,0,0,1,.44-0.88,13.323,13.323,0,0,1,1.42-.98h0Z" transform="translate(-1061.56 -3855.78)"/>
  <path id="み" class="cls-1" d="M1100.1,3856.88l-0.27.16-2.03.6a1.314,1.314,0,0,1-.92,0c-0.15-.07-0.19-0.03-0.11.11a1.921,1.921,0,0,0,.93.55,1.3,1.3,0,0,1,.43-0.27l1.92-.61c0.11,0,.12.06,0.05,0.17-0.91,1.79-1.84,3.44-2.79,4.97a3.284,3.284,0,0,0-2.35.66,1.771,1.771,0,0,0-.55,1.26,1,1,0,0,0,.22.71,0.677,0.677,0,0,0,.5.22,1.58,1.58,0,0,0,.71-0.17,2.85,2.85,0,0,0,.82-0.82l1.04-1.47a43.762,43.762,0,0,1,4.43.98,7.345,7.345,0,0,1-2.03,2.3c-0.07.15-.04,0.18,0.11,0.11a6.768,6.768,0,0,0,2.46-2.24c0.69,0.21,1.42.47,2.19,0.76a0.151,0.151,0,0,0,.22-0.16,1.661,1.661,0,0,0-.6-0.77l-1.48-.38c0.15-.4.29-0.78,0.44-1.15a0.823,0.823,0,0,0,.16-0.22,1.826,1.826,0,0,0-.6-0.98c-0.11-.11-0.16-0.09-0.16.05a1.829,1.829,0,0,1,.05.77,8.22,8.22,0,0,1-.49,1.37c-1.61-.37-3.1-0.64-4.49-0.83q1.05-1.575,3.01-4.97c0.22-.15.28-0.26,0.17-0.33a1.687,1.687,0,0,0-.99-0.38h0Zm-3.01,6.07-1.04,1.58a1.2,1.2,0,0,1-.43.44,1.057,1.057,0,0,1-.44.11,0.507,0.507,0,0,1-.38-0.16,0.732,0.732,0,0,1-.11-0.5,1.417,1.417,0,0,1,.49-0.98,2.742,2.742,0,0,1,1.91-.49h0Z" transform="translate(-1061.56 -3855.78)"/>
  <path id="ごころ" class="cls-1" d="M1111.88,3857.92a12.225,12.225,0,0,1,1.58-.11,5.159,5.159,0,0,1,2.02.33c0.22,0.1.24,0.2,0.06,0.27l-0.82.49c-0.15.11-.13,0.15,0.05,0.11a5.541,5.541,0,0,1,1.37-.38c0.15,0,.42.02,0.82,0.05,0.29-.03.35-0.16,0.17-0.38a2.935,2.935,0,0,0-1.65-.77,10.325,10.325,0,0,0-1.85-.11c-0.33,0-.99.06-1.97,0.17-0.22.04-.15,0.14,0.22,0.33h0Zm-0.77,5.47c-0.04-.15-0.09-0.15-0.16,0a1.834,1.834,0,0,0,.32,1.14,2.936,2.936,0,0,0,1.26.88,13.568,13.568,0,0,0,4.49.55c0.65,0,.98-0.1.98-0.28a0.919,0.919,0,0,0-.87-0.54,5.9,5.9,0,0,1-1.26.1,14.106,14.106,0,0,1-2.46-.16,4.158,4.158,0,0,1-1.75-.66,1.182,1.182,0,0,1-.55-1.03h0Zm7.6-5.36a0.286,0.286,0,0,0,.22.16c0.11,0,.16-0.09.16-0.27a1.047,1.047,0,0,0-.27-0.77,3.074,3.074,0,0,0-1.15-.49c-0.14,0-.16.04-0.05,0.11a2.962,2.962,0,0,1,1.09,1.26h0Zm0.88-.88a0.274,0.274,0,0,0,.21.16c0.11,0,.17-0.09.17-0.27a1.022,1.022,0,0,0-.27-0.76,3.135,3.135,0,0,0-1.15-.5c-0.15,0-.17.04-0.06,0.11a2.975,2.975,0,0,1,1.1,1.26h0Zm3.88,0.77a12.459,12.459,0,0,1,1.58-.11,5.213,5.213,0,0,1,2.03.33c0.22,0.1.23,0.2,0.05,0.27l-0.82.49c-0.15.11-.13,0.15,0.06,0.11a5.4,5.4,0,0,1,1.36-.38c0.15,0,.42.02,0.82,0.05,0.29-.03.35-0.16,0.17-0.38a2.934,2.934,0,0,0-1.64-.77,10.541,10.541,0,0,0-1.86-.11c-0.33,0-.99.06-1.97,0.17-0.22.04-.15,0.14,0.22,0.33h0Zm-0.77,5.47c-0.04-.15-0.09-0.15-0.16,0a1.837,1.837,0,0,0,.33,1.14,2.963,2.963,0,0,0,1.25.88,13.609,13.609,0,0,0,4.49.55c0.65,0,.98-0.1.98-0.28a0.919,0.919,0,0,0-.87-0.54,5.839,5.839,0,0,1-1.26.1,14.106,14.106,0,0,1-2.46-.16,4.158,4.158,0,0,1-1.75-.66,1.182,1.182,0,0,1-.55-1.03h0Zm15.55-6.9a0.863,0.863,0,0,0-.71.22,16.42,16.42,0,0,1-2.68.66,0.81,0.81,0,0,1-.87-0.27c-0.15-.08-0.19-0.04-0.11.11q0.6,0.975.93,0.87a1.189,1.189,0,0,1,.65-0.33l2.57-.71v0.17c-1.09,1.42-2.06,2.66-2.89,3.71a17.647,17.647,0,0,1-1.75,2.03c-0.22.11-.41,0.2-0.55,0.27a2.378,2.378,0,0,0,.16.77,0.212,0.212,0,0,0,.28,0,19.755,19.755,0,0,1,2.4-1.43,6.5,6.5,0,0,1,2.9-.76,2.723,2.723,0,0,1,1.7.44,1.258,1.258,0,0,1,.49,1.04,1.974,1.974,0,0,1-.99,1.58,11.786,11.786,0,0,1-3.61,1.42c-0.1.11-.09,0.17,0.06,0.17a11.423,11.423,0,0,0,4.1-1.26,2.222,2.222,0,0,0,1.09-1.86,1.456,1.456,0,0,0-.54-1.2,2.9,2.9,0,0,0-2.08-.6,7.436,7.436,0,0,0-2.08.27,16.511,16.511,0,0,0-2.73,1.04l4.65-5.36a1.4,1.4,0,0,1,.38-0.22c0.14-.04.16-0.11,0.05-0.22Z" transform="translate(-1061.56 -3855.78)"/>
  <path id="大御心" class="cls-1" d="M1070.53,3872.6a1.767,1.767,0,0,1,.77,1.53,33.6,33.6,0,0,1-.22,4.48c-1.61.15-3.25,0.33-4.92,0.55a3.862,3.862,0,0,1-3.07-.55c-0.43-.36-0.58-0.33-0.43.11,0.72,1.24,1.38,1.9,1.97,1.97a31.793,31.793,0,0,1,6.34-1.09,15.151,15.151,0,0,1-3.06,6.56,28.037,28.037,0,0,1-6.24,5.47c-0.22.29-.15,0.36,0.22,0.22q8.2-3.945,10.28-11.38,3.495,5.685,6.35,10.17a1.364,1.364,0,0,0,1.2.66,37.617,37.617,0,0,1,4.26.22c0.37-.07.37-0.22,0-0.44a21.77,21.77,0,0,1-5.35-3.39c-1.68-1.9-3.8-4.48-6.35-7.77l0.11-.43a36.251,36.251,0,0,1,4.7-.33,35.061,35.061,0,0,1,4.49.22c0.73-.07.84-0.37,0.33-0.88a11.266,11.266,0,0,0-2.19-.76,3.3,3.3,0,0,0-.55.22q-3.39.21-6.67,0.54c0.07-.51.15-1.31,0.22-2.4a6.235,6.235,0,0,1,.33-2.19,0.628,0.628,0,0,0-.11-0.99,2.685,2.685,0,0,0-1.1-.65,3.421,3.421,0,0,0-1.31-.22c-0.51.07-.51,0.26,0,0.55h0Zm25.63-.77c-0.29,0-.37.07-0.22,0.22a3.777,3.777,0,0,1,.55.44,0.713,0.713,0,0,1,0,.54,21.12,21.12,0,0,1-2.3,4.38c-0.15.29-.07,0.36,0.22,0.22a14.418,14.418,0,0,0,1.75-1.86,1.692,1.692,0,0,0,1.64.11,0.684,0.684,0,0,1,.55.54,10.946,10.946,0,0,1,.11,1.97c-0.95.22-1.94,0.44-2.96,0.66a5.761,5.761,0,0,1-1.86-.11c-0.29-.15-0.36-0.07-0.21.22a4.958,4.958,0,0,0,1.64.87,1.871,1.871,0,0,0,.87-0.22c0.73-.21,1.57-0.43,2.52-0.65v6.89l-2.85.76,0.22-3.28a0.933,0.933,0,0,0,.22-0.98,2.4,2.4,0,0,0-1.86-.88c-0.29,0-.36.08-0.22,0.22a2.582,2.582,0,0,1,.66.66,3.83,3.83,0,0,1,.11,1.2,12.1,12.1,0,0,1-.33,3.28,4.586,4.586,0,0,1-.98.11c-0.3-.07-0.33.08-0.11,0.44a4.742,4.742,0,0,0,1.2,1.09,1.09,1.09,0,0,0,.44-0.32c0.65-.22,1.67-0.59,3.06-1.1s3.06-1.2,5.03-2.08c0.15-.29.07-0.36-0.22-0.21l-3.28.87V3882a18.821,18.821,0,0,0,3.5-.33,0.423,0.423,0,0,0,.11-0.76,0.908,0.908,0,0,0-.87-0.22,8.912,8.912,0,0,1-2.74.55l0.11-2.3c1.09-.22,2.11-0.4,3.06-0.55,0.51-.14.62-0.4,0.33-0.76a1.765,1.765,0,0,0-1.09-.33,2.683,2.683,0,0,1-.66.44c-0.73.22-1.28,0.36-1.64,0.43v-0.43c0.29-.8.33-1.28,0.11-1.43a8.768,8.768,0,0,1-.98-0.65c1.67-.29,2.77-0.51,3.28-0.66,0.43-.22.51-0.47,0.22-0.76a1.89,1.89,0,0,0-1.21-.22,1.214,1.214,0,0,1-.54.44,25.375,25.375,0,0,1-2.96.76,1.352,1.352,0,0,1-.98-0.11,13.347,13.347,0,0,1,1.53-1.97q0.54-.54,0-0.87a3.962,3.962,0,0,0-1.97-.44h0Zm-4.37,4.7c-0.3,0-.37.08-0.22,0.22a1.013,1.013,0,0,1,.65.55,10.791,10.791,0,0,1-1.53,2.84,30.161,30.161,0,0,1-3.17,4.05c-0.15.29-.07,0.37,0.22,0.22q1.965-1.755,3.17-3.06a0.818,0.818,0,0,1,.33.87c-0.08,2.48-.18,4.41-0.33,5.8a7.032,7.032,0,0,1-.44,2.19,5.314,5.314,0,0,0,.11,1.2,1.988,1.988,0,0,0,.66.87,0.614,0.614,0,0,0,.44-0.11c0.21-.36.36-2.29,0.43-5.79,0-1.75.04-3.36,0.11-4.82,0.15-.36-0.11-0.65-0.76-0.87,0.43-.51,1.09-1.35,1.97-2.52,0.43-.36.58-0.61,0.43-0.76a2.837,2.837,0,0,0-2.07-.88h0Zm0.43-4.37c-0.29-.15-0.36-0.07-0.22.22a1.611,1.611,0,0,1,.33.54,0.988,0.988,0,0,1-.11.44,17.652,17.652,0,0,1-3.72,3.28c-0.14.3-.07,0.37,0.22,0.22a44.74,44.74,0,0,0,4.6-2.62,0.591,0.591,0,0,0,.32-0.99,7.609,7.609,0,0,0-1.42-1.09h0Zm17.39,3.94a2.487,2.487,0,0,1-.76.32,12.29,12.29,0,0,1-3.39.66,7.765,7.765,0,0,0-1.64-.33c-0.37,0-.44.11-0.22,0.33a1.782,1.782,0,0,1,.76.77,6.314,6.314,0,0,1,.11,1.64q0,6.12-.33,13.56a1.085,1.085,0,0,0,.44.87,0.983,0.983,0,0,0,.55-0.65,23.941,23.941,0,0,0,.33-4.49c0.07-2.11.18-5.76,0.33-10.93a23.842,23.842,0,0,0,2.84-.55,3.385,3.385,0,0,1,.76-0.11,0.392,0.392,0,0,1,.44.44,48.8,48.8,0,0,1-.65,5.47,2.743,2.743,0,0,1-.55,1.64,0.373,0.373,0,0,1-.44-0.11l-1.31-.66c-0.29-.14-0.37-0.07-0.22.22a7.375,7.375,0,0,1,2.08,2.52c0.07,0.21.22,0.25,0.44,0.1,0.43-.29.83-1.38,1.2-3.28q0.66-3.6.87-5.25c0.29-.43.37-0.72,0.22-0.87a4.229,4.229,0,0,0-1.86-1.31h0Zm11.26,3.39q1.635,5.25,4.81,7.54a14.1,14.1,0,0,0,8.43,2.3,18.4,18.4,0,0,0,2.62-.22,3.126,3.126,0,0,0,1.97-.76q0.21-.33-0.33-0.66c-0.58-.36-1.17-0.77-1.75-1.2a10.986,10.986,0,0,1-2.08-2.3c-0.29-.15-0.36-0.07-0.22.22a27.5,27.5,0,0,1,1.21,2.62,0.554,0.554,0,0,1-.44.66,3.394,3.394,0,0,1-.98.22q-4.815,0-7.11-1.42c-2.27-1.17-4.23-3.58-5.91-7.22-0.22-.15-0.29-0.07-0.22.22h0Zm4.92-5.14c-0.22-.08-0.29,0-0.22.21a17.612,17.612,0,0,0,1.1,2.74c0.58,1.17,1.13,1.75,1.64,1.75,0.29,0,.36-0.18.22-0.55a3.737,3.737,0,0,1-.22-1.2,2.256,2.256,0,0,1,.33-1.2c0.14-.15.14-0.22,0-0.22a2.16,2.16,0,0,1-1.21-.11,10.479,10.479,0,0,1-1.64-1.42h0Zm9.19,0.98c-0.29-.14-0.37-0.07-0.22.22a14.367,14.367,0,0,1,2.74,4.16,1.145,1.145,0,0,0,.76.54c0.37,0,.55-0.33.55-0.98a4.242,4.242,0,0,0-.88-2.19c-0.87-.58-1.86-1.17-2.95-1.75h0Zm-16.3,4.7c0-.29-0.07-0.32-0.22-0.11q-1.965,4.05-2.29,4.71a2.089,2.089,0,0,0-.33,1.09,2.947,2.947,0,0,0,.33,1.53,0.635,0.635,0,0,0,.54.33,0.712,0.712,0,0,0,.66-0.55,52.781,52.781,0,0,1,1.31-7h0Z" transform="translate(-1061.56 -3855.78)"/>
</svg>
