<svg id="wedding_ttl" xmlns="http://www.w3.org/2000/svg" width="48.469" height="107.69" viewBox="0 0 48.469 107.69">
  <defs>
    <style>
      .cls-1 {
        fill: #100d0d;
        fill-rule: evenodd;
      }
    </style>
  </defs>
  <path id="明治神宮の_結婚式" data-name="明治神宮の 結婚式" class="cls-1" d="M601.6,2666.32a3.457,3.457,0,0,1-.844.28c-1.687.37-3.219,0.66-4.593,0.84a4.841,4.841,0,0,0-1.5-.47c-0.314-.06-0.375,0-0.188.19a1.737,1.737,0,0,1,.844,1.13c0.061,0.44.094,1.62,0.094,3.56a23.45,23.45,0,0,1-.844,6.84,15.51,15.51,0,0,1-3.094,5.35q-0.189.375,0.188,0.18a16.141,16.141,0,0,0,2.718-3.09,13.729,13.729,0,0,0,1.782-4.59q1.874-.09,5.531-0.57,0.091,3.285.094,6.47c0,0.32-.188.41-0.563,0.28-0.75-.18-1.532-0.4-2.344-0.65-0.25-.13-0.313-0.06-0.187.19,0.811,0.5,1.594.97,2.344,1.4a1.818,1.818,0,0,1,.656.85q0.186,0.555.562,0.18a11.393,11.393,0,0,0,.844-1.5,6.487,6.487,0,0,1-.187-1.59q-0.282-6-.094-12.84a1.519,1.519,0,0,1,.281-0.94,0.3,0.3,0,0,0,0-.56,9.54,9.54,0,0,0-1.5-.94h0Zm0.094,5.34v3.47q-2.064.375-5.438,0.66a28.079,28.079,0,0,0,.188-3.28,27.245,27.245,0,0,1,5.25-.85h0Zm-0.469-4.31a0.38,0.38,0,0,1,.469.37v3.19a2.163,2.163,0,0,0-.656-0.09c-0.314.06-.844,0.19-1.594,0.37-0.938.19-1.938,0.35-3,.47v-3.56h0.562q2.155-.375,4.219-0.75h0Zm-9.844,5.34v3.38h-0.468q-1.6.375-3.282,0.75c0-1.19-.032-2.38-0.093-3.56a1.029,1.029,0,0,0,.843,0q1.125-.285,3-0.57h0Zm-0.093-5.06a4.174,4.174,0,0,1-.75.38c-1.064.25-2.157,0.46-3.282,0.65a5.341,5.341,0,0,0-1.031-.47c-0.25-.12-0.313-0.06-0.187.19a1.169,1.169,0,0,1,.375.66,4.482,4.482,0,0,1,.187,1.4q0.093,3.105,0,6.66,0,1.59.656,1.59c0.312-.06.437-0.47,0.375-1.22,1.187-.24,2.375-0.46,3.563-0.65a3.555,3.555,0,0,0,.562.37,0.4,0.4,0,0,0,.563-0.09,3,3,0,0,0,.094-1.31q-0.094-6.375.281-6.75a0.419,0.419,0,0,0-.094-0.66,5.181,5.181,0,0,0-1.312-.75h0Zm-0.375.94a0.375,0.375,0,0,1,.468.37v3q-1.876.375-3.843,0.75v-3.37a28.756,28.756,0,0,1,3.375-.75h0Zm-1.125,30.59a64.06,64.06,0,0,1-3.469,5.53,0.537,0.537,0,0,1-.844-0.09c-0.375-.31-0.5-0.25-0.375.19a4.166,4.166,0,0,0,1.5,1.87c0.437,0.38.687,0.28,0.75-.28a4.22,4.22,0,0,1,.375-1.4c0.812-1.82,1.562-3.69,2.25-5.63,0.062-.31,0-0.37-0.187-0.19h0Zm7.031-10.12c-0.438-.06-0.469.09-0.094,0.47a0.911,0.911,0,0,1,.281,1.12,44.507,44.507,0,0,1-3.375,5.72c-0.187.06-.407,0.13-0.656,0.19-0.25,0-.281.47-0.094,1.4q0.188,0.375.75,0a4.758,4.758,0,0,1,1.313-.56,39.368,39.368,0,0,1,7.594-1.5c0.187,0.38.375,0.75,0.562,1.13,0.5,0.62.875,0.56,1.125-.19a4.315,4.315,0,0,0-.844-1.88,19.242,19.242,0,0,0-2.625-2.06c-0.187-.12-0.25-0.09-0.187.1a16.713,16.713,0,0,1,1.594,2.25,60.952,60.952,0,0,0-7.782,1.21c1.374-1.74,2.687-3.53,3.938-5.34a3,3,0,0,1,.469-0.37q0.281-.2-0.094-0.66a5.681,5.681,0,0,0-1.875-1.03h0Zm4.687,11.9c0.375,0,.563.13,0.563,0.38l-0.469,3.66a39.448,39.448,0,0,0-6.375.37,14.791,14.791,0,0,0-.281-3.66,51.672,51.672,0,0,1,6.562-.75h0Zm0.938-1.03c-0.126.07-.314,0.16-0.563,0.28q-3.75.285-7.125,0.75c-0.438-.18-0.843-0.34-1.218-0.46-0.314-.13-0.408-0.04-0.282.28a4.153,4.153,0,0,1,.75,1.59,10.684,10.684,0,0,1,.188,3.38,2.035,2.035,0,0,0,.375.84,0.365,0.365,0,0,0,.656-0.09,0.747,0.747,0,0,0,.094-0.29,28.752,28.752,0,0,1,6.094-.46,0.372,0.372,0,0,0,.375.46,0.708,0.708,0,0,0,.843-0.65l0.75-3.47a0.916,0.916,0,0,1,.375-0.47q0.374-.285,0-0.75a4.484,4.484,0,0,0-1.312-.94h0Zm-14.719-10.59c-0.375-.13-0.469-0.03-0.281.28a12.6,12.6,0,0,0,1.781,2.06,2.153,2.153,0,0,0,1.125.66c0.249,0,.375-0.19.375-0.56a1.94,1.94,0,0,0-.562-1.22,5,5,0,0,1-2.438-1.22h0Zm-1.687,5.06c-0.375-.25-0.469-0.19-0.282.19a7.261,7.261,0,0,0,1.782,1.87,1.552,1.552,0,0,0,1.125.29c0.5-.38.312-0.91-0.563-1.6a4.336,4.336,0,0,1-2.062-.75h0Zm12.093,21.81v2.34l-2.343.38h-0.657q-0.189-1.965-.187-2.34Zm-1.031-4.97c-0.25.06-.25,0.16,0,0.28a5.128,5.128,0,0,1,.75.57,0.893,0.893,0,0,1,.188.65v2.81l-3.375.38a2.272,2.272,0,0,0-1.313-.47c-0.25,0-.313.09-0.187,0.28a1.106,1.106,0,0,1,.656.75c0.187,2.19.281,3.78,0.281,4.78a2.7,2.7,0,0,0,.844,2.25,0.7,0.7,0,0,0,.562-0.65l2.625-.28v6.93a1.01,1.01,0,0,0,.469.94c0.249,0,.406-0.34.469-1.03v-1.97c0-1.19.031-2.87,0.094-5.06,0.874-.06,1.687-0.1,2.437-0.1a1.286,1.286,0,0,0,.75.66,0.748,0.748,0,0,0,.563-0.47c0.061-.37.187-1.09,0.375-2.15q0.281-1.7.562-3.75a0.547,0.547,0,0,1,.188-0.38c0.312-.12.187-0.44-0.375-0.94a3.083,3.083,0,0,0-.75-0.56,0.521,0.521,0,0,0-.375.19l-3.282.47v-2.44a1.05,1.05,0,0,1,.094-0.47c0.249-.31.125-0.62-0.375-0.94a2.667,2.667,0,0,0-1.875-.28h0Zm5.063,4.5a0.335,0.335,0,0,1,.375.38l-0.094,2.15a1.778,1.778,0,0,0-1.031-.37,8.857,8.857,0,0,1-2.157.47V2716Zm-1.313,3.19h1.5c-0.063.75-.126,1.59-0.187,2.53a2.161,2.161,0,0,1-.657-0.09l-0.468.18-1.875.19,0.093-2.62Zm-2.719.37v2.63l-2.718.28-0.188-2.62h0.563Zm-6.937-3.56c-0.251-.06-0.375,0-0.375.19a4.618,4.618,0,0,1-1.219.47c-1.125.25-2.188,0.44-3.187,0.56a1.1,1.1,0,0,1-.938-0.37q-0.28-.2-0.281.09a1.118,1.118,0,0,0,.281.56,2.361,2.361,0,0,0,1.219.75c1-.37,2.187-0.78,3.562-1.22a0.262,0.262,0,0,1,.282.38,31.806,31.806,0,0,1-2.719,4.22,18.173,18.173,0,0,1-3.094,3.09c-0.126.19-.063,0.25,0.188,0.19a19.744,19.744,0,0,0,1.875-1.5q0.563-.465,2.25-2.16l0.187,0.19v2.72a19.5,19.5,0,0,1-.187,2.9c-0.063.38-.126,0.72-0.188,1.04a5.162,5.162,0,0,0,.656,1.96q0.374,0.375.563-.18a8.3,8.3,0,0,0,.094-1.32v-7.96c0.187-.13.124-0.29-0.188-0.47a29.01,29.01,0,0,0,1.969-2.72,0.79,0.79,0,0,0,.469-0.47c-0.251-.19-0.657-0.5-1.219-0.94h0Zm-2.813-4.4c-0.187-.13-0.25-0.07-0.187.18a6.4,6.4,0,0,0,2.625,2.72q0.843,0.285.656-.84a1.106,1.106,0,0,0-.656-0.75,10.239,10.239,0,0,1-2.438-1.31h0Zm2.625,8.62c-0.187-.06-0.25,0-0.187.19,0.75,1,1.374,1.84,1.875,2.53a0.6,0.6,0,0,0,.656.28c0.188-.06.249-0.28,0.188-0.66a2.891,2.891,0,0,0-.469-1.12,1.846,1.846,0,0,0-.75-0.56,4.486,4.486,0,0,1-1.313-.66h0Zm2.532,13.84c-0.251,0-.282.09-0.094,0.28a1.284,1.284,0,0,1,.75.94v1.59l-4.688.47H588.1l-0.281-.94c-0.188-.18-0.281-0.15-0.281.1a7.175,7.175,0,0,1-.094,1.31,4.321,4.321,0,0,1-1.219,1.78,1.764,1.764,0,0,0,.375,1.5,0.636,0.636,0,0,0,.844-0.47,4.5,4.5,0,0,0,.75-2.53h1.031c1.875-.19,3.718-0.4,5.531-0.65q3-.285,6.657-0.29,0.749,0.105.281,0.57l-1.125,1.68c-0.126.26-.063,0.32,0.187,0.19l1.875-1.22a1.667,1.667,0,0,1,1.125-.18,0.262,0.262,0,0,0,.282-0.38,3.665,3.665,0,0,0-1.594-1.69h-0.375q-2.626.285-6.75,0.66v-1.03a0.557,0.557,0,0,1,.281-0.47q0.282-.18-0.187-0.66a3.332,3.332,0,0,0-1.875-.56h0Zm4.593,5.34a7.943,7.943,0,0,0-1.593.47c-1.5.19-2.5,0.32-3,.38s-1.158.12-1.969,0.19a5.807,5.807,0,0,0-1.125-.38c-0.251-.12-0.314-0.06-0.188.19a3.523,3.523,0,0,1,.657,1.12l0.281,2.53a1.466,1.466,0,0,0,.562.94c0.188,0.13.343,0.03,0.469-.28l1.031-.09a1.1,1.1,0,0,1,.282.84,13.752,13.752,0,0,1-.563,1.97l-2.531.19a2.8,2.8,0,0,0-1.406-.38c-0.251,0-.251.1,0,0.28a1.68,1.68,0,0,1,.75,1.03l0.656,4.04c0.249,0.5.5,0.62,0.75,0.37a1.217,1.217,0,0,0,.281-0.47c1.562-.25,2.687-0.4,3.375-0.47q0.936-.09,2.25-0.09a6.531,6.531,0,0,1,1.125.19,0.467,0.467,0,0,0,.469-0.1,1.3,1.3,0,0,0,.094-0.56l1.031-2.81a1,1,0,0,1,.469-0.38c0.249-.18.187-0.47-0.188-0.84a4.083,4.083,0,0,0-1.031-.75,7.687,7.687,0,0,0-1.5.19l-4.031.47a18.684,18.684,0,0,0,1.031-1.69c0.187-.19.343-0.34,0.469-0.47a0.241,0.241,0,0,0,0-.38,2.53,2.53,0,0,0-.563-0.37l2.063-.47a1.389,1.389,0,0,0,.75.38,0.389,0.389,0,0,0,.375-0.19,3.157,3.157,0,0,0,.187-0.56c0.375-.82.718-1.63,1.031-2.44a1.069,1.069,0,0,1,.375-0.38c0.188-.12.062-0.34-0.375-0.65a3.123,3.123,0,0,0-.75-0.57h0Zm0,7.97c0.375,0,.531.13,0.469,0.38l-0.656,3.28-0.75-.09c-2,.25-3.97.46-5.906,0.65l-0.563-3.37q2.624-.2,7.406-0.85h0Zm-0.75-7.03c0.249,0,.343.16,0.282,0.47a19.9,19.9,0,0,1-.657,2.34,1.47,1.47,0,0,1-.562-0.18,5.6,5.6,0,0,1-.656.28,20.813,20.813,0,0,1-3.563.56l-0.469-2.72,1.125-.09,3.75-.56Zm-1.031,19.9a11.407,11.407,0,0,0-8.344,3.56c-1.312,1.31-1.968,2.5-1.968,3.56a7.778,7.778,0,0,0,.468,2.81,8.8,8.8,0,0,0,1.313,2.44,0.8,0.8,0,0,0,1.031.38,9.7,9.7,0,0,0,1.031-.94,26.5,26.5,0,0,0,3.563-5.53q1.874-3.945,1.875-4.78a1.728,1.728,0,0,0-.281-0.85h0.937a6.718,6.718,0,0,1,4.969,1.69,5.223,5.223,0,0,1,1.312,3.84,6,6,0,0,1-1.125,3.85,12.191,12.191,0,0,1-5.062,3.47c-0.126.12-.094,0.18,0.094,0.18a14.524,14.524,0,0,0,5.343-2.72,5.426,5.426,0,0,0,1.875-4.21,6.594,6.594,0,0,0-1.781-4.88,7.1,7.1,0,0,0-5.25-1.87h0Zm-1.687.65c0,1.07-.626,2.75-1.875,5.06a16.963,16.963,0,0,1-4.125,5.54,0.422,0.422,0,0,1-.469-0.1,5.54,5.54,0,0,1-1.031-1.97,6.256,6.256,0,0,1-.469-2.25,2.982,2.982,0,0,1,1.031-2.06c2.438-2.44,4.749-3.84,6.938-4.22h0Zm-26.375-94.18c-0.5,0-.5.15,0,0.47a1.121,1.121,0,0,1,.562,1.12v3.1c-1.063.12-2.156,0.21-3.281,0.28a4.461,4.461,0,0,1-1.688-.28c-0.562-.19-0.688-0.1-0.375.28,0.938,0.81,1.562,1.15,1.875,1.03a29.767,29.767,0,0,1,3.469-.56v3.28q-1.876.18-2.906,0.18-0.657-.09-1.031-0.18c-0.314-.13-0.375-0.03-0.188.28a2.307,2.307,0,0,0,2.156.84,41.92,41.92,0,0,1,4.219-.56q1.218-.09,2.438-0.09,1.125,0,.375-0.66a2.519,2.519,0,0,0-1.407-.38,18.61,18.61,0,0,1-2.531.38v-3.19c0.75-.06,1.531-0.12,2.344-0.19q1.311-.09,2.437-0.09,1.03-.09-0.093-0.75a5.4,5.4,0,0,0-1.313-.37c-0.375.12-.75,0.25-1.125,0.37a14.593,14.593,0,0,1-2.25.28v-1.97a3.341,3.341,0,0,1,.188-1.22c0.375-.31.342-0.59-0.094-0.84a5.052,5.052,0,0,0-1.781-.56h0Zm4.687,11.53c-0.187.06-.438,0.12-0.75,0.19l-5.719.65c-0.313-.12-0.688-0.25-1.125-0.37-0.313-.06-0.375.03-0.187,0.28,0.562,0.75.874,2.31,0.937,4.69a1.76,1.76,0,0,0,.657,1.12c0.312,0.13.436-.09,0.375-0.65a42.583,42.583,0,0,1,4.968-.47,2.871,2.871,0,0,1,.657.09q0.749,0.09.281-.66l0.937-3.09a1.183,1.183,0,0,1,.282-0.47c0.249-.19.281-0.34,0.093-0.47a2.661,2.661,0,0,0-1.406-.84h0Zm-0.469.94c0.249,0,.343.09,0.282,0.28l-0.563,3.47c-2.125.18-3.844,0.37-5.156,0.56l-0.469-3.66Zm-10.875-12a2.244,2.244,0,0,0-1.406-.94c-0.438-.06-0.5.06-0.187,0.37a0.735,0.735,0,0,1,.093,1.04q-0.47,1.02-2.156,3.75a0.333,0.333,0,0,0-.469.18c-0.313.44-.187,0.75,0.375,0.94a5.621,5.621,0,0,1,1.782,1.41q-0.939,1.215-1.875,2.43c-0.563,0-.783.13-0.657,0.38a2.338,2.338,0,0,0,.657.75c0.187,0.25.436,0.25,0.75,0a10.326,10.326,0,0,1,1.593-.66c0.249-.06.375,0.07,0.375,0.38v4.5a9.736,9.736,0,0,1-.187,1.59,3.94,3.94,0,0,0,.375,1.13q0.468,0.93.75,0.09c0.061-.69.094-1.59,0.094-2.72v-4.31a0.987,0.987,0,0,0-.469-1.03l1.969-.75c0.249,0.44.5,0.87,0.75,1.31,0.436,0.38.687,0.28,0.75-.28a3.845,3.845,0,0,0-.657-1.78c-0.625-.5-1.188-0.94-1.687-1.31q-0.562-.375-0.281.18a13.9,13.9,0,0,1,.843,1.41l-4.125,1.03c1.25-1.44,2.438-2.87,3.563-4.31a10.83,10.83,0,0,1,1.219-1.22,0.528,0.528,0,0,0,.093-0.84,4.283,4.283,0,0,0-1.125-1.22q-0.375-.2-0.281.18a1.417,1.417,0,0,1,.188.94,2.731,2.731,0,0,1-.563,1.22q-0.562.84-1.687,2.34a8.609,8.609,0,0,0-1.594-1.68c1.5-1.82,2.437-3,2.812-3.57a1.076,1.076,0,0,1,.375-0.37c0.249-.13.249-0.31,0-0.56h0Zm-3.656,11.15c-0.375-.06-0.407.07-0.094,0.38,0.249,0.12.282,0.47,0.094,1.03a23.528,23.528,0,0,1-1.875,3.84c-0.126.32-.032,0.35,0.281,0.1a26.772,26.772,0,0,0,2.532-3.38,1.988,1.988,0,0,0,.375-0.47c0.249-.25.281-0.47,0.093-0.65a2.709,2.709,0,0,0-1.406-.85h0Zm4.688-.28c-0.251-.19-0.345-0.15-0.282.1q0.845,2.25,1.407,3.84,0.468,0.84.75,0a4.465,4.465,0,0,0-.188-1.78q-0.843-1.125-1.687-2.16h0Zm5.156,12.94a11.35,11.35,0,0,1,1.125,2.44l-3.375.66a6.934,6.934,0,0,0-.094-1.41,2.179,2.179,0,0,0-.375-0.47c0.875-.37,1.781-0.78,2.719-1.22h0Zm1.406,3.1c0.312,0.68.687,1.4,1.125,2.15q-2.53.84-5.062,1.41a1.171,1.171,0,0,1,0-.66,8.9,8.9,0,0,0,.281-2.34Zm-7.312,2.15a13.6,13.6,0,0,1-1.594,5.81,8.318,8.318,0,0,0-1.875-.46c0.187-1.13.406-2.44,0.656-3.94Zm-3.844-5.15c-0.188-.07-0.251,0-0.188.18a2.035,2.035,0,0,1,.75,1.22,30.739,30.739,0,0,1-.375,4.6,10.444,10.444,0,0,1-1.781.56,1.362,1.362,0,0,1-.562-0.19c-0.188-.06-0.22.03-0.094,0.28a2.692,2.692,0,0,0,1.031,1.03,3.527,3.527,0,0,0,.469-0.28c0.249-.12.53-0.28,0.844-0.47a16.758,16.758,0,0,1-.469,3,0.787,0.787,0,0,0-.188.57,0.72,0.72,0,0,0,.188.65h0.562a3.147,3.147,0,0,1,1.688.47,7.909,7.909,0,0,1-3.938,3c-0.063.13,0,.19,0.188,0.19a7.916,7.916,0,0,0,4.406-2.72,6.625,6.625,0,0,1,1.781,2.06c0.687,0.56,1.062.41,1.125-.47a5.444,5.444,0,0,0-1.031-1.4,4.531,4.531,0,0,0-1.406-.94,11.122,11.122,0,0,0,1.125-2.44,22.165,22.165,0,0,0,.75-4.31l1.406-.75c0.062-.19,0-0.25-0.187-0.19l-1.219.56a1.75,1.75,0,0,0,.094-0.56,0.485,0.485,0,0,0-.188-0.75,2.56,2.56,0,0,0-1.219-.84c-0.375-.06-0.438.03-0.187,0.28a5.049,5.049,0,0,1,.469.75,6.925,6.925,0,0,1,0,1.59l-2.719,1.03c0.187-1.06.343-2.18,0.469-3.37a4.7,4.7,0,0,1,.281-0.66,1.1,1.1,0,0,0-.656-1.12,3.978,3.978,0,0,0-1.219-.56h0Zm13.687,12.18v2.72c-0.75,0-1.5.03-2.25,0.1a18.238,18.238,0,0,0-2.531.37v-2.53a31.247,31.247,0,0,1,4.781-.66h0Zm-0.281-3.75c-0.313.13-.532,0.22-0.656,0.28l-4.313.75c-0.375-.12-0.719-0.21-1.031-0.28-0.187-.06-0.25,0-0.187.19a2.069,2.069,0,0,1,.75,1.31v3.75a2.158,2.158,0,0,1-.094.66,2.137,2.137,0,0,0,.094,1.03,0.479,0.479,0,0,0,.468.47,0.59,0.59,0,0,0,.469-0.47c1.688-.25,2.78-0.4,3.281-0.47a6.272,6.272,0,0,1,1.5,0q0,0.75.375,0.75a0.431,0.431,0,0,0,.469-0.28q0.093-2.43.188-6a2.261,2.261,0,0,1,.281-0.56q0.186-.285-0.563-0.66a6.2,6.2,0,0,0-1.031-.47h0Zm-2.906-10.78c-0.188,0-.251.07-0.188,0.19a0.6,0.6,0,0,1,.375.56q0,0.285-4.031,2.44c-0.313-.12-0.562-0.22-0.75-0.28s-0.25,0-.187.19a6.462,6.462,0,0,1,.843,1.12,5.643,5.643,0,0,1,.094,1.22,10.4,10.4,0,0,1-.281,2.91,2.051,2.051,0,0,0-.188,1.12,1.432,1.432,0,0,0,.563,1.03,2.209,2.209,0,0,0,.844-0.47l4.875-2.25a9.833,9.833,0,0,0,2.625,2.72,3.67,3.67,0,0,0,1.968.66,0.339,0.339,0,0,0,.375-0.47,1.759,1.759,0,0,0-.562-0.75,0.9,0.9,0,0,1-.188-0.66v-2.06c-0.063-.12-0.126-0.12-0.187,0a12.482,12.482,0,0,1-.563,1.88,0.382,0.382,0,0,1-.375.18,2.8,2.8,0,0,1-1.687-1.03,11.321,11.321,0,0,1-1.969-3.09c0.687-.13,1.374-0.25,2.063-0.38a5.511,5.511,0,0,0,1.5-.28c0.249-.12.281-0.28,0.093-0.47a8.006,8.006,0,0,0-1.312-.28,2.95,2.95,0,0,0-.563.28,11.421,11.421,0,0,1-2.062.47,13.78,13.78,0,0,0-1.219-2.53,6.184,6.184,0,0,1,1.031-.37,7.359,7.359,0,0,0,.844-0.29c0.5-.18.593-0.4,0.281-0.65a6.449,6.449,0,0,0-2.062-.66h0Zm2.719,11.72c0.312,0,.468.09,0.468,0.28v1.88c-2.125.25-3.719,0.44-4.781,0.56v-0.84a2.906,2.906,0,0,0-.187-1.22,45.377,45.377,0,0,1,4.5-.66h0Zm-7.032,20.74a8.447,8.447,0,0,0-.75.47q-1.687.465-3.281,0.84a2.964,2.964,0,0,1-2.156-.66c-0.251-.18-0.314-0.12-0.188.19,1,1.13,1.749,1.57,2.25,1.31a9.242,9.242,0,0,1,1.125-.28,3.308,3.308,0,0,1,.375,1.78v1.88l-2.812.66a2.049,2.049,0,0,1-2.156-.47c-0.251-.25-0.345-0.16-0.282.28a3.627,3.627,0,0,0,1.219,1.78,0.6,0.6,0,0,0,.844-0.19,24.456,24.456,0,0,1,4.125-1.59c1.374-.56,2.874-1.16,4.5-1.78,0.312-.19.281-0.28-0.094-0.28l-4.406,1.31v-1.5a3.911,3.911,0,0,1,.094-0.94,0.939,0.939,0,0,0-.469-1.22c1-.25,1.906-0.43,2.719-0.56s0.968-.38.468-0.75a2.462,2.462,0,0,0-1.125-.28h0Zm-0.281-9.85c-0.25,0-.281.1-0.094,0.29a4.562,4.562,0,0,1,1.782,1.59c0.312,1.12.656,2.31,1.031,3.56q-5.534.75-7.875,1.22a3.19,3.19,0,0,1-1.781-.56c-0.375-.19-0.469-0.1-0.282.28q1.313,1.59,1.875,1.41c0.188-.07.563-0.19,1.125-0.38,0.812-.19,1.625-0.34,2.438-0.47l4.687-.75a38.451,38.451,0,0,0,3.938,9c1.561,2.44,2.749,3.81,3.562,4.13a0.421,0.421,0,0,0,.563-0.47,4.518,4.518,0,0,1-.375-1.22,13.313,13.313,0,0,1,.656-4.22q0.093-.465-0.187-0.09l-1.313,3.09c-0.126.31-.313,0.35-0.562,0.09a17.069,17.069,0,0,1-3-4.31,28.751,28.751,0,0,1-2.344-6.09,20.935,20.935,0,0,1,5.719-.28c0.874-.06.968-0.35,0.281-0.85a5.932,5.932,0,0,0-1.688-.47c-0.313.13-.656,0.26-1.031,0.38-1,.13-2.156.28-3.469,0.47a10.918,10.918,0,0,1-.562-2.53,4.149,4.149,0,0,1,.094-1.22c0.187-.38-0.22-0.75-1.219-1.13a6.65,6.65,0,0,0-1.969-.47h0Zm6.563,0.29c-0.5-.13-0.532-0.03-0.094.28a15,15,0,0,1,2.344,2.25c0.375,0.18.562,0.06,0.562-.38a1.5,1.5,0,0,0-.469-1.31,5.437,5.437,0,0,0-2.343-.84h0Z" transform="translate(-555.75 -2665.97)"/>
</svg>
