<svg id="youtube_ttl" xmlns="http://www.w3.org/2000/svg" xmlns:xlink="http://www.w3.org/1999/xlink" width="437" height="59" viewBox="0 0 437 59">
  <defs>
    <style>
      .cls-1 {
        fill: #fff;
        fill-rule: evenodd;
        filter: url(#filter);
      }
    </style>
    <filter id="filter" x="924" y="2482" width="437" height="59" filterUnits="userSpaceOnUse">
      <feOffset result="offset" dy="1" in="SourceAlpha"/>
      <feGaussianBlur result="blur" stdDeviation="3.317"/>
      <feFlood result="flood" flood-color="#00141f"/>
      <feComposite result="composite" operator="in" in2="blur"/>
      <feBlend result="blend" in="SourceGraphic"/>
    </filter>
  </defs>
  <path id="明治神宮公式チャンネル" class="cls-1" d="M962.746,2495.55a5.381,5.381,0,0,1-1.406.47q-4.22.93-7.657,1.4a8.048,8.048,0,0,0-2.5-.78c-0.522-.1-0.625,0-0.312.32a2.866,2.866,0,0,1,1.406,1.87q0.154,1.1.156,5.94a39.071,39.071,0,0,1-1.406,11.4,25.7,25.7,0,0,1-5.156,8.91c-0.21.42-.105,0.52,0.312,0.31a27.012,27.012,0,0,0,4.532-5.15,23.093,23.093,0,0,0,2.968-7.66q3.124-.15,9.219-0.94,0.154,5.475.156,10.78c0,0.53-.312.68-0.937,0.47-1.25-.31-2.554-0.67-3.906-1.09-0.418-.21-0.523-0.1-0.313.31q2.029,1.26,3.906,2.35a3.006,3.006,0,0,1,1.094,1.4c0.208,0.63.52,0.73,0.938,0.31a18.707,18.707,0,0,0,1.406-2.5,10.753,10.753,0,0,1-.313-2.65q-0.468-10.005-.156-21.41a2.537,2.537,0,0,1,.469-1.56,0.51,0.51,0,0,0,0-.94,17.239,17.239,0,0,0-2.5-1.56h0Zm0.156,8.91v5.78c-2.292.41-5.312,0.78-9.062,1.09a47.024,47.024,0,0,0,.312-5.47,44.253,44.253,0,0,1,8.75-1.4h0Zm-0.781-7.19a0.631,0.631,0,0,1,.781.62v5.32a3.3,3.3,0,0,0-1.094-.16c-0.522.1-1.406,0.31-2.656,0.62-1.562.32-3.23,0.58-5,.79v-5.94h0.938c2.395-.42,4.738-0.83,7.031-1.25h0Zm-16.406,8.9v5.63h-0.782c-1.772.42-3.593,0.83-5.468,1.25q0-2.97-.157-5.94a1.646,1.646,0,0,0,1.407,0c1.25-.31,2.915-0.62,5-0.94h0Zm-0.157-8.43a6.969,6.969,0,0,1-1.25.62c-1.772.42-3.593,0.78-5.468,1.1a8.393,8.393,0,0,0-1.719-.79c-0.418-.2-0.523-0.1-0.313.32a1.955,1.955,0,0,1,.625,1.09,7.545,7.545,0,0,1,.313,2.34q0.153,5.16,0,11.1c0,1.77.364,2.65,1.094,2.65,0.52-.1.727-0.78,0.625-2.03,1.977-.41,3.957-0.78,5.937-1.09a6.545,6.545,0,0,0,.938.62,0.679,0.679,0,0,0,.937-0.15,4.983,4.983,0,0,0,.156-2.19q-0.158-10.62.469-11.25a0.688,0.688,0,0,0-.156-1.09,8.065,8.065,0,0,0-2.188-1.25h0Zm-0.625,1.56a0.632,0.632,0,0,1,.782.62v5q-3.128.63-6.407,1.25v-5.62a48.053,48.053,0,0,1,5.625-1.25h0Zm36.125,13.12a107.026,107.026,0,0,1-5.781,9.22,0.89,0.89,0,0,1-1.406-.15c-0.625-.52-0.835-0.42-0.625.31a6.962,6.962,0,0,0,1.406,2.19,7.243,7.243,0,0,0,1.094.93c0.727,0.63,1.145.47,1.25-.46a7.088,7.088,0,0,1,.625-2.35q2.028-4.53,3.75-9.37c0.1-.52,0-0.63-0.313-0.32h0Zm11.719-16.87q-1.1-.15-0.156.78a1.539,1.539,0,0,1,.469,1.88,75.372,75.372,0,0,1-5.625,9.53c-0.313.1-.679,0.21-1.094,0.31q-0.627,0-.156,2.34,0.31,0.63,1.25,0a7.468,7.468,0,0,1,2.187-.93q8.749-2.355,12.658-2.5c0.31,0.62.62,1.25,0.94,1.87,0.83,1.04,1.45.94,1.87-.31a7.115,7.115,0,0,0-1.41-3.13,31.727,31.727,0,0,0-4.37-3.43q-0.47-.315-0.313.15a27.551,27.551,0,0,1,2.653,3.75,102.725,102.725,0,0,0-12.965,2.03q3.435-4.365,6.562-8.9a5.133,5.133,0,0,1,.781-0.63c0.313-.21.259-0.57-0.156-1.09a9.539,9.539,0,0,0-3.125-1.72h0Zm7.813,19.84c0.62,0,.94.21,0.94,0.63l-0.78,6.09a67.486,67.486,0,0,0-10.629.63,24.693,24.693,0,0,0-.469-6.1,84.385,84.385,0,0,1,10.938-1.25h0Zm1.56-1.72c-0.21.11-.52,0.27-0.94,0.47q-6.245.48-11.87,1.25-1.1-.465-2.032-0.78c-0.522-.21-0.678-0.05-0.468.47a6.962,6.962,0,0,1,1.25,2.66,17.686,17.686,0,0,1,.312,5.62,3.467,3.467,0,0,0,.625,1.41,0.611,0.611,0,0,0,1.094-.16,1.219,1.219,0,0,0,.156-0.47,48.824,48.824,0,0,1,10.153-.78,0.632,0.632,0,0,0,.63.78,1.185,1.185,0,0,0,1.4-1.09l1.25-5.78a1.573,1.573,0,0,1,.63-0.78,0.783,0.783,0,0,0,0-1.25,7.278,7.278,0,0,0-2.19-1.57h0Zm-24.529-17.65c-0.625-.21-0.781-0.05-0.469.47a21.4,21.4,0,0,0,2.969,3.43,3.6,3.6,0,0,0,1.875,1.1c0.415,0,.625-0.31.625-0.94a3.252,3.252,0,0,0-.938-2.03,8.3,8.3,0,0,1-4.062-2.03h0Zm-2.813,8.44c-0.625-.42-0.781-0.32-0.468.31a12.3,12.3,0,0,0,2.968,3.12,2.514,2.514,0,0,0,1.875.47c0.833-.62.52-1.51-0.937-2.65a7.491,7.491,0,0,1-3.438-1.25h0Zm58.152-1.57v3.91l-3.9.62h-1.1c-0.21-2.18-.31-3.48-0.31-3.9Zm-1.71-8.28c-0.42.11-.42,0.26,0,0.47a9.9,9.9,0,0,1,1.25.94,1.559,1.559,0,0,1,.31,1.09v4.69l-5.63.62a3.754,3.754,0,0,0-2.18-.78c-0.42,0-.53.16-0.32,0.47a1.835,1.835,0,0,1,1.1,1.25q0.465,5.475.47,7.97c0.1,1.98.57,3.23,1.4,3.75a1.165,1.165,0,0,0,.94-1.09l4.37-.47v11.56a1.658,1.658,0,0,0,.79,1.56c0.41,0,.67-0.57.78-1.72v-3.28c0-1.97.05-4.79,0.15-8.43,1.46-.11,2.82-0.16,4.07-0.16a2.1,2.1,0,0,0,1.25,1.09,1.261,1.261,0,0,0,.93-0.78c0.11-.62.32-1.82,0.63-3.59q0.465-2.82.94-6.25a0.9,0.9,0,0,1,.31-0.63q0.78-.3-0.63-1.56a4.933,4.933,0,0,0-1.25-.94,0.9,0.9,0,0,0-.62.32l-5.47.78v-4.07a1.669,1.669,0,0,1,.16-0.78q0.615-.78-0.63-1.56a4.357,4.357,0,0,0-3.12-.47h0Zm8.43,7.5a0.557,0.557,0,0,1,.63.63l-0.16,3.59a2.873,2.873,0,0,0-1.72-.62,14.8,14.8,0,0,1-3.59.78v-3.91Zm-2.18,5.31h2.5c-0.11,1.25-.21,2.66-0.32,4.22a3.59,3.59,0,0,1-1.09-.15l-0.78.31-3.13.31,0.16-4.37Zm-4.54.63v4.37l-4.53.47-0.31-4.37h0.94Zm-11.56-5.94c-0.42-.1-0.62,0-0.62.31a7.474,7.474,0,0,1-2.03.79c-1.88.41-3.65,0.73-5.32,0.93a1.808,1.808,0,0,1-1.56-.62c-0.31-.21-0.47-0.16-0.47.15a1.9,1.9,0,0,0,.47.94,3.979,3.979,0,0,0,2.03,1.25q2.505-.93,5.94-2.03a0.436,0.436,0,0,1,.47.63,53.873,53.873,0,0,1-4.53,7.03,30.258,30.258,0,0,1-5.16,5.15c-0.21.32-.1,0.42,0.31,0.32a31.149,31.149,0,0,0,3.13-2.5q0.93-.78,3.75-3.6l0.31,0.31v4.54a32.14,32.14,0,0,1-.31,4.84c-0.11.62-.21,1.2-0.31,1.72a8.542,8.542,0,0,0,1.09,3.28c0.41,0.41.73,0.31,0.94-.31a14.12,14.12,0,0,0,.15-2.19v-13.28c0.32-.21.21-0.47-0.31-0.78a48.136,48.136,0,0,0,3.28-4.53,1.343,1.343,0,0,0,.78-0.79c-0.41-.31-1.09-0.83-2.03-1.56h0Zm-4.69-7.34c-0.31-.21-0.41-0.1-0.31.31a10.749,10.749,0,0,0,4.38,4.53c0.93,0.31,1.3-.15,1.09-1.4a1.819,1.819,0,0,0-1.09-1.25,17.262,17.262,0,0,1-4.07-2.19h0Zm4.38,14.37c-0.31-.1-0.42,0-0.31.32,1.25,1.66,2.29,3.07,3.12,4.21a1,1,0,0,0,1.1.47c0.31-.1.41-0.47,0.31-1.09a5.027,5.027,0,0,0-.78-1.88,3.271,3.271,0,0,0-1.25-.93,7.042,7.042,0,0,1-2.19-1.1h0Zm42.22-15.15c-0.42,0-.47.15-0.16,0.47a2.109,2.109,0,0,1,1.25,1.56v2.65l-7.81.79h-2.34l-0.47-1.57c-0.32-.31-0.47-0.26-0.47.16a12.113,12.113,0,0,1-.16,2.19,7.318,7.318,0,0,1-2.03,2.97c0,1.46.21,2.29,0.63,2.5a1.064,1.064,0,0,0,1.4-.79,7.433,7.433,0,0,0,1.25-4.21h1.72c3.13-.32,6.2-0.68,9.22-1.1q5-.465,11.09-0.47c0.84,0.11.99,0.42,0.47,0.94l-1.87,2.81c-0.21.42-.11,0.53,0.31,0.32l3.12-2.04a2.833,2.833,0,0,1,1.88-.31,0.431,0.431,0,0,0,.47-0.62,6.013,6.013,0,0,0-2.66-2.82h-0.62q-4.38.48-11.25,1.1v-1.72a0.907,0.907,0,0,1,.47-0.78c0.31-.21.2-0.57-0.32-1.1a5.489,5.489,0,0,0-3.12-.93h0Zm7.65,8.9a12.967,12.967,0,0,0-2.65.78c-2.5.32-4.17,0.53-5,.63s-1.93.21-3.28,0.31a9.976,9.976,0,0,0-1.88-.62c-0.42-.21-0.52-0.11-0.31.31a5.864,5.864,0,0,1,1.09,1.87l0.47,4.22a2.471,2.471,0,0,0,.94,1.57c0.31,0.21.57,0.05,0.78-.47l1.72-.16a1.888,1.888,0,0,1,.47,1.41,22.622,22.622,0,0,1-.94,3.28l-4.22.31a4.709,4.709,0,0,0-2.34-.62c-0.42,0-.42.15,0,0.46a2.8,2.8,0,0,1,1.25,1.72l1.09,6.72c0.42,0.83.83,1.04,1.25,0.63a1.922,1.922,0,0,0,.47-0.78q3.9-.63,5.63-0.79,1.56-.15,3.75-0.15a11.141,11.141,0,0,1,1.87.31,0.761,0.761,0,0,0,.78-0.16,2.188,2.188,0,0,0,.16-0.93l1.72-4.69a1.649,1.649,0,0,1,.78-0.63c0.41-.31.31-0.78-0.31-1.4a6.8,6.8,0,0,0-1.72-1.25,13.2,13.2,0,0,0-2.5.31l-6.72.78c0.83-1.25,1.4-2.19,1.72-2.81l0.78-.78a0.394,0.394,0,0,0,0-.63,3.9,3.9,0,0,0-.94-0.62l3.44-.78a2.33,2.33,0,0,0,1.25.62,0.616,0.616,0,0,0,.62-0.31,4.76,4.76,0,0,0,.32-0.94c0.62-1.35,1.19-2.71,1.71-4.06a1.872,1.872,0,0,1,.63-0.63c0.31-.2.1-0.57-0.63-1.09a4.933,4.933,0,0,0-1.25-.94h0Zm0,13.28c0.63,0,.89.21,0.79,0.63l-1.1,5.47-1.25-.16c-3.33.42-6.61,0.78-9.84,1.1l-0.94-5.63q4.38-.315,12.34-1.41h0Zm-1.25-11.71c0.42,0,.58.26,0.47,0.78a34.093,34.093,0,0,1-1.09,3.9,2.372,2.372,0,0,1-.94-0.31,8.117,8.117,0,0,1-1.09.47,35.467,35.467,0,0,1-5.94.94l-0.78-4.53,1.87-.16,6.25-.94Zm29.88,3.12c-0.31,0-.42.11-0.31,0.31a2.177,2.177,0,0,1,.78,1.41,1.341,1.341,0,0,1-.16.47q-1.1,2.34-6.4,10.62a3.355,3.355,0,0,1-1.1.16,1.632,1.632,0,0,0,.16,1.25c0.52,1.04.99,1.56,1.4,1.56a7.252,7.252,0,0,0,.79-0.47q2.175-.615,15.31-2.97l1.72,3.6a1.587,1.587,0,0,0,.78.62c0.73,0.21,1.09-.31,1.09-1.56a9.137,9.137,0,0,0-1.56-4.06,60.015,60.015,0,0,0-5.94-4.69c-0.42-.21-0.52-0.1-0.31.31a20.672,20.672,0,0,1,3.75,5.16q-6.09.63-9.84,1.09c-2.61.21-4.43,0.32-5.47,0.32l6.87-9.07a10.12,10.12,0,0,1,1.25-.93,0.7,0.7,0,0,0,.16-1.1c-1.04-1.35-2.03-2.03-2.97-2.03h0Zm4.84-10.94a1.929,1.929,0,0,0-1.09-.47,2.694,2.694,0,0,0-1.09.16q-0.48.315,0.15,0.63a2.828,2.828,0,0,1,1.1.15,4.492,4.492,0,0,1,1.4,1.41l8.13,9.69a5.071,5.071,0,0,0,2.97.62l3.9,0.16a0.208,0.208,0,0,0,0-.32,58.607,58.607,0,0,1-8.75-5.62q-2.805-2.505-6.72-6.41h0Zm-9.22,1.72c-0.41-.1-0.52,0-0.31.31a5.615,5.615,0,0,1,1.1,1.1q-0.165,1.41-3.13,4.06a72.332,72.332,0,0,1-6.09,4.84c-0.21.42-.11,0.53,0.31,0.32a38.537,38.537,0,0,0,11.09-7.5q0.78-.165.63-0.78a4.779,4.779,0,0,0-3.6-2.35h0Zm43.63,12.19a14.689,14.689,0,0,0-1.25.78q-2.82.78-5.47,1.41c-0.94.21-2.14-.16-3.59-1.1-0.42-.31-0.53-0.2-0.32.32q2.505,2.8,3.75,2.18a14.352,14.352,0,0,1,1.88-.47,5.57,5.57,0,0,1,.62,2.97v3.13c-1.77.42-3.33,0.78-4.68,1.09a3.407,3.407,0,0,1-3.6-.78c-0.41-.41-0.57-0.26-0.47.47a6.066,6.066,0,0,0,2.04,2.97,1,1,0,0,0,1.4-.31c0.31-.32,2.6-1.2,6.88-2.66q3.435-1.41,7.5-2.97c0.52-.31.47-0.47-0.16-0.47l-7.34,2.19v-2.5a6.744,6.744,0,0,1,.15-1.56,1.548,1.548,0,0,0-.78-2.03c1.67-.42,3.18-0.73,4.53-0.94s1.62-.63.78-1.25a4.175,4.175,0,0,0-1.87-.47h0Zm-0.47-16.41c-0.42,0-.47.16-0.16,0.47a7.58,7.58,0,0,1,2.97,2.66c0.52,1.87,1.1,3.85,1.72,5.94q-9.225,1.245-13.12,2.03a5.3,5.3,0,0,1-2.97-.94c-0.63-.31-0.78-0.16-0.47.47q2.19,2.655,3.12,2.34c0.32-.1.94-0.31,1.88-0.62,1.35-.32,2.71-0.57,4.06-0.78,2.6-.42,5.21-0.84,7.81-1.25a64.071,64.071,0,0,0,6.57,15q3.9,6.09,5.93,6.87a0.7,0.7,0,0,0,.94-0.78,7.34,7.34,0,0,1-.62-2.03,22.112,22.112,0,0,1,1.09-7.03c0.1-.52,0-0.57-0.31-0.16l-2.19,5.16c-0.21.52-.52,0.57-0.94,0.15a29.037,29.037,0,0,1-5-7.18,48.266,48.266,0,0,1-3.9-10.16,35.312,35.312,0,0,1,9.53-.47c1.46-.1,1.61-0.57.47-1.41a9.919,9.919,0,0,0-2.82-.78q-0.78.315-1.71,0.63-2.505.315-5.79,0.78a18.1,18.1,0,0,1-.93-4.22,7.3,7.3,0,0,1,.15-2.03c0.32-.63-0.36-1.25-2.03-1.88a10.927,10.927,0,0,0-3.28-.78h0Zm10.94,0.47c-0.84-.21-0.89-0.05-0.16.47a24.545,24.545,0,0,1,3.91,3.75c0.62,0.31.94,0.11,0.94-.62a2.515,2.515,0,0,0-.79-2.19,9.178,9.178,0,0,0-3.9-1.41h0Zm33.78,1.1c-0.42-.21-0.52-0.11-0.31.31a1.362,1.362,0,0,1,.62,1.09q-1.1,1.26-5.15,3.13a67.086,67.086,0,0,1-8.75,3.28c-0.32.31-.27,0.47,0.15,0.47q4.065-.945,8.44-2.35a3.2,3.2,0,0,1,1.56,2.66v3.44q-6.4,1.1-12.34,2.18a12.847,12.847,0,0,1-1.88.16c-0.41,0-.52.11-0.31,0.31a6.853,6.853,0,0,0,2.34,1.41c0.84-.31,1.77-0.63,2.82-0.94a81.047,81.047,0,0,1,9.37-1.87,30.707,30.707,0,0,1-1.72,8.9,24.405,24.405,0,0,1-4.06,7.19c-0.21.42-.1,0.52,0.31,0.31a26.95,26.95,0,0,0,5-6.87,27.657,27.657,0,0,0,2.19-9.69c2.92-.31,5.05-0.47,6.41-0.47a43.687,43.687,0,0,1,4.84.31c0.63-.1.78-0.41,0.47-0.93a8.151,8.151,0,0,0-3.44-1.57l-1.09.32c-2.5.31-4.85,0.62-7.03,0.93v-3.28a3.014,3.014,0,0,1,.15-0.93c0-.32-0.93-0.94-2.81-1.88q3.285-1.245,6.72-2.66c1.14-.1,1.35-0.41.62-0.93a28.584,28.584,0,0,0-3.12-2.03h0Zm29.56,10.31a1.931,1.931,0,0,0-1.09,0c-0.21.1-.21,0.26,0,0.47a2.33,2.33,0,0,1,1.4,1.4l1.57,5-4.53,1.57a4.771,4.771,0,0,1-2.66.15c-0.42,0-.47.16-0.16,0.47a5.5,5.5,0,0,0,2.35,1.25,10.582,10.582,0,0,0,1.09-.62l4.22-1.72,2.19,7.34a7.533,7.533,0,0,1,.15,1.41,3.6,3.6,0,0,0,1.41,1.72c0.73,0.52,1.04.36,0.94-.47q-1.26-3.915-3.44-10.47,4.215-1.56,7.81-2.81c0.63-.32.73-0.16,0.31,0.46a28,28,0,0,1-2.96,4.22c-0.21.42-.11,0.53,0.31,0.32,0.41-.32,1.09-0.89,2.03-1.72,0.62-.63,1.56-1.57,2.81-2.82,0.63-.1.83-0.31,0.63-0.62l-1.57-1.25a1.318,1.318,0,0,0-1.4.31q-5.625,1.875-8.28,2.81l-1.1-4.21a4.262,4.262,0,0,1-.15-1.25c0-.32-0.63-0.63-1.88-0.94h0Zm55.35-2.97a59.943,59.943,0,0,1-9.69,10.62,41.934,41.934,0,0,1-10.16,6.57c-0.73.31-1.4-.05-2.03-1.1-0.42-.2-0.52-0.05-0.31.47a8.419,8.419,0,0,0,.47,1.56,6.175,6.175,0,0,0,1.56,1.88c0.41,0.42.73,0.42,0.94,0l0.47-.63a56.1,56.1,0,0,0,10.31-7.96,65.421,65.421,0,0,0,8.75-10.94c0.21-.52.1-0.68-0.31-0.47h0Zm-22.66-3.75c-0.52-.21-0.68-0.1-0.47.31q2.655,2.19,5.63,4.22a3.42,3.42,0,0,0,1.56.78,0.558,0.558,0,0,0,.62-0.78,2.219,2.219,0,0,0-1.25-2.03c-1.66-.63-3.7-1.46-6.09-2.5h0Zm53.47,0.78a3.271,3.271,0,0,0-.78.63q-7.35,2.19-10,2.81a24.461,24.461,0,0,1-4.38.47c-0.42,0-.47.15-0.15,0.47a7.787,7.787,0,0,0,2.03,1.09c0.41-.1.93-0.26,1.56-0.47q5.16-1.56,10.16-3.12c0.41-.11.52,0,0.31,0.31a57.437,57.437,0,0,1-17.81,15c-0.32.52-.21,0.68,0.31,0.47,2.91-1.46,5.05-2.61,6.4-3.44a63.218,63.218,0,0,0,5.79-4.06l0.31,1.09q-0.315,9.375-.63,12.19a5.489,5.489,0,0,0,.32,1.72c0.52,0.93.98,1.3,1.4,1.09a0.794,0.794,0,0,0,.31-0.78v-12.66a7.3,7.3,0,0,1,.16-1.25,6.482,6.482,0,0,0-1.25-1.87,85.537,85.537,0,0,0,7.5-7.5,2.343,2.343,0,0,1,.63-0.47q0.465-.315,0-0.63a9.434,9.434,0,0,0-2.19-1.09h0Zm5.31,13.75a69.222,69.222,0,0,1-7.97-3.59c-0.42-.21-0.52-0.05-0.31.47l8.91,6.25a1.436,1.436,0,0,0,1.25.46,0.584,0.584,0,0,0,.46-0.93,10.183,10.183,0,0,0-2.34-2.66h0Zm-10.94-17.66-4.22-2.18c-0.41-.21-0.52-0.11-0.31.31,2.29,2.5,3.6,3.91,3.91,4.22,0.83,0.83,1.51,1.2,2.03,1.09,0.31-.1.36-0.57,0.16-1.4a4.018,4.018,0,0,0-1.57-2.04h0Zm38,0.79c-0.41,0-.47.15-0.15,0.46a1.981,1.981,0,0,1,.93,1.72v20.16c-0.1.21-.31,0.62-0.62,1.25a3.475,3.475,0,0,0,.31,1.09,10.35,10.35,0,0,0,.63,1.41c0.2,0.31.47,0.21,0.78-.31a46.864,46.864,0,0,0,7.81-5.94,33.008,33.008,0,0,0,6.25-8.59c0-.42-0.1-0.52-0.31-0.32q-5.475,8.445-12.66,11.88a0.448,0.448,0,0,1-.62-0.16,5.112,5.112,0,0,1-.16-1.72q0-4.995.47-17.34a2.9,2.9,0,0,1,.31-1.56c0.21-.21.05-0.52-0.47-0.94a4.843,4.843,0,0,0-2.5-1.09h0Zm-8.28,3.9c-0.52-.21-0.68-0.1-0.47.31a2.375,2.375,0,0,1,.94,1.88,33.829,33.829,0,0,1-6.56,19.06c-0.21.52-.11,0.68,0.31,0.47a32.83,32.83,0,0,0,7.97-17.03l0.31-1.72a1.152,1.152,0,0,0,.16-1.25,7.88,7.88,0,0,0-2.66-1.72h0Z" transform="translate(-924 -2482)"/>
</svg>
